%TF.GenerationSoftware,KiCad,Pcbnew,9.0.3*%
%TF.CreationDate,2025-09-06T00:14:13-07:00*%
%TF.ProjectId,business_card,62757369-6e65-4737-935f-636172642e6b,1.0*%
%TF.SameCoordinates,Original*%
%TF.FileFunction,Copper,L2,Inr*%
%TF.FilePolarity,Positive*%
%FSLAX46Y46*%
G04 Gerber Fmt 4.6, Leading zero omitted, Abs format (unit mm)*
G04 Created by KiCad (PCBNEW 9.0.3) date 2025-09-06 00:14:13*
%MOMM*%
%LPD*%
G01*
G04 APERTURE LIST*
%TA.AperFunction,HeatsinkPad*%
%ADD10O,1.800000X1.000000*%
%TD*%
%TA.AperFunction,HeatsinkPad*%
%ADD11O,2.100000X1.000000*%
%TD*%
%TA.AperFunction,ViaPad*%
%ADD12C,0.600000*%
%TD*%
%TA.AperFunction,ViaPad*%
%ADD13C,0.700000*%
%TD*%
G04 APERTURE END LIST*
D10*
%TO.N,GND*%
%TO.C,J1*%
X178400000Y-79332500D03*
D11*
X182580000Y-79332500D03*
D10*
X178400000Y-70692500D03*
D11*
X182580000Y-70692500D03*
%TD*%
D12*
%TO.N,GND*%
X197075000Y-76227500D03*
X196781800Y-72957245D03*
X201865000Y-73712500D03*
X201165000Y-78962500D03*
D13*
X194500000Y-68725000D03*
X259950000Y-79925000D03*
D12*
X215165000Y-80507500D03*
X189780000Y-76212500D03*
X185515000Y-69907500D03*
X214365000Y-80512500D03*
X184115000Y-71812500D03*
D13*
X256500000Y-69325000D03*
X199550000Y-68725000D03*
D12*
X204350000Y-81852500D03*
D13*
X176450000Y-78975000D03*
D12*
X179465000Y-80712500D03*
D13*
X258850000Y-99425000D03*
D12*
X192082500Y-77050000D03*
D13*
X192850000Y-95425000D03*
X219050000Y-99425000D03*
D12*
X194815000Y-70362500D03*
D13*
X249250000Y-99425000D03*
X214550000Y-99425000D03*
D12*
X189795000Y-75062500D03*
D13*
X234450000Y-69325000D03*
D12*
X211115000Y-79812500D03*
D13*
X236150000Y-99425000D03*
X223350000Y-99425000D03*
X210200000Y-85325000D03*
X186550000Y-85325000D03*
D12*
X198850000Y-69525000D03*
D13*
X259950000Y-69325000D03*
X215250000Y-85325000D03*
X220300000Y-85325000D03*
X181750000Y-99425000D03*
X186650000Y-99425000D03*
D12*
X186365000Y-69312500D03*
X189780000Y-72462500D03*
X213665000Y-77257500D03*
D13*
X176450000Y-85325000D03*
X225350000Y-85325000D03*
X177250000Y-99425000D03*
D12*
X192062500Y-76297078D03*
D13*
X229900000Y-79875000D03*
D12*
X217015000Y-68712500D03*
D13*
X176450000Y-73925000D03*
X259950000Y-73875000D03*
X240500000Y-69325000D03*
D12*
X194050000Y-80725000D03*
D13*
X245900000Y-69325000D03*
D12*
X217065000Y-75762500D03*
D13*
X254350000Y-99425000D03*
D12*
X187000000Y-80925000D03*
X219565000Y-81462500D03*
D13*
X205150000Y-85325000D03*
D12*
X207815000Y-79812500D03*
D13*
X190750000Y-99425000D03*
D12*
X186852500Y-75962500D03*
D13*
X239650000Y-99425000D03*
X198650000Y-95425000D03*
X189950000Y-89425000D03*
X229900000Y-69275000D03*
X231650000Y-99425000D03*
D12*
X193865000Y-71012500D03*
D13*
X229900000Y-85275000D03*
X176450000Y-68875000D03*
X204150000Y-70725000D03*
X251950000Y-69325000D03*
X229900000Y-73825000D03*
D12*
X184691105Y-74331502D03*
D13*
X195250000Y-99425000D03*
D12*
X202467500Y-81410000D03*
D13*
X244150000Y-99425000D03*
X259950000Y-85325000D03*
D12*
X208545000Y-75662500D03*
X192915000Y-74607246D03*
D13*
X205550000Y-99425000D03*
X201150000Y-99425000D03*
D12*
X184165000Y-78212500D03*
X214911601Y-68804820D03*
X204250000Y-80525000D03*
D13*
X227850000Y-99425000D03*
D12*
X179450000Y-69325000D03*
X201350000Y-69625000D03*
%TO.N,+3.3V*%
X203450000Y-79500000D03*
X207865000Y-81112500D03*
X213233450Y-75062500D03*
D13*
X202650000Y-70725000D03*
D12*
X191565000Y-69312500D03*
X184715000Y-69890000D03*
X207645000Y-69062500D03*
X196715000Y-70312500D03*
X211075000Y-78525000D03*
X195948658Y-77348728D03*
X184900000Y-75962500D03*
X216250000Y-71525000D03*
X193184947Y-72092553D03*
%TO.N,BTN_12*%
X198549000Y-75675000D03*
X201750000Y-81825000D03*
%TO.N,BTN_11*%
X200750000Y-81850000D03*
X198545009Y-76603219D03*
%TO.N,BTN_10*%
X198550000Y-77475000D03*
X199750000Y-81850000D03*
%TO.N,BTN_09*%
X198550000Y-78375000D03*
X198750607Y-81891261D03*
%TO.N,USB_D+*%
X189453864Y-74338877D03*
X200966769Y-75309285D03*
%TO.N,USB_D-*%
X201765000Y-75362500D03*
X189388299Y-73160049D03*
%TO.N,I2S_WS*%
X201650000Y-77225000D03*
X211115000Y-77212500D03*
%TO.N,SWD_NRST*%
X187665000Y-71762500D03*
X205153017Y-71558453D03*
X196004919Y-73266394D03*
%TD*%
%TA.AperFunction,Conductor*%
%TO.N,GND*%
G36*
X260054842Y-68225976D02*
G01*
X260176764Y-68237985D01*
X260195794Y-68241770D01*
X260201133Y-68243390D01*
X260308354Y-68275915D01*
X260326285Y-68283342D01*
X260430022Y-68338791D01*
X260446158Y-68349573D01*
X260537083Y-68424193D01*
X260550806Y-68437916D01*
X260625426Y-68528841D01*
X260636208Y-68544977D01*
X260691657Y-68648714D01*
X260699084Y-68666645D01*
X260733228Y-68779203D01*
X260737014Y-68798237D01*
X260749023Y-68920157D01*
X260749500Y-68929861D01*
X260749500Y-120920138D01*
X260749023Y-120929842D01*
X260737014Y-121051762D01*
X260733228Y-121070796D01*
X260699084Y-121183354D01*
X260691657Y-121201285D01*
X260636208Y-121305022D01*
X260625426Y-121321158D01*
X260550806Y-121412083D01*
X260537083Y-121425806D01*
X260446158Y-121500426D01*
X260430022Y-121511208D01*
X260326285Y-121566657D01*
X260308354Y-121574084D01*
X260195796Y-121608228D01*
X260176763Y-121612014D01*
X260070719Y-121622459D01*
X260054841Y-121624023D01*
X260045139Y-121624500D01*
X176454861Y-121624500D01*
X176445157Y-121624023D01*
X176323237Y-121612014D01*
X176304203Y-121608228D01*
X176191645Y-121574084D01*
X176173714Y-121566657D01*
X176069977Y-121511208D01*
X176053841Y-121500426D01*
X175962916Y-121425806D01*
X175949193Y-121412083D01*
X175874573Y-121321158D01*
X175863791Y-121305022D01*
X175808342Y-121201285D01*
X175800915Y-121183354D01*
X175766771Y-121070796D01*
X175762985Y-121051762D01*
X175750977Y-120929842D01*
X175750500Y-120920138D01*
X175750500Y-81812204D01*
X198150107Y-81812204D01*
X198150107Y-81970318D01*
X198191030Y-82123045D01*
X198270087Y-82259977D01*
X198381891Y-82371781D01*
X198518823Y-82450838D01*
X198671550Y-82491761D01*
X198671552Y-82491761D01*
X198829662Y-82491761D01*
X198829664Y-82491761D01*
X198982391Y-82450838D01*
X199119323Y-82371781D01*
X199200932Y-82290171D01*
X199255447Y-82262396D01*
X199315879Y-82271967D01*
X199340934Y-82290170D01*
X199381284Y-82330520D01*
X199518216Y-82409577D01*
X199670943Y-82450500D01*
X199670945Y-82450500D01*
X199829055Y-82450500D01*
X199829057Y-82450500D01*
X199981784Y-82409577D01*
X200118716Y-82330520D01*
X200179998Y-82269237D01*
X200234513Y-82241462D01*
X200294945Y-82251033D01*
X200320000Y-82269236D01*
X200381284Y-82330520D01*
X200518216Y-82409577D01*
X200670943Y-82450500D01*
X200670945Y-82450500D01*
X200829055Y-82450500D01*
X200829057Y-82450500D01*
X200981784Y-82409577D01*
X201118716Y-82330520D01*
X201192497Y-82256738D01*
X201247011Y-82228962D01*
X201307443Y-82238533D01*
X201332502Y-82256739D01*
X201365937Y-82290173D01*
X201381284Y-82305520D01*
X201518216Y-82384577D01*
X201670943Y-82425500D01*
X201670945Y-82425500D01*
X201829055Y-82425500D01*
X201829057Y-82425500D01*
X201981784Y-82384577D01*
X202118716Y-82305520D01*
X202230520Y-82193716D01*
X202309577Y-82056784D01*
X202350500Y-81904057D01*
X202350500Y-81745943D01*
X202309577Y-81593216D01*
X202230520Y-81456284D01*
X202118716Y-81344480D01*
X201981784Y-81265423D01*
X201829057Y-81224500D01*
X201670943Y-81224500D01*
X201518216Y-81265423D01*
X201381284Y-81344480D01*
X201307501Y-81418262D01*
X201252987Y-81446038D01*
X201192555Y-81436467D01*
X201167499Y-81418263D01*
X201118716Y-81369480D01*
X200981784Y-81290423D01*
X200829057Y-81249500D01*
X200670943Y-81249500D01*
X200518216Y-81290423D01*
X200381284Y-81369480D01*
X200320001Y-81430762D01*
X200265487Y-81458538D01*
X200205055Y-81448967D01*
X200179999Y-81430763D01*
X200118716Y-81369480D01*
X199981784Y-81290423D01*
X199829057Y-81249500D01*
X199670943Y-81249500D01*
X199518216Y-81290423D01*
X199381284Y-81369480D01*
X199299674Y-81451089D01*
X199245160Y-81478865D01*
X199184728Y-81469294D01*
X199159672Y-81451090D01*
X199119323Y-81410741D01*
X198982391Y-81331684D01*
X198829664Y-81290761D01*
X198671550Y-81290761D01*
X198518823Y-81331684D01*
X198381891Y-81410741D01*
X198270087Y-81522545D01*
X198191030Y-81659477D01*
X198150107Y-81812204D01*
X175750500Y-81812204D01*
X175750500Y-81033443D01*
X207264500Y-81033443D01*
X207264500Y-81191557D01*
X207305423Y-81344284D01*
X207384480Y-81481216D01*
X207496284Y-81593020D01*
X207633216Y-81672077D01*
X207785943Y-81713000D01*
X207785945Y-81713000D01*
X207944055Y-81713000D01*
X207944057Y-81713000D01*
X208096784Y-81672077D01*
X208233716Y-81593020D01*
X208345520Y-81481216D01*
X208424577Y-81344284D01*
X208465500Y-81191557D01*
X208465500Y-81033443D01*
X208424577Y-80880716D01*
X208345520Y-80743784D01*
X208233716Y-80631980D01*
X208096784Y-80552923D01*
X207944057Y-80512000D01*
X207785943Y-80512000D01*
X207633216Y-80552923D01*
X207496284Y-80631980D01*
X207384480Y-80743784D01*
X207305423Y-80880716D01*
X207264500Y-81033443D01*
X175750500Y-81033443D01*
X175750500Y-79207499D01*
X177107232Y-79207499D01*
X177107233Y-79207500D01*
X177725758Y-79207500D01*
X177720444Y-79216704D01*
X177700000Y-79293004D01*
X177700000Y-79371996D01*
X177720444Y-79448296D01*
X177725758Y-79457500D01*
X177107232Y-79457500D01*
X177134585Y-79595018D01*
X177134586Y-79595021D01*
X177202429Y-79758808D01*
X177300923Y-79906215D01*
X177426284Y-80031576D01*
X177573691Y-80130070D01*
X177737479Y-80197913D01*
X177911355Y-80232499D01*
X177911359Y-80232500D01*
X178274999Y-80232500D01*
X178275000Y-80232499D01*
X178275000Y-79632500D01*
X178525000Y-79632500D01*
X178525000Y-80232499D01*
X178525001Y-80232500D01*
X178888641Y-80232500D01*
X178888644Y-80232499D01*
X179062519Y-80197913D01*
X179062521Y-80197913D01*
X179226308Y-80130070D01*
X179373715Y-80031576D01*
X179499076Y-79906215D01*
X179597570Y-79758808D01*
X179665413Y-79595021D01*
X179665414Y-79595018D01*
X179692768Y-79457500D01*
X179074242Y-79457500D01*
X179079556Y-79448296D01*
X179100000Y-79371996D01*
X179100000Y-79293004D01*
X179079556Y-79216704D01*
X179074242Y-79207500D01*
X179692767Y-79207500D01*
X179692767Y-79207499D01*
X181137232Y-79207499D01*
X181137233Y-79207500D01*
X181755758Y-79207500D01*
X181750444Y-79216704D01*
X181730000Y-79293004D01*
X181730000Y-79371996D01*
X181750444Y-79448296D01*
X181755758Y-79457500D01*
X181137232Y-79457500D01*
X181164585Y-79595018D01*
X181164586Y-79595021D01*
X181232429Y-79758808D01*
X181330923Y-79906215D01*
X181456284Y-80031576D01*
X181603691Y-80130070D01*
X181767479Y-80197913D01*
X181941355Y-80232499D01*
X181941359Y-80232500D01*
X182454999Y-80232500D01*
X182455000Y-80232499D01*
X182455000Y-79632500D01*
X182705000Y-79632500D01*
X182705000Y-80232499D01*
X182705001Y-80232500D01*
X183218641Y-80232500D01*
X183218644Y-80232499D01*
X183392519Y-80197913D01*
X183392521Y-80197913D01*
X183556308Y-80130070D01*
X183703715Y-80031576D01*
X183829076Y-79906215D01*
X183927570Y-79758808D01*
X183995413Y-79595021D01*
X183995414Y-79595018D01*
X184022767Y-79457500D01*
X183404242Y-79457500D01*
X183409556Y-79448296D01*
X183416885Y-79420943D01*
X202849500Y-79420943D01*
X202849500Y-79579057D01*
X202890423Y-79731784D01*
X202969480Y-79868716D01*
X203081284Y-79980520D01*
X203218216Y-80059577D01*
X203370943Y-80100500D01*
X203370945Y-80100500D01*
X203529055Y-80100500D01*
X203529057Y-80100500D01*
X203681784Y-80059577D01*
X203818716Y-79980520D01*
X203930520Y-79868716D01*
X204009577Y-79731784D01*
X204050500Y-79579057D01*
X204050500Y-79420943D01*
X204009577Y-79268216D01*
X203930520Y-79131284D01*
X203818716Y-79019480D01*
X203681784Y-78940423D01*
X203529057Y-78899500D01*
X203370943Y-78899500D01*
X203218216Y-78940423D01*
X203081284Y-79019480D01*
X202969480Y-79131284D01*
X202890423Y-79268216D01*
X202849500Y-79420943D01*
X183416885Y-79420943D01*
X183430000Y-79371996D01*
X183430000Y-79293004D01*
X183409556Y-79216704D01*
X183404242Y-79207500D01*
X184022767Y-79207500D01*
X184022767Y-79207499D01*
X183995414Y-79069981D01*
X183995413Y-79069978D01*
X183927570Y-78906191D01*
X183829076Y-78758784D01*
X183703715Y-78633423D01*
X183556308Y-78534929D01*
X183392520Y-78467086D01*
X183218644Y-78432500D01*
X182705001Y-78432500D01*
X182705000Y-78432501D01*
X182705000Y-79032500D01*
X182455000Y-79032500D01*
X182455000Y-78408970D01*
X182451666Y-78402427D01*
X182461237Y-78341995D01*
X182479440Y-78316939D01*
X182540515Y-78255865D01*
X182540518Y-78255860D01*
X182616279Y-78124639D01*
X182616279Y-78124637D01*
X182616281Y-78124635D01*
X182655500Y-77978266D01*
X182655500Y-77826734D01*
X182616281Y-77680365D01*
X182616279Y-77680362D01*
X182616279Y-77680360D01*
X182540518Y-77549139D01*
X182540516Y-77549137D01*
X182540515Y-77549135D01*
X182433365Y-77441985D01*
X182433362Y-77441983D01*
X182433360Y-77441981D01*
X182302138Y-77366220D01*
X182302140Y-77366220D01*
X182291974Y-77363496D01*
X182155766Y-77327000D01*
X182004234Y-77327000D01*
X181914652Y-77351003D01*
X181857860Y-77366220D01*
X181726639Y-77441981D01*
X181619481Y-77549139D01*
X181543720Y-77680360D01*
X181543719Y-77680365D01*
X181504500Y-77826734D01*
X181504500Y-77978266D01*
X181522242Y-78044480D01*
X181543720Y-78124639D01*
X181619481Y-78255860D01*
X181619483Y-78255862D01*
X181619485Y-78255865D01*
X181707421Y-78343801D01*
X181735197Y-78398316D01*
X181725626Y-78458748D01*
X181682361Y-78502013D01*
X181675302Y-78505267D01*
X181603689Y-78534930D01*
X181456284Y-78633423D01*
X181330923Y-78758784D01*
X181232429Y-78906191D01*
X181164586Y-79069978D01*
X181164585Y-79069981D01*
X181137232Y-79207499D01*
X179692767Y-79207499D01*
X179665414Y-79069981D01*
X179665413Y-79069978D01*
X179597570Y-78906191D01*
X179499076Y-78758784D01*
X179373715Y-78633423D01*
X179226308Y-78534929D01*
X179062520Y-78467086D01*
X178888644Y-78432500D01*
X178525001Y-78432500D01*
X178525000Y-78432501D01*
X178525000Y-79032500D01*
X178275000Y-79032500D01*
X178275000Y-78432501D01*
X178274999Y-78432500D01*
X177911355Y-78432500D01*
X177737480Y-78467086D01*
X177737478Y-78467086D01*
X177573691Y-78534929D01*
X177426284Y-78633423D01*
X177300923Y-78758784D01*
X177202429Y-78906191D01*
X177134586Y-79069978D01*
X177134585Y-79069981D01*
X177107232Y-79207499D01*
X175750500Y-79207499D01*
X175750500Y-77269671D01*
X195348158Y-77269671D01*
X195348158Y-77427785D01*
X195389081Y-77580512D01*
X195468138Y-77717444D01*
X195579942Y-77829248D01*
X195716874Y-77908305D01*
X195869601Y-77949228D01*
X195869603Y-77949228D01*
X196027713Y-77949228D01*
X196027715Y-77949228D01*
X196180442Y-77908305D01*
X196317374Y-77829248D01*
X196429178Y-77717444D01*
X196508235Y-77580512D01*
X196549158Y-77427785D01*
X196549158Y-77269671D01*
X196508235Y-77116944D01*
X196429178Y-76980012D01*
X196317374Y-76868208D01*
X196180442Y-76789151D01*
X196027715Y-76748228D01*
X195869601Y-76748228D01*
X195716874Y-76789151D01*
X195579942Y-76868208D01*
X195468138Y-76980012D01*
X195389081Y-77116944D01*
X195348158Y-77269671D01*
X175750500Y-77269671D01*
X175750500Y-75883443D01*
X184299500Y-75883443D01*
X184299500Y-76041557D01*
X184340423Y-76194284D01*
X184419480Y-76331216D01*
X184531284Y-76443020D01*
X184668216Y-76522077D01*
X184820943Y-76563000D01*
X184820945Y-76563000D01*
X184979055Y-76563000D01*
X184979057Y-76563000D01*
X185124003Y-76524162D01*
X197944509Y-76524162D01*
X197944509Y-76682276D01*
X197985432Y-76835003D01*
X198064489Y-76971935D01*
X198064491Y-76971937D01*
X198064494Y-76971942D01*
X198068440Y-76977085D01*
X198067402Y-76977880D01*
X198092029Y-77026214D01*
X198082458Y-77086646D01*
X198072798Y-77101958D01*
X198069485Y-77106276D01*
X198069480Y-77106283D01*
X198069480Y-77106284D01*
X197990423Y-77243216D01*
X197949500Y-77395943D01*
X197949500Y-77554057D01*
X197990423Y-77706784D01*
X198069480Y-77843716D01*
X198069482Y-77843718D01*
X198080762Y-77854999D01*
X198108538Y-77909516D01*
X198098964Y-77969948D01*
X198080762Y-77995001D01*
X198069482Y-78006281D01*
X198069480Y-78006283D01*
X198069480Y-78006284D01*
X197990423Y-78143216D01*
X197949500Y-78295943D01*
X197949500Y-78454057D01*
X197990423Y-78606784D01*
X198069480Y-78743716D01*
X198181284Y-78855520D01*
X198318216Y-78934577D01*
X198470943Y-78975500D01*
X198470945Y-78975500D01*
X198629055Y-78975500D01*
X198629057Y-78975500D01*
X198781784Y-78934577D01*
X198918716Y-78855520D01*
X199030520Y-78743716D01*
X199109577Y-78606784D01*
X199150500Y-78454057D01*
X199150500Y-78445943D01*
X210474500Y-78445943D01*
X210474500Y-78604057D01*
X210515423Y-78756784D01*
X210594480Y-78893716D01*
X210706284Y-79005520D01*
X210843216Y-79084577D01*
X210995943Y-79125500D01*
X210995945Y-79125500D01*
X211154055Y-79125500D01*
X211154057Y-79125500D01*
X211306784Y-79084577D01*
X211443716Y-79005520D01*
X211555520Y-78893716D01*
X211634577Y-78756784D01*
X211675500Y-78604057D01*
X211675500Y-78445943D01*
X211634577Y-78293216D01*
X211555520Y-78156284D01*
X211443716Y-78044480D01*
X211306784Y-77965423D01*
X211306781Y-77965422D01*
X211301164Y-77962179D01*
X211302058Y-77960630D01*
X211261979Y-77926395D01*
X211247700Y-77866899D01*
X211271118Y-77810373D01*
X211320771Y-77779047D01*
X211346784Y-77772077D01*
X211483716Y-77693020D01*
X211595520Y-77581216D01*
X211674577Y-77444284D01*
X211715500Y-77291557D01*
X211715500Y-77133443D01*
X211674577Y-76980716D01*
X211595520Y-76843784D01*
X211483716Y-76731980D01*
X211346784Y-76652923D01*
X211194057Y-76612000D01*
X211035943Y-76612000D01*
X210883216Y-76652923D01*
X210746284Y-76731980D01*
X210634480Y-76843784D01*
X210555423Y-76980716D01*
X210514500Y-77133443D01*
X210514500Y-77291557D01*
X210555423Y-77444284D01*
X210634480Y-77581216D01*
X210746284Y-77693020D01*
X210883216Y-77772077D01*
X210883218Y-77772077D01*
X210888836Y-77775321D01*
X210887940Y-77776872D01*
X210928014Y-77811094D01*
X210942300Y-77870588D01*
X210918889Y-77927117D01*
X210869230Y-77958452D01*
X210843218Y-77965422D01*
X210843216Y-77965422D01*
X210843216Y-77965423D01*
X210706284Y-78044480D01*
X210594480Y-78156284D01*
X210515423Y-78293216D01*
X210474500Y-78445943D01*
X199150500Y-78445943D01*
X199150500Y-78295943D01*
X199109577Y-78143216D01*
X199030520Y-78006284D01*
X199019237Y-77995001D01*
X198991462Y-77940487D01*
X199001033Y-77880055D01*
X199019236Y-77854999D01*
X199030520Y-77843716D01*
X199109577Y-77706784D01*
X199150500Y-77554057D01*
X199150500Y-77395943D01*
X199109577Y-77243216D01*
X199053417Y-77145943D01*
X201049500Y-77145943D01*
X201049500Y-77304057D01*
X201090423Y-77456784D01*
X201169480Y-77593716D01*
X201281284Y-77705520D01*
X201418216Y-77784577D01*
X201570943Y-77825500D01*
X201570945Y-77825500D01*
X201729055Y-77825500D01*
X201729057Y-77825500D01*
X201881784Y-77784577D01*
X202018716Y-77705520D01*
X202130520Y-77593716D01*
X202209577Y-77456784D01*
X202250500Y-77304057D01*
X202250500Y-77145943D01*
X202209577Y-76993216D01*
X202130520Y-76856284D01*
X202018716Y-76744480D01*
X201881784Y-76665423D01*
X201729057Y-76624500D01*
X201570943Y-76624500D01*
X201418216Y-76665423D01*
X201281284Y-76744480D01*
X201169480Y-76856284D01*
X201090423Y-76993216D01*
X201049500Y-77145943D01*
X199053417Y-77145943D01*
X199030520Y-77106284D01*
X199022507Y-77098271D01*
X199016402Y-77088331D01*
X199011830Y-77069377D01*
X199002979Y-77052004D01*
X199004826Y-77040336D01*
X199002057Y-77028851D01*
X199009499Y-77010830D01*
X199012550Y-76991572D01*
X199022217Y-76976251D01*
X199025526Y-76971938D01*
X199025529Y-76971935D01*
X199104586Y-76835003D01*
X199145509Y-76682276D01*
X199145509Y-76524162D01*
X199104586Y-76371435D01*
X199025529Y-76234503D01*
X199002132Y-76211106D01*
X198974357Y-76156592D01*
X198983928Y-76096160D01*
X199002131Y-76071104D01*
X199029520Y-76043716D01*
X199108577Y-75906784D01*
X199149500Y-75754057D01*
X199149500Y-75595943D01*
X199108577Y-75443216D01*
X199029520Y-75306284D01*
X198953464Y-75230228D01*
X200366269Y-75230228D01*
X200366269Y-75388342D01*
X200407192Y-75541069D01*
X200486249Y-75678001D01*
X200598053Y-75789805D01*
X200734985Y-75868862D01*
X200887712Y-75909785D01*
X200887714Y-75909785D01*
X201045824Y-75909785D01*
X201045826Y-75909785D01*
X201198553Y-75868862D01*
X201274507Y-75825010D01*
X201334351Y-75812289D01*
X201390247Y-75837175D01*
X201393988Y-75840724D01*
X201396284Y-75843020D01*
X201533216Y-75922077D01*
X201685943Y-75963000D01*
X201685945Y-75963000D01*
X201844055Y-75963000D01*
X201844057Y-75963000D01*
X201996784Y-75922077D01*
X202133716Y-75843020D01*
X202245520Y-75731216D01*
X202324577Y-75594284D01*
X202365500Y-75441557D01*
X202365500Y-75283443D01*
X202324577Y-75130716D01*
X202245520Y-74993784D01*
X202220778Y-74969042D01*
X206793200Y-74969042D01*
X206793200Y-75115957D01*
X206821860Y-75260041D01*
X206821860Y-75260043D01*
X206878078Y-75395766D01*
X206878078Y-75395767D01*
X206882860Y-75402923D01*
X206959699Y-75517920D01*
X207063580Y-75621801D01*
X207185731Y-75703420D01*
X207321458Y-75759640D01*
X207465545Y-75788300D01*
X207465547Y-75788300D01*
X207612453Y-75788300D01*
X207612455Y-75788300D01*
X207756542Y-75759640D01*
X207892269Y-75703420D01*
X208014420Y-75621801D01*
X208118301Y-75517920D01*
X208199920Y-75395769D01*
X208256140Y-75260042D01*
X208284800Y-75115955D01*
X208284800Y-74969045D01*
X208284799Y-74969042D01*
X208825200Y-74969042D01*
X208825200Y-75115957D01*
X208853860Y-75260041D01*
X208853860Y-75260043D01*
X208910078Y-75395766D01*
X208910078Y-75395767D01*
X208914860Y-75402923D01*
X208991699Y-75517920D01*
X209095580Y-75621801D01*
X209217731Y-75703420D01*
X209353458Y-75759640D01*
X209497545Y-75788300D01*
X209497547Y-75788300D01*
X209644453Y-75788300D01*
X209644455Y-75788300D01*
X209788542Y-75759640D01*
X209924269Y-75703420D01*
X210046420Y-75621801D01*
X210150301Y-75517920D01*
X210231920Y-75395769D01*
X210288140Y-75260042D01*
X210316800Y-75115955D01*
X210316800Y-74983443D01*
X212632950Y-74983443D01*
X212632950Y-75141557D01*
X212673873Y-75294284D01*
X212752930Y-75431216D01*
X212864734Y-75543020D01*
X213001666Y-75622077D01*
X213154393Y-75663000D01*
X213154395Y-75663000D01*
X213312505Y-75663000D01*
X213312507Y-75663000D01*
X213465234Y-75622077D01*
X213602166Y-75543020D01*
X213713970Y-75431216D01*
X213793027Y-75294284D01*
X213833950Y-75141557D01*
X213833950Y-74983443D01*
X213793027Y-74830716D01*
X213713970Y-74693784D01*
X213602166Y-74581980D01*
X213465234Y-74502923D01*
X213312507Y-74462000D01*
X213154393Y-74462000D01*
X213001666Y-74502923D01*
X212864734Y-74581980D01*
X212752930Y-74693784D01*
X212673873Y-74830716D01*
X212632950Y-74983443D01*
X210316800Y-74983443D01*
X210316800Y-74969045D01*
X210288140Y-74824958D01*
X210239526Y-74707593D01*
X210231921Y-74689233D01*
X210231921Y-74689232D01*
X210211585Y-74658798D01*
X210150301Y-74567080D01*
X210046420Y-74463199D01*
X209924269Y-74381580D01*
X209924268Y-74381579D01*
X209924266Y-74381578D01*
X209788542Y-74325360D01*
X209644457Y-74296700D01*
X209644455Y-74296700D01*
X209497545Y-74296700D01*
X209497542Y-74296700D01*
X209353458Y-74325360D01*
X209353456Y-74325360D01*
X209217733Y-74381578D01*
X209217732Y-74381578D01*
X209095580Y-74463199D01*
X209095576Y-74463202D01*
X208991702Y-74567076D01*
X208991699Y-74567080D01*
X208910078Y-74689232D01*
X208910078Y-74689233D01*
X208853860Y-74824956D01*
X208853860Y-74824958D01*
X208825200Y-74969042D01*
X208284799Y-74969042D01*
X208256140Y-74824958D01*
X208207526Y-74707593D01*
X208199921Y-74689233D01*
X208199921Y-74689232D01*
X208179585Y-74658798D01*
X208118301Y-74567080D01*
X208014420Y-74463199D01*
X207892269Y-74381580D01*
X207892268Y-74381579D01*
X207892266Y-74381578D01*
X207756542Y-74325360D01*
X207612457Y-74296700D01*
X207612455Y-74296700D01*
X207465545Y-74296700D01*
X207465542Y-74296700D01*
X207321458Y-74325360D01*
X207321456Y-74325360D01*
X207185733Y-74381578D01*
X207185732Y-74381578D01*
X207063580Y-74463199D01*
X207063576Y-74463202D01*
X206959702Y-74567076D01*
X206959699Y-74567080D01*
X206878078Y-74689232D01*
X206878078Y-74689233D01*
X206821860Y-74824956D01*
X206821860Y-74824958D01*
X206793200Y-74969042D01*
X202220778Y-74969042D01*
X202133716Y-74881980D01*
X201996784Y-74802923D01*
X201844057Y-74762000D01*
X201685943Y-74762000D01*
X201533216Y-74802923D01*
X201457262Y-74846774D01*
X201397415Y-74859495D01*
X201341520Y-74834608D01*
X201337779Y-74831059D01*
X201335485Y-74828765D01*
X201198553Y-74749708D01*
X201045826Y-74708785D01*
X200887712Y-74708785D01*
X200734985Y-74749708D01*
X200598053Y-74828765D01*
X200486249Y-74940569D01*
X200407192Y-75077501D01*
X200366269Y-75230228D01*
X198953464Y-75230228D01*
X198917716Y-75194480D01*
X198780784Y-75115423D01*
X198628057Y-75074500D01*
X198469943Y-75074500D01*
X198317216Y-75115423D01*
X198180284Y-75194480D01*
X198068480Y-75306284D01*
X197989423Y-75443216D01*
X197948500Y-75595943D01*
X197948500Y-75754057D01*
X197989423Y-75906784D01*
X198068480Y-76043716D01*
X198091875Y-76067111D01*
X198119651Y-76121626D01*
X198110080Y-76182058D01*
X198091876Y-76207114D01*
X198064491Y-76234500D01*
X198064489Y-76234502D01*
X198064489Y-76234503D01*
X197985432Y-76371435D01*
X197944509Y-76524162D01*
X185124003Y-76524162D01*
X185131784Y-76522077D01*
X185268716Y-76443020D01*
X185380520Y-76331216D01*
X185459577Y-76194284D01*
X185500500Y-76041557D01*
X185500500Y-75883443D01*
X185459577Y-75730716D01*
X185380520Y-75593784D01*
X185268716Y-75481980D01*
X185131784Y-75402923D01*
X184979057Y-75362000D01*
X184820943Y-75362000D01*
X184668216Y-75402923D01*
X184531284Y-75481980D01*
X184419480Y-75593784D01*
X184340423Y-75730716D01*
X184299500Y-75883443D01*
X175750500Y-75883443D01*
X175750500Y-73080992D01*
X188787799Y-73080992D01*
X188787799Y-73239106D01*
X188828722Y-73391833D01*
X188907779Y-73528765D01*
X189019583Y-73640569D01*
X189092476Y-73682653D01*
X189133417Y-73728121D01*
X189139813Y-73788971D01*
X189109221Y-73841960D01*
X189092481Y-73854123D01*
X189085149Y-73858356D01*
X189085148Y-73858357D01*
X188973344Y-73970161D01*
X188894287Y-74107093D01*
X188853364Y-74259820D01*
X188853364Y-74417934D01*
X188894287Y-74570661D01*
X188973344Y-74707593D01*
X189085148Y-74819397D01*
X189222080Y-74898454D01*
X189374807Y-74939377D01*
X189374809Y-74939377D01*
X189532919Y-74939377D01*
X189532921Y-74939377D01*
X189685648Y-74898454D01*
X189822580Y-74819397D01*
X189934384Y-74707593D01*
X190013441Y-74570661D01*
X190054364Y-74417934D01*
X190054364Y-74259820D01*
X190013441Y-74107093D01*
X189934384Y-73970161D01*
X189822580Y-73858357D01*
X189749684Y-73816270D01*
X189708745Y-73770803D01*
X189702349Y-73709953D01*
X189732942Y-73656965D01*
X189749684Y-73644801D01*
X189757015Y-73640569D01*
X189868819Y-73528765D01*
X189947876Y-73391833D01*
X189988799Y-73239106D01*
X189988799Y-73187337D01*
X195404419Y-73187337D01*
X195404419Y-73345451D01*
X195445342Y-73498178D01*
X195524399Y-73635110D01*
X195636203Y-73746914D01*
X195773135Y-73825971D01*
X195925862Y-73866894D01*
X195925864Y-73866894D01*
X196083974Y-73866894D01*
X196083976Y-73866894D01*
X196236703Y-73825971D01*
X196373635Y-73746914D01*
X196485439Y-73635110D01*
X196564496Y-73498178D01*
X196605419Y-73345451D01*
X196605419Y-73187337D01*
X196564496Y-73034610D01*
X196485439Y-72897678D01*
X196373635Y-72785874D01*
X196236703Y-72706817D01*
X196083976Y-72665894D01*
X195925862Y-72665894D01*
X195773135Y-72706817D01*
X195636203Y-72785874D01*
X195524399Y-72897678D01*
X195445342Y-73034610D01*
X195404419Y-73187337D01*
X189988799Y-73187337D01*
X189988799Y-73080992D01*
X189947876Y-72928265D01*
X189868819Y-72791333D01*
X189757015Y-72679529D01*
X189620083Y-72600472D01*
X189467356Y-72559549D01*
X189309242Y-72559549D01*
X189156515Y-72600472D01*
X189019583Y-72679529D01*
X188907779Y-72791333D01*
X188828722Y-72928265D01*
X188787799Y-73080992D01*
X175750500Y-73080992D01*
X175750500Y-70567499D01*
X177107232Y-70567499D01*
X177107233Y-70567500D01*
X177725758Y-70567500D01*
X177720444Y-70576704D01*
X177700000Y-70653004D01*
X177700000Y-70731996D01*
X177720444Y-70808296D01*
X177725758Y-70817500D01*
X177107232Y-70817500D01*
X177134585Y-70955018D01*
X177134586Y-70955021D01*
X177202429Y-71118808D01*
X177300923Y-71266215D01*
X177426284Y-71391576D01*
X177573691Y-71490070D01*
X177737479Y-71557913D01*
X177911355Y-71592499D01*
X177911359Y-71592500D01*
X178274999Y-71592500D01*
X178275000Y-71592499D01*
X178275000Y-70992500D01*
X178525000Y-70992500D01*
X178525000Y-71592499D01*
X178525001Y-71592500D01*
X178888641Y-71592500D01*
X178888644Y-71592499D01*
X179062519Y-71557913D01*
X179062521Y-71557913D01*
X179226308Y-71490070D01*
X179373715Y-71391576D01*
X179499076Y-71266215D01*
X179597570Y-71118808D01*
X179665413Y-70955021D01*
X179665414Y-70955018D01*
X179692768Y-70817500D01*
X179074242Y-70817500D01*
X179079556Y-70808296D01*
X179100000Y-70731996D01*
X179100000Y-70653004D01*
X179079556Y-70576704D01*
X179074242Y-70567500D01*
X179692767Y-70567500D01*
X179692767Y-70567499D01*
X181137232Y-70567499D01*
X181137233Y-70567500D01*
X181755758Y-70567500D01*
X181750444Y-70576704D01*
X181730000Y-70653004D01*
X181730000Y-70731996D01*
X181750444Y-70808296D01*
X181755758Y-70817500D01*
X181137232Y-70817500D01*
X181164585Y-70955018D01*
X181164586Y-70955021D01*
X181232429Y-71118808D01*
X181330923Y-71266215D01*
X181456284Y-71391576D01*
X181603690Y-71490070D01*
X181675301Y-71519732D01*
X181721827Y-71559468D01*
X181736111Y-71618963D01*
X181712697Y-71675491D01*
X181707420Y-71681199D01*
X181619485Y-71769134D01*
X181619481Y-71769139D01*
X181543720Y-71900360D01*
X181536537Y-71927168D01*
X181504500Y-72046734D01*
X181504500Y-72198266D01*
X181516492Y-72243020D01*
X181543720Y-72344639D01*
X181619481Y-72475860D01*
X181619483Y-72475862D01*
X181619485Y-72475865D01*
X181726635Y-72583015D01*
X181726637Y-72583016D01*
X181726639Y-72583018D01*
X181857861Y-72658779D01*
X181857859Y-72658779D01*
X181857863Y-72658780D01*
X181857865Y-72658781D01*
X182004234Y-72698000D01*
X182004236Y-72698000D01*
X182155764Y-72698000D01*
X182155766Y-72698000D01*
X182302135Y-72658781D01*
X182302137Y-72658779D01*
X182302139Y-72658779D01*
X182433360Y-72583018D01*
X182433360Y-72583017D01*
X182433365Y-72583015D01*
X182540515Y-72475865D01*
X182616281Y-72344635D01*
X182655500Y-72198266D01*
X182655500Y-72046734D01*
X182616281Y-71900365D01*
X182616279Y-71900362D01*
X182616279Y-71900360D01*
X182540518Y-71769139D01*
X182540516Y-71769137D01*
X182540515Y-71769135D01*
X182479441Y-71708061D01*
X182466898Y-71683443D01*
X187064500Y-71683443D01*
X187064500Y-71841557D01*
X187105423Y-71994284D01*
X187184480Y-72131216D01*
X187296284Y-72243020D01*
X187433216Y-72322077D01*
X187585943Y-72363000D01*
X187585945Y-72363000D01*
X187744055Y-72363000D01*
X187744057Y-72363000D01*
X187896784Y-72322077D01*
X188033716Y-72243020D01*
X188145520Y-72131216D01*
X188213485Y-72013496D01*
X192584447Y-72013496D01*
X192584447Y-72171610D01*
X192625370Y-72324337D01*
X192704427Y-72461269D01*
X192816231Y-72573073D01*
X192953163Y-72652130D01*
X193105890Y-72693053D01*
X193105892Y-72693053D01*
X193264002Y-72693053D01*
X193264004Y-72693053D01*
X193416731Y-72652130D01*
X193553663Y-72573073D01*
X193665467Y-72461269D01*
X193744524Y-72324337D01*
X193785447Y-72171610D01*
X193785447Y-72013496D01*
X193744524Y-71860769D01*
X193665467Y-71723837D01*
X193553663Y-71612033D01*
X193416731Y-71532976D01*
X193264004Y-71492053D01*
X193105890Y-71492053D01*
X192953163Y-71532976D01*
X192816231Y-71612033D01*
X192704427Y-71723837D01*
X192625370Y-71860769D01*
X192584447Y-72013496D01*
X188213485Y-72013496D01*
X188224577Y-71994284D01*
X188265500Y-71841557D01*
X188265500Y-71683443D01*
X188224577Y-71530716D01*
X188194948Y-71479396D01*
X204552517Y-71479396D01*
X204552517Y-71637510D01*
X204593440Y-71790237D01*
X204672497Y-71927169D01*
X204784301Y-72038973D01*
X204866206Y-72086260D01*
X204907146Y-72131729D01*
X204913542Y-72192579D01*
X204896798Y-72230187D01*
X204785153Y-72383851D01*
X204682400Y-72585518D01*
X204612456Y-72800783D01*
X204577050Y-73024328D01*
X204577050Y-73250671D01*
X204612456Y-73474216D01*
X204682400Y-73689481D01*
X204768445Y-73858356D01*
X204785155Y-73891150D01*
X204918193Y-74074261D01*
X205078239Y-74234307D01*
X205261350Y-74367345D01*
X205463019Y-74470100D01*
X205678279Y-74540042D01*
X205678280Y-74540042D01*
X205678283Y-74540043D01*
X205901828Y-74575450D01*
X205901831Y-74575450D01*
X206128172Y-74575450D01*
X206351716Y-74540043D01*
X206351717Y-74540042D01*
X206351721Y-74540042D01*
X206566981Y-74470100D01*
X206768650Y-74367345D01*
X206951761Y-74234307D01*
X207111807Y-74074261D01*
X207244845Y-73891150D01*
X207347600Y-73689481D01*
X207417542Y-73474221D01*
X207417543Y-73474216D01*
X207452950Y-73250671D01*
X207452950Y-73024328D01*
X209657050Y-73024328D01*
X209657050Y-73250671D01*
X209692456Y-73474216D01*
X209762400Y-73689481D01*
X209848445Y-73858356D01*
X209865155Y-73891150D01*
X209998193Y-74074261D01*
X210158239Y-74234307D01*
X210341350Y-74367345D01*
X210543019Y-74470100D01*
X210758279Y-74540042D01*
X210758280Y-74540042D01*
X210758283Y-74540043D01*
X210981828Y-74575450D01*
X210981831Y-74575450D01*
X211208172Y-74575450D01*
X211431716Y-74540043D01*
X211431717Y-74540042D01*
X211431721Y-74540042D01*
X211646981Y-74470100D01*
X211848650Y-74367345D01*
X212031761Y-74234307D01*
X212191807Y-74074261D01*
X212324845Y-73891150D01*
X212427600Y-73689481D01*
X212497542Y-73474221D01*
X212497543Y-73474216D01*
X212532950Y-73250671D01*
X212532950Y-73024328D01*
X212497543Y-72800783D01*
X212464147Y-72698000D01*
X212427600Y-72585519D01*
X212324845Y-72383850D01*
X212191807Y-72200739D01*
X212031761Y-72040693D01*
X211848650Y-71907655D01*
X211848649Y-71907654D01*
X211848647Y-71907653D01*
X211646981Y-71804900D01*
X211431716Y-71734956D01*
X211208172Y-71699550D01*
X211208169Y-71699550D01*
X210981831Y-71699550D01*
X210981828Y-71699550D01*
X210758283Y-71734956D01*
X210543018Y-71804900D01*
X210341352Y-71907653D01*
X210158240Y-72040692D01*
X209998192Y-72200740D01*
X209865153Y-72383852D01*
X209762400Y-72585518D01*
X209692456Y-72800783D01*
X209657050Y-73024328D01*
X207452950Y-73024328D01*
X207417543Y-72800783D01*
X207384147Y-72698000D01*
X207347600Y-72585519D01*
X207244845Y-72383850D01*
X207111807Y-72200739D01*
X206951761Y-72040693D01*
X206768650Y-71907655D01*
X206768649Y-71907654D01*
X206768647Y-71907653D01*
X206566981Y-71804900D01*
X206351716Y-71734956D01*
X206128172Y-71699550D01*
X206128169Y-71699550D01*
X205901831Y-71699550D01*
X205901828Y-71699550D01*
X205868004Y-71704907D01*
X205845112Y-71701281D01*
X205821924Y-71701281D01*
X205815459Y-71696584D01*
X205807572Y-71695335D01*
X205791182Y-71678945D01*
X205772424Y-71665317D01*
X205769955Y-71657719D01*
X205764307Y-71652071D01*
X205753517Y-71607126D01*
X205753517Y-71492873D01*
X205768765Y-71445943D01*
X215649500Y-71445943D01*
X215649500Y-71604057D01*
X215690423Y-71756784D01*
X215769480Y-71893716D01*
X215881284Y-72005520D01*
X216018216Y-72084577D01*
X216170943Y-72125500D01*
X216170945Y-72125500D01*
X216329055Y-72125500D01*
X216329057Y-72125500D01*
X216481784Y-72084577D01*
X216618716Y-72005520D01*
X216730520Y-71893716D01*
X216809577Y-71756784D01*
X216850500Y-71604057D01*
X216850500Y-71445943D01*
X216809577Y-71293216D01*
X216730520Y-71156284D01*
X216618716Y-71044480D01*
X216481784Y-70965423D01*
X216329057Y-70924500D01*
X216170943Y-70924500D01*
X216018216Y-70965423D01*
X215881284Y-71044480D01*
X215769480Y-71156284D01*
X215690423Y-71293216D01*
X215649500Y-71445943D01*
X205768765Y-71445943D01*
X205772424Y-71434682D01*
X205821924Y-71398718D01*
X205868004Y-71395092D01*
X205890896Y-71398718D01*
X205901830Y-71400450D01*
X205901831Y-71400450D01*
X206128172Y-71400450D01*
X206351716Y-71365043D01*
X206351717Y-71365042D01*
X206351721Y-71365042D01*
X206566981Y-71295100D01*
X206768650Y-71192345D01*
X206951761Y-71059307D01*
X207111807Y-70899261D01*
X207244845Y-70716150D01*
X207347600Y-70514481D01*
X207417542Y-70299221D01*
X207423958Y-70258714D01*
X207452950Y-70075671D01*
X207452950Y-69849329D01*
X207440970Y-69773694D01*
X207450541Y-69713262D01*
X207493805Y-69669997D01*
X207540473Y-69659221D01*
X207552628Y-69659432D01*
X207565943Y-69663000D01*
X207724057Y-69663000D01*
X207726107Y-69662450D01*
X207735332Y-69662611D01*
X207757637Y-69670290D01*
X207780832Y-69674584D01*
X207786037Y-69680067D01*
X207793185Y-69682528D01*
X207806713Y-69701847D01*
X207822958Y-69718958D01*
X207823946Y-69726454D01*
X207828282Y-69732646D01*
X207827871Y-69756226D01*
X207830956Y-69779618D01*
X207830708Y-69780909D01*
X207809200Y-69889040D01*
X207809200Y-70035957D01*
X207825675Y-70118784D01*
X207837345Y-70177455D01*
X207837860Y-70180041D01*
X207837860Y-70180043D01*
X207894078Y-70315766D01*
X207894078Y-70315767D01*
X207930663Y-70370519D01*
X207975699Y-70437920D01*
X208079580Y-70541801D01*
X208201731Y-70623420D01*
X208337458Y-70679640D01*
X208481545Y-70708300D01*
X208481547Y-70708300D01*
X208628453Y-70708300D01*
X208628455Y-70708300D01*
X208772542Y-70679640D01*
X208908269Y-70623420D01*
X209030420Y-70541801D01*
X209134301Y-70437920D01*
X209215920Y-70315769D01*
X209272140Y-70180042D01*
X209300800Y-70035955D01*
X209300800Y-69889045D01*
X209300799Y-69889038D01*
X209295969Y-69864753D01*
X209292901Y-69849328D01*
X209657050Y-69849328D01*
X209657050Y-70075671D01*
X209692456Y-70299216D01*
X209762400Y-70514481D01*
X209861154Y-70708299D01*
X209865155Y-70716150D01*
X209998193Y-70899261D01*
X210158239Y-71059307D01*
X210341350Y-71192345D01*
X210543019Y-71295100D01*
X210758279Y-71365042D01*
X210758280Y-71365042D01*
X210758283Y-71365043D01*
X210981828Y-71400450D01*
X210981831Y-71400450D01*
X211208172Y-71400450D01*
X211431716Y-71365043D01*
X211431717Y-71365042D01*
X211431721Y-71365042D01*
X211646981Y-71295100D01*
X211848650Y-71192345D01*
X212031761Y-71059307D01*
X212191807Y-70899261D01*
X212324845Y-70716150D01*
X212427600Y-70514481D01*
X212497542Y-70299221D01*
X212503958Y-70258714D01*
X212532950Y-70075671D01*
X212532950Y-69849328D01*
X212497543Y-69625783D01*
X212497542Y-69625779D01*
X212427600Y-69410519D01*
X212324845Y-69208850D01*
X212191807Y-69025739D01*
X212031761Y-68865693D01*
X211848650Y-68732655D01*
X211848649Y-68732654D01*
X211848647Y-68732653D01*
X211646981Y-68629900D01*
X211431716Y-68559956D01*
X211208172Y-68524550D01*
X211208169Y-68524550D01*
X210981831Y-68524550D01*
X210981828Y-68524550D01*
X210758283Y-68559956D01*
X210543018Y-68629900D01*
X210341352Y-68732653D01*
X210158240Y-68865692D01*
X209998192Y-69025740D01*
X209865153Y-69208852D01*
X209762400Y-69410518D01*
X209692456Y-69625783D01*
X209657050Y-69849328D01*
X209292901Y-69849328D01*
X209281700Y-69793020D01*
X209272140Y-69744958D01*
X209222776Y-69625783D01*
X209215921Y-69609233D01*
X209215921Y-69609232D01*
X209195585Y-69578798D01*
X209134301Y-69487080D01*
X209030420Y-69383199D01*
X208908269Y-69301580D01*
X208908268Y-69301579D01*
X208908266Y-69301578D01*
X208772542Y-69245360D01*
X208628457Y-69216700D01*
X208628455Y-69216700D01*
X208481545Y-69216700D01*
X208481540Y-69216700D01*
X208363813Y-69240117D01*
X208303052Y-69232925D01*
X208258122Y-69191392D01*
X208245500Y-69143019D01*
X208245500Y-68983444D01*
X208234873Y-68943784D01*
X208204577Y-68830716D01*
X208125520Y-68693784D01*
X208013716Y-68581980D01*
X207876784Y-68502923D01*
X207724057Y-68462000D01*
X207565943Y-68462000D01*
X207413216Y-68502923D01*
X207276284Y-68581980D01*
X207164478Y-68693786D01*
X207086672Y-68828550D01*
X207041203Y-68869491D01*
X206980352Y-68875887D01*
X206942746Y-68859143D01*
X206768650Y-68732655D01*
X206768649Y-68732654D01*
X206768647Y-68732653D01*
X206566981Y-68629900D01*
X206351716Y-68559956D01*
X206128172Y-68524550D01*
X206128169Y-68524550D01*
X205901831Y-68524550D01*
X205901828Y-68524550D01*
X205678283Y-68559956D01*
X205463018Y-68629900D01*
X205261352Y-68732653D01*
X205078240Y-68865692D01*
X204918192Y-69025740D01*
X204785153Y-69208852D01*
X204682400Y-69410518D01*
X204612456Y-69625783D01*
X204577050Y-69849328D01*
X204577050Y-70075671D01*
X204612456Y-70299216D01*
X204682400Y-70514481D01*
X204781154Y-70708299D01*
X204785155Y-70716150D01*
X204905451Y-70881724D01*
X204924358Y-70939913D01*
X204905451Y-70998104D01*
X204874859Y-71025649D01*
X204784302Y-71077932D01*
X204784301Y-71077933D01*
X204672497Y-71189737D01*
X204593440Y-71326669D01*
X204552517Y-71479396D01*
X188194948Y-71479396D01*
X188145520Y-71393784D01*
X188033716Y-71281980D01*
X187896784Y-71202923D01*
X187744057Y-71162000D01*
X187585943Y-71162000D01*
X187433216Y-71202923D01*
X187296284Y-71281980D01*
X187184480Y-71393784D01*
X187105423Y-71530716D01*
X187064500Y-71683443D01*
X182466898Y-71683443D01*
X182451666Y-71653547D01*
X182455000Y-71632495D01*
X182455000Y-70992500D01*
X182705000Y-70992500D01*
X182705000Y-71592499D01*
X182705001Y-71592500D01*
X183218641Y-71592500D01*
X183218644Y-71592499D01*
X183282209Y-71579856D01*
X183392519Y-71557913D01*
X183392521Y-71557913D01*
X183556308Y-71490070D01*
X183703715Y-71391576D01*
X183829076Y-71266215D01*
X183927570Y-71118808D01*
X183995413Y-70955021D01*
X183995414Y-70955018D01*
X184022768Y-70817500D01*
X183404242Y-70817500D01*
X183409556Y-70808296D01*
X183430000Y-70731996D01*
X183430000Y-70653004D01*
X183409556Y-70576704D01*
X183404242Y-70567500D01*
X184022767Y-70567500D01*
X184022767Y-70567499D01*
X183995414Y-70429981D01*
X183995413Y-70429978D01*
X183927570Y-70266191D01*
X183829076Y-70118784D01*
X183703715Y-69993423D01*
X183556309Y-69894929D01*
X183392520Y-69827086D01*
X183311363Y-69810943D01*
X184114500Y-69810943D01*
X184114500Y-69969057D01*
X184155423Y-70121784D01*
X184234480Y-70258716D01*
X184346284Y-70370520D01*
X184483216Y-70449577D01*
X184635943Y-70490500D01*
X184635945Y-70490500D01*
X184794055Y-70490500D01*
X184794057Y-70490500D01*
X184946784Y-70449577D01*
X185083716Y-70370520D01*
X185195520Y-70258716D01*
X185210111Y-70233443D01*
X196114500Y-70233443D01*
X196114500Y-70391557D01*
X196155423Y-70544284D01*
X196234480Y-70681216D01*
X196346284Y-70793020D01*
X196483216Y-70872077D01*
X196635943Y-70913000D01*
X196635945Y-70913000D01*
X196794055Y-70913000D01*
X196794057Y-70913000D01*
X196946784Y-70872077D01*
X197083716Y-70793020D01*
X197195520Y-70681216D01*
X197207231Y-70660931D01*
X201999500Y-70660931D01*
X201999500Y-70789069D01*
X202021419Y-70899261D01*
X202024499Y-70914742D01*
X202024500Y-70914747D01*
X202073534Y-71033125D01*
X202073538Y-71033133D01*
X202103473Y-71077933D01*
X202144724Y-71139669D01*
X202235331Y-71230276D01*
X202289118Y-71266215D01*
X202341866Y-71301461D01*
X202341870Y-71301463D01*
X202341873Y-71301465D01*
X202460256Y-71350501D01*
X202585931Y-71375500D01*
X202585932Y-71375500D01*
X202714068Y-71375500D01*
X202714069Y-71375500D01*
X202839744Y-71350501D01*
X202958127Y-71301465D01*
X203064669Y-71230276D01*
X203155276Y-71139669D01*
X203226465Y-71033127D01*
X203275501Y-70914744D01*
X203300500Y-70789069D01*
X203300500Y-70660931D01*
X203275501Y-70535256D01*
X203226465Y-70416873D01*
X203226463Y-70416870D01*
X203226461Y-70416866D01*
X203195492Y-70370519D01*
X203155276Y-70310331D01*
X203064669Y-70219724D01*
X203022226Y-70191365D01*
X202958133Y-70148538D01*
X202958125Y-70148534D01*
X202839747Y-70099500D01*
X202839745Y-70099499D01*
X202839744Y-70099499D01*
X202714069Y-70074500D01*
X202585931Y-70074500D01*
X202585930Y-70074500D01*
X202523093Y-70086999D01*
X202460256Y-70099499D01*
X202460255Y-70099499D01*
X202460252Y-70099500D01*
X202341874Y-70148534D01*
X202341866Y-70148538D01*
X202235331Y-70219724D01*
X202235327Y-70219727D01*
X202144727Y-70310327D01*
X202144724Y-70310331D01*
X202073538Y-70416866D01*
X202073534Y-70416874D01*
X202024500Y-70535252D01*
X202024499Y-70535255D01*
X202024499Y-70535256D01*
X201999500Y-70660931D01*
X197207231Y-70660931D01*
X197274577Y-70544284D01*
X197315500Y-70391557D01*
X197315500Y-70233443D01*
X197274577Y-70080716D01*
X197195520Y-69943784D01*
X197083716Y-69831980D01*
X196946784Y-69752923D01*
X196794057Y-69712000D01*
X196635943Y-69712000D01*
X196483216Y-69752923D01*
X196346284Y-69831980D01*
X196234480Y-69943784D01*
X196155423Y-70080716D01*
X196114500Y-70233443D01*
X185210111Y-70233443D01*
X185274577Y-70121784D01*
X185315500Y-69969057D01*
X185315500Y-69810943D01*
X185274577Y-69658216D01*
X185195520Y-69521284D01*
X185083716Y-69409480D01*
X184946784Y-69330423D01*
X184794057Y-69289500D01*
X184635943Y-69289500D01*
X184483216Y-69330423D01*
X184346284Y-69409480D01*
X184234480Y-69521284D01*
X184155423Y-69658216D01*
X184114500Y-69810943D01*
X183311363Y-69810943D01*
X183218644Y-69792500D01*
X182705001Y-69792500D01*
X182705000Y-69792501D01*
X182705000Y-70392500D01*
X182455000Y-70392500D01*
X182455000Y-69792501D01*
X182454999Y-69792500D01*
X181941355Y-69792500D01*
X181767480Y-69827086D01*
X181767478Y-69827086D01*
X181603691Y-69894929D01*
X181456284Y-69993423D01*
X181330923Y-70118784D01*
X181232429Y-70266191D01*
X181164586Y-70429978D01*
X181164585Y-70429981D01*
X181137232Y-70567499D01*
X179692767Y-70567499D01*
X179665414Y-70429981D01*
X179665413Y-70429978D01*
X179597570Y-70266191D01*
X179499076Y-70118784D01*
X179373715Y-69993423D01*
X179226308Y-69894929D01*
X179062520Y-69827086D01*
X178888644Y-69792500D01*
X178525001Y-69792500D01*
X178525000Y-69792501D01*
X178525000Y-70392500D01*
X178275000Y-70392500D01*
X178275000Y-69792501D01*
X178274999Y-69792500D01*
X177911355Y-69792500D01*
X177737480Y-69827086D01*
X177737478Y-69827086D01*
X177573691Y-69894929D01*
X177426284Y-69993423D01*
X177300923Y-70118784D01*
X177202429Y-70266191D01*
X177134586Y-70429978D01*
X177134585Y-70429981D01*
X177107232Y-70567499D01*
X175750500Y-70567499D01*
X175750500Y-69233443D01*
X190964500Y-69233443D01*
X190964500Y-69391557D01*
X191005423Y-69544284D01*
X191084480Y-69681216D01*
X191196284Y-69793020D01*
X191333216Y-69872077D01*
X191485943Y-69913000D01*
X191485945Y-69913000D01*
X191644055Y-69913000D01*
X191644057Y-69913000D01*
X191796784Y-69872077D01*
X191933716Y-69793020D01*
X192045520Y-69681216D01*
X192124577Y-69544284D01*
X192165500Y-69391557D01*
X192165500Y-69233443D01*
X192124577Y-69080716D01*
X192045520Y-68943784D01*
X191933716Y-68831980D01*
X191796784Y-68752923D01*
X191644057Y-68712000D01*
X191485943Y-68712000D01*
X191333216Y-68752923D01*
X191196284Y-68831980D01*
X191084480Y-68943784D01*
X191005423Y-69080716D01*
X190964500Y-69233443D01*
X175750500Y-69233443D01*
X175750500Y-68929861D01*
X175750977Y-68920157D01*
X175759786Y-68830716D01*
X175762985Y-68798233D01*
X175766771Y-68779203D01*
X175780892Y-68732655D01*
X175800915Y-68666643D01*
X175808342Y-68648714D01*
X175818399Y-68629900D01*
X175863792Y-68544975D01*
X175874573Y-68528841D01*
X175878095Y-68524550D01*
X175949196Y-68437912D01*
X175962912Y-68424196D01*
X176053842Y-68349571D01*
X176069977Y-68338791D01*
X176173716Y-68283340D01*
X176191643Y-68275915D01*
X176304207Y-68241770D01*
X176323233Y-68237985D01*
X176445157Y-68225976D01*
X176454861Y-68225500D01*
X176497595Y-68225500D01*
X260002405Y-68225500D01*
X260045139Y-68225500D01*
X260054842Y-68225976D01*
G37*
%TD.AperFunction*%
%TD*%
M02*
