M48
; DRILL file {KiCad 9.0.3} date 2025-09-06T13:01:09-0700
; FORMAT={-:-/ absolute / metric / decimal}
; #@! TF.CreationDate,2025-09-06T13:01:09-07:00
; #@! TF.GenerationSoftware,Kicad,Pcbnew,9.0.3
; #@! TF.FileFunction,MixedPlating,1,4
FMAT,2
METRIC
; #@! TA.AperFunction,Plated,PTH,ViaDrill
T1C0.300
; #@! TA.AperFunction,Plated,PTH,ComponentDrill
T2C0.600
; #@! TA.AperFunction,NonPlated,NPTH,ComponentDrill
T3C0.650
; #@! TA.AperFunction,NonPlated,NPTH,ComponentDrill
T4C0.991
; #@! TA.AperFunction,NonPlated,NPTH,ComponentDrill
T5C2.375
%
G90
G05
T1
X176.45Y-68.875
X176.45Y-73.925
X176.45Y-78.975
X176.45Y-85.325
X177.25Y-99.425
X179.45Y-69.325
X179.465Y-80.712
X181.75Y-99.425
X184.115Y-71.812
X184.165Y-78.212
X184.691Y-74.332
X184.715Y-69.89
X184.9Y-75.962
X185.515Y-69.907
X186.365Y-69.312
X186.55Y-85.325
X186.65Y-99.425
X186.852Y-75.962
X187.0Y-80.925
X187.665Y-71.763
X189.388Y-73.16
X189.454Y-74.339
X189.78Y-72.462
X189.78Y-76.212
X189.795Y-75.062
X189.95Y-89.425
X190.75Y-99.425
X191.565Y-69.312
X192.062Y-76.297
X192.082Y-77.05
X192.85Y-95.425
X192.915Y-74.607
X193.185Y-72.093
X193.865Y-71.013
X194.05Y-80.725
X194.5Y-68.725
X194.815Y-70.362
X195.25Y-99.425
X195.949Y-77.349
X196.005Y-73.266
X196.715Y-70.312
X196.782Y-72.957
X197.075Y-76.227
X198.545Y-76.603
X198.549Y-75.675
X198.55Y-77.475
X198.55Y-78.375
X198.65Y-95.425
X198.751Y-81.891
X198.85Y-69.525
X199.55Y-68.725
X199.75Y-81.85
X200.75Y-81.85
X200.967Y-75.309
X201.15Y-99.425
X201.165Y-78.962
X201.35Y-69.625
X201.65Y-77.225
X201.75Y-81.825
X201.765Y-75.362
X201.865Y-73.712
X202.468Y-81.41
X202.65Y-70.725
X203.45Y-79.5
X204.15Y-70.725
X204.25Y-80.525
X204.35Y-81.852
X205.15Y-85.325
X205.153Y-71.558
X205.55Y-99.425
X207.645Y-69.062
X207.815Y-79.812
X207.865Y-81.112
X208.545Y-75.662
X210.2Y-85.325
X211.075Y-78.525
X211.115Y-77.212
X211.115Y-79.812
X213.233Y-75.062
X213.665Y-77.257
X214.365Y-80.513
X214.55Y-99.425
X214.912Y-68.805
X215.165Y-80.507
X215.25Y-85.325
X216.25Y-71.525
X217.015Y-68.712
X217.065Y-75.763
X219.05Y-99.425
X219.565Y-81.462
X220.3Y-85.325
X223.35Y-99.425
X225.35Y-85.325
X227.85Y-99.425
X229.9Y-69.275
X229.9Y-73.825
X229.9Y-79.875
X229.9Y-85.275
X231.65Y-99.425
X234.45Y-69.325
X236.15Y-99.425
X239.65Y-99.425
X240.5Y-69.325
X244.15Y-99.425
X245.9Y-69.325
X249.25Y-99.425
X251.95Y-69.325
X254.35Y-99.425
X256.5Y-69.325
X258.85Y-99.425
X259.95Y-69.325
X259.95Y-73.875
X259.95Y-79.925
X259.95Y-85.325
T3
X182.08Y-72.123
X182.08Y-77.903
T4
X207.539Y-75.042
X208.555Y-69.962
X209.571Y-75.042
T5
X206.015Y-69.962
X206.015Y-73.138
X211.095Y-69.962
X211.095Y-73.138
T2
G00X178.8Y-70.692
M15
G01X178.0Y-70.692
M16
G05
G00X178.8Y-79.332
M15
G01X178.0Y-79.332
M16
G05
G00X183.13Y-70.692
M15
G01X182.03Y-70.692
M16
G05
G00X183.13Y-79.332
M15
G01X182.03Y-79.332
M16
G05
M30
