%TF.GenerationSoftware,KiCad,Pcbnew,9.0.3*%
%TF.CreationDate,2025-09-06T00:14:13-07:00*%
%TF.ProjectId,business_card,62757369-6e65-4737-935f-636172642e6b,1.0*%
%TF.SameCoordinates,Original*%
%TF.FileFunction,Copper,L4,Bot*%
%TF.FilePolarity,Positive*%
%FSLAX46Y46*%
G04 Gerber Fmt 4.6, Leading zero omitted, Abs format (unit mm)*
G04 Created by KiCad (PCBNEW 9.0.3) date 2025-09-06 00:14:13*
%MOMM*%
%LPD*%
G01*
G04 APERTURE LIST*
%TA.AperFunction,HeatsinkPad*%
%ADD10O,1.800000X1.000000*%
%TD*%
%TA.AperFunction,HeatsinkPad*%
%ADD11O,2.100000X1.000000*%
%TD*%
%TA.AperFunction,ViaPad*%
%ADD12C,0.600000*%
%TD*%
%TA.AperFunction,ViaPad*%
%ADD13C,0.700000*%
%TD*%
%TA.AperFunction,Conductor*%
%ADD14C,0.200000*%
%TD*%
%TA.AperFunction,Conductor*%
%ADD15C,0.300000*%
%TD*%
G04 APERTURE END LIST*
D10*
%TO.P,J1,S1,SHIELD*%
%TO.N,GND*%
X178400000Y-79332500D03*
D11*
X182580000Y-79332500D03*
D10*
X178400000Y-70692500D03*
D11*
X182580000Y-70692500D03*
%TD*%
D12*
%TO.N,GND*%
X197075000Y-76227500D03*
X196781800Y-72957245D03*
X201865000Y-73712500D03*
X201165000Y-78962500D03*
D13*
X194500000Y-68725000D03*
X259950000Y-79925000D03*
D12*
X215165000Y-80507500D03*
X189780000Y-76212500D03*
X185515000Y-69907500D03*
X214365000Y-80512500D03*
X184115000Y-71812500D03*
D13*
X256500000Y-69325000D03*
X199550000Y-68725000D03*
D12*
X204350000Y-81852500D03*
D13*
X176450000Y-78975000D03*
D12*
X179465000Y-80712500D03*
D13*
X258850000Y-99425000D03*
D12*
X192082500Y-77050000D03*
D13*
X192850000Y-95425000D03*
X219050000Y-99425000D03*
D12*
X194815000Y-70362500D03*
D13*
X249250000Y-99425000D03*
X214550000Y-99425000D03*
D12*
X189795000Y-75062500D03*
D13*
X234450000Y-69325000D03*
D12*
X211115000Y-79812500D03*
D13*
X236150000Y-99425000D03*
X223350000Y-99425000D03*
X210200000Y-85325000D03*
X186550000Y-85325000D03*
D12*
X198850000Y-69525000D03*
D13*
X259950000Y-69325000D03*
X215250000Y-85325000D03*
X220300000Y-85325000D03*
X181750000Y-99425000D03*
X186650000Y-99425000D03*
D12*
X186365000Y-69312500D03*
X189780000Y-72462500D03*
X213665000Y-77257500D03*
D13*
X176450000Y-85325000D03*
X225350000Y-85325000D03*
X177250000Y-99425000D03*
D12*
X192062500Y-76297078D03*
D13*
X229900000Y-79875000D03*
D12*
X217015000Y-68712500D03*
D13*
X176450000Y-73925000D03*
X259950000Y-73875000D03*
X240500000Y-69325000D03*
D12*
X194050000Y-80725000D03*
D13*
X245900000Y-69325000D03*
D12*
X217065000Y-75762500D03*
D13*
X254350000Y-99425000D03*
D12*
X187000000Y-80925000D03*
X219565000Y-81462500D03*
D13*
X205150000Y-85325000D03*
D12*
X207815000Y-79812500D03*
D13*
X190750000Y-99425000D03*
D12*
X186852500Y-75962500D03*
D13*
X239650000Y-99425000D03*
X198650000Y-95425000D03*
X189950000Y-89425000D03*
X229900000Y-69275000D03*
X231650000Y-99425000D03*
D12*
X193865000Y-71012500D03*
D13*
X229900000Y-85275000D03*
X176450000Y-68875000D03*
X204150000Y-70725000D03*
X251950000Y-69325000D03*
X229900000Y-73825000D03*
D12*
X184691105Y-74331502D03*
D13*
X195250000Y-99425000D03*
D12*
X202467500Y-81410000D03*
D13*
X244150000Y-99425000D03*
X259950000Y-85325000D03*
D12*
X208545000Y-75662500D03*
X192915000Y-74607246D03*
D13*
X205550000Y-99425000D03*
X201150000Y-99425000D03*
D12*
X184165000Y-78212500D03*
X214911601Y-68804820D03*
X204250000Y-80525000D03*
D13*
X227850000Y-99425000D03*
D12*
X179450000Y-69325000D03*
X201350000Y-69625000D03*
%TO.N,+3.3V*%
X203450000Y-79500000D03*
X207865000Y-81112500D03*
X213233450Y-75062500D03*
D13*
X202650000Y-70725000D03*
D12*
X191565000Y-69312500D03*
X184715000Y-69890000D03*
X207645000Y-69062500D03*
X196715000Y-70312500D03*
X211075000Y-78525000D03*
X195948658Y-77348728D03*
X184900000Y-75962500D03*
X216250000Y-71525000D03*
X193184947Y-72092553D03*
%TO.N,BTN_12*%
X198549000Y-75675000D03*
X201750000Y-81825000D03*
%TO.N,BTN_11*%
X200750000Y-81850000D03*
X198545009Y-76603219D03*
%TO.N,BTN_10*%
X198550000Y-77475000D03*
X199750000Y-81850000D03*
%TO.N,BTN_09*%
X198550000Y-78375000D03*
X198750607Y-81891261D03*
%TO.N,USB_D+*%
X189453864Y-74338877D03*
X200966769Y-75309285D03*
%TO.N,USB_D-*%
X201765000Y-75362500D03*
X189388299Y-73160049D03*
%TO.N,I2S_WS*%
X201650000Y-77225000D03*
X211115000Y-77212500D03*
%TO.N,SWD_NRST*%
X187665000Y-71762500D03*
X205153017Y-71558453D03*
X196004919Y-73266394D03*
%TD*%
D14*
%TO.N,BTN_09*%
X198750607Y-78575607D02*
X198550000Y-78375000D01*
X198750607Y-81891261D02*
X198750607Y-78575607D01*
%TO.N,USB_D+*%
X195569588Y-74317374D02*
X200433477Y-74317374D01*
X189785495Y-74007246D02*
X195259460Y-74007246D01*
X200966769Y-74850666D02*
X200966769Y-75309285D01*
X200433477Y-74317374D02*
X200966769Y-74850666D01*
X189453864Y-74338877D02*
X189785495Y-74007246D01*
X195259460Y-74007246D02*
X195569588Y-74317374D01*
%TO.N,USB_D-*%
X201765000Y-75012500D02*
X201765000Y-75362500D01*
X189785495Y-73557245D02*
X195445827Y-73557245D01*
X200619894Y-73867394D02*
X201765000Y-75012500D01*
X195755976Y-73867394D02*
X200619894Y-73867394D01*
X195445827Y-73557245D02*
X195755976Y-73867394D01*
X189388299Y-73160049D02*
X189785495Y-73557245D01*
%TO.N,I2S_WS*%
X203361995Y-77225000D02*
X203374495Y-77212500D01*
X201650000Y-77225000D02*
X203361995Y-77225000D01*
X203374495Y-77212500D02*
X211115000Y-77212500D01*
D15*
%TO.N,SWD_NRST*%
X191200654Y-72962500D02*
X190000654Y-71762500D01*
X190000654Y-71762500D02*
X187665000Y-71762500D01*
X195968894Y-73266394D02*
X196004919Y-73266394D01*
X196512146Y-72306245D02*
X196004919Y-72813472D01*
X195701025Y-72962500D02*
X191200654Y-72962500D01*
X196004919Y-72813472D02*
X196004919Y-73266394D01*
X205153017Y-71558453D02*
X204405225Y-72306245D01*
X204405225Y-72306245D02*
X196512146Y-72306245D01*
X196004919Y-73266394D02*
X195701025Y-72962500D01*
D14*
%TO.N,BTN_12*%
X200564000Y-77690000D02*
X198549000Y-75675000D01*
X200564000Y-80639000D02*
X200564000Y-77690000D01*
X201750000Y-81825000D02*
X200564000Y-80639000D01*
%TO.N,BTN_11*%
X200000000Y-78058210D02*
X198545009Y-76603219D01*
X200000000Y-81100000D02*
X200000000Y-78058210D01*
X200750000Y-81850000D02*
X200000000Y-81100000D01*
%TO.N,BTN_10*%
X198550000Y-77475000D02*
X199300000Y-78225000D01*
X199300000Y-81400000D02*
X199750000Y-81850000D01*
X199300000Y-78225000D02*
X199300000Y-81400000D01*
%TD*%
%TA.AperFunction,Conductor*%
%TO.N,SWD_NRST*%
G36*
X196122927Y-72670489D02*
G01*
X196178149Y-72713294D01*
X196201462Y-72779160D01*
X196197422Y-72818019D01*
X196181300Y-72878188D01*
X196181300Y-73036302D01*
X196209772Y-73142562D01*
X196222224Y-73189031D01*
X196222225Y-73189034D01*
X196233386Y-73208365D01*
X196237536Y-73223852D01*
X196244977Y-73235431D01*
X196250000Y-73270366D01*
X196250000Y-73301000D01*
X196230315Y-73368039D01*
X196177511Y-73413794D01*
X196126000Y-73425000D01*
X195931337Y-73425000D01*
X195864298Y-73405315D01*
X195843656Y-73388681D01*
X195691742Y-73236767D01*
X195691736Y-73236762D01*
X195616161Y-73193129D01*
X195567945Y-73142562D01*
X195554723Y-73073955D01*
X195571830Y-73021949D01*
X195721780Y-72772033D01*
X195773148Y-72724678D01*
X195803785Y-72714242D01*
X196053329Y-72664334D01*
X196122927Y-72670489D01*
G37*
%TD.AperFunction*%
%TD*%
%TA.AperFunction,Conductor*%
%TO.N,GND*%
G36*
X260054842Y-68225976D02*
G01*
X260176764Y-68237985D01*
X260195794Y-68241770D01*
X260201133Y-68243390D01*
X260308354Y-68275915D01*
X260326285Y-68283342D01*
X260430022Y-68338791D01*
X260446158Y-68349573D01*
X260537083Y-68424193D01*
X260550806Y-68437916D01*
X260625426Y-68528841D01*
X260636208Y-68544977D01*
X260691657Y-68648714D01*
X260699084Y-68666645D01*
X260733228Y-68779203D01*
X260737014Y-68798237D01*
X260749023Y-68920157D01*
X260749500Y-68929861D01*
X260749500Y-120920138D01*
X260749023Y-120929842D01*
X260737014Y-121051762D01*
X260733228Y-121070796D01*
X260699084Y-121183354D01*
X260691657Y-121201285D01*
X260636208Y-121305022D01*
X260625426Y-121321158D01*
X260550806Y-121412083D01*
X260537083Y-121425806D01*
X260446158Y-121500426D01*
X260430022Y-121511208D01*
X260326285Y-121566657D01*
X260308354Y-121574084D01*
X260195796Y-121608228D01*
X260176763Y-121612014D01*
X260070719Y-121622459D01*
X260054841Y-121624023D01*
X260045139Y-121624500D01*
X176454861Y-121624500D01*
X176445157Y-121624023D01*
X176323237Y-121612014D01*
X176304203Y-121608228D01*
X176191645Y-121574084D01*
X176173714Y-121566657D01*
X176069977Y-121511208D01*
X176053841Y-121500426D01*
X175962916Y-121425806D01*
X175949193Y-121412083D01*
X175874573Y-121321158D01*
X175863791Y-121305022D01*
X175808342Y-121201285D01*
X175800915Y-121183354D01*
X175766771Y-121070796D01*
X175762985Y-121051762D01*
X175750977Y-120929842D01*
X175750500Y-120920138D01*
X175750500Y-79207499D01*
X177107232Y-79207499D01*
X177107233Y-79207500D01*
X177725758Y-79207500D01*
X177720444Y-79216704D01*
X177700000Y-79293004D01*
X177700000Y-79371996D01*
X177720444Y-79448296D01*
X177725758Y-79457500D01*
X177107232Y-79457500D01*
X177134585Y-79595018D01*
X177134586Y-79595021D01*
X177202429Y-79758808D01*
X177300923Y-79906215D01*
X177426284Y-80031576D01*
X177573691Y-80130070D01*
X177737479Y-80197913D01*
X177911355Y-80232499D01*
X177911359Y-80232500D01*
X178274999Y-80232500D01*
X178275000Y-80232499D01*
X178275000Y-79632500D01*
X178525000Y-79632500D01*
X178525000Y-80232499D01*
X178525001Y-80232500D01*
X178888641Y-80232500D01*
X178888644Y-80232499D01*
X179062519Y-80197913D01*
X179062521Y-80197913D01*
X179226308Y-80130070D01*
X179373715Y-80031576D01*
X179499076Y-79906215D01*
X179597570Y-79758808D01*
X179665413Y-79595021D01*
X179665414Y-79595018D01*
X179692768Y-79457500D01*
X179074242Y-79457500D01*
X179079556Y-79448296D01*
X179100000Y-79371996D01*
X179100000Y-79293004D01*
X179079556Y-79216704D01*
X179074242Y-79207500D01*
X179692767Y-79207500D01*
X179692767Y-79207499D01*
X181137232Y-79207499D01*
X181137233Y-79207500D01*
X181755758Y-79207500D01*
X181750444Y-79216704D01*
X181730000Y-79293004D01*
X181730000Y-79371996D01*
X181750444Y-79448296D01*
X181755758Y-79457500D01*
X181137232Y-79457500D01*
X181164585Y-79595018D01*
X181164586Y-79595021D01*
X181232429Y-79758808D01*
X181330923Y-79906215D01*
X181456284Y-80031576D01*
X181603691Y-80130070D01*
X181767479Y-80197913D01*
X181941355Y-80232499D01*
X181941359Y-80232500D01*
X182454999Y-80232500D01*
X182455000Y-80232499D01*
X182455000Y-79632500D01*
X182705000Y-79632500D01*
X182705000Y-80232499D01*
X182705001Y-80232500D01*
X183218641Y-80232500D01*
X183218644Y-80232499D01*
X183392519Y-80197913D01*
X183392521Y-80197913D01*
X183556308Y-80130070D01*
X183703715Y-80031576D01*
X183829076Y-79906215D01*
X183927570Y-79758808D01*
X183995413Y-79595021D01*
X183995414Y-79595018D01*
X184022768Y-79457500D01*
X183404242Y-79457500D01*
X183409556Y-79448296D01*
X183430000Y-79371996D01*
X183430000Y-79293004D01*
X183409556Y-79216704D01*
X183404242Y-79207500D01*
X184022767Y-79207500D01*
X184022767Y-79207499D01*
X183995414Y-79069981D01*
X183995413Y-79069978D01*
X183927570Y-78906191D01*
X183829076Y-78758784D01*
X183703715Y-78633423D01*
X183556308Y-78534929D01*
X183392520Y-78467086D01*
X183218644Y-78432500D01*
X182705001Y-78432500D01*
X182705000Y-78432501D01*
X182705000Y-79032500D01*
X182455000Y-79032500D01*
X182455000Y-78408970D01*
X182451666Y-78402427D01*
X182461237Y-78341995D01*
X182479440Y-78316939D01*
X182540515Y-78255865D01*
X182540518Y-78255860D01*
X182616279Y-78124639D01*
X182616279Y-78124637D01*
X182616281Y-78124635D01*
X182655500Y-77978266D01*
X182655500Y-77826734D01*
X182616281Y-77680365D01*
X182616279Y-77680362D01*
X182616279Y-77680360D01*
X182540518Y-77549139D01*
X182540516Y-77549137D01*
X182540515Y-77549135D01*
X182433365Y-77441985D01*
X182433362Y-77441983D01*
X182433360Y-77441981D01*
X182302138Y-77366220D01*
X182302140Y-77366220D01*
X182291974Y-77363496D01*
X182155766Y-77327000D01*
X182004234Y-77327000D01*
X181914652Y-77351003D01*
X181857860Y-77366220D01*
X181726639Y-77441981D01*
X181619481Y-77549139D01*
X181543720Y-77680360D01*
X181543719Y-77680365D01*
X181504500Y-77826734D01*
X181504500Y-77978266D01*
X181522242Y-78044480D01*
X181543720Y-78124639D01*
X181619481Y-78255860D01*
X181619483Y-78255862D01*
X181619485Y-78255865D01*
X181707421Y-78343801D01*
X181735197Y-78398316D01*
X181725626Y-78458748D01*
X181682361Y-78502013D01*
X181675302Y-78505267D01*
X181603689Y-78534930D01*
X181456284Y-78633423D01*
X181330923Y-78758784D01*
X181232429Y-78906191D01*
X181164586Y-79069978D01*
X181164585Y-79069981D01*
X181137232Y-79207499D01*
X179692767Y-79207499D01*
X179665414Y-79069981D01*
X179665413Y-79069978D01*
X179597570Y-78906191D01*
X179499076Y-78758784D01*
X179373715Y-78633423D01*
X179226308Y-78534929D01*
X179062520Y-78467086D01*
X178888644Y-78432500D01*
X178525001Y-78432500D01*
X178525000Y-78432501D01*
X178525000Y-79032500D01*
X178275000Y-79032500D01*
X178275000Y-78432501D01*
X178274999Y-78432500D01*
X177911355Y-78432500D01*
X177737480Y-78467086D01*
X177737478Y-78467086D01*
X177573691Y-78534929D01*
X177426284Y-78633423D01*
X177300923Y-78758784D01*
X177202429Y-78906191D01*
X177134586Y-79069978D01*
X177134585Y-79069981D01*
X177107232Y-79207499D01*
X175750500Y-79207499D01*
X175750500Y-77269671D01*
X195348158Y-77269671D01*
X195348158Y-77427785D01*
X195389081Y-77580512D01*
X195468138Y-77717444D01*
X195579942Y-77829248D01*
X195716874Y-77908305D01*
X195869601Y-77949228D01*
X195869603Y-77949228D01*
X196027713Y-77949228D01*
X196027715Y-77949228D01*
X196180442Y-77908305D01*
X196317374Y-77829248D01*
X196429178Y-77717444D01*
X196508235Y-77580512D01*
X196549158Y-77427785D01*
X196549158Y-77269671D01*
X196508235Y-77116944D01*
X196429178Y-76980012D01*
X196317374Y-76868208D01*
X196180442Y-76789151D01*
X196027715Y-76748228D01*
X195869601Y-76748228D01*
X195716874Y-76789151D01*
X195579942Y-76868208D01*
X195468138Y-76980012D01*
X195389081Y-77116944D01*
X195348158Y-77269671D01*
X175750500Y-77269671D01*
X175750500Y-75883443D01*
X184299500Y-75883443D01*
X184299500Y-76041557D01*
X184340423Y-76194284D01*
X184419480Y-76331216D01*
X184531284Y-76443020D01*
X184668216Y-76522077D01*
X184820943Y-76563000D01*
X184820945Y-76563000D01*
X184979055Y-76563000D01*
X184979057Y-76563000D01*
X185124003Y-76524162D01*
X197944509Y-76524162D01*
X197944509Y-76682276D01*
X197985432Y-76835003D01*
X198064489Y-76971935D01*
X198064491Y-76971937D01*
X198064494Y-76971942D01*
X198068440Y-76977085D01*
X198067402Y-76977880D01*
X198092029Y-77026214D01*
X198082458Y-77086646D01*
X198072798Y-77101958D01*
X198069485Y-77106276D01*
X198069480Y-77106283D01*
X198069480Y-77106284D01*
X197990423Y-77243216D01*
X197949500Y-77395943D01*
X197949500Y-77554057D01*
X197990423Y-77706784D01*
X198069480Y-77843716D01*
X198069482Y-77843718D01*
X198080762Y-77854999D01*
X198108538Y-77909516D01*
X198098964Y-77969948D01*
X198080762Y-77995001D01*
X198069482Y-78006281D01*
X198069480Y-78006283D01*
X198069480Y-78006284D01*
X197990423Y-78143216D01*
X197949500Y-78295943D01*
X197949500Y-78454057D01*
X197990423Y-78606784D01*
X198069480Y-78743716D01*
X198181284Y-78855520D01*
X198181286Y-78855521D01*
X198181324Y-78855559D01*
X198190814Y-78863863D01*
X198320951Y-78993409D01*
X198348853Y-79047861D01*
X198350107Y-79063571D01*
X198350107Y-81212168D01*
X198344178Y-81245914D01*
X198202599Y-81636387D01*
X198195270Y-81652132D01*
X198191032Y-81659472D01*
X198191028Y-81659483D01*
X198183077Y-81689156D01*
X198180524Y-81697272D01*
X198173787Y-81715854D01*
X198166860Y-81737423D01*
X198166389Y-81739100D01*
X198159772Y-81768010D01*
X198159147Y-81773761D01*
X198158319Y-81773671D01*
X198156356Y-81788877D01*
X198150107Y-81812200D01*
X198150107Y-81812204D01*
X198150107Y-81970318D01*
X198191030Y-82123045D01*
X198270087Y-82259977D01*
X198381891Y-82371781D01*
X198518823Y-82450838D01*
X198671550Y-82491761D01*
X198671552Y-82491761D01*
X198829662Y-82491761D01*
X198829664Y-82491761D01*
X198982391Y-82450838D01*
X199119323Y-82371781D01*
X199200932Y-82290171D01*
X199255447Y-82262396D01*
X199315879Y-82271967D01*
X199340934Y-82290170D01*
X199381284Y-82330520D01*
X199518216Y-82409577D01*
X199670943Y-82450500D01*
X199670945Y-82450500D01*
X199829055Y-82450500D01*
X199829057Y-82450500D01*
X199981784Y-82409577D01*
X200118716Y-82330520D01*
X200179998Y-82269237D01*
X200234513Y-82241462D01*
X200294945Y-82251033D01*
X200320000Y-82269236D01*
X200381284Y-82330520D01*
X200518216Y-82409577D01*
X200670943Y-82450500D01*
X200670945Y-82450500D01*
X200829055Y-82450500D01*
X200829057Y-82450500D01*
X200981784Y-82409577D01*
X201118716Y-82330520D01*
X201192497Y-82256738D01*
X201247011Y-82228962D01*
X201307443Y-82238533D01*
X201332502Y-82256739D01*
X201365937Y-82290173D01*
X201381284Y-82305520D01*
X201518216Y-82384577D01*
X201670943Y-82425500D01*
X201670945Y-82425500D01*
X201829055Y-82425500D01*
X201829057Y-82425500D01*
X201981784Y-82384577D01*
X202118716Y-82305520D01*
X202230520Y-82193716D01*
X202309577Y-82056784D01*
X202350500Y-81904057D01*
X202350500Y-81745943D01*
X202309577Y-81593216D01*
X202230520Y-81456284D01*
X202118716Y-81344480D01*
X202050803Y-81305270D01*
X202033823Y-81293088D01*
X202012100Y-81282926D01*
X202008406Y-81280793D01*
X202008405Y-81280791D01*
X201981785Y-81265423D01*
X201981786Y-81265423D01*
X201973587Y-81263226D01*
X201957265Y-81257273D01*
X201656614Y-81116627D01*
X201581063Y-81081284D01*
X201553008Y-81061615D01*
X201524836Y-81033443D01*
X207264500Y-81033443D01*
X207264500Y-81191557D01*
X207305423Y-81344284D01*
X207384480Y-81481216D01*
X207496284Y-81593020D01*
X207633216Y-81672077D01*
X207785943Y-81713000D01*
X207785945Y-81713000D01*
X207944055Y-81713000D01*
X207944057Y-81713000D01*
X208096784Y-81672077D01*
X208233716Y-81593020D01*
X208345520Y-81481216D01*
X208424577Y-81344284D01*
X208465500Y-81191557D01*
X208465500Y-81033443D01*
X208424577Y-80880716D01*
X208345520Y-80743784D01*
X208233716Y-80631980D01*
X208096784Y-80552923D01*
X207944057Y-80512000D01*
X207785943Y-80512000D01*
X207633216Y-80552923D01*
X207496284Y-80631980D01*
X207384480Y-80743784D01*
X207305423Y-80880716D01*
X207264500Y-81033443D01*
X201524836Y-81033443D01*
X200993496Y-80502103D01*
X200965719Y-80447586D01*
X200964500Y-80432099D01*
X200964500Y-79420943D01*
X202849500Y-79420943D01*
X202849500Y-79579057D01*
X202890423Y-79731784D01*
X202969480Y-79868716D01*
X203081284Y-79980520D01*
X203218216Y-80059577D01*
X203370943Y-80100500D01*
X203370945Y-80100500D01*
X203529055Y-80100500D01*
X203529057Y-80100500D01*
X203681784Y-80059577D01*
X203818716Y-79980520D01*
X203930520Y-79868716D01*
X204009577Y-79731784D01*
X204050500Y-79579057D01*
X204050500Y-79420943D01*
X204009577Y-79268216D01*
X203930520Y-79131284D01*
X203818716Y-79019480D01*
X203681784Y-78940423D01*
X203529057Y-78899500D01*
X203370943Y-78899500D01*
X203218216Y-78940423D01*
X203081284Y-79019480D01*
X202969480Y-79131284D01*
X202890423Y-79268216D01*
X202849500Y-79420943D01*
X200964500Y-79420943D01*
X200964500Y-77637274D01*
X200959829Y-77619842D01*
X200963032Y-77558740D01*
X201001537Y-77511190D01*
X201060638Y-77495355D01*
X201117759Y-77517282D01*
X201141191Y-77544717D01*
X201169480Y-77593716D01*
X201281284Y-77705520D01*
X201418216Y-77784577D01*
X201570943Y-77825500D01*
X201570945Y-77825500D01*
X201729057Y-77825500D01*
X201804800Y-77805204D01*
X201825424Y-77801812D01*
X201847969Y-77793637D01*
X201876301Y-77786046D01*
X201881781Y-77784578D01*
X201881781Y-77784577D01*
X201881784Y-77784577D01*
X201889134Y-77780333D01*
X201904874Y-77773004D01*
X202295347Y-77631429D01*
X202329092Y-77625500D01*
X203414721Y-77625500D01*
X203414722Y-77625500D01*
X203448785Y-77616372D01*
X203474407Y-77613000D01*
X210435908Y-77613000D01*
X210469653Y-77618929D01*
X210860113Y-77760500D01*
X210873200Y-77766349D01*
X210874563Y-77767080D01*
X210883216Y-77772077D01*
X210884517Y-77772425D01*
X210890437Y-77775604D01*
X210908335Y-77794289D01*
X210928015Y-77811097D01*
X210929212Y-77816084D01*
X210932761Y-77819789D01*
X210936258Y-77845427D01*
X210942300Y-77870591D01*
X210940336Y-77875330D01*
X210941030Y-77880413D01*
X210928790Y-77903209D01*
X210918887Y-77927120D01*
X210914448Y-77929920D01*
X210912087Y-77934319D01*
X210892468Y-77943789D01*
X210869230Y-77958452D01*
X210843218Y-77965422D01*
X210843216Y-77965422D01*
X210843216Y-77965423D01*
X210706284Y-78044480D01*
X210594480Y-78156284D01*
X210515423Y-78293216D01*
X210474500Y-78445943D01*
X210474500Y-78604057D01*
X210515423Y-78756784D01*
X210594480Y-78893716D01*
X210706284Y-79005520D01*
X210843216Y-79084577D01*
X210995943Y-79125500D01*
X210995945Y-79125500D01*
X211154055Y-79125500D01*
X211154057Y-79125500D01*
X211306784Y-79084577D01*
X211443716Y-79005520D01*
X211555520Y-78893716D01*
X211634577Y-78756784D01*
X211675500Y-78604057D01*
X211675500Y-78445943D01*
X211634577Y-78293216D01*
X211555520Y-78156284D01*
X211443716Y-78044480D01*
X211306784Y-77965423D01*
X211306781Y-77965422D01*
X211301164Y-77962179D01*
X211302058Y-77960630D01*
X211261979Y-77926395D01*
X211247700Y-77866899D01*
X211271118Y-77810373D01*
X211320771Y-77779047D01*
X211346784Y-77772077D01*
X211483716Y-77693020D01*
X211595520Y-77581216D01*
X211674577Y-77444284D01*
X211715500Y-77291557D01*
X211715500Y-77133443D01*
X211674577Y-76980716D01*
X211595520Y-76843784D01*
X211483716Y-76731980D01*
X211346784Y-76652923D01*
X211194057Y-76612000D01*
X211035943Y-76612000D01*
X211035940Y-76612000D01*
X210964935Y-76631025D01*
X210964934Y-76631024D01*
X210960191Y-76632294D01*
X210939577Y-76635686D01*
X210917029Y-76643860D01*
X210912917Y-76644963D01*
X210912906Y-76644967D01*
X210883218Y-76652922D01*
X210883210Y-76652925D01*
X210875870Y-76657163D01*
X210860125Y-76664492D01*
X210469648Y-76806071D01*
X210435902Y-76812000D01*
X203427226Y-76812000D01*
X203427222Y-76811999D01*
X203321768Y-76811999D01*
X203278645Y-76823554D01*
X203269290Y-76824237D01*
X203267473Y-76823790D01*
X203262082Y-76824500D01*
X202329096Y-76824500D01*
X202295350Y-76818571D01*
X201904877Y-76676994D01*
X201889125Y-76669661D01*
X201887802Y-76668897D01*
X201881785Y-76665423D01*
X201874494Y-76663469D01*
X201852079Y-76657463D01*
X201843973Y-76654912D01*
X201825417Y-76648183D01*
X201804030Y-76641309D01*
X201802370Y-76640842D01*
X201802365Y-76640841D01*
X201802355Y-76640838D01*
X201773242Y-76634164D01*
X201773239Y-76634164D01*
X201773235Y-76634163D01*
X201767489Y-76633537D01*
X201767578Y-76632713D01*
X201752381Y-76630749D01*
X201747234Y-76629370D01*
X201729057Y-76624500D01*
X201570943Y-76624500D01*
X201418216Y-76665423D01*
X201281284Y-76744480D01*
X201169480Y-76856284D01*
X201090423Y-76993216D01*
X201052850Y-77133443D01*
X201049500Y-77145944D01*
X201049500Y-77304056D01*
X201067800Y-77372355D01*
X201064597Y-77433456D01*
X201026092Y-77481006D01*
X200966991Y-77496841D01*
X200909870Y-77474914D01*
X200886438Y-77447478D01*
X200884480Y-77444087D01*
X200868176Y-77427783D01*
X200809913Y-77369519D01*
X200809913Y-77369520D01*
X199312386Y-75871993D01*
X199292717Y-75843939D01*
X199289553Y-75837175D01*
X199113029Y-75459831D01*
X199108577Y-75443216D01*
X199091073Y-75412899D01*
X199080911Y-75391175D01*
X199077823Y-75385169D01*
X199070493Y-75370909D01*
X199069645Y-75369402D01*
X199069637Y-75369388D01*
X199053957Y-75344405D01*
X199050341Y-75339907D01*
X199051018Y-75339362D01*
X199041618Y-75327239D01*
X199029520Y-75306284D01*
X198917716Y-75194480D01*
X198780784Y-75115423D01*
X198628057Y-75074500D01*
X198469943Y-75074500D01*
X198317216Y-75115423D01*
X198180284Y-75194480D01*
X198068480Y-75306284D01*
X197989423Y-75443216D01*
X197948500Y-75595943D01*
X197948500Y-75754057D01*
X197989423Y-75906784D01*
X198068480Y-76043716D01*
X198091875Y-76067111D01*
X198119651Y-76121626D01*
X198110080Y-76182058D01*
X198091876Y-76207114D01*
X198064491Y-76234500D01*
X198064489Y-76234502D01*
X198064489Y-76234503D01*
X197985432Y-76371435D01*
X197944509Y-76524162D01*
X185124003Y-76524162D01*
X185131784Y-76522077D01*
X185268716Y-76443020D01*
X185380520Y-76331216D01*
X185459577Y-76194284D01*
X185500500Y-76041557D01*
X185500500Y-75883443D01*
X185459577Y-75730716D01*
X185380520Y-75593784D01*
X185268716Y-75481980D01*
X185131784Y-75402923D01*
X184979057Y-75362000D01*
X184820943Y-75362000D01*
X184668216Y-75402923D01*
X184531284Y-75481980D01*
X184419480Y-75593784D01*
X184340423Y-75730716D01*
X184299500Y-75883443D01*
X175750500Y-75883443D01*
X175750500Y-70567499D01*
X177107232Y-70567499D01*
X177107233Y-70567500D01*
X177725758Y-70567500D01*
X177720444Y-70576704D01*
X177700000Y-70653004D01*
X177700000Y-70731996D01*
X177720444Y-70808296D01*
X177725758Y-70817500D01*
X177107232Y-70817500D01*
X177134585Y-70955018D01*
X177134586Y-70955021D01*
X177202429Y-71118808D01*
X177300923Y-71266215D01*
X177426284Y-71391576D01*
X177573691Y-71490070D01*
X177737479Y-71557913D01*
X177911355Y-71592499D01*
X177911359Y-71592500D01*
X178274999Y-71592500D01*
X178275000Y-71592499D01*
X178275000Y-70992500D01*
X178525000Y-70992500D01*
X178525000Y-71592499D01*
X178525001Y-71592500D01*
X178888641Y-71592500D01*
X178888644Y-71592499D01*
X179062519Y-71557913D01*
X179062521Y-71557913D01*
X179226308Y-71490070D01*
X179373715Y-71391576D01*
X179499076Y-71266215D01*
X179597570Y-71118808D01*
X179665413Y-70955021D01*
X179665414Y-70955018D01*
X179692768Y-70817500D01*
X179074242Y-70817500D01*
X179079556Y-70808296D01*
X179100000Y-70731996D01*
X179100000Y-70653004D01*
X179079556Y-70576704D01*
X179074242Y-70567500D01*
X179692767Y-70567500D01*
X179692767Y-70567499D01*
X181137232Y-70567499D01*
X181137233Y-70567500D01*
X181755758Y-70567500D01*
X181750444Y-70576704D01*
X181730000Y-70653004D01*
X181730000Y-70731996D01*
X181750444Y-70808296D01*
X181755758Y-70817500D01*
X181137232Y-70817500D01*
X181164585Y-70955018D01*
X181164586Y-70955021D01*
X181232429Y-71118808D01*
X181330923Y-71266215D01*
X181456284Y-71391576D01*
X181603690Y-71490070D01*
X181675301Y-71519732D01*
X181721827Y-71559468D01*
X181736111Y-71618963D01*
X181712697Y-71675491D01*
X181707420Y-71681199D01*
X181619485Y-71769134D01*
X181619481Y-71769139D01*
X181543720Y-71900360D01*
X181531557Y-71945755D01*
X181504500Y-72046734D01*
X181504500Y-72198266D01*
X181539086Y-72327347D01*
X181543720Y-72344639D01*
X181619481Y-72475860D01*
X181619483Y-72475862D01*
X181619485Y-72475865D01*
X181726635Y-72583015D01*
X181726637Y-72583016D01*
X181726639Y-72583018D01*
X181857861Y-72658779D01*
X181857859Y-72658779D01*
X181857863Y-72658780D01*
X181857865Y-72658781D01*
X182004234Y-72698000D01*
X182004236Y-72698000D01*
X182155764Y-72698000D01*
X182155766Y-72698000D01*
X182302135Y-72658781D01*
X182302137Y-72658779D01*
X182302139Y-72658779D01*
X182433360Y-72583018D01*
X182433360Y-72583017D01*
X182433365Y-72583015D01*
X182540515Y-72475865D01*
X182576160Y-72414126D01*
X182616279Y-72344639D01*
X182616279Y-72344637D01*
X182616281Y-72344635D01*
X182655500Y-72198266D01*
X182655500Y-72046734D01*
X182616281Y-71900365D01*
X182616279Y-71900362D01*
X182616279Y-71900360D01*
X182540518Y-71769139D01*
X182540516Y-71769137D01*
X182540515Y-71769135D01*
X182479441Y-71708061D01*
X182466898Y-71683443D01*
X187064500Y-71683443D01*
X187064500Y-71841557D01*
X187105423Y-71994284D01*
X187184480Y-72131216D01*
X187296284Y-72243020D01*
X187433216Y-72322077D01*
X187585943Y-72363000D01*
X187585945Y-72363000D01*
X187744057Y-72363000D01*
X187782483Y-72352703D01*
X187800358Y-72349635D01*
X187814989Y-72348489D01*
X188305571Y-72216403D01*
X188331309Y-72213000D01*
X189773043Y-72213000D01*
X189831234Y-72231907D01*
X189843047Y-72241996D01*
X190588792Y-72987741D01*
X190616569Y-73042258D01*
X190606998Y-73102690D01*
X190563733Y-73145955D01*
X190518788Y-73156745D01*
X190098704Y-73156745D01*
X190072419Y-73148204D01*
X190045657Y-73141333D01*
X190043630Y-73138851D01*
X190040513Y-73137838D01*
X190006656Y-73094189D01*
X190006435Y-73093631D01*
X189971547Y-73002025D01*
X189967028Y-72994100D01*
X189964452Y-72987593D01*
X189964294Y-72985096D01*
X189960873Y-72976772D01*
X189947876Y-72928265D01*
X189868819Y-72791333D01*
X189757015Y-72679529D01*
X189620083Y-72600472D01*
X189467356Y-72559549D01*
X189309242Y-72559549D01*
X189156515Y-72600472D01*
X189019583Y-72679529D01*
X188907779Y-72791333D01*
X188828722Y-72928265D01*
X188787799Y-73080992D01*
X188787799Y-73239106D01*
X188828722Y-73391833D01*
X188907779Y-73528765D01*
X189019583Y-73640569D01*
X189092476Y-73682653D01*
X189133417Y-73728121D01*
X189139813Y-73788971D01*
X189109221Y-73841960D01*
X189092481Y-73854123D01*
X189085149Y-73858356D01*
X189085148Y-73858357D01*
X188973344Y-73970161D01*
X188894287Y-74107093D01*
X188853364Y-74259820D01*
X188853364Y-74417934D01*
X188894287Y-74570661D01*
X188973344Y-74707593D01*
X189085148Y-74819397D01*
X189222080Y-74898454D01*
X189374807Y-74939377D01*
X189374809Y-74939377D01*
X189532919Y-74939377D01*
X189532921Y-74939377D01*
X189685648Y-74898454D01*
X189822580Y-74819397D01*
X189934384Y-74707593D01*
X189961436Y-74660735D01*
X189969252Y-74649169D01*
X189980279Y-74635106D01*
X190066212Y-74470100D01*
X190070942Y-74461018D01*
X190114590Y-74418140D01*
X190158748Y-74407746D01*
X195052559Y-74407746D01*
X195110750Y-74426653D01*
X195122562Y-74436742D01*
X195323674Y-74637853D01*
X195323679Y-74637857D01*
X195414996Y-74690579D01*
X195414994Y-74690579D01*
X195414998Y-74690580D01*
X195415000Y-74690581D01*
X195516861Y-74717874D01*
X195622315Y-74717874D01*
X200226577Y-74717874D01*
X200234174Y-74720342D01*
X200242064Y-74719093D01*
X200262718Y-74729616D01*
X200284768Y-74736781D01*
X200296580Y-74746870D01*
X200414912Y-74865201D01*
X200442690Y-74919718D01*
X200439731Y-74963662D01*
X200383613Y-75150654D01*
X200379804Y-75164523D01*
X200379552Y-75165532D01*
X200375129Y-75186300D01*
X200374587Y-75191707D01*
X200374036Y-75191651D01*
X200371732Y-75209836D01*
X200366269Y-75230223D01*
X200366269Y-75230228D01*
X200366269Y-75388342D01*
X200407192Y-75541069D01*
X200486249Y-75678001D01*
X200598053Y-75789805D01*
X200734985Y-75868862D01*
X200887712Y-75909785D01*
X200887714Y-75909785D01*
X201045824Y-75909785D01*
X201045826Y-75909785D01*
X201198553Y-75868862D01*
X201274507Y-75825010D01*
X201334351Y-75812289D01*
X201390247Y-75837175D01*
X201393988Y-75840724D01*
X201396284Y-75843020D01*
X201533216Y-75922077D01*
X201685943Y-75963000D01*
X201685945Y-75963000D01*
X201844055Y-75963000D01*
X201844057Y-75963000D01*
X201996784Y-75922077D01*
X202133716Y-75843020D01*
X202245520Y-75731216D01*
X202324577Y-75594284D01*
X202365500Y-75441557D01*
X202365500Y-75283443D01*
X202324577Y-75130716D01*
X202245520Y-74993784D01*
X202235842Y-74984106D01*
X202223436Y-74969042D01*
X206793200Y-74969042D01*
X206793200Y-75115957D01*
X206821860Y-75260041D01*
X206821860Y-75260043D01*
X206878078Y-75395766D01*
X206878078Y-75395767D01*
X206901764Y-75431215D01*
X206959699Y-75517920D01*
X207063580Y-75621801D01*
X207185731Y-75703420D01*
X207321458Y-75759640D01*
X207465545Y-75788300D01*
X207465547Y-75788300D01*
X207612453Y-75788300D01*
X207612455Y-75788300D01*
X207756542Y-75759640D01*
X207892269Y-75703420D01*
X208014420Y-75621801D01*
X208118301Y-75517920D01*
X208199920Y-75395769D01*
X208256140Y-75260042D01*
X208284800Y-75115955D01*
X208284800Y-74969045D01*
X208284799Y-74969042D01*
X208825200Y-74969042D01*
X208825200Y-75115957D01*
X208853860Y-75260041D01*
X208853860Y-75260043D01*
X208910078Y-75395766D01*
X208910078Y-75395767D01*
X208933764Y-75431215D01*
X208991699Y-75517920D01*
X209095580Y-75621801D01*
X209217731Y-75703420D01*
X209353458Y-75759640D01*
X209497545Y-75788300D01*
X209497547Y-75788300D01*
X209644453Y-75788300D01*
X209644455Y-75788300D01*
X209788542Y-75759640D01*
X209924269Y-75703420D01*
X210046420Y-75621801D01*
X210150301Y-75517920D01*
X210231920Y-75395769D01*
X210288140Y-75260042D01*
X210316800Y-75115955D01*
X210316800Y-74983443D01*
X212632950Y-74983443D01*
X212632950Y-75141557D01*
X212673873Y-75294284D01*
X212752930Y-75431216D01*
X212864734Y-75543020D01*
X213001666Y-75622077D01*
X213154393Y-75663000D01*
X213154395Y-75663000D01*
X213312505Y-75663000D01*
X213312507Y-75663000D01*
X213465234Y-75622077D01*
X213602166Y-75543020D01*
X213713970Y-75431216D01*
X213793027Y-75294284D01*
X213833950Y-75141557D01*
X213833950Y-74983443D01*
X213793027Y-74830716D01*
X213713970Y-74693784D01*
X213602166Y-74581980D01*
X213465234Y-74502923D01*
X213312507Y-74462000D01*
X213154393Y-74462000D01*
X213001666Y-74502923D01*
X212864734Y-74581980D01*
X212752930Y-74693784D01*
X212673873Y-74830716D01*
X212632950Y-74983443D01*
X210316800Y-74983443D01*
X210316800Y-74969045D01*
X210288140Y-74824958D01*
X210239526Y-74707593D01*
X210231921Y-74689233D01*
X210231921Y-74689232D01*
X210197590Y-74637853D01*
X210150301Y-74567080D01*
X210046420Y-74463199D01*
X209924269Y-74381580D01*
X209924268Y-74381579D01*
X209924266Y-74381578D01*
X209788542Y-74325360D01*
X209644457Y-74296700D01*
X209644455Y-74296700D01*
X209497545Y-74296700D01*
X209497542Y-74296700D01*
X209353458Y-74325360D01*
X209353456Y-74325360D01*
X209217733Y-74381578D01*
X209217732Y-74381578D01*
X209095580Y-74463199D01*
X209095576Y-74463202D01*
X208991702Y-74567076D01*
X208991699Y-74567080D01*
X208910078Y-74689232D01*
X208910078Y-74689233D01*
X208853860Y-74824956D01*
X208853860Y-74824958D01*
X208825200Y-74969042D01*
X208284799Y-74969042D01*
X208256140Y-74824958D01*
X208207526Y-74707593D01*
X208199921Y-74689233D01*
X208199921Y-74689232D01*
X208165590Y-74637853D01*
X208118301Y-74567080D01*
X208014420Y-74463199D01*
X207892269Y-74381580D01*
X207892268Y-74381579D01*
X207892266Y-74381578D01*
X207756542Y-74325360D01*
X207612457Y-74296700D01*
X207612455Y-74296700D01*
X207465545Y-74296700D01*
X207465542Y-74296700D01*
X207321458Y-74325360D01*
X207321456Y-74325360D01*
X207185733Y-74381578D01*
X207185732Y-74381578D01*
X207063580Y-74463199D01*
X207063576Y-74463202D01*
X206959702Y-74567076D01*
X206959699Y-74567080D01*
X206878078Y-74689232D01*
X206878078Y-74689233D01*
X206821860Y-74824956D01*
X206821860Y-74824958D01*
X206793200Y-74969042D01*
X202223436Y-74969042D01*
X202153960Y-74884677D01*
X202138916Y-74859626D01*
X202138208Y-74857919D01*
X202138207Y-74857913D01*
X202085480Y-74766587D01*
X202048509Y-74729616D01*
X202010913Y-74692019D01*
X202010913Y-74692020D01*
X201922454Y-74603561D01*
X201907027Y-74584828D01*
X201897266Y-74573548D01*
X201896507Y-74572713D01*
X201881422Y-74557252D01*
X201866274Y-74547381D01*
X200865807Y-73546914D01*
X200865804Y-73546912D01*
X200865803Y-73546911D01*
X200865802Y-73546910D01*
X200774485Y-73494188D01*
X200774487Y-73494188D01*
X200734964Y-73483598D01*
X200672621Y-73466894D01*
X200672619Y-73466894D01*
X196701898Y-73466894D01*
X196643707Y-73447987D01*
X196607743Y-73398487D01*
X196606526Y-73352140D01*
X196604572Y-73351883D01*
X196605419Y-73345450D01*
X196605419Y-73187338D01*
X196605419Y-73187337D01*
X196598070Y-73159909D01*
X196596788Y-73154525D01*
X196595091Y-73146402D01*
X196594397Y-73128455D01*
X196556799Y-72963038D01*
X196556625Y-72962203D01*
X196559839Y-72932629D01*
X196562536Y-72902973D01*
X196563164Y-72902044D01*
X196563237Y-72901376D01*
X196564736Y-72899722D01*
X196583528Y-72871964D01*
X196669753Y-72785741D01*
X196724270Y-72757964D01*
X196739756Y-72756745D01*
X204464532Y-72756745D01*
X204464534Y-72756745D01*
X204479043Y-72752857D01*
X204540142Y-72756057D01*
X204587693Y-72794561D01*
X204603532Y-72853661D01*
X204602448Y-72863970D01*
X204577050Y-73024327D01*
X204577050Y-73250671D01*
X204612456Y-73474216D01*
X204682400Y-73689481D01*
X204768445Y-73858356D01*
X204785155Y-73891150D01*
X204918193Y-74074261D01*
X205078239Y-74234307D01*
X205261350Y-74367345D01*
X205463019Y-74470100D01*
X205678279Y-74540042D01*
X205678280Y-74540042D01*
X205678283Y-74540043D01*
X205901828Y-74575450D01*
X205901831Y-74575450D01*
X206128172Y-74575450D01*
X206351716Y-74540043D01*
X206351717Y-74540042D01*
X206351721Y-74540042D01*
X206566981Y-74470100D01*
X206768650Y-74367345D01*
X206951761Y-74234307D01*
X207111807Y-74074261D01*
X207244845Y-73891150D01*
X207347600Y-73689481D01*
X207417542Y-73474221D01*
X207421697Y-73447987D01*
X207452950Y-73250671D01*
X207452950Y-73024328D01*
X209657050Y-73024328D01*
X209657050Y-73250671D01*
X209692456Y-73474216D01*
X209762400Y-73689481D01*
X209848445Y-73858356D01*
X209865155Y-73891150D01*
X209998193Y-74074261D01*
X210158239Y-74234307D01*
X210341350Y-74367345D01*
X210543019Y-74470100D01*
X210758279Y-74540042D01*
X210758280Y-74540042D01*
X210758283Y-74540043D01*
X210981828Y-74575450D01*
X210981831Y-74575450D01*
X211208172Y-74575450D01*
X211431716Y-74540043D01*
X211431717Y-74540042D01*
X211431721Y-74540042D01*
X211646981Y-74470100D01*
X211848650Y-74367345D01*
X212031761Y-74234307D01*
X212191807Y-74074261D01*
X212324845Y-73891150D01*
X212427600Y-73689481D01*
X212497542Y-73474221D01*
X212501697Y-73447987D01*
X212532950Y-73250671D01*
X212532950Y-73024328D01*
X212497543Y-72800783D01*
X212497542Y-72800779D01*
X212427600Y-72585519D01*
X212324845Y-72383850D01*
X212191807Y-72200739D01*
X212031761Y-72040693D01*
X211848650Y-71907655D01*
X211848649Y-71907654D01*
X211848647Y-71907653D01*
X211646981Y-71804900D01*
X211431716Y-71734956D01*
X211208172Y-71699550D01*
X211208169Y-71699550D01*
X210981831Y-71699550D01*
X210981828Y-71699550D01*
X210758283Y-71734956D01*
X210543018Y-71804900D01*
X210341352Y-71907653D01*
X210158240Y-72040692D01*
X209998192Y-72200740D01*
X209865153Y-72383852D01*
X209762400Y-72585518D01*
X209692456Y-72800783D01*
X209657050Y-73024328D01*
X207452950Y-73024328D01*
X207417543Y-72800783D01*
X207417542Y-72800779D01*
X207347600Y-72585519D01*
X207244845Y-72383850D01*
X207111807Y-72200739D01*
X206951761Y-72040693D01*
X206768650Y-71907655D01*
X206768649Y-71907654D01*
X206768647Y-71907653D01*
X206566981Y-71804900D01*
X206351716Y-71734956D01*
X206128172Y-71699550D01*
X206128169Y-71699550D01*
X205901831Y-71699550D01*
X205901828Y-71699550D01*
X205868004Y-71704907D01*
X205845112Y-71701281D01*
X205821924Y-71701281D01*
X205815459Y-71696584D01*
X205807572Y-71695335D01*
X205791182Y-71678945D01*
X205772424Y-71665317D01*
X205769955Y-71657719D01*
X205764307Y-71652071D01*
X205753517Y-71607126D01*
X205753517Y-71492873D01*
X205768765Y-71445943D01*
X215649500Y-71445943D01*
X215649500Y-71604057D01*
X215690423Y-71756784D01*
X215769480Y-71893716D01*
X215881284Y-72005520D01*
X216018216Y-72084577D01*
X216170943Y-72125500D01*
X216170945Y-72125500D01*
X216329055Y-72125500D01*
X216329057Y-72125500D01*
X216481784Y-72084577D01*
X216618716Y-72005520D01*
X216730520Y-71893716D01*
X216809577Y-71756784D01*
X216850500Y-71604057D01*
X216850500Y-71445943D01*
X216809577Y-71293216D01*
X216730520Y-71156284D01*
X216618716Y-71044480D01*
X216481784Y-70965423D01*
X216329057Y-70924500D01*
X216170943Y-70924500D01*
X216018216Y-70965423D01*
X215881284Y-71044480D01*
X215769480Y-71156284D01*
X215690423Y-71293216D01*
X215649500Y-71445943D01*
X205768765Y-71445943D01*
X205772424Y-71434682D01*
X205821924Y-71398718D01*
X205868004Y-71395092D01*
X205890896Y-71398718D01*
X205901830Y-71400450D01*
X205901831Y-71400450D01*
X206128172Y-71400450D01*
X206351716Y-71365043D01*
X206351717Y-71365042D01*
X206351721Y-71365042D01*
X206566981Y-71295100D01*
X206768650Y-71192345D01*
X206951761Y-71059307D01*
X207111807Y-70899261D01*
X207244845Y-70716150D01*
X207347600Y-70514481D01*
X207417542Y-70299221D01*
X207423958Y-70258714D01*
X207452950Y-70075671D01*
X207452950Y-69849329D01*
X207440970Y-69773694D01*
X207450541Y-69713262D01*
X207493805Y-69669997D01*
X207540473Y-69659221D01*
X207552628Y-69659432D01*
X207565943Y-69663000D01*
X207724057Y-69663000D01*
X207726107Y-69662450D01*
X207735332Y-69662611D01*
X207757637Y-69670290D01*
X207780832Y-69674584D01*
X207786037Y-69680067D01*
X207793185Y-69682528D01*
X207806713Y-69701847D01*
X207822958Y-69718958D01*
X207823946Y-69726454D01*
X207828282Y-69732646D01*
X207827871Y-69756226D01*
X207830956Y-69779618D01*
X207830708Y-69780909D01*
X207809200Y-69889040D01*
X207809200Y-70035957D01*
X207825675Y-70118784D01*
X207837345Y-70177455D01*
X207837860Y-70180041D01*
X207837860Y-70180043D01*
X207894078Y-70315766D01*
X207894078Y-70315767D01*
X207930663Y-70370519D01*
X207975699Y-70437920D01*
X208079580Y-70541801D01*
X208201731Y-70623420D01*
X208337458Y-70679640D01*
X208481545Y-70708300D01*
X208481547Y-70708300D01*
X208628453Y-70708300D01*
X208628455Y-70708300D01*
X208772542Y-70679640D01*
X208908269Y-70623420D01*
X209030420Y-70541801D01*
X209134301Y-70437920D01*
X209215920Y-70315769D01*
X209272140Y-70180042D01*
X209300800Y-70035955D01*
X209300800Y-69889045D01*
X209300799Y-69889038D01*
X209295969Y-69864753D01*
X209292901Y-69849328D01*
X209657050Y-69849328D01*
X209657050Y-70075671D01*
X209692456Y-70299216D01*
X209762400Y-70514481D01*
X209861154Y-70708299D01*
X209865155Y-70716150D01*
X209998193Y-70899261D01*
X210158239Y-71059307D01*
X210341350Y-71192345D01*
X210543019Y-71295100D01*
X210758279Y-71365042D01*
X210758280Y-71365042D01*
X210758283Y-71365043D01*
X210981828Y-71400450D01*
X210981831Y-71400450D01*
X211208172Y-71400450D01*
X211431716Y-71365043D01*
X211431717Y-71365042D01*
X211431721Y-71365042D01*
X211646981Y-71295100D01*
X211848650Y-71192345D01*
X212031761Y-71059307D01*
X212191807Y-70899261D01*
X212324845Y-70716150D01*
X212427600Y-70514481D01*
X212497542Y-70299221D01*
X212503958Y-70258714D01*
X212532950Y-70075671D01*
X212532950Y-69849328D01*
X212497543Y-69625783D01*
X212497542Y-69625779D01*
X212427600Y-69410519D01*
X212324845Y-69208850D01*
X212191807Y-69025739D01*
X212031761Y-68865693D01*
X211848650Y-68732655D01*
X211848649Y-68732654D01*
X211848647Y-68732653D01*
X211646981Y-68629900D01*
X211431716Y-68559956D01*
X211208172Y-68524550D01*
X211208169Y-68524550D01*
X210981831Y-68524550D01*
X210981828Y-68524550D01*
X210758283Y-68559956D01*
X210543018Y-68629900D01*
X210341352Y-68732653D01*
X210158240Y-68865692D01*
X209998192Y-69025740D01*
X209865153Y-69208852D01*
X209762400Y-69410518D01*
X209692456Y-69625783D01*
X209657050Y-69849328D01*
X209292901Y-69849328D01*
X209281700Y-69793020D01*
X209272140Y-69744958D01*
X209222776Y-69625783D01*
X209215921Y-69609233D01*
X209215921Y-69609232D01*
X209195585Y-69578798D01*
X209134301Y-69487080D01*
X209030420Y-69383199D01*
X208908269Y-69301580D01*
X208908268Y-69301579D01*
X208908266Y-69301578D01*
X208772542Y-69245360D01*
X208628457Y-69216700D01*
X208628455Y-69216700D01*
X208481545Y-69216700D01*
X208481540Y-69216700D01*
X208363813Y-69240117D01*
X208303052Y-69232925D01*
X208258122Y-69191392D01*
X208245500Y-69143019D01*
X208245500Y-68983444D01*
X208234873Y-68943784D01*
X208204577Y-68830716D01*
X208125520Y-68693784D01*
X208013716Y-68581980D01*
X207876784Y-68502923D01*
X207724057Y-68462000D01*
X207565943Y-68462000D01*
X207413216Y-68502923D01*
X207276284Y-68581980D01*
X207164478Y-68693786D01*
X207086672Y-68828550D01*
X207041203Y-68869491D01*
X206980352Y-68875887D01*
X206942746Y-68859143D01*
X206768650Y-68732655D01*
X206768649Y-68732654D01*
X206768647Y-68732653D01*
X206566981Y-68629900D01*
X206351716Y-68559956D01*
X206128172Y-68524550D01*
X206128169Y-68524550D01*
X205901831Y-68524550D01*
X205901828Y-68524550D01*
X205678283Y-68559956D01*
X205463018Y-68629900D01*
X205261352Y-68732653D01*
X205078240Y-68865692D01*
X204918192Y-69025740D01*
X204785153Y-69208852D01*
X204682400Y-69410518D01*
X204612456Y-69625783D01*
X204577050Y-69849328D01*
X204577050Y-70075671D01*
X204612456Y-70299216D01*
X204682400Y-70514481D01*
X204781154Y-70708299D01*
X204785155Y-70716150D01*
X204905451Y-70881724D01*
X204924358Y-70939913D01*
X204905451Y-70998104D01*
X204874859Y-71025649D01*
X204784302Y-71077932D01*
X204672495Y-71189739D01*
X204652611Y-71224179D01*
X204642136Y-71238996D01*
X204632601Y-71250153D01*
X204379105Y-71690445D01*
X204363313Y-71711051D01*
X204247619Y-71826748D01*
X204193103Y-71854526D01*
X204177615Y-71855745D01*
X196452837Y-71855745D01*
X196382713Y-71874534D01*
X196338255Y-71886447D01*
X196314152Y-71900364D01*
X196235532Y-71945755D01*
X195793492Y-72387794D01*
X195745281Y-72413613D01*
X195745401Y-72414126D01*
X195745436Y-72414253D01*
X195745431Y-72414254D01*
X195745444Y-72414306D01*
X195743862Y-72414676D01*
X195705280Y-72425058D01*
X195690455Y-72430108D01*
X195674642Y-72435495D01*
X195665307Y-72438920D01*
X195661202Y-72440427D01*
X195571153Y-72496880D01*
X195518568Y-72512000D01*
X193807650Y-72512000D01*
X193749459Y-72493093D01*
X193713495Y-72443593D01*
X193713495Y-72382407D01*
X193721913Y-72363501D01*
X193730580Y-72348489D01*
X193744524Y-72324337D01*
X193785447Y-72171610D01*
X193785447Y-72013496D01*
X193744524Y-71860769D01*
X193665467Y-71723837D01*
X193553663Y-71612033D01*
X193416731Y-71532976D01*
X193264004Y-71492053D01*
X193105890Y-71492053D01*
X192953163Y-71532976D01*
X192816231Y-71612033D01*
X192704427Y-71723837D01*
X192625370Y-71860769D01*
X192584447Y-72013496D01*
X192584447Y-72171610D01*
X192600604Y-72231907D01*
X192625370Y-72324338D01*
X192647981Y-72363501D01*
X192660702Y-72423349D01*
X192635815Y-72479245D01*
X192582826Y-72509837D01*
X192562244Y-72512000D01*
X191428265Y-72512000D01*
X191370074Y-72493093D01*
X191358261Y-72483004D01*
X190821012Y-71945755D01*
X190277268Y-71402011D01*
X190277265Y-71402009D01*
X190277264Y-71402008D01*
X190277263Y-71402007D01*
X190174544Y-71342702D01*
X190174540Y-71342700D01*
X190150327Y-71336212D01*
X190150327Y-71336213D01*
X190059963Y-71312000D01*
X190059961Y-71312000D01*
X188331310Y-71312000D01*
X188305572Y-71308596D01*
X187814954Y-71176500D01*
X187805586Y-71174138D01*
X187804859Y-71173966D01*
X187788463Y-71170576D01*
X187783233Y-71170064D01*
X187783266Y-71169722D01*
X187763451Y-71167196D01*
X187753428Y-71164511D01*
X187744057Y-71162000D01*
X187585943Y-71162000D01*
X187433216Y-71202923D01*
X187296284Y-71281980D01*
X187184480Y-71393784D01*
X187105423Y-71530716D01*
X187064500Y-71683443D01*
X182466898Y-71683443D01*
X182451666Y-71653547D01*
X182455000Y-71632495D01*
X182455000Y-70992500D01*
X182705000Y-70992500D01*
X182705000Y-71592499D01*
X182705001Y-71592500D01*
X183218641Y-71592500D01*
X183218644Y-71592499D01*
X183282209Y-71579856D01*
X183392519Y-71557913D01*
X183392521Y-71557913D01*
X183556308Y-71490070D01*
X183703715Y-71391576D01*
X183829076Y-71266215D01*
X183927570Y-71118808D01*
X183995413Y-70955021D01*
X183995414Y-70955018D01*
X184022768Y-70817500D01*
X183404242Y-70817500D01*
X183409556Y-70808296D01*
X183430000Y-70731996D01*
X183430000Y-70653004D01*
X183409556Y-70576704D01*
X183404242Y-70567500D01*
X184022767Y-70567500D01*
X184022767Y-70567499D01*
X183995414Y-70429981D01*
X183995413Y-70429978D01*
X183927570Y-70266191D01*
X183829076Y-70118784D01*
X183703715Y-69993423D01*
X183556309Y-69894929D01*
X183392520Y-69827086D01*
X183311363Y-69810943D01*
X184114500Y-69810943D01*
X184114500Y-69969057D01*
X184155423Y-70121784D01*
X184234480Y-70258716D01*
X184346284Y-70370520D01*
X184483216Y-70449577D01*
X184635943Y-70490500D01*
X184635945Y-70490500D01*
X184794055Y-70490500D01*
X184794057Y-70490500D01*
X184946784Y-70449577D01*
X185083716Y-70370520D01*
X185195520Y-70258716D01*
X185210111Y-70233443D01*
X196114500Y-70233443D01*
X196114500Y-70391557D01*
X196155423Y-70544284D01*
X196234480Y-70681216D01*
X196346284Y-70793020D01*
X196483216Y-70872077D01*
X196635943Y-70913000D01*
X196635945Y-70913000D01*
X196794055Y-70913000D01*
X196794057Y-70913000D01*
X196946784Y-70872077D01*
X197083716Y-70793020D01*
X197195520Y-70681216D01*
X197207231Y-70660931D01*
X201999500Y-70660931D01*
X201999500Y-70789069D01*
X202021419Y-70899261D01*
X202024499Y-70914742D01*
X202024500Y-70914747D01*
X202073534Y-71033125D01*
X202073538Y-71033133D01*
X202103473Y-71077933D01*
X202144724Y-71139669D01*
X202235331Y-71230276D01*
X202265081Y-71250154D01*
X202341866Y-71301461D01*
X202341870Y-71301463D01*
X202341873Y-71301465D01*
X202460256Y-71350501D01*
X202585931Y-71375500D01*
X202585932Y-71375500D01*
X202714068Y-71375500D01*
X202714069Y-71375500D01*
X202839744Y-71350501D01*
X202958127Y-71301465D01*
X203064669Y-71230276D01*
X203155276Y-71139669D01*
X203226465Y-71033127D01*
X203275501Y-70914744D01*
X203300500Y-70789069D01*
X203300500Y-70660931D01*
X203275501Y-70535256D01*
X203226465Y-70416873D01*
X203226463Y-70416870D01*
X203226461Y-70416866D01*
X203195492Y-70370519D01*
X203155276Y-70310331D01*
X203064669Y-70219724D01*
X203022226Y-70191365D01*
X202958133Y-70148538D01*
X202958125Y-70148534D01*
X202839747Y-70099500D01*
X202839745Y-70099499D01*
X202839744Y-70099499D01*
X202714069Y-70074500D01*
X202585931Y-70074500D01*
X202585930Y-70074500D01*
X202523093Y-70086999D01*
X202460256Y-70099499D01*
X202460255Y-70099499D01*
X202460252Y-70099500D01*
X202341874Y-70148534D01*
X202341866Y-70148538D01*
X202235331Y-70219724D01*
X202235327Y-70219727D01*
X202144727Y-70310327D01*
X202144724Y-70310331D01*
X202073538Y-70416866D01*
X202073534Y-70416874D01*
X202024500Y-70535252D01*
X202024499Y-70535255D01*
X202024499Y-70535256D01*
X201999500Y-70660931D01*
X197207231Y-70660931D01*
X197274577Y-70544284D01*
X197315500Y-70391557D01*
X197315500Y-70233443D01*
X197274577Y-70080716D01*
X197195520Y-69943784D01*
X197083716Y-69831980D01*
X196946784Y-69752923D01*
X196794057Y-69712000D01*
X196635943Y-69712000D01*
X196483216Y-69752923D01*
X196346284Y-69831980D01*
X196234480Y-69943784D01*
X196155423Y-70080716D01*
X196114500Y-70233443D01*
X185210111Y-70233443D01*
X185274577Y-70121784D01*
X185315500Y-69969057D01*
X185315500Y-69810943D01*
X185274577Y-69658216D01*
X185195520Y-69521284D01*
X185083716Y-69409480D01*
X184946784Y-69330423D01*
X184794057Y-69289500D01*
X184635943Y-69289500D01*
X184483216Y-69330423D01*
X184346284Y-69409480D01*
X184234480Y-69521284D01*
X184155423Y-69658216D01*
X184114500Y-69810943D01*
X183311363Y-69810943D01*
X183218644Y-69792500D01*
X182705001Y-69792500D01*
X182705000Y-69792501D01*
X182705000Y-70392500D01*
X182455000Y-70392500D01*
X182455000Y-69792501D01*
X182454999Y-69792500D01*
X181941355Y-69792500D01*
X181767480Y-69827086D01*
X181767478Y-69827086D01*
X181603691Y-69894929D01*
X181456284Y-69993423D01*
X181330923Y-70118784D01*
X181232429Y-70266191D01*
X181164586Y-70429978D01*
X181164585Y-70429981D01*
X181137232Y-70567499D01*
X179692767Y-70567499D01*
X179665414Y-70429981D01*
X179665413Y-70429978D01*
X179597570Y-70266191D01*
X179499076Y-70118784D01*
X179373715Y-69993423D01*
X179226308Y-69894929D01*
X179062520Y-69827086D01*
X178888644Y-69792500D01*
X178525001Y-69792500D01*
X178525000Y-69792501D01*
X178525000Y-70392500D01*
X178275000Y-70392500D01*
X178275000Y-69792501D01*
X178274999Y-69792500D01*
X177911355Y-69792500D01*
X177737480Y-69827086D01*
X177737478Y-69827086D01*
X177573691Y-69894929D01*
X177426284Y-69993423D01*
X177300923Y-70118784D01*
X177202429Y-70266191D01*
X177134586Y-70429978D01*
X177134585Y-70429981D01*
X177107232Y-70567499D01*
X175750500Y-70567499D01*
X175750500Y-69233443D01*
X190964500Y-69233443D01*
X190964500Y-69391557D01*
X191005423Y-69544284D01*
X191084480Y-69681216D01*
X191196284Y-69793020D01*
X191333216Y-69872077D01*
X191485943Y-69913000D01*
X191485945Y-69913000D01*
X191644055Y-69913000D01*
X191644057Y-69913000D01*
X191796784Y-69872077D01*
X191933716Y-69793020D01*
X192045520Y-69681216D01*
X192124577Y-69544284D01*
X192165500Y-69391557D01*
X192165500Y-69233443D01*
X192124577Y-69080716D01*
X192045520Y-68943784D01*
X191933716Y-68831980D01*
X191796784Y-68752923D01*
X191644057Y-68712000D01*
X191485943Y-68712000D01*
X191333216Y-68752923D01*
X191196284Y-68831980D01*
X191084480Y-68943784D01*
X191005423Y-69080716D01*
X190964500Y-69233443D01*
X175750500Y-69233443D01*
X175750500Y-68929861D01*
X175750977Y-68920157D01*
X175759786Y-68830716D01*
X175762985Y-68798233D01*
X175766771Y-68779203D01*
X175780892Y-68732655D01*
X175800915Y-68666643D01*
X175808342Y-68648714D01*
X175818399Y-68629900D01*
X175863792Y-68544975D01*
X175874573Y-68528841D01*
X175878095Y-68524550D01*
X175949196Y-68437912D01*
X175962912Y-68424196D01*
X176053842Y-68349571D01*
X176069977Y-68338791D01*
X176173716Y-68283340D01*
X176191643Y-68275915D01*
X176304207Y-68241770D01*
X176323233Y-68237985D01*
X176445157Y-68225976D01*
X176454861Y-68225500D01*
X176497595Y-68225500D01*
X260002405Y-68225500D01*
X260045139Y-68225500D01*
X260054842Y-68225976D01*
G37*
%TD.AperFunction*%
%TD*%
%TA.AperFunction,Conductor*%
%TO.N,BTN_09*%
G36*
X198839224Y-78320944D02*
G01*
X198844175Y-78328406D01*
X198844391Y-78330521D01*
X198850476Y-78878675D01*
X198847141Y-78886986D01*
X198838907Y-78890504D01*
X198838777Y-78890505D01*
X198655437Y-78890505D01*
X198647183Y-78887097D01*
X198647071Y-78886986D01*
X198390137Y-78631218D01*
X198386691Y-78622953D01*
X198388651Y-78616444D01*
X198547295Y-78378064D01*
X198554731Y-78373075D01*
X198554727Y-78373075D01*
X198830449Y-78319168D01*
X198839224Y-78320944D01*
G37*
%TD.AperFunction*%
%TD*%
%TA.AperFunction,Conductor*%
%TO.N,BTN_09*%
G36*
X198850677Y-81300452D02*
G01*
X198853403Y-81304737D01*
X199040215Y-81819970D01*
X199039814Y-81828916D01*
X199033204Y-81834957D01*
X199031536Y-81835426D01*
X198752927Y-81891791D01*
X198748287Y-81891791D01*
X198469677Y-81835426D01*
X198462248Y-81830426D01*
X198460529Y-81821638D01*
X198460994Y-81819981D01*
X198647811Y-81304737D01*
X198653852Y-81298127D01*
X198658810Y-81297025D01*
X198842404Y-81297025D01*
X198850677Y-81300452D01*
G37*
%TD.AperFunction*%
%TD*%
%TA.AperFunction,Conductor*%
%TO.N,USB_D+*%
G36*
X200947524Y-74694665D02*
G01*
X200949289Y-74696927D01*
X201210507Y-75133092D01*
X201211817Y-75141950D01*
X201207001Y-75148810D01*
X200971525Y-75307266D01*
X200962748Y-75309042D01*
X200962689Y-75309030D01*
X200685127Y-75253287D01*
X200677691Y-75248298D01*
X200675960Y-75239512D01*
X200676220Y-75238470D01*
X200799315Y-74828303D01*
X200802246Y-74823397D01*
X200930979Y-74694664D01*
X200939251Y-74691238D01*
X200947524Y-74694665D01*
G37*
%TD.AperFunction*%
%TD*%
%TA.AperFunction,Conductor*%
%TO.N,USB_D+*%
G36*
X189904897Y-73912348D02*
G01*
X189910339Y-73919459D01*
X189910734Y-73922473D01*
X189910734Y-74104382D01*
X189909411Y-74109786D01*
X189709321Y-74493995D01*
X189702460Y-74499750D01*
X189693540Y-74498968D01*
X189692462Y-74498331D01*
X189456928Y-74341581D01*
X189451939Y-74334145D01*
X189451927Y-74334086D01*
X189408073Y-74109786D01*
X189397435Y-74055372D01*
X189399211Y-74046596D01*
X189405901Y-74041824D01*
X189896021Y-73911168D01*
X189904897Y-73912348D01*
G37*
%TD.AperFunction*%
%TD*%
%TA.AperFunction,Conductor*%
%TO.N,USB_D-*%
G36*
X201670443Y-74778201D02*
G01*
X201671202Y-74779036D01*
X202006247Y-75185879D01*
X202008861Y-75194444D01*
X202004653Y-75202349D01*
X202003747Y-75203024D01*
X201769756Y-75360481D01*
X201760979Y-75362257D01*
X201760920Y-75362245D01*
X201481461Y-75306121D01*
X201474025Y-75301132D01*
X201472161Y-75293153D01*
X201521078Y-74914461D01*
X201524408Y-74907690D01*
X201653898Y-74778200D01*
X201662170Y-74774774D01*
X201670443Y-74778201D01*
G37*
%TD.AperFunction*%
%TD*%
%TA.AperFunction,Conductor*%
%TO.N,USB_D-*%
G36*
X189681623Y-73105196D02*
G01*
X189686051Y-73110756D01*
X189782760Y-73364685D01*
X189796073Y-73399643D01*
X189817245Y-73455233D01*
X189818011Y-73459397D01*
X189818011Y-73639714D01*
X189814584Y-73647987D01*
X189806311Y-73651414D01*
X189801822Y-73650519D01*
X189234742Y-73414937D01*
X189228417Y-73408598D01*
X189228426Y-73399643D01*
X189229481Y-73397665D01*
X189384604Y-73164105D01*
X189392036Y-73159110D01*
X189392043Y-73159108D01*
X189672843Y-73103443D01*
X189681623Y-73105196D01*
G37*
%TD.AperFunction*%
%TD*%
%TA.AperFunction,Conductor*%
%TO.N,I2S_WS*%
G36*
X201721282Y-76935389D02*
G01*
X202236525Y-77122204D01*
X202243134Y-77128244D01*
X202244236Y-77133202D01*
X202244236Y-77316797D01*
X202240809Y-77325070D01*
X202236524Y-77327796D01*
X201721290Y-77514608D01*
X201712344Y-77514207D01*
X201706303Y-77507597D01*
X201705837Y-77505939D01*
X201649469Y-77227318D01*
X201649469Y-77222680D01*
X201705835Y-76944067D01*
X201710834Y-76936641D01*
X201719622Y-76934922D01*
X201721282Y-76935389D01*
G37*
%TD.AperFunction*%
%TD*%
%TA.AperFunction,Conductor*%
%TO.N,I2S_WS*%
G36*
X211052655Y-76923292D02*
G01*
X211058696Y-76929902D01*
X211059165Y-76931570D01*
X211115530Y-77210180D01*
X211115530Y-77214820D01*
X211059165Y-77493429D01*
X211054165Y-77500858D01*
X211045377Y-77502577D01*
X211043709Y-77502108D01*
X210528476Y-77315296D01*
X210521866Y-77309255D01*
X210520764Y-77304297D01*
X210520764Y-77120702D01*
X210524191Y-77112429D01*
X210528473Y-77109704D01*
X211043711Y-76922891D01*
X211052655Y-76923292D01*
G37*
%TD.AperFunction*%
%TD*%
%TA.AperFunction,Conductor*%
%TO.N,SWD_NRST*%
G36*
X187735564Y-71471505D02*
G01*
X187768910Y-71480483D01*
X188250579Y-71610169D01*
X188257676Y-71615628D01*
X188259236Y-71621466D01*
X188259236Y-71903533D01*
X188255809Y-71911806D01*
X188250578Y-71914831D01*
X187735564Y-72053494D01*
X187726684Y-72052336D01*
X187721224Y-72045238D01*
X187721059Y-72044539D01*
X187664469Y-71764818D01*
X187664469Y-71760180D01*
X187721055Y-71480480D01*
X187726054Y-71473054D01*
X187734842Y-71471335D01*
X187735564Y-71471505D01*
G37*
%TD.AperFunction*%
%TD*%
%TA.AperFunction,Conductor*%
%TO.N,SWD_NRST*%
G36*
X196007222Y-72616800D02*
G01*
X196010311Y-72619016D01*
X196055244Y-72663949D01*
X196055244Y-72663948D01*
X196210909Y-72819613D01*
X196250000Y-72991600D01*
X196296495Y-73196165D01*
X196294987Y-73204992D01*
X196287679Y-73210167D01*
X196287390Y-73210229D01*
X196250000Y-73217738D01*
X196004212Y-73267101D01*
X195755478Y-73099723D01*
X195991551Y-72622103D01*
X195998287Y-72616206D01*
X196007222Y-72616800D01*
G37*
%TD.AperFunction*%
%TD*%
%TA.AperFunction,Conductor*%
%TO.N,SWD_NRST*%
G36*
X204913334Y-71398283D02*
G01*
X204913964Y-71398674D01*
X205151751Y-71556437D01*
X205155032Y-71559718D01*
X205312795Y-71797505D01*
X205314514Y-71806293D01*
X205309514Y-71813722D01*
X205308884Y-71814113D01*
X204846665Y-72080233D01*
X204837785Y-72081391D01*
X204832554Y-72078366D01*
X204633103Y-71878915D01*
X204629676Y-71870642D01*
X204631235Y-71864807D01*
X204897356Y-71402584D01*
X204904454Y-71397125D01*
X204913334Y-71398283D01*
G37*
%TD.AperFunction*%
%TD*%
%TA.AperFunction,Conductor*%
%TO.N,SWD_NRST*%
G36*
X195551649Y-72817072D02*
G01*
X196063446Y-72972158D01*
X196005919Y-73266394D01*
X195802947Y-73401473D01*
X195802946Y-73401473D01*
X195765102Y-73426659D01*
X195756316Y-73428390D01*
X195748958Y-73423517D01*
X195729784Y-73395441D01*
X195536560Y-73112500D01*
X195536560Y-72828270D01*
X195539987Y-72819997D01*
X195548260Y-72816570D01*
X195551649Y-72817072D01*
G37*
%TD.AperFunction*%
%TD*%
%TA.AperFunction,Conductor*%
%TO.N,BTN_12*%
G36*
X198803344Y-75519116D02*
G01*
X198804193Y-75520626D01*
X198876080Y-75674293D01*
X198995791Y-75930193D01*
X199036422Y-76017046D01*
X199036823Y-76025992D01*
X199034097Y-76030277D01*
X198904277Y-76160097D01*
X198896004Y-76163524D01*
X198891047Y-76162422D01*
X198740428Y-76091961D01*
X198394626Y-75930193D01*
X198388585Y-75923583D01*
X198388986Y-75914637D01*
X198389835Y-75913127D01*
X198546985Y-75676263D01*
X198550263Y-75672985D01*
X198787127Y-75515834D01*
X198795915Y-75514116D01*
X198803344Y-75519116D01*
G37*
%TD.AperFunction*%
%TD*%
%TA.AperFunction,Conductor*%
%TO.N,BTN_12*%
G36*
X201407949Y-81337576D02*
G01*
X201718713Y-81482953D01*
X201904373Y-81569806D01*
X201910414Y-81576416D01*
X201910013Y-81585362D01*
X201909164Y-81586872D01*
X201752015Y-81823734D01*
X201748734Y-81827015D01*
X201511872Y-81984164D01*
X201503084Y-81985883D01*
X201495655Y-81980883D01*
X201494806Y-81979373D01*
X201421997Y-81823734D01*
X201262576Y-81482951D01*
X201262176Y-81474007D01*
X201264900Y-81469724D01*
X201394723Y-81339901D01*
X201402995Y-81336475D01*
X201407949Y-81337576D01*
G37*
%TD.AperFunction*%
%TD*%
%TA.AperFunction,Conductor*%
%TO.N,BTN_11*%
G36*
X198799353Y-76447335D02*
G01*
X198800202Y-76448845D01*
X198872089Y-76602512D01*
X198991800Y-76858412D01*
X199032431Y-76945265D01*
X199032832Y-76954211D01*
X199030106Y-76958496D01*
X198900286Y-77088316D01*
X198892013Y-77091743D01*
X198887056Y-77090641D01*
X198736437Y-77020180D01*
X198390635Y-76858412D01*
X198384594Y-76851802D01*
X198384995Y-76842856D01*
X198385844Y-76841346D01*
X198542994Y-76604482D01*
X198546272Y-76601204D01*
X198783136Y-76444053D01*
X198791924Y-76442335D01*
X198799353Y-76447335D01*
G37*
%TD.AperFunction*%
%TD*%
%TA.AperFunction,Conductor*%
%TO.N,BTN_11*%
G36*
X200407949Y-81362576D02*
G01*
X200718713Y-81507953D01*
X200904373Y-81594806D01*
X200910414Y-81601416D01*
X200910013Y-81610362D01*
X200909164Y-81611872D01*
X200752015Y-81848734D01*
X200748734Y-81852015D01*
X200511872Y-82009164D01*
X200503084Y-82010883D01*
X200495655Y-82005883D01*
X200494806Y-82004373D01*
X200421997Y-81848734D01*
X200262576Y-81507951D01*
X200262176Y-81499007D01*
X200264900Y-81494724D01*
X200394723Y-81364901D01*
X200402995Y-81361475D01*
X200407949Y-81362576D01*
G37*
%TD.AperFunction*%
%TD*%
%TA.AperFunction,Conductor*%
%TO.N,BTN_10*%
G36*
X198804344Y-77319116D02*
G01*
X198805193Y-77320626D01*
X198877080Y-77474293D01*
X198996791Y-77730193D01*
X199037422Y-77817046D01*
X199037823Y-77825992D01*
X199035097Y-77830277D01*
X198905277Y-77960097D01*
X198897004Y-77963524D01*
X198892047Y-77962422D01*
X198741428Y-77891961D01*
X198395626Y-77730193D01*
X198389585Y-77723583D01*
X198389986Y-77714637D01*
X198390835Y-77713127D01*
X198547985Y-77476263D01*
X198551263Y-77472985D01*
X198788127Y-77315834D01*
X198796915Y-77314116D01*
X198804344Y-77319116D01*
G37*
%TD.AperFunction*%
%TD*%
%TA.AperFunction,Conductor*%
%TO.N,BTN_10*%
G36*
X199407949Y-81362576D02*
G01*
X199718713Y-81507953D01*
X199904373Y-81594806D01*
X199910414Y-81601416D01*
X199910013Y-81610362D01*
X199909164Y-81611872D01*
X199752015Y-81848734D01*
X199748734Y-81852015D01*
X199511872Y-82009164D01*
X199503084Y-82010883D01*
X199495655Y-82005883D01*
X199494806Y-82004373D01*
X199421997Y-81848734D01*
X199262576Y-81507951D01*
X199262176Y-81499007D01*
X199264900Y-81494724D01*
X199394723Y-81364901D01*
X199402995Y-81361475D01*
X199407949Y-81362576D01*
G37*
%TD.AperFunction*%
%TD*%
M02*
