%TF.GenerationSoftware,KiCad,Pcbnew,9.0.3*%
%TF.CreationDate,2025-09-06T00:14:13-07:00*%
%TF.ProjectId,business_card,62757369-6e65-4737-935f-636172642e6b,1.0*%
%TF.SameCoordinates,Original*%
%TF.FileFunction,Copper,L3,Inr*%
%TF.FilePolarity,Positive*%
%FSLAX46Y46*%
G04 Gerber Fmt 4.6, Leading zero omitted, Abs format (unit mm)*
G04 Created by KiCad (PCBNEW 9.0.3) date 2025-09-06 00:14:13*
%MOMM*%
%LPD*%
G01*
G04 APERTURE LIST*
%TA.AperFunction,HeatsinkPad*%
%ADD10O,1.800000X1.000000*%
%TD*%
%TA.AperFunction,HeatsinkPad*%
%ADD11O,2.100000X1.000000*%
%TD*%
%TA.AperFunction,ViaPad*%
%ADD12C,0.600000*%
%TD*%
%TA.AperFunction,ViaPad*%
%ADD13C,0.700000*%
%TD*%
G04 APERTURE END LIST*
D10*
%TO.N,GND*%
%TO.C,J1*%
X178400000Y-79332500D03*
D11*
X182580000Y-79332500D03*
D10*
X178400000Y-70692500D03*
D11*
X182580000Y-70692500D03*
%TD*%
D12*
%TO.N,GND*%
X197075000Y-76227500D03*
X196781800Y-72957245D03*
X201865000Y-73712500D03*
X201165000Y-78962500D03*
D13*
X194500000Y-68725000D03*
X259950000Y-79925000D03*
D12*
X215165000Y-80507500D03*
X189780000Y-76212500D03*
X185515000Y-69907500D03*
X214365000Y-80512500D03*
X184115000Y-71812500D03*
D13*
X256500000Y-69325000D03*
X199550000Y-68725000D03*
D12*
X204350000Y-81852500D03*
D13*
X176450000Y-78975000D03*
D12*
X179465000Y-80712500D03*
D13*
X258850000Y-99425000D03*
D12*
X192082500Y-77050000D03*
D13*
X192850000Y-95425000D03*
X219050000Y-99425000D03*
D12*
X194815000Y-70362500D03*
D13*
X249250000Y-99425000D03*
X214550000Y-99425000D03*
D12*
X189795000Y-75062500D03*
D13*
X234450000Y-69325000D03*
D12*
X211115000Y-79812500D03*
D13*
X236150000Y-99425000D03*
X223350000Y-99425000D03*
X210200000Y-85325000D03*
X186550000Y-85325000D03*
D12*
X198850000Y-69525000D03*
D13*
X259950000Y-69325000D03*
X215250000Y-85325000D03*
X220300000Y-85325000D03*
X181750000Y-99425000D03*
X186650000Y-99425000D03*
D12*
X186365000Y-69312500D03*
X189780000Y-72462500D03*
X213665000Y-77257500D03*
D13*
X176450000Y-85325000D03*
X225350000Y-85325000D03*
X177250000Y-99425000D03*
D12*
X192062500Y-76297078D03*
D13*
X229900000Y-79875000D03*
D12*
X217015000Y-68712500D03*
D13*
X176450000Y-73925000D03*
X259950000Y-73875000D03*
X240500000Y-69325000D03*
D12*
X194050000Y-80725000D03*
D13*
X245900000Y-69325000D03*
D12*
X217065000Y-75762500D03*
D13*
X254350000Y-99425000D03*
D12*
X187000000Y-80925000D03*
X219565000Y-81462500D03*
D13*
X205150000Y-85325000D03*
D12*
X207815000Y-79812500D03*
D13*
X190750000Y-99425000D03*
D12*
X186852500Y-75962500D03*
D13*
X239650000Y-99425000D03*
X198650000Y-95425000D03*
X189950000Y-89425000D03*
X229900000Y-69275000D03*
X231650000Y-99425000D03*
D12*
X193865000Y-71012500D03*
D13*
X229900000Y-85275000D03*
X176450000Y-68875000D03*
X204150000Y-70725000D03*
X251950000Y-69325000D03*
X229900000Y-73825000D03*
D12*
X184691105Y-74331502D03*
D13*
X195250000Y-99425000D03*
D12*
X202467500Y-81410000D03*
D13*
X244150000Y-99425000D03*
X259950000Y-85325000D03*
D12*
X208545000Y-75662500D03*
X192915000Y-74607246D03*
D13*
X205550000Y-99425000D03*
X201150000Y-99425000D03*
D12*
X184165000Y-78212500D03*
X214911601Y-68804820D03*
X204250000Y-80525000D03*
D13*
X227850000Y-99425000D03*
D12*
X179450000Y-69325000D03*
X201350000Y-69625000D03*
%TO.N,+3.3V*%
X203450000Y-79500000D03*
X207865000Y-81112500D03*
X213233450Y-75062500D03*
D13*
X202650000Y-70725000D03*
D12*
X191565000Y-69312500D03*
X184715000Y-69890000D03*
X207645000Y-69062500D03*
X196715000Y-70312500D03*
X211075000Y-78525000D03*
X195948658Y-77348728D03*
X184900000Y-75962500D03*
X216250000Y-71525000D03*
X193184947Y-72092553D03*
%TO.N,BTN_12*%
X198549000Y-75675000D03*
X201750000Y-81825000D03*
%TO.N,BTN_11*%
X200750000Y-81850000D03*
X198545009Y-76603219D03*
%TO.N,BTN_10*%
X198550000Y-77475000D03*
X199750000Y-81850000D03*
%TO.N,BTN_09*%
X198550000Y-78375000D03*
X198750607Y-81891261D03*
%TO.N,USB_D+*%
X189453864Y-74338877D03*
X200966769Y-75309285D03*
%TO.N,USB_D-*%
X201765000Y-75362500D03*
X189388299Y-73160049D03*
%TO.N,I2S_WS*%
X201650000Y-77225000D03*
X211115000Y-77212500D03*
%TO.N,SWD_NRST*%
X187665000Y-71762500D03*
X205153017Y-71558453D03*
X196004919Y-73266394D03*
%TD*%
%TA.AperFunction,Conductor*%
%TO.N,+3.3V*%
G36*
X193667785Y-68245185D02*
G01*
X193713540Y-68297989D01*
X193723484Y-68367147D01*
X193715307Y-68396953D01*
X193682184Y-68476917D01*
X193682182Y-68476925D01*
X193649500Y-68641228D01*
X193649500Y-68808771D01*
X193682182Y-68973074D01*
X193682184Y-68973082D01*
X193746295Y-69127860D01*
X193839373Y-69267162D01*
X193957837Y-69385626D01*
X194019173Y-69426609D01*
X194097137Y-69478703D01*
X194097138Y-69478703D01*
X194097139Y-69478704D01*
X194168123Y-69508106D01*
X194251913Y-69542814D01*
X194257546Y-69545147D01*
X194256467Y-69547750D01*
X194304814Y-69579511D01*
X194333199Y-69643355D01*
X194322561Y-69712410D01*
X194297972Y-69747449D01*
X194193210Y-69852211D01*
X194105609Y-69983314D01*
X194105602Y-69983327D01*
X194042932Y-70134630D01*
X194040470Y-70133610D01*
X194008522Y-70182403D01*
X193944721Y-70210884D01*
X193928122Y-70212000D01*
X193786155Y-70212000D01*
X193631510Y-70242761D01*
X193631498Y-70242764D01*
X193485827Y-70303102D01*
X193485814Y-70303109D01*
X193354711Y-70390710D01*
X193354707Y-70390713D01*
X193243213Y-70502207D01*
X193243210Y-70502211D01*
X193155609Y-70633314D01*
X193155602Y-70633327D01*
X193095264Y-70778998D01*
X193095261Y-70779010D01*
X193064500Y-70933653D01*
X193064500Y-71091346D01*
X193095261Y-71245989D01*
X193095264Y-71246001D01*
X193155602Y-71391672D01*
X193155609Y-71391685D01*
X193243210Y-71522788D01*
X193243213Y-71522792D01*
X193354707Y-71634286D01*
X193354711Y-71634289D01*
X193485814Y-71721890D01*
X193485827Y-71721897D01*
X193631498Y-71782235D01*
X193631503Y-71782237D01*
X193745427Y-71804898D01*
X193786153Y-71812999D01*
X193786156Y-71813000D01*
X193786158Y-71813000D01*
X193943844Y-71813000D01*
X193943845Y-71812999D01*
X194098497Y-71782237D01*
X194244179Y-71721894D01*
X194375289Y-71634289D01*
X194486789Y-71522789D01*
X194574394Y-71391679D01*
X194577854Y-71383327D01*
X194637068Y-71240369D01*
X194639522Y-71241385D01*
X194671510Y-71192570D01*
X194735321Y-71164110D01*
X194751878Y-71163000D01*
X194893844Y-71163000D01*
X194893845Y-71162999D01*
X195048497Y-71132237D01*
X195194179Y-71071894D01*
X195325289Y-70984289D01*
X195436789Y-70872789D01*
X195524394Y-70741679D01*
X195566002Y-70641228D01*
X203299500Y-70641228D01*
X203299500Y-70808771D01*
X203332182Y-70973074D01*
X203332184Y-70973082D01*
X203396295Y-71127860D01*
X203489373Y-71267162D01*
X203607837Y-71385626D01*
X203646794Y-71411656D01*
X203747137Y-71478703D01*
X203901918Y-71542816D01*
X204066228Y-71575499D01*
X204066232Y-71575500D01*
X204238461Y-71575500D01*
X204305500Y-71595185D01*
X204351255Y-71647989D01*
X204360078Y-71675309D01*
X204383278Y-71791942D01*
X204383281Y-71791954D01*
X204443619Y-71937625D01*
X204443626Y-71937638D01*
X204531227Y-72068741D01*
X204531230Y-72068745D01*
X204642724Y-72180239D01*
X204642732Y-72180245D01*
X204734755Y-72241733D01*
X204779561Y-72295345D01*
X204788268Y-72364670D01*
X204776350Y-72401129D01*
X204682402Y-72585513D01*
X204682398Y-72585521D01*
X204612458Y-72800774D01*
X204612458Y-72800777D01*
X204594842Y-72912000D01*
X204577050Y-73024331D01*
X204577050Y-73250669D01*
X204590633Y-73336424D01*
X204612458Y-73474222D01*
X204612458Y-73474225D01*
X204682398Y-73689478D01*
X204682400Y-73689481D01*
X204785155Y-73891150D01*
X204918193Y-74074261D01*
X205078239Y-74234307D01*
X205261350Y-74367345D01*
X205463019Y-74470100D01*
X205463021Y-74470101D01*
X205642461Y-74528404D01*
X205678279Y-74540042D01*
X205901831Y-74575450D01*
X205901832Y-74575450D01*
X206128168Y-74575450D01*
X206128169Y-74575450D01*
X206351721Y-74540042D01*
X206351724Y-74540041D01*
X206351725Y-74540041D01*
X206566978Y-74470101D01*
X206566978Y-74470100D01*
X206566981Y-74470100D01*
X206768650Y-74367345D01*
X206951761Y-74234307D01*
X207111807Y-74074261D01*
X207244845Y-73891150D01*
X207347600Y-73689481D01*
X207389097Y-73561766D01*
X207417541Y-73474225D01*
X207417541Y-73474224D01*
X207417542Y-73474221D01*
X207452950Y-73250669D01*
X207452950Y-73024331D01*
X209657050Y-73024331D01*
X209657050Y-73250669D01*
X209670633Y-73336424D01*
X209692458Y-73474222D01*
X209692458Y-73474225D01*
X209762398Y-73689478D01*
X209762400Y-73689481D01*
X209865155Y-73891150D01*
X209998193Y-74074261D01*
X210158239Y-74234307D01*
X210341350Y-74367345D01*
X210543019Y-74470100D01*
X210543021Y-74470101D01*
X210722461Y-74528404D01*
X210758279Y-74540042D01*
X210981831Y-74575450D01*
X210981832Y-74575450D01*
X211208168Y-74575450D01*
X211208169Y-74575450D01*
X211431721Y-74540042D01*
X211431724Y-74540041D01*
X211431725Y-74540041D01*
X211646978Y-74470101D01*
X211646978Y-74470100D01*
X211646981Y-74470100D01*
X211848650Y-74367345D01*
X212031761Y-74234307D01*
X212191807Y-74074261D01*
X212324845Y-73891150D01*
X212427600Y-73689481D01*
X212469097Y-73561766D01*
X212497541Y-73474225D01*
X212497541Y-73474224D01*
X212497542Y-73474221D01*
X212532950Y-73250669D01*
X212532950Y-73024331D01*
X212497542Y-72800779D01*
X212497541Y-72800775D01*
X212497541Y-72800774D01*
X212427601Y-72585521D01*
X212427599Y-72585518D01*
X212427597Y-72585513D01*
X212324845Y-72383850D01*
X212191807Y-72200739D01*
X212031761Y-72040693D01*
X211848650Y-71907655D01*
X211646981Y-71804900D01*
X211646978Y-71804898D01*
X211431723Y-71734958D01*
X211282686Y-71711352D01*
X211208169Y-71699550D01*
X210981831Y-71699550D01*
X210907313Y-71711352D01*
X210758277Y-71734958D01*
X210758274Y-71734958D01*
X210543021Y-71804898D01*
X210543018Y-71804900D01*
X210341349Y-71907655D01*
X210280029Y-71952207D01*
X210158239Y-72040693D01*
X210158237Y-72040695D01*
X210158236Y-72040695D01*
X209998195Y-72200736D01*
X209998195Y-72200737D01*
X209998193Y-72200739D01*
X209977662Y-72228998D01*
X209865155Y-72383849D01*
X209762400Y-72585518D01*
X209762398Y-72585521D01*
X209692458Y-72800774D01*
X209692458Y-72800777D01*
X209674842Y-72912000D01*
X209657050Y-73024331D01*
X207452950Y-73024331D01*
X207417542Y-72800779D01*
X207417541Y-72800775D01*
X207417541Y-72800774D01*
X207347601Y-72585521D01*
X207347599Y-72585518D01*
X207347597Y-72585513D01*
X207244845Y-72383850D01*
X207111807Y-72200739D01*
X206951761Y-72040693D01*
X206768650Y-71907655D01*
X206566981Y-71804900D01*
X206566978Y-71804898D01*
X206351723Y-71734958D01*
X206202686Y-71711352D01*
X206128169Y-71699550D01*
X206128168Y-71699550D01*
X206077517Y-71699550D01*
X206068831Y-71696999D01*
X206059870Y-71698288D01*
X206035829Y-71687309D01*
X206010478Y-71679865D01*
X206004550Y-71673024D01*
X205996314Y-71669263D01*
X205982024Y-71647028D01*
X205964723Y-71627061D01*
X205962435Y-71616546D01*
X205958540Y-71610485D01*
X205953517Y-71575550D01*
X205953517Y-71524450D01*
X205973202Y-71457411D01*
X206026006Y-71411656D01*
X206077517Y-71400450D01*
X206128168Y-71400450D01*
X206128169Y-71400450D01*
X206351721Y-71365042D01*
X206351724Y-71365041D01*
X206351725Y-71365041D01*
X206566978Y-71295101D01*
X206566978Y-71295100D01*
X206566981Y-71295100D01*
X206768650Y-71192345D01*
X206951761Y-71059307D01*
X207111807Y-70899261D01*
X207244845Y-70716150D01*
X207347600Y-70514481D01*
X207372476Y-70437920D01*
X207417541Y-70299225D01*
X207417541Y-70299224D01*
X207417542Y-70299221D01*
X207452950Y-70075669D01*
X207452950Y-69889040D01*
X207809200Y-69889040D01*
X207809200Y-70035959D01*
X207837858Y-70180034D01*
X207837861Y-70180044D01*
X207894078Y-70315766D01*
X207894083Y-70315775D01*
X207975698Y-70437919D01*
X207975701Y-70437923D01*
X208079576Y-70541798D01*
X208079580Y-70541801D01*
X208201724Y-70623416D01*
X208201730Y-70623419D01*
X208201731Y-70623420D01*
X208337458Y-70679640D01*
X208480032Y-70707999D01*
X208481540Y-70708299D01*
X208481544Y-70708300D01*
X208481545Y-70708300D01*
X208628456Y-70708300D01*
X208628457Y-70708299D01*
X208772542Y-70679640D01*
X208908269Y-70623420D01*
X209030420Y-70541801D01*
X209134301Y-70437920D01*
X209215920Y-70315769D01*
X209272140Y-70180042D01*
X209300800Y-70035955D01*
X209300800Y-69889045D01*
X209296743Y-69868648D01*
X209296743Y-69868646D01*
X209292901Y-69849331D01*
X209657050Y-69849331D01*
X209657050Y-70075669D01*
X209665499Y-70129010D01*
X209692458Y-70299222D01*
X209692458Y-70299225D01*
X209762398Y-70514478D01*
X209762400Y-70514481D01*
X209865155Y-70716150D01*
X209998193Y-70899261D01*
X210158239Y-71059307D01*
X210341350Y-71192345D01*
X210543019Y-71295100D01*
X210543021Y-71295101D01*
X210743801Y-71360337D01*
X210758279Y-71365042D01*
X210981831Y-71400450D01*
X210981832Y-71400450D01*
X211208168Y-71400450D01*
X211208169Y-71400450D01*
X211431721Y-71365042D01*
X211431724Y-71365041D01*
X211431725Y-71365041D01*
X211646978Y-71295101D01*
X211646978Y-71295100D01*
X211646981Y-71295100D01*
X211848650Y-71192345D01*
X212031761Y-71059307D01*
X212191807Y-70899261D01*
X212324845Y-70716150D01*
X212427600Y-70514481D01*
X212452476Y-70437920D01*
X212497541Y-70299225D01*
X212497541Y-70299224D01*
X212497542Y-70299221D01*
X212532950Y-70075669D01*
X212532950Y-69849331D01*
X212497542Y-69625779D01*
X212497541Y-69625775D01*
X212497541Y-69625774D01*
X212427601Y-69410521D01*
X212427599Y-69410518D01*
X212424200Y-69403846D01*
X212324845Y-69208850D01*
X212191807Y-69025739D01*
X212031761Y-68865693D01*
X211848650Y-68732655D01*
X211646981Y-68629900D01*
X211646978Y-68629898D01*
X211431723Y-68559958D01*
X211282686Y-68536352D01*
X211208169Y-68524550D01*
X210981831Y-68524550D01*
X210907313Y-68536352D01*
X210758277Y-68559958D01*
X210758274Y-68559958D01*
X210543021Y-68629898D01*
X210543018Y-68629900D01*
X210341349Y-68732655D01*
X210260569Y-68791346D01*
X210158239Y-68865693D01*
X210158237Y-68865695D01*
X210158236Y-68865695D01*
X209998195Y-69025736D01*
X209998195Y-69025737D01*
X209998193Y-69025739D01*
X209955242Y-69084856D01*
X209865155Y-69208849D01*
X209762400Y-69410518D01*
X209762398Y-69410521D01*
X209692458Y-69625774D01*
X209692458Y-69625777D01*
X209662039Y-69817833D01*
X209657050Y-69849331D01*
X209292901Y-69849331D01*
X209272141Y-69744965D01*
X209272140Y-69744958D01*
X209215920Y-69609231D01*
X209215919Y-69609230D01*
X209215916Y-69609224D01*
X209134301Y-69487080D01*
X209134298Y-69487076D01*
X209030423Y-69383201D01*
X209030419Y-69383198D01*
X208908275Y-69301583D01*
X208908266Y-69301578D01*
X208797611Y-69255744D01*
X208772542Y-69245360D01*
X208772538Y-69245359D01*
X208772534Y-69245358D01*
X208628459Y-69216700D01*
X208628455Y-69216700D01*
X208481545Y-69216700D01*
X208481540Y-69216700D01*
X208337465Y-69245358D01*
X208337455Y-69245361D01*
X208201733Y-69301578D01*
X208201724Y-69301583D01*
X208079580Y-69383198D01*
X208079576Y-69383201D01*
X207975701Y-69487076D01*
X207975698Y-69487080D01*
X207894083Y-69609224D01*
X207894078Y-69609233D01*
X207837861Y-69744955D01*
X207837858Y-69744965D01*
X207809200Y-69889040D01*
X207452950Y-69889040D01*
X207452950Y-69849331D01*
X207417542Y-69625779D01*
X207417541Y-69625775D01*
X207417541Y-69625774D01*
X207347601Y-69410521D01*
X207347599Y-69410518D01*
X207344200Y-69403846D01*
X207244845Y-69208850D01*
X207111807Y-69025739D01*
X206951761Y-68865693D01*
X206768650Y-68732655D01*
X206566981Y-68629900D01*
X206566978Y-68629898D01*
X206351723Y-68559958D01*
X206202686Y-68536352D01*
X206128169Y-68524550D01*
X205901831Y-68524550D01*
X205827313Y-68536352D01*
X205678277Y-68559958D01*
X205678274Y-68559958D01*
X205463021Y-68629898D01*
X205463018Y-68629900D01*
X205261349Y-68732655D01*
X205180569Y-68791346D01*
X205078239Y-68865693D01*
X205078237Y-68865695D01*
X205078236Y-68865695D01*
X204918195Y-69025736D01*
X204918195Y-69025737D01*
X204918193Y-69025739D01*
X204875242Y-69084856D01*
X204785155Y-69208849D01*
X204682400Y-69410518D01*
X204682398Y-69410521D01*
X204612458Y-69625774D01*
X204612458Y-69625777D01*
X204582039Y-69817833D01*
X204552110Y-69880968D01*
X204492798Y-69917899D01*
X204422936Y-69916901D01*
X204412113Y-69912996D01*
X204398082Y-69907184D01*
X204398074Y-69907182D01*
X204233771Y-69874500D01*
X204233767Y-69874500D01*
X204066233Y-69874500D01*
X204066228Y-69874500D01*
X203901925Y-69907182D01*
X203901917Y-69907184D01*
X203747139Y-69971295D01*
X203607837Y-70064373D01*
X203489373Y-70182837D01*
X203396295Y-70322139D01*
X203332184Y-70476917D01*
X203332182Y-70476925D01*
X203299500Y-70641228D01*
X195566002Y-70641228D01*
X195584737Y-70595997D01*
X195615500Y-70441342D01*
X195615500Y-70283658D01*
X195615500Y-70283655D01*
X195615499Y-70283653D01*
X195596780Y-70189548D01*
X195584737Y-70129003D01*
X195578141Y-70113079D01*
X195524397Y-69983327D01*
X195524390Y-69983314D01*
X195436789Y-69852211D01*
X195436786Y-69852207D01*
X195325292Y-69740713D01*
X195325288Y-69740710D01*
X195194185Y-69653109D01*
X195194172Y-69653102D01*
X195067546Y-69600653D01*
X195013142Y-69556812D01*
X194991077Y-69490518D01*
X195008356Y-69422819D01*
X195038613Y-69390902D01*
X195037454Y-69389490D01*
X195042158Y-69385628D01*
X195042162Y-69385626D01*
X195160626Y-69267162D01*
X195253703Y-69127863D01*
X195317816Y-68973082D01*
X195350500Y-68808767D01*
X195350500Y-68641233D01*
X195317816Y-68476918D01*
X195284692Y-68396952D01*
X195277224Y-68327484D01*
X195308499Y-68265004D01*
X195368588Y-68229352D01*
X195399254Y-68225500D01*
X198650746Y-68225500D01*
X198717785Y-68245185D01*
X198763540Y-68297989D01*
X198773484Y-68367147D01*
X198765307Y-68396953D01*
X198732184Y-68476917D01*
X198732182Y-68476925D01*
X198699500Y-68641228D01*
X198698903Y-68647294D01*
X198696865Y-68647093D01*
X198679815Y-68705160D01*
X198627011Y-68750915D01*
X198622069Y-68752785D01*
X198622130Y-68752932D01*
X198470827Y-68815602D01*
X198470814Y-68815609D01*
X198339711Y-68903210D01*
X198339707Y-68903213D01*
X198228213Y-69014707D01*
X198228210Y-69014711D01*
X198140609Y-69145814D01*
X198140602Y-69145827D01*
X198080264Y-69291498D01*
X198080261Y-69291510D01*
X198049500Y-69446153D01*
X198049500Y-69603846D01*
X198080261Y-69758489D01*
X198080264Y-69758501D01*
X198140602Y-69904172D01*
X198140609Y-69904185D01*
X198228210Y-70035288D01*
X198228213Y-70035292D01*
X198339707Y-70146786D01*
X198339711Y-70146789D01*
X198470814Y-70234390D01*
X198470827Y-70234397D01*
X198616498Y-70294735D01*
X198616503Y-70294737D01*
X198754251Y-70322137D01*
X198771153Y-70325499D01*
X198771156Y-70325500D01*
X198771158Y-70325500D01*
X198928844Y-70325500D01*
X198928845Y-70325499D01*
X199083497Y-70294737D01*
X199229179Y-70234394D01*
X199360289Y-70146789D01*
X199471789Y-70035289D01*
X199559394Y-69904179D01*
X199619737Y-69758497D01*
X199640895Y-69652128D01*
X199673279Y-69590218D01*
X199733995Y-69555644D01*
X199738287Y-69554709D01*
X199781304Y-69546153D01*
X200549500Y-69546153D01*
X200549500Y-69703846D01*
X200580261Y-69858489D01*
X200580264Y-69858501D01*
X200640602Y-70004172D01*
X200640609Y-70004185D01*
X200728210Y-70135288D01*
X200728213Y-70135292D01*
X200839707Y-70246786D01*
X200839711Y-70246789D01*
X200970814Y-70334390D01*
X200970827Y-70334397D01*
X201106781Y-70390710D01*
X201116503Y-70394737D01*
X201232408Y-70417792D01*
X201271153Y-70425499D01*
X201271156Y-70425500D01*
X201271158Y-70425500D01*
X201428844Y-70425500D01*
X201428845Y-70425499D01*
X201583497Y-70394737D01*
X201729179Y-70334394D01*
X201860289Y-70246789D01*
X201971789Y-70135289D01*
X202059394Y-70004179D01*
X202119737Y-69858497D01*
X202150500Y-69703842D01*
X202150500Y-69546158D01*
X202150500Y-69546155D01*
X202150499Y-69546153D01*
X202139432Y-69490518D01*
X202119737Y-69391503D01*
X202117303Y-69385626D01*
X202059397Y-69245827D01*
X202059390Y-69245814D01*
X201971789Y-69114711D01*
X201971786Y-69114707D01*
X201860292Y-69003213D01*
X201860288Y-69003210D01*
X201729185Y-68915609D01*
X201729172Y-68915602D01*
X201583501Y-68855264D01*
X201583489Y-68855261D01*
X201428845Y-68824500D01*
X201428842Y-68824500D01*
X201271158Y-68824500D01*
X201271155Y-68824500D01*
X201116510Y-68855261D01*
X201116498Y-68855264D01*
X200970827Y-68915602D01*
X200970814Y-68915609D01*
X200839711Y-69003210D01*
X200839707Y-69003213D01*
X200728213Y-69114707D01*
X200728210Y-69114711D01*
X200640609Y-69245814D01*
X200640602Y-69245827D01*
X200580264Y-69391498D01*
X200580261Y-69391510D01*
X200549500Y-69546153D01*
X199781304Y-69546153D01*
X199798082Y-69542816D01*
X199952863Y-69478703D01*
X200092162Y-69385626D01*
X200210626Y-69267162D01*
X200303703Y-69127863D01*
X200367816Y-68973082D01*
X200400500Y-68808767D01*
X200400500Y-68641233D01*
X200367816Y-68476918D01*
X200334692Y-68396952D01*
X200327224Y-68327484D01*
X200358499Y-68265004D01*
X200418588Y-68229352D01*
X200449254Y-68225500D01*
X214103949Y-68225500D01*
X214170988Y-68245185D01*
X214216743Y-68297989D01*
X214226687Y-68367147D01*
X214207050Y-68418393D01*
X214202208Y-68425638D01*
X214202203Y-68425647D01*
X214141865Y-68571318D01*
X214141862Y-68571330D01*
X214111101Y-68725973D01*
X214111101Y-68883666D01*
X214141862Y-69038309D01*
X214141865Y-69038321D01*
X214202203Y-69183992D01*
X214202210Y-69184005D01*
X214289811Y-69315108D01*
X214289814Y-69315112D01*
X214401308Y-69426606D01*
X214401312Y-69426609D01*
X214532415Y-69514210D01*
X214532428Y-69514217D01*
X214678099Y-69574555D01*
X214678104Y-69574557D01*
X214809297Y-69600653D01*
X214832754Y-69605319D01*
X214832757Y-69605320D01*
X214832759Y-69605320D01*
X214990445Y-69605320D01*
X214990446Y-69605319D01*
X215145098Y-69574557D01*
X215290780Y-69514214D01*
X215421890Y-69426609D01*
X215533390Y-69315109D01*
X215620995Y-69183999D01*
X215681338Y-69038317D01*
X215712101Y-68883662D01*
X215712101Y-68725978D01*
X215712101Y-68725975D01*
X215712100Y-68725973D01*
X215705086Y-68690710D01*
X215681338Y-68571323D01*
X215681336Y-68571318D01*
X215620998Y-68425647D01*
X215620993Y-68425638D01*
X215616152Y-68418393D01*
X215595273Y-68351716D01*
X215613756Y-68284335D01*
X215665734Y-68237644D01*
X215719253Y-68225500D01*
X216164688Y-68225500D01*
X216231727Y-68245185D01*
X216277482Y-68297989D01*
X216287426Y-68367147D01*
X216279249Y-68396952D01*
X216245264Y-68478998D01*
X216245261Y-68479010D01*
X216214500Y-68633653D01*
X216214500Y-68791346D01*
X216245261Y-68945989D01*
X216245264Y-68946001D01*
X216305602Y-69091672D01*
X216305609Y-69091685D01*
X216393210Y-69222788D01*
X216393213Y-69222792D01*
X216504707Y-69334286D01*
X216504711Y-69334289D01*
X216635814Y-69421890D01*
X216635827Y-69421897D01*
X216781498Y-69482235D01*
X216781503Y-69482237D01*
X216936153Y-69512999D01*
X216936156Y-69513000D01*
X216936158Y-69513000D01*
X217093844Y-69513000D01*
X217093845Y-69512999D01*
X217248497Y-69482237D01*
X217394179Y-69421894D01*
X217525289Y-69334289D01*
X217636789Y-69222789D01*
X217724394Y-69091679D01*
X217784737Y-68945997D01*
X217815500Y-68791342D01*
X217815500Y-68633658D01*
X217815500Y-68633655D01*
X217815499Y-68633653D01*
X217793787Y-68524500D01*
X217784737Y-68479003D01*
X217783873Y-68476917D01*
X217750751Y-68396952D01*
X217743282Y-68327483D01*
X217774557Y-68265004D01*
X217834646Y-68229352D01*
X217865312Y-68225500D01*
X228770169Y-68225500D01*
X228837208Y-68245185D01*
X228882963Y-68297989D01*
X228894159Y-68351019D01*
X228888042Y-68849614D01*
X228787693Y-77028000D01*
X228701497Y-84052980D01*
X228680991Y-84119773D01*
X228627630Y-84164877D01*
X228577972Y-84175458D01*
X175874966Y-84373590D01*
X175807853Y-84354158D01*
X175761900Y-84301526D01*
X175750500Y-84249591D01*
X175750500Y-81812414D01*
X197950107Y-81812414D01*
X197950107Y-81970107D01*
X197980868Y-82124750D01*
X197980871Y-82124762D01*
X198041209Y-82270433D01*
X198041216Y-82270446D01*
X198128817Y-82401549D01*
X198128820Y-82401553D01*
X198240314Y-82513047D01*
X198240318Y-82513050D01*
X198371421Y-82600651D01*
X198371434Y-82600658D01*
X198497801Y-82653000D01*
X198517110Y-82660998D01*
X198671760Y-82691760D01*
X198671763Y-82691761D01*
X198671765Y-82691761D01*
X198829451Y-82691761D01*
X198829452Y-82691760D01*
X198984104Y-82660998D01*
X199129786Y-82600655D01*
X199138646Y-82594735D01*
X199212288Y-82545529D01*
X199278965Y-82524651D01*
X199346345Y-82543135D01*
X199350059Y-82545521D01*
X199370821Y-82559394D01*
X199370823Y-82559395D01*
X199370827Y-82559397D01*
X199516498Y-82619735D01*
X199516503Y-82619737D01*
X199671153Y-82650499D01*
X199671156Y-82650500D01*
X199671158Y-82650500D01*
X199828844Y-82650500D01*
X199828845Y-82650499D01*
X199983497Y-82619737D01*
X200129179Y-82559394D01*
X200181110Y-82524694D01*
X200247785Y-82503816D01*
X200315165Y-82522300D01*
X200318863Y-82524676D01*
X200370821Y-82559394D01*
X200370823Y-82559395D01*
X200370825Y-82559396D01*
X200516498Y-82619735D01*
X200516503Y-82619737D01*
X200671153Y-82650499D01*
X200671156Y-82650500D01*
X200671158Y-82650500D01*
X200828844Y-82650500D01*
X200828845Y-82650499D01*
X200983497Y-82619737D01*
X201123136Y-82561897D01*
X201129172Y-82559397D01*
X201129172Y-82559396D01*
X201129179Y-82559394D01*
X201199818Y-82512194D01*
X201266494Y-82491317D01*
X201333874Y-82509801D01*
X201337557Y-82512167D01*
X201370821Y-82534394D01*
X201370824Y-82534395D01*
X201370827Y-82534397D01*
X201516498Y-82594735D01*
X201516503Y-82594737D01*
X201642176Y-82619735D01*
X201671153Y-82625499D01*
X201671156Y-82625500D01*
X201671158Y-82625500D01*
X201828844Y-82625500D01*
X201828845Y-82625499D01*
X201983497Y-82594737D01*
X202129179Y-82534394D01*
X202260289Y-82446789D01*
X202371789Y-82335289D01*
X202415120Y-82270440D01*
X202418348Y-82265609D01*
X202471960Y-82220804D01*
X202521450Y-82210500D01*
X202546344Y-82210500D01*
X202546345Y-82210499D01*
X202700997Y-82179737D01*
X202813666Y-82133067D01*
X202846672Y-82119397D01*
X202846672Y-82119396D01*
X202846679Y-82119394D01*
X202977789Y-82031789D01*
X203089289Y-81920289D01*
X203176894Y-81789179D01*
X203237237Y-81643497D01*
X203268000Y-81488842D01*
X203268000Y-81331158D01*
X203268000Y-81331155D01*
X203267999Y-81331153D01*
X203264388Y-81312999D01*
X203237237Y-81176503D01*
X203231563Y-81162804D01*
X203176897Y-81030827D01*
X203176890Y-81030814D01*
X203089289Y-80899711D01*
X203089286Y-80899707D01*
X202977792Y-80788213D01*
X202977788Y-80788210D01*
X202846685Y-80700609D01*
X202846672Y-80700602D01*
X202701001Y-80640264D01*
X202700989Y-80640261D01*
X202546345Y-80609500D01*
X202546342Y-80609500D01*
X202388658Y-80609500D01*
X202388655Y-80609500D01*
X202234010Y-80640261D01*
X202233998Y-80640264D01*
X202088327Y-80700602D01*
X202088314Y-80700609D01*
X201957211Y-80788210D01*
X201957207Y-80788213D01*
X201845713Y-80899707D01*
X201845710Y-80899711D01*
X201799152Y-80969391D01*
X201745540Y-81014196D01*
X201696050Y-81024500D01*
X201671155Y-81024500D01*
X201516510Y-81055261D01*
X201516498Y-81055264D01*
X201370827Y-81115602D01*
X201370816Y-81115608D01*
X201300181Y-81162805D01*
X201233503Y-81183682D01*
X201166123Y-81165197D01*
X201162400Y-81162804D01*
X201155942Y-81158489D01*
X201129179Y-81140606D01*
X201129178Y-81140605D01*
X201129176Y-81140604D01*
X201129174Y-81140603D01*
X200983501Y-81080264D01*
X200983489Y-81080261D01*
X200828845Y-81049500D01*
X200828842Y-81049500D01*
X200671158Y-81049500D01*
X200671155Y-81049500D01*
X200516510Y-81080261D01*
X200516498Y-81080264D01*
X200370827Y-81140602D01*
X200370814Y-81140609D01*
X200318891Y-81175304D01*
X200252214Y-81196182D01*
X200184833Y-81177698D01*
X200181109Y-81175304D01*
X200129185Y-81140609D01*
X200129172Y-81140602D01*
X199983501Y-81080264D01*
X199983489Y-81080261D01*
X199828845Y-81049500D01*
X199828842Y-81049500D01*
X199671158Y-81049500D01*
X199671155Y-81049500D01*
X199516510Y-81080261D01*
X199516498Y-81080264D01*
X199370827Y-81140602D01*
X199370814Y-81140609D01*
X199288318Y-81195732D01*
X199221640Y-81216610D01*
X199154260Y-81198125D01*
X199150574Y-81195757D01*
X199129786Y-81181867D01*
X199129782Y-81181865D01*
X199129778Y-81181863D01*
X198984108Y-81121525D01*
X198984096Y-81121522D01*
X198829452Y-81090761D01*
X198829449Y-81090761D01*
X198671765Y-81090761D01*
X198671762Y-81090761D01*
X198517117Y-81121522D01*
X198517105Y-81121525D01*
X198371434Y-81181863D01*
X198371421Y-81181870D01*
X198240318Y-81269471D01*
X198240314Y-81269474D01*
X198128820Y-81380968D01*
X198128817Y-81380972D01*
X198041216Y-81512075D01*
X198041209Y-81512088D01*
X197980871Y-81657759D01*
X197980868Y-81657771D01*
X197950107Y-81812414D01*
X175750500Y-81812414D01*
X175750500Y-79762484D01*
X175770185Y-79695445D01*
X175822989Y-79649690D01*
X175892147Y-79639746D01*
X175943391Y-79659382D01*
X176047137Y-79728703D01*
X176047138Y-79728703D01*
X176047139Y-79728704D01*
X176069012Y-79737764D01*
X176201918Y-79792816D01*
X176366228Y-79825499D01*
X176366232Y-79825500D01*
X176366233Y-79825500D01*
X176533768Y-79825500D01*
X176533769Y-79825499D01*
X176698082Y-79792816D01*
X176852863Y-79728703D01*
X176906056Y-79693160D01*
X176972731Y-79672282D01*
X177040112Y-79690766D01*
X177086802Y-79742744D01*
X177089507Y-79748809D01*
X177113366Y-79806411D01*
X177113371Y-79806420D01*
X177222860Y-79970281D01*
X177222863Y-79970285D01*
X177362214Y-80109636D01*
X177362218Y-80109639D01*
X177526079Y-80219128D01*
X177526092Y-80219135D01*
X177670645Y-80279010D01*
X177708165Y-80294551D01*
X177708169Y-80294551D01*
X177708170Y-80294552D01*
X177901456Y-80333000D01*
X177901459Y-80333000D01*
X178573210Y-80333000D01*
X178640249Y-80352685D01*
X178686004Y-80405489D01*
X178695948Y-80474647D01*
X178694827Y-80481191D01*
X178664500Y-80633653D01*
X178664500Y-80791346D01*
X178695261Y-80945989D01*
X178695264Y-80946001D01*
X178755602Y-81091672D01*
X178755609Y-81091685D01*
X178843210Y-81222788D01*
X178843213Y-81222792D01*
X178954707Y-81334286D01*
X178954711Y-81334289D01*
X179085814Y-81421890D01*
X179085827Y-81421897D01*
X179209992Y-81473327D01*
X179231503Y-81482237D01*
X179381508Y-81512075D01*
X179386153Y-81512999D01*
X179386156Y-81513000D01*
X179386158Y-81513000D01*
X179543844Y-81513000D01*
X179543845Y-81512999D01*
X179698497Y-81482237D01*
X179844179Y-81421894D01*
X179975289Y-81334289D01*
X180086789Y-81222789D01*
X180174394Y-81091679D01*
X180177854Y-81083327D01*
X180197752Y-81035288D01*
X180234737Y-80945997D01*
X180246538Y-80886672D01*
X180254598Y-80846153D01*
X186199500Y-80846153D01*
X186199500Y-81003846D01*
X186230261Y-81158489D01*
X186230264Y-81158501D01*
X186290602Y-81304172D01*
X186290609Y-81304185D01*
X186378210Y-81435288D01*
X186378213Y-81435292D01*
X186489707Y-81546786D01*
X186489711Y-81546789D01*
X186620814Y-81634390D01*
X186620827Y-81634397D01*
X186759328Y-81691765D01*
X186766503Y-81694737D01*
X186921153Y-81725499D01*
X186921156Y-81725500D01*
X186921158Y-81725500D01*
X187078844Y-81725500D01*
X187078845Y-81725499D01*
X187233497Y-81694737D01*
X187379179Y-81634394D01*
X187510289Y-81546789D01*
X187621789Y-81435289D01*
X187709394Y-81304179D01*
X187720555Y-81277235D01*
X187743105Y-81222792D01*
X187769737Y-81158497D01*
X187800500Y-81003842D01*
X187800500Y-80846158D01*
X187800500Y-80846155D01*
X187800499Y-80846153D01*
X187799417Y-80840713D01*
X187769737Y-80691503D01*
X187750955Y-80646158D01*
X187750953Y-80646153D01*
X193249500Y-80646153D01*
X193249500Y-80803846D01*
X193280261Y-80958489D01*
X193280264Y-80958501D01*
X193340602Y-81104172D01*
X193340609Y-81104185D01*
X193428210Y-81235288D01*
X193428213Y-81235292D01*
X193539707Y-81346786D01*
X193539711Y-81346789D01*
X193670814Y-81434390D01*
X193670827Y-81434397D01*
X193816498Y-81494735D01*
X193816503Y-81494737D01*
X193908312Y-81512999D01*
X193971153Y-81525499D01*
X193971156Y-81525500D01*
X193971158Y-81525500D01*
X194128844Y-81525500D01*
X194128845Y-81525499D01*
X194283497Y-81494737D01*
X194429179Y-81434394D01*
X194560289Y-81346789D01*
X194671789Y-81235289D01*
X194759394Y-81104179D01*
X194819737Y-80958497D01*
X194850500Y-80803842D01*
X194850500Y-80646158D01*
X194850500Y-80646155D01*
X194850499Y-80646153D01*
X194843208Y-80609500D01*
X194819737Y-80491503D01*
X194814562Y-80479010D01*
X194800952Y-80446153D01*
X203449500Y-80446153D01*
X203449500Y-80603846D01*
X203480261Y-80758489D01*
X203480264Y-80758501D01*
X203540602Y-80904172D01*
X203540609Y-80904185D01*
X203628210Y-81035288D01*
X203628213Y-81035292D01*
X203743990Y-81151069D01*
X203777475Y-81212392D01*
X203772491Y-81282084D01*
X203743990Y-81326431D01*
X203728213Y-81342207D01*
X203728210Y-81342211D01*
X203640609Y-81473314D01*
X203640602Y-81473327D01*
X203580264Y-81618998D01*
X203580261Y-81619010D01*
X203549500Y-81773653D01*
X203549500Y-81931346D01*
X203580261Y-82085989D01*
X203580264Y-82086001D01*
X203640602Y-82231672D01*
X203640609Y-82231685D01*
X203728210Y-82362788D01*
X203728213Y-82362792D01*
X203839707Y-82474286D01*
X203839711Y-82474289D01*
X203970814Y-82561890D01*
X203970827Y-82561897D01*
X204110467Y-82619737D01*
X204116503Y-82622237D01*
X204258585Y-82650499D01*
X204271153Y-82652999D01*
X204271156Y-82653000D01*
X204271158Y-82653000D01*
X204428844Y-82653000D01*
X204428845Y-82652999D01*
X204583497Y-82622237D01*
X204729179Y-82561894D01*
X204860289Y-82474289D01*
X204971789Y-82362789D01*
X205059394Y-82231679D01*
X205119737Y-82085997D01*
X205150500Y-81931342D01*
X205150500Y-81773658D01*
X205150500Y-81773655D01*
X205150499Y-81773653D01*
X205140921Y-81725500D01*
X205119737Y-81619003D01*
X205119735Y-81618998D01*
X205059397Y-81473327D01*
X205059390Y-81473314D01*
X204999480Y-81383653D01*
X218764500Y-81383653D01*
X218764500Y-81541346D01*
X218795261Y-81695989D01*
X218795264Y-81696001D01*
X218855602Y-81841672D01*
X218855609Y-81841685D01*
X218943210Y-81972788D01*
X218943213Y-81972792D01*
X219054707Y-82084286D01*
X219054711Y-82084289D01*
X219185814Y-82171890D01*
X219185827Y-82171897D01*
X219303901Y-82220804D01*
X219331503Y-82232237D01*
X219486153Y-82262999D01*
X219486156Y-82263000D01*
X219486158Y-82263000D01*
X219643844Y-82263000D01*
X219643845Y-82262999D01*
X219798497Y-82232237D01*
X219944179Y-82171894D01*
X220075289Y-82084289D01*
X220186789Y-81972789D01*
X220274394Y-81841679D01*
X220334737Y-81695997D01*
X220365500Y-81541342D01*
X220365500Y-81383658D01*
X220365500Y-81383655D01*
X220365499Y-81383653D01*
X220334738Y-81229007D01*
X220334735Y-81228998D01*
X220274397Y-81083327D01*
X220274390Y-81083314D01*
X220186789Y-80952211D01*
X220186786Y-80952207D01*
X220075292Y-80840713D01*
X220075288Y-80840710D01*
X219944185Y-80753109D01*
X219944172Y-80753102D01*
X219798501Y-80692764D01*
X219798489Y-80692761D01*
X219643845Y-80662000D01*
X219643842Y-80662000D01*
X219486158Y-80662000D01*
X219486155Y-80662000D01*
X219331510Y-80692761D01*
X219331498Y-80692764D01*
X219185827Y-80753102D01*
X219185814Y-80753109D01*
X219054711Y-80840710D01*
X219054707Y-80840713D01*
X218943213Y-80952207D01*
X218943210Y-80952211D01*
X218855609Y-81083314D01*
X218855602Y-81083327D01*
X218795264Y-81228998D01*
X218795262Y-81229007D01*
X218764500Y-81383653D01*
X204999480Y-81383653D01*
X204971789Y-81342211D01*
X204971786Y-81342207D01*
X204856010Y-81226431D01*
X204822525Y-81165108D01*
X204827509Y-81095416D01*
X204856010Y-81051069D01*
X204871786Y-81035292D01*
X204871789Y-81035289D01*
X204959394Y-80904179D01*
X205019737Y-80758497D01*
X205050500Y-80603842D01*
X205050500Y-80446158D01*
X205050500Y-80446155D01*
X205050499Y-80446153D01*
X205030543Y-80345827D01*
X205019737Y-80291503D01*
X205012486Y-80273998D01*
X204959397Y-80145827D01*
X204959390Y-80145814D01*
X204871789Y-80014711D01*
X204871786Y-80014707D01*
X204760292Y-79903213D01*
X204760288Y-79903210D01*
X204651722Y-79830668D01*
X204629185Y-79815609D01*
X204629172Y-79815602D01*
X204483501Y-79755264D01*
X204483489Y-79755261D01*
X204374860Y-79733653D01*
X207014500Y-79733653D01*
X207014500Y-79891346D01*
X207045261Y-80045989D01*
X207045264Y-80046001D01*
X207105602Y-80191672D01*
X207105609Y-80191685D01*
X207193210Y-80322788D01*
X207193213Y-80322792D01*
X207304707Y-80434286D01*
X207304711Y-80434289D01*
X207435814Y-80521890D01*
X207435827Y-80521897D01*
X207581498Y-80582235D01*
X207581503Y-80582237D01*
X207736153Y-80612999D01*
X207736156Y-80613000D01*
X207736158Y-80613000D01*
X207893844Y-80613000D01*
X207893845Y-80612999D01*
X208048497Y-80582237D01*
X208194179Y-80521894D01*
X208325289Y-80434289D01*
X208436789Y-80322789D01*
X208524394Y-80191679D01*
X208584737Y-80045997D01*
X208615500Y-79891342D01*
X208615500Y-79733658D01*
X208615500Y-79733655D01*
X208615499Y-79733653D01*
X210314500Y-79733653D01*
X210314500Y-79891346D01*
X210345261Y-80045989D01*
X210345264Y-80046001D01*
X210405602Y-80191672D01*
X210405609Y-80191685D01*
X210493210Y-80322788D01*
X210493213Y-80322792D01*
X210604707Y-80434286D01*
X210604711Y-80434289D01*
X210735814Y-80521890D01*
X210735827Y-80521897D01*
X210881498Y-80582235D01*
X210881503Y-80582237D01*
X211036153Y-80612999D01*
X211036156Y-80613000D01*
X211036158Y-80613000D01*
X211193844Y-80613000D01*
X211193845Y-80612999D01*
X211348497Y-80582237D01*
X211494179Y-80521894D01*
X211625289Y-80434289D01*
X211625925Y-80433653D01*
X213564500Y-80433653D01*
X213564500Y-80591346D01*
X213595261Y-80745989D01*
X213595264Y-80746001D01*
X213655602Y-80891672D01*
X213655609Y-80891685D01*
X213743210Y-81022788D01*
X213743213Y-81022792D01*
X213854707Y-81134286D01*
X213854711Y-81134289D01*
X213985814Y-81221890D01*
X213985827Y-81221897D01*
X214131498Y-81282235D01*
X214131503Y-81282237D01*
X214286153Y-81312999D01*
X214286156Y-81313000D01*
X214286158Y-81313000D01*
X214443844Y-81313000D01*
X214443845Y-81312999D01*
X214598497Y-81282237D01*
X214689702Y-81244459D01*
X214723584Y-81230425D01*
X214793053Y-81222956D01*
X214818485Y-81230423D01*
X214931503Y-81277237D01*
X215066949Y-81304179D01*
X215086153Y-81307999D01*
X215086156Y-81308000D01*
X215086158Y-81308000D01*
X215243844Y-81308000D01*
X215243845Y-81307999D01*
X215398497Y-81277237D01*
X215417745Y-81269264D01*
X215432857Y-81263005D01*
X215544172Y-81216897D01*
X215544172Y-81216896D01*
X215544179Y-81216894D01*
X215675289Y-81129289D01*
X215786789Y-81017789D01*
X215874394Y-80886679D01*
X215934737Y-80740997D01*
X215965500Y-80586342D01*
X215965500Y-80428658D01*
X215965500Y-80428655D01*
X215965499Y-80428653D01*
X215949024Y-80345827D01*
X215934737Y-80274003D01*
X215910550Y-80215609D01*
X215874397Y-80128327D01*
X215874390Y-80128314D01*
X215786789Y-79997211D01*
X215786786Y-79997207D01*
X215675292Y-79885713D01*
X215675288Y-79885710D01*
X215544185Y-79798109D01*
X215544172Y-79798102D01*
X215398501Y-79737764D01*
X215398489Y-79737761D01*
X215243845Y-79707000D01*
X215243842Y-79707000D01*
X215086158Y-79707000D01*
X215086155Y-79707000D01*
X214931510Y-79737761D01*
X214931507Y-79737762D01*
X214931506Y-79737762D01*
X214931503Y-79737763D01*
X214870575Y-79763000D01*
X214806416Y-79789575D01*
X214736946Y-79797043D01*
X214711512Y-79789574D01*
X214598501Y-79742764D01*
X214598489Y-79742761D01*
X214443845Y-79712000D01*
X214443842Y-79712000D01*
X214286158Y-79712000D01*
X214286155Y-79712000D01*
X214131510Y-79742761D01*
X214131498Y-79742764D01*
X213985827Y-79803102D01*
X213985814Y-79803109D01*
X213854711Y-79890710D01*
X213854707Y-79890713D01*
X213743213Y-80002207D01*
X213743210Y-80002211D01*
X213655609Y-80133314D01*
X213655602Y-80133327D01*
X213595264Y-80278998D01*
X213595261Y-80279010D01*
X213564500Y-80433653D01*
X211625925Y-80433653D01*
X211654089Y-80405489D01*
X211719694Y-80339885D01*
X211736786Y-80322792D01*
X211736789Y-80322789D01*
X211824394Y-80191679D01*
X211884737Y-80045997D01*
X211915500Y-79891342D01*
X211915500Y-79733658D01*
X211915500Y-79733655D01*
X211915499Y-79733653D01*
X211907899Y-79695445D01*
X211884737Y-79579003D01*
X211859122Y-79517162D01*
X211824397Y-79433327D01*
X211824390Y-79433314D01*
X211736789Y-79302211D01*
X211736786Y-79302207D01*
X211625292Y-79190713D01*
X211625288Y-79190710D01*
X211494185Y-79103109D01*
X211494172Y-79103102D01*
X211348501Y-79042764D01*
X211348489Y-79042761D01*
X211193845Y-79012000D01*
X211193842Y-79012000D01*
X211036158Y-79012000D01*
X211036155Y-79012000D01*
X210881510Y-79042761D01*
X210881498Y-79042764D01*
X210735827Y-79103102D01*
X210735814Y-79103109D01*
X210604711Y-79190710D01*
X210604707Y-79190713D01*
X210493213Y-79302207D01*
X210493210Y-79302211D01*
X210405609Y-79433314D01*
X210405602Y-79433327D01*
X210345264Y-79578998D01*
X210345261Y-79579010D01*
X210314500Y-79733653D01*
X208615499Y-79733653D01*
X208607899Y-79695445D01*
X208584737Y-79579003D01*
X208559122Y-79517162D01*
X208524397Y-79433327D01*
X208524390Y-79433314D01*
X208436789Y-79302211D01*
X208436786Y-79302207D01*
X208325292Y-79190713D01*
X208325288Y-79190710D01*
X208194185Y-79103109D01*
X208194172Y-79103102D01*
X208048501Y-79042764D01*
X208048489Y-79042761D01*
X207893845Y-79012000D01*
X207893842Y-79012000D01*
X207736158Y-79012000D01*
X207736155Y-79012000D01*
X207581510Y-79042761D01*
X207581498Y-79042764D01*
X207435827Y-79103102D01*
X207435814Y-79103109D01*
X207304711Y-79190710D01*
X207304707Y-79190713D01*
X207193213Y-79302207D01*
X207193210Y-79302211D01*
X207105609Y-79433314D01*
X207105602Y-79433327D01*
X207045264Y-79578998D01*
X207045261Y-79579010D01*
X207014500Y-79733653D01*
X204374860Y-79733653D01*
X204328845Y-79724500D01*
X204328842Y-79724500D01*
X204171158Y-79724500D01*
X204171155Y-79724500D01*
X204016510Y-79755261D01*
X204016498Y-79755264D01*
X203870827Y-79815602D01*
X203870814Y-79815609D01*
X203739711Y-79903210D01*
X203739707Y-79903213D01*
X203628213Y-80014707D01*
X203628210Y-80014711D01*
X203540609Y-80145814D01*
X203540602Y-80145827D01*
X203480264Y-80291498D01*
X203480261Y-80291510D01*
X203449500Y-80446153D01*
X194800952Y-80446153D01*
X194759397Y-80345827D01*
X194759390Y-80345814D01*
X194671789Y-80214711D01*
X194671786Y-80214707D01*
X194560292Y-80103213D01*
X194560288Y-80103210D01*
X194429185Y-80015609D01*
X194429172Y-80015602D01*
X194283501Y-79955264D01*
X194283489Y-79955261D01*
X194128845Y-79924500D01*
X194128842Y-79924500D01*
X193971158Y-79924500D01*
X193971155Y-79924500D01*
X193816510Y-79955261D01*
X193816498Y-79955264D01*
X193670827Y-80015602D01*
X193670814Y-80015609D01*
X193539711Y-80103210D01*
X193539707Y-80103213D01*
X193428213Y-80214707D01*
X193428210Y-80214711D01*
X193340609Y-80345814D01*
X193340602Y-80345827D01*
X193280264Y-80491498D01*
X193280261Y-80491510D01*
X193249500Y-80646153D01*
X187750953Y-80646153D01*
X187709397Y-80545827D01*
X187709390Y-80545814D01*
X187621789Y-80414711D01*
X187621786Y-80414707D01*
X187510292Y-80303213D01*
X187510288Y-80303210D01*
X187379185Y-80215609D01*
X187379172Y-80215602D01*
X187233501Y-80155264D01*
X187233489Y-80155261D01*
X187078845Y-80124500D01*
X187078842Y-80124500D01*
X186921158Y-80124500D01*
X186921155Y-80124500D01*
X186766510Y-80155261D01*
X186766498Y-80155264D01*
X186620827Y-80215602D01*
X186620814Y-80215609D01*
X186489711Y-80303210D01*
X186489707Y-80303213D01*
X186378213Y-80414707D01*
X186378210Y-80414711D01*
X186290609Y-80545814D01*
X186290602Y-80545827D01*
X186230264Y-80691498D01*
X186230261Y-80691510D01*
X186199500Y-80846153D01*
X180254598Y-80846153D01*
X180260616Y-80815897D01*
X180260620Y-80815876D01*
X180265500Y-80791341D01*
X180265500Y-80633655D01*
X180265499Y-80633653D01*
X180259569Y-80603842D01*
X180234737Y-80479003D01*
X180213884Y-80428658D01*
X180174397Y-80333327D01*
X180174390Y-80333314D01*
X180086789Y-80202211D01*
X180086786Y-80202207D01*
X179975292Y-80090713D01*
X179975288Y-80090710D01*
X179844185Y-80003109D01*
X179844176Y-80003104D01*
X179754723Y-79966052D01*
X179700320Y-79922211D01*
X179678255Y-79855917D01*
X179687614Y-79804042D01*
X179762051Y-79624335D01*
X179794942Y-79458983D01*
X179800500Y-79431043D01*
X181029499Y-79431043D01*
X181067947Y-79624329D01*
X181067950Y-79624339D01*
X181143364Y-79806407D01*
X181143371Y-79806420D01*
X181252860Y-79970281D01*
X181252863Y-79970285D01*
X181392214Y-80109636D01*
X181392218Y-80109639D01*
X181556079Y-80219128D01*
X181556092Y-80219135D01*
X181700645Y-80279010D01*
X181738165Y-80294551D01*
X181738169Y-80294551D01*
X181738170Y-80294552D01*
X181931456Y-80333000D01*
X181931459Y-80333000D01*
X183228543Y-80333000D01*
X183358582Y-80307132D01*
X183421835Y-80294551D01*
X183603914Y-80219132D01*
X183767782Y-80109639D01*
X183907139Y-79970282D01*
X184016632Y-79806414D01*
X184092051Y-79624335D01*
X184124942Y-79458983D01*
X184130500Y-79431043D01*
X184130500Y-79233956D01*
X184116026Y-79161192D01*
X184122253Y-79091600D01*
X184165116Y-79036423D01*
X184231006Y-79013178D01*
X184237643Y-79013000D01*
X184243844Y-79013000D01*
X184243845Y-79012999D01*
X184398497Y-78982237D01*
X184544179Y-78921894D01*
X184675289Y-78834289D01*
X184786789Y-78722789D01*
X184874394Y-78591679D01*
X184877854Y-78583327D01*
X184899294Y-78531564D01*
X184934737Y-78445997D01*
X184965500Y-78291342D01*
X184965500Y-78133658D01*
X184965500Y-78133655D01*
X184965499Y-78133653D01*
X184934738Y-77979007D01*
X184934735Y-77978998D01*
X184874397Y-77833327D01*
X184874390Y-77833314D01*
X184786789Y-77702211D01*
X184786786Y-77702207D01*
X184675292Y-77590713D01*
X184675288Y-77590710D01*
X184544185Y-77503109D01*
X184544172Y-77503102D01*
X184398501Y-77442764D01*
X184398489Y-77442761D01*
X184243845Y-77412000D01*
X184243842Y-77412000D01*
X184086158Y-77412000D01*
X184086155Y-77412000D01*
X183931510Y-77442761D01*
X183931498Y-77442764D01*
X183785827Y-77503102D01*
X183785814Y-77503109D01*
X183654711Y-77590710D01*
X183654707Y-77590713D01*
X183543213Y-77702207D01*
X183543210Y-77702211D01*
X183455609Y-77833314D01*
X183455602Y-77833327D01*
X183395264Y-77978998D01*
X183395262Y-77979007D01*
X183364500Y-78133653D01*
X183364500Y-78208577D01*
X183344815Y-78275616D01*
X183292011Y-78321371D01*
X183234633Y-78330936D01*
X183234633Y-78332000D01*
X182711333Y-78332000D01*
X182644294Y-78312315D01*
X182598539Y-78259511D01*
X182588595Y-78190353D01*
X182603947Y-78145999D01*
X182616278Y-78124640D01*
X182616277Y-78124640D01*
X182616281Y-78124635D01*
X182655500Y-77978266D01*
X182655500Y-77826734D01*
X182616281Y-77680365D01*
X182540515Y-77549135D01*
X182433365Y-77441985D01*
X182353991Y-77396158D01*
X182302136Y-77366219D01*
X182190646Y-77336346D01*
X182155766Y-77327000D01*
X182004234Y-77327000D01*
X181857863Y-77366219D01*
X181726635Y-77441985D01*
X181726632Y-77441987D01*
X181619487Y-77549132D01*
X181619485Y-77549135D01*
X181543719Y-77680363D01*
X181520294Y-77767788D01*
X181504500Y-77826734D01*
X181504500Y-77978266D01*
X181513807Y-78012999D01*
X181543719Y-78124636D01*
X181562510Y-78157182D01*
X181619485Y-78255865D01*
X181619486Y-78255866D01*
X181623549Y-78262903D01*
X181621220Y-78264247D01*
X181641645Y-78317084D01*
X181627603Y-78385529D01*
X181578787Y-78435516D01*
X181565528Y-78441956D01*
X181556094Y-78445863D01*
X181556079Y-78445871D01*
X181392218Y-78555360D01*
X181392214Y-78555363D01*
X181252863Y-78694714D01*
X181252860Y-78694718D01*
X181143371Y-78858579D01*
X181143364Y-78858592D01*
X181067950Y-79040660D01*
X181067947Y-79040670D01*
X181029500Y-79233956D01*
X181029500Y-79233959D01*
X181029500Y-79431041D01*
X181029500Y-79431043D01*
X181029499Y-79431043D01*
X179800500Y-79431043D01*
X179800500Y-79233956D01*
X179762052Y-79040670D01*
X179762051Y-79040669D01*
X179762051Y-79040665D01*
X179750592Y-79013000D01*
X179686635Y-78858592D01*
X179686628Y-78858579D01*
X179577139Y-78694718D01*
X179577136Y-78694714D01*
X179437785Y-78555363D01*
X179437781Y-78555360D01*
X179273920Y-78445871D01*
X179273907Y-78445864D01*
X179091839Y-78370450D01*
X179091829Y-78370447D01*
X178898543Y-78332000D01*
X178898541Y-78332000D01*
X177901459Y-78332000D01*
X177901457Y-78332000D01*
X177708170Y-78370447D01*
X177708160Y-78370450D01*
X177526092Y-78445864D01*
X177526079Y-78445871D01*
X177362214Y-78555363D01*
X177358355Y-78558530D01*
X177294043Y-78585840D01*
X177225176Y-78574045D01*
X177176593Y-78531564D01*
X177110626Y-78432838D01*
X177110623Y-78432834D01*
X176992162Y-78314373D01*
X176852860Y-78221295D01*
X176698082Y-78157184D01*
X176698074Y-78157182D01*
X176533771Y-78124500D01*
X176533767Y-78124500D01*
X176366233Y-78124500D01*
X176366228Y-78124500D01*
X176201925Y-78157182D01*
X176201917Y-78157184D01*
X176047140Y-78221295D01*
X175943390Y-78290618D01*
X175876712Y-78311495D01*
X175809332Y-78293010D01*
X175762643Y-78241031D01*
X175750500Y-78187515D01*
X175750500Y-75883653D01*
X186052000Y-75883653D01*
X186052000Y-76041346D01*
X186082761Y-76195989D01*
X186082764Y-76196001D01*
X186143102Y-76341672D01*
X186143109Y-76341685D01*
X186230710Y-76472788D01*
X186230713Y-76472792D01*
X186342207Y-76584286D01*
X186342211Y-76584289D01*
X186473314Y-76671890D01*
X186473327Y-76671897D01*
X186618998Y-76732235D01*
X186619003Y-76732237D01*
X186773653Y-76762999D01*
X186773656Y-76763000D01*
X186773658Y-76763000D01*
X186931344Y-76763000D01*
X186931345Y-76762999D01*
X187085997Y-76732237D01*
X187231679Y-76671894D01*
X187362789Y-76584289D01*
X187474289Y-76472789D01*
X187561894Y-76341679D01*
X187622237Y-76195997D01*
X187653000Y-76041342D01*
X187653000Y-75883658D01*
X187653000Y-75883655D01*
X187652999Y-75883653D01*
X187645971Y-75848321D01*
X187622237Y-75729003D01*
X187611639Y-75703416D01*
X187561897Y-75583327D01*
X187561890Y-75583314D01*
X187474289Y-75452211D01*
X187474286Y-75452207D01*
X187362792Y-75340713D01*
X187362788Y-75340710D01*
X187231685Y-75253109D01*
X187231672Y-75253102D01*
X187086001Y-75192764D01*
X187085989Y-75192761D01*
X186931345Y-75162000D01*
X186931342Y-75162000D01*
X186773658Y-75162000D01*
X186773655Y-75162000D01*
X186619010Y-75192761D01*
X186618998Y-75192764D01*
X186473327Y-75253102D01*
X186473314Y-75253109D01*
X186342211Y-75340710D01*
X186342207Y-75340713D01*
X186230713Y-75452207D01*
X186230710Y-75452211D01*
X186143109Y-75583314D01*
X186143102Y-75583327D01*
X186082764Y-75728998D01*
X186082761Y-75729010D01*
X186052000Y-75883653D01*
X175750500Y-75883653D01*
X175750500Y-74712484D01*
X175770185Y-74645445D01*
X175822989Y-74599690D01*
X175892147Y-74589746D01*
X175943391Y-74609382D01*
X176047137Y-74678703D01*
X176047138Y-74678703D01*
X176047139Y-74678704D01*
X176072558Y-74689233D01*
X176201918Y-74742816D01*
X176366228Y-74775499D01*
X176366232Y-74775500D01*
X176366233Y-74775500D01*
X176533768Y-74775500D01*
X176533769Y-74775499D01*
X176698082Y-74742816D01*
X176852863Y-74678703D01*
X176992162Y-74585626D01*
X177110626Y-74467162D01*
X177203703Y-74327863D01*
X177234855Y-74252657D01*
X177234856Y-74252655D01*
X183890605Y-74252655D01*
X183890605Y-74410348D01*
X183921366Y-74564991D01*
X183921369Y-74565003D01*
X183981707Y-74710674D01*
X183981714Y-74710687D01*
X184069315Y-74841790D01*
X184069318Y-74841794D01*
X184180812Y-74953288D01*
X184180816Y-74953291D01*
X184311919Y-75040892D01*
X184311932Y-75040899D01*
X184396151Y-75075783D01*
X184457608Y-75101239D01*
X184612258Y-75132001D01*
X184612261Y-75132002D01*
X184612263Y-75132002D01*
X184769949Y-75132002D01*
X184769950Y-75132001D01*
X184924602Y-75101239D01*
X185070284Y-75040896D01*
X185201394Y-74953291D01*
X185312894Y-74841791D01*
X185400499Y-74710681D01*
X185460842Y-74564999D01*
X185491605Y-74410344D01*
X185491605Y-74252660D01*
X185491605Y-74252657D01*
X185491604Y-74252655D01*
X185475776Y-74173082D01*
X185460842Y-74098005D01*
X185451008Y-74074263D01*
X185400502Y-73952329D01*
X185400495Y-73952316D01*
X185312894Y-73821213D01*
X185312891Y-73821209D01*
X185201397Y-73709715D01*
X185201393Y-73709712D01*
X185070290Y-73622111D01*
X185070277Y-73622104D01*
X184924606Y-73561766D01*
X184924594Y-73561763D01*
X184769950Y-73531002D01*
X184769947Y-73531002D01*
X184612263Y-73531002D01*
X184612260Y-73531002D01*
X184457615Y-73561763D01*
X184457603Y-73561766D01*
X184311932Y-73622104D01*
X184311919Y-73622111D01*
X184180816Y-73709712D01*
X184180812Y-73709715D01*
X184069318Y-73821209D01*
X184069315Y-73821213D01*
X183981714Y-73952316D01*
X183981707Y-73952329D01*
X183921369Y-74098000D01*
X183921366Y-74098012D01*
X183890605Y-74252655D01*
X177234856Y-74252655D01*
X177257033Y-74199115D01*
X177259044Y-74194257D01*
X177267816Y-74173082D01*
X177300500Y-74008767D01*
X177300500Y-73841233D01*
X177267816Y-73676918D01*
X177210785Y-73539234D01*
X177203704Y-73522139D01*
X177188838Y-73499891D01*
X177167218Y-73467533D01*
X177110626Y-73382837D01*
X176992162Y-73264373D01*
X176877190Y-73187552D01*
X176852863Y-73171297D01*
X176852862Y-73171296D01*
X176852860Y-73171295D01*
X176698082Y-73107184D01*
X176698074Y-73107182D01*
X176567464Y-73081202D01*
X188587799Y-73081202D01*
X188587799Y-73238895D01*
X188618560Y-73393538D01*
X188618563Y-73393550D01*
X188678901Y-73539221D01*
X188678908Y-73539234D01*
X188766509Y-73670337D01*
X188766512Y-73670341D01*
X188797240Y-73701069D01*
X188830725Y-73762392D01*
X188825741Y-73832084D01*
X188812662Y-73857640D01*
X188744472Y-73959693D01*
X188744466Y-73959704D01*
X188684128Y-74105375D01*
X188684125Y-74105387D01*
X188653364Y-74260030D01*
X188653364Y-74417723D01*
X188684125Y-74572366D01*
X188684128Y-74572378D01*
X188744466Y-74718049D01*
X188744473Y-74718062D01*
X188832074Y-74849165D01*
X188832077Y-74849169D01*
X188943571Y-74960663D01*
X188948283Y-74964530D01*
X188946627Y-74966547D01*
X188984170Y-75011423D01*
X188994500Y-75060972D01*
X188994500Y-75141346D01*
X189025261Y-75295989D01*
X189025264Y-75296001D01*
X189085602Y-75441672D01*
X189085609Y-75441685D01*
X189163053Y-75557587D01*
X189183931Y-75624264D01*
X189165447Y-75691645D01*
X189161542Y-75697110D01*
X189161595Y-75697146D01*
X189070609Y-75833314D01*
X189070602Y-75833327D01*
X189010264Y-75978998D01*
X189010261Y-75979010D01*
X188979500Y-76133653D01*
X188979500Y-76291346D01*
X189010261Y-76445989D01*
X189010264Y-76446001D01*
X189070602Y-76591672D01*
X189070609Y-76591685D01*
X189158210Y-76722788D01*
X189158213Y-76722792D01*
X189269707Y-76834286D01*
X189269711Y-76834289D01*
X189400814Y-76921890D01*
X189400827Y-76921897D01*
X189538683Y-76978998D01*
X189546503Y-76982237D01*
X189701153Y-77012999D01*
X189701156Y-77013000D01*
X189701158Y-77013000D01*
X189858844Y-77013000D01*
X189858845Y-77012999D01*
X190013497Y-76982237D01*
X190159179Y-76921894D01*
X190290289Y-76834289D01*
X190401789Y-76722789D01*
X190489394Y-76591679D01*
X190549737Y-76445997D01*
X190580500Y-76291342D01*
X190580500Y-76218231D01*
X191262000Y-76218231D01*
X191262000Y-76375924D01*
X191292761Y-76530567D01*
X191292764Y-76530579D01*
X191342324Y-76650229D01*
X191349793Y-76719699D01*
X191342325Y-76745132D01*
X191314912Y-76811316D01*
X191312762Y-76816506D01*
X191312760Y-76816511D01*
X191282000Y-76971153D01*
X191282000Y-77128846D01*
X191312761Y-77283489D01*
X191312764Y-77283501D01*
X191373102Y-77429172D01*
X191373109Y-77429185D01*
X191460710Y-77560288D01*
X191460713Y-77560292D01*
X191572207Y-77671786D01*
X191572211Y-77671789D01*
X191703314Y-77759390D01*
X191703327Y-77759397D01*
X191848998Y-77819735D01*
X191849003Y-77819737D01*
X191984987Y-77846786D01*
X192003653Y-77850499D01*
X192003656Y-77850500D01*
X192003658Y-77850500D01*
X192161344Y-77850500D01*
X192161345Y-77850499D01*
X192315997Y-77819737D01*
X192461679Y-77759394D01*
X192592789Y-77671789D01*
X192704289Y-77560289D01*
X192791894Y-77429179D01*
X192852237Y-77283497D01*
X192883000Y-77128842D01*
X192883000Y-76971158D01*
X192883000Y-76971155D01*
X192882999Y-76971153D01*
X192865236Y-76881854D01*
X192852237Y-76816503D01*
X192851114Y-76813792D01*
X192802675Y-76696847D01*
X192795206Y-76627378D01*
X192802672Y-76601948D01*
X192832237Y-76530575D01*
X192863000Y-76375920D01*
X192863000Y-76218236D01*
X192863000Y-76218233D01*
X192862999Y-76218231D01*
X192852761Y-76166757D01*
X192849160Y-76148653D01*
X196274500Y-76148653D01*
X196274500Y-76306346D01*
X196305261Y-76460989D01*
X196305264Y-76461001D01*
X196365602Y-76606672D01*
X196365609Y-76606685D01*
X196453210Y-76737788D01*
X196453213Y-76737792D01*
X196564707Y-76849286D01*
X196564711Y-76849289D01*
X196695814Y-76936890D01*
X196695827Y-76936897D01*
X196837527Y-76995590D01*
X196841503Y-76997237D01*
X196996153Y-77027999D01*
X196996156Y-77028000D01*
X196996158Y-77028000D01*
X197153844Y-77028000D01*
X197153845Y-77027999D01*
X197308497Y-76997237D01*
X197454179Y-76936894D01*
X197585289Y-76849289D01*
X197592081Y-76842497D01*
X197620481Y-76826987D01*
X197648189Y-76810262D01*
X197650964Y-76810340D01*
X197653402Y-76809009D01*
X197685686Y-76811316D01*
X197718032Y-76812226D01*
X197720324Y-76813792D01*
X197723094Y-76813990D01*
X197749003Y-76833383D01*
X197775725Y-76851638D01*
X197777619Y-76854802D01*
X197779030Y-76855859D01*
X197793964Y-76881854D01*
X197794183Y-76882373D01*
X197835615Y-76982398D01*
X197838047Y-76986038D01*
X197842089Y-76995590D01*
X197845470Y-77024942D01*
X197851490Y-77053871D01*
X197849671Y-77061415D01*
X197850084Y-77065000D01*
X197847576Y-77070106D01*
X197842452Y-77091362D01*
X197780264Y-77241498D01*
X197780261Y-77241510D01*
X197749500Y-77396153D01*
X197749500Y-77553846D01*
X197780261Y-77708489D01*
X197780264Y-77708501D01*
X197840604Y-77854177D01*
X197840605Y-77854179D01*
X197841899Y-77856115D01*
X197842264Y-77857282D01*
X197843476Y-77859549D01*
X197843045Y-77859778D01*
X197862773Y-77922794D01*
X197844285Y-77990173D01*
X197841899Y-77993885D01*
X197840605Y-77995820D01*
X197840604Y-77995822D01*
X197780264Y-78141498D01*
X197780261Y-78141510D01*
X197749500Y-78296153D01*
X197749500Y-78453846D01*
X197780261Y-78608489D01*
X197780264Y-78608501D01*
X197840602Y-78754172D01*
X197840609Y-78754185D01*
X197928210Y-78885288D01*
X197928213Y-78885292D01*
X198039707Y-78996786D01*
X198039711Y-78996789D01*
X198170814Y-79084390D01*
X198170827Y-79084397D01*
X198316498Y-79144735D01*
X198316503Y-79144737D01*
X198471153Y-79175499D01*
X198471156Y-79175500D01*
X198471158Y-79175500D01*
X198628844Y-79175500D01*
X198628845Y-79175499D01*
X198783497Y-79144737D01*
X198929179Y-79084394D01*
X199060289Y-78996789D01*
X199171789Y-78885289D01*
X199172882Y-78883653D01*
X200364500Y-78883653D01*
X200364500Y-79041346D01*
X200395261Y-79195989D01*
X200395264Y-79196001D01*
X200455602Y-79341672D01*
X200455609Y-79341685D01*
X200543210Y-79472788D01*
X200543213Y-79472792D01*
X200654707Y-79584286D01*
X200654711Y-79584289D01*
X200785814Y-79671890D01*
X200785827Y-79671897D01*
X200931498Y-79732235D01*
X200931503Y-79732237D01*
X201014816Y-79748809D01*
X201086153Y-79762999D01*
X201086156Y-79763000D01*
X201086158Y-79763000D01*
X201243844Y-79763000D01*
X201243845Y-79762999D01*
X201398497Y-79732237D01*
X201511166Y-79685567D01*
X201544172Y-79671897D01*
X201544172Y-79671896D01*
X201544179Y-79671894D01*
X201675289Y-79584289D01*
X201786789Y-79472789D01*
X201874394Y-79341679D01*
X201934737Y-79195997D01*
X201965500Y-79041342D01*
X201965500Y-78883658D01*
X201965500Y-78883655D01*
X201965499Y-78883653D01*
X201934738Y-78729010D01*
X201934737Y-78729003D01*
X201920534Y-78694714D01*
X201874397Y-78583327D01*
X201874390Y-78583314D01*
X201786789Y-78452211D01*
X201786786Y-78452207D01*
X201675292Y-78340713D01*
X201675288Y-78340710D01*
X201543426Y-78252602D01*
X201498621Y-78198990D01*
X201489914Y-78129665D01*
X201520069Y-78066637D01*
X201579512Y-78029918D01*
X201612317Y-78025500D01*
X201728844Y-78025500D01*
X201728845Y-78025499D01*
X201883497Y-77994737D01*
X202029179Y-77934394D01*
X202160289Y-77846789D01*
X202271789Y-77735289D01*
X202359394Y-77604179D01*
X202419737Y-77458497D01*
X202450500Y-77303842D01*
X202450500Y-77146158D01*
X202448012Y-77133653D01*
X210314500Y-77133653D01*
X210314500Y-77291346D01*
X210345261Y-77445989D01*
X210345264Y-77446001D01*
X210405602Y-77591672D01*
X210405609Y-77591685D01*
X210493210Y-77722788D01*
X210493213Y-77722792D01*
X210604707Y-77834286D01*
X210604711Y-77834289D01*
X210735814Y-77921890D01*
X210735827Y-77921897D01*
X210871916Y-77978266D01*
X210881503Y-77982237D01*
X211036153Y-78012999D01*
X211036156Y-78013000D01*
X211036158Y-78013000D01*
X211193844Y-78013000D01*
X211193845Y-78012999D01*
X211348497Y-77982237D01*
X211481335Y-77927214D01*
X211494172Y-77921897D01*
X211494172Y-77921896D01*
X211494179Y-77921894D01*
X211625289Y-77834289D01*
X211736789Y-77722789D01*
X211824394Y-77591679D01*
X211884737Y-77445997D01*
X211915500Y-77291342D01*
X211915500Y-77178653D01*
X212864500Y-77178653D01*
X212864500Y-77336346D01*
X212895261Y-77490989D01*
X212895264Y-77491001D01*
X212955602Y-77636672D01*
X212955609Y-77636685D01*
X213043210Y-77767788D01*
X213043213Y-77767792D01*
X213154707Y-77879286D01*
X213154711Y-77879289D01*
X213285814Y-77966890D01*
X213285827Y-77966897D01*
X213427307Y-78025499D01*
X213431503Y-78027237D01*
X213586153Y-78057999D01*
X213586156Y-78058000D01*
X213586158Y-78058000D01*
X213743844Y-78058000D01*
X213743845Y-78057999D01*
X213898497Y-78027237D01*
X214044179Y-77966894D01*
X214175289Y-77879289D01*
X214286789Y-77767789D01*
X214374394Y-77636679D01*
X214434737Y-77490997D01*
X214465500Y-77336342D01*
X214465500Y-77178658D01*
X214465500Y-77178655D01*
X214465499Y-77178653D01*
X214455591Y-77128842D01*
X214434737Y-77024003D01*
X214434735Y-77023998D01*
X214374397Y-76878327D01*
X214374390Y-76878314D01*
X214286789Y-76747211D01*
X214286786Y-76747207D01*
X214175292Y-76635713D01*
X214175288Y-76635710D01*
X214044185Y-76548109D01*
X214044172Y-76548102D01*
X213898501Y-76487764D01*
X213898489Y-76487761D01*
X213743845Y-76457000D01*
X213743842Y-76457000D01*
X213586158Y-76457000D01*
X213586155Y-76457000D01*
X213431510Y-76487761D01*
X213431498Y-76487764D01*
X213285827Y-76548102D01*
X213285814Y-76548109D01*
X213154711Y-76635710D01*
X213154707Y-76635713D01*
X213043213Y-76747207D01*
X213043210Y-76747211D01*
X212955609Y-76878314D01*
X212955602Y-76878327D01*
X212895264Y-77023998D01*
X212895261Y-77024010D01*
X212864500Y-77178653D01*
X211915500Y-77178653D01*
X211915500Y-77133658D01*
X211915500Y-77133655D01*
X211915499Y-77133653D01*
X211906842Y-77090131D01*
X211884737Y-76979003D01*
X211881486Y-76971155D01*
X211824397Y-76833327D01*
X211824390Y-76833314D01*
X211736789Y-76702211D01*
X211736786Y-76702207D01*
X211625292Y-76590713D01*
X211625288Y-76590710D01*
X211494185Y-76503109D01*
X211494172Y-76503102D01*
X211348501Y-76442764D01*
X211348489Y-76442761D01*
X211193845Y-76412000D01*
X211193842Y-76412000D01*
X211036158Y-76412000D01*
X211036155Y-76412000D01*
X210881510Y-76442761D01*
X210881498Y-76442764D01*
X210735827Y-76503102D01*
X210735814Y-76503109D01*
X210604711Y-76590710D01*
X210604707Y-76590713D01*
X210493213Y-76702207D01*
X210493210Y-76702211D01*
X210405609Y-76833314D01*
X210405602Y-76833327D01*
X210345264Y-76978998D01*
X210345261Y-76979010D01*
X210314500Y-77133653D01*
X202448012Y-77133653D01*
X202447056Y-77128846D01*
X202429949Y-77042844D01*
X202419737Y-76991503D01*
X202397119Y-76936897D01*
X202359397Y-76845827D01*
X202359390Y-76845814D01*
X202271789Y-76714711D01*
X202271786Y-76714707D01*
X202160292Y-76603213D01*
X202160288Y-76603210D01*
X202029185Y-76515609D01*
X202029172Y-76515602D01*
X201883501Y-76455264D01*
X201883489Y-76455261D01*
X201728845Y-76424500D01*
X201728842Y-76424500D01*
X201571158Y-76424500D01*
X201571155Y-76424500D01*
X201416510Y-76455261D01*
X201416498Y-76455264D01*
X201270827Y-76515602D01*
X201270814Y-76515609D01*
X201139711Y-76603210D01*
X201139707Y-76603213D01*
X201028213Y-76714707D01*
X201028210Y-76714711D01*
X200940609Y-76845814D01*
X200940602Y-76845827D01*
X200880264Y-76991498D01*
X200880261Y-76991510D01*
X200849500Y-77146153D01*
X200849500Y-77303846D01*
X200880261Y-77458489D01*
X200880264Y-77458501D01*
X200940602Y-77604172D01*
X200940609Y-77604185D01*
X201028210Y-77735288D01*
X201028213Y-77735292D01*
X201139707Y-77846786D01*
X201139711Y-77846789D01*
X201271574Y-77934898D01*
X201316379Y-77988510D01*
X201325086Y-78057835D01*
X201294931Y-78120863D01*
X201235488Y-78157582D01*
X201202683Y-78162000D01*
X201086155Y-78162000D01*
X200931510Y-78192761D01*
X200931498Y-78192764D01*
X200785827Y-78253102D01*
X200785814Y-78253109D01*
X200654711Y-78340710D01*
X200654707Y-78340713D01*
X200543213Y-78452207D01*
X200543210Y-78452211D01*
X200455609Y-78583314D01*
X200455602Y-78583327D01*
X200395264Y-78728998D01*
X200395261Y-78729010D01*
X200364500Y-78883653D01*
X199172882Y-78883653D01*
X199259394Y-78754179D01*
X199319737Y-78608497D01*
X199350500Y-78453842D01*
X199350500Y-78296158D01*
X199350500Y-78296155D01*
X199350499Y-78296153D01*
X199341936Y-78253106D01*
X199319737Y-78141503D01*
X199316486Y-78133655D01*
X199259397Y-77995827D01*
X199259394Y-77995822D01*
X199259394Y-77995821D01*
X199258103Y-77993889D01*
X199257737Y-77992723D01*
X199256525Y-77990454D01*
X199256955Y-77990223D01*
X199237226Y-77927214D01*
X199255710Y-77859834D01*
X199258100Y-77856115D01*
X199259394Y-77854179D01*
X199319737Y-77708497D01*
X199350500Y-77553842D01*
X199350500Y-77396158D01*
X199350500Y-77396155D01*
X199350499Y-77396153D01*
X199344545Y-77366219D01*
X199319737Y-77241503D01*
X199259394Y-77095821D01*
X199257759Y-77092762D01*
X199257386Y-77090975D01*
X199257063Y-77090193D01*
X199257211Y-77090131D01*
X199243517Y-77024359D01*
X199252556Y-76986856D01*
X199254469Y-76982238D01*
X199314746Y-76836716D01*
X199345509Y-76682061D01*
X199345509Y-76524377D01*
X199345509Y-76524374D01*
X199345508Y-76524372D01*
X199343764Y-76515602D01*
X199314746Y-76369722D01*
X199303130Y-76341679D01*
X199254406Y-76224046D01*
X199254402Y-76224039D01*
X199250521Y-76218231D01*
X199245680Y-76210986D01*
X199224803Y-76144310D01*
X199243287Y-76076929D01*
X199245682Y-76073203D01*
X199246559Y-76071891D01*
X199258394Y-76054179D01*
X199318737Y-75908497D01*
X199349500Y-75753842D01*
X199349500Y-75596158D01*
X199349500Y-75596155D01*
X199349499Y-75596153D01*
X199341828Y-75557587D01*
X199318737Y-75441503D01*
X199312730Y-75427000D01*
X199258397Y-75295827D01*
X199258390Y-75295814D01*
X199256674Y-75293246D01*
X199256673Y-75293244D01*
X199256671Y-75293242D01*
X199214707Y-75230438D01*
X200166269Y-75230438D01*
X200166269Y-75388131D01*
X200197030Y-75542774D01*
X200197033Y-75542786D01*
X200257371Y-75688457D01*
X200257378Y-75688470D01*
X200344979Y-75819573D01*
X200344982Y-75819577D01*
X200456476Y-75931071D01*
X200456480Y-75931074D01*
X200587583Y-76018675D01*
X200587596Y-76018682D01*
X200728219Y-76076929D01*
X200733272Y-76079022D01*
X200887922Y-76109784D01*
X200887925Y-76109785D01*
X200887927Y-76109785D01*
X201045613Y-76109785D01*
X201045614Y-76109784D01*
X201200266Y-76079022D01*
X201260161Y-76054211D01*
X201329630Y-76046742D01*
X201376509Y-76065672D01*
X201385816Y-76071891D01*
X201385827Y-76071897D01*
X201531498Y-76132235D01*
X201531503Y-76132237D01*
X201686153Y-76162999D01*
X201686156Y-76163000D01*
X201686158Y-76163000D01*
X201843844Y-76163000D01*
X201843845Y-76162999D01*
X201998497Y-76132237D01*
X202144179Y-76071894D01*
X202275289Y-75984289D01*
X202386789Y-75872789D01*
X202474394Y-75741679D01*
X202534737Y-75595997D01*
X202565500Y-75441342D01*
X202565500Y-75283658D01*
X202565500Y-75283655D01*
X202565499Y-75283653D01*
X202541839Y-75164707D01*
X202534737Y-75129003D01*
X202529987Y-75117535D01*
X202485613Y-75010405D01*
X202474397Y-74983327D01*
X202474390Y-74983314D01*
X202464852Y-74969040D01*
X206793200Y-74969040D01*
X206793200Y-75115959D01*
X206821858Y-75260034D01*
X206821861Y-75260044D01*
X206878078Y-75395766D01*
X206878083Y-75395775D01*
X206959698Y-75517919D01*
X206959701Y-75517923D01*
X207063576Y-75621798D01*
X207063580Y-75621801D01*
X207185724Y-75703416D01*
X207185730Y-75703419D01*
X207185731Y-75703420D01*
X207321458Y-75759640D01*
X207457949Y-75786789D01*
X207465540Y-75788299D01*
X207465544Y-75788300D01*
X207465545Y-75788300D01*
X207612456Y-75788300D01*
X207620071Y-75786785D01*
X207626837Y-75785439D01*
X207696428Y-75791663D01*
X207751607Y-75834524D01*
X207772650Y-75882863D01*
X207775261Y-75895991D01*
X207775264Y-75896001D01*
X207835602Y-76041672D01*
X207835609Y-76041685D01*
X207923210Y-76172788D01*
X207923213Y-76172792D01*
X208034707Y-76284286D01*
X208034711Y-76284289D01*
X208165814Y-76371890D01*
X208165827Y-76371897D01*
X208262646Y-76412000D01*
X208311503Y-76432237D01*
X208466153Y-76462999D01*
X208466156Y-76463000D01*
X208466158Y-76463000D01*
X208623844Y-76463000D01*
X208623845Y-76462999D01*
X208778497Y-76432237D01*
X208914450Y-76375924D01*
X208924172Y-76371897D01*
X208924172Y-76371896D01*
X208924179Y-76371894D01*
X209055289Y-76284289D01*
X209166789Y-76172789D01*
X209254394Y-76041679D01*
X209314737Y-75895997D01*
X209318109Y-75879040D01*
X209350492Y-75817130D01*
X209411206Y-75782554D01*
X209463916Y-75781611D01*
X209497545Y-75788300D01*
X209497546Y-75788300D01*
X209644456Y-75788300D01*
X209644457Y-75788299D01*
X209788542Y-75759640D01*
X209924269Y-75703420D01*
X209953852Y-75683653D01*
X216264500Y-75683653D01*
X216264500Y-75841346D01*
X216295261Y-75995989D01*
X216295264Y-75996001D01*
X216355602Y-76141672D01*
X216355609Y-76141685D01*
X216443210Y-76272788D01*
X216443213Y-76272792D01*
X216554707Y-76384286D01*
X216554711Y-76384289D01*
X216685814Y-76471890D01*
X216685827Y-76471897D01*
X216827500Y-76530579D01*
X216831503Y-76532237D01*
X216986153Y-76562999D01*
X216986156Y-76563000D01*
X216986158Y-76563000D01*
X217143844Y-76563000D01*
X217143845Y-76562999D01*
X217298497Y-76532237D01*
X217444179Y-76471894D01*
X217575289Y-76384289D01*
X217686789Y-76272789D01*
X217774394Y-76141679D01*
X217777719Y-76133653D01*
X217813718Y-76046742D01*
X217834737Y-75995997D01*
X217865500Y-75841342D01*
X217865500Y-75683658D01*
X217865500Y-75683655D01*
X217865499Y-75683653D01*
X217851163Y-75611581D01*
X217834737Y-75529003D01*
X217802929Y-75452211D01*
X217774397Y-75383327D01*
X217774390Y-75383314D01*
X217686789Y-75252211D01*
X217686786Y-75252207D01*
X217575292Y-75140713D01*
X217575288Y-75140710D01*
X217444185Y-75053109D01*
X217444172Y-75053102D01*
X217298501Y-74992764D01*
X217298489Y-74992761D01*
X217143845Y-74962000D01*
X217143842Y-74962000D01*
X216986158Y-74962000D01*
X216986155Y-74962000D01*
X216831510Y-74992761D01*
X216831498Y-74992764D01*
X216685827Y-75053102D01*
X216685814Y-75053109D01*
X216554711Y-75140710D01*
X216554707Y-75140713D01*
X216443213Y-75252207D01*
X216443210Y-75252211D01*
X216355609Y-75383314D01*
X216355602Y-75383327D01*
X216295264Y-75528998D01*
X216295261Y-75529010D01*
X216264500Y-75683653D01*
X209953852Y-75683653D01*
X210046420Y-75621801D01*
X210056640Y-75611581D01*
X210078337Y-75589885D01*
X210150298Y-75517923D01*
X210150301Y-75517920D01*
X210231920Y-75395769D01*
X210288140Y-75260042D01*
X210316800Y-75115955D01*
X210316800Y-74969045D01*
X210288140Y-74824958D01*
X210240802Y-74710674D01*
X210231921Y-74689233D01*
X210231916Y-74689224D01*
X210150301Y-74567080D01*
X210150298Y-74567076D01*
X210046423Y-74463201D01*
X210046419Y-74463198D01*
X209924275Y-74381583D01*
X209924266Y-74381578D01*
X209810091Y-74334286D01*
X209788542Y-74325360D01*
X209788538Y-74325359D01*
X209788534Y-74325358D01*
X209644459Y-74296700D01*
X209644455Y-74296700D01*
X209497545Y-74296700D01*
X209497540Y-74296700D01*
X209353465Y-74325358D01*
X209353455Y-74325361D01*
X209217733Y-74381578D01*
X209217724Y-74381583D01*
X209095580Y-74463198D01*
X209095576Y-74463201D01*
X208991701Y-74567076D01*
X208991698Y-74567080D01*
X208910083Y-74689224D01*
X208910078Y-74689233D01*
X208861119Y-74807433D01*
X208817278Y-74861836D01*
X208750984Y-74883901D01*
X208722367Y-74881597D01*
X208623846Y-74862000D01*
X208623842Y-74862000D01*
X208466158Y-74862000D01*
X208466155Y-74862000D01*
X208386110Y-74877922D01*
X208316519Y-74871695D01*
X208261341Y-74828832D01*
X208247358Y-74803757D01*
X208245384Y-74798992D01*
X208221243Y-74740710D01*
X208199923Y-74689237D01*
X208199916Y-74689224D01*
X208118301Y-74567080D01*
X208118298Y-74567076D01*
X208014423Y-74463201D01*
X208014419Y-74463198D01*
X207892275Y-74381583D01*
X207892266Y-74381578D01*
X207778091Y-74334286D01*
X207756542Y-74325360D01*
X207756538Y-74325359D01*
X207756534Y-74325358D01*
X207612459Y-74296700D01*
X207612455Y-74296700D01*
X207465545Y-74296700D01*
X207465540Y-74296700D01*
X207321465Y-74325358D01*
X207321455Y-74325361D01*
X207185733Y-74381578D01*
X207185724Y-74381583D01*
X207063580Y-74463198D01*
X207063576Y-74463201D01*
X206959701Y-74567076D01*
X206959698Y-74567080D01*
X206878083Y-74689224D01*
X206878078Y-74689233D01*
X206821861Y-74824955D01*
X206821858Y-74824965D01*
X206793200Y-74969040D01*
X202464852Y-74969040D01*
X202386789Y-74852211D01*
X202386786Y-74852207D01*
X202275292Y-74740713D01*
X202275288Y-74740710D01*
X202161726Y-74664830D01*
X202116921Y-74611218D01*
X202108214Y-74541893D01*
X202138369Y-74478865D01*
X202183165Y-74447167D01*
X202244172Y-74421897D01*
X202244172Y-74421896D01*
X202244179Y-74421894D01*
X202375289Y-74334289D01*
X202486789Y-74222789D01*
X202574394Y-74091679D01*
X202634737Y-73945997D01*
X202665500Y-73791342D01*
X202665500Y-73633658D01*
X202665500Y-73633655D01*
X202665499Y-73633653D01*
X202663202Y-73622104D01*
X202634737Y-73479003D01*
X202629988Y-73467537D01*
X202574397Y-73333327D01*
X202574390Y-73333314D01*
X202486789Y-73202211D01*
X202486786Y-73202207D01*
X202375292Y-73090713D01*
X202375288Y-73090710D01*
X202244185Y-73003109D01*
X202244172Y-73003102D01*
X202098501Y-72942764D01*
X202098489Y-72942761D01*
X201943845Y-72912000D01*
X201943842Y-72912000D01*
X201786158Y-72912000D01*
X201786155Y-72912000D01*
X201631510Y-72942761D01*
X201631498Y-72942764D01*
X201485827Y-73003102D01*
X201485814Y-73003109D01*
X201354711Y-73090710D01*
X201354707Y-73090713D01*
X201243213Y-73202207D01*
X201243210Y-73202211D01*
X201155609Y-73333314D01*
X201155602Y-73333327D01*
X201095264Y-73478998D01*
X201095261Y-73479010D01*
X201064500Y-73633653D01*
X201064500Y-73791346D01*
X201095261Y-73945989D01*
X201095264Y-73946001D01*
X201155602Y-74091672D01*
X201155609Y-74091685D01*
X201243210Y-74222788D01*
X201243213Y-74222792D01*
X201354707Y-74334286D01*
X201368010Y-74343175D01*
X201412814Y-74396788D01*
X201421521Y-74466113D01*
X201391366Y-74529140D01*
X201331923Y-74565859D01*
X201262064Y-74564611D01*
X201251666Y-74560838D01*
X201200270Y-74539549D01*
X201200258Y-74539546D01*
X201045614Y-74508785D01*
X201045611Y-74508785D01*
X200887927Y-74508785D01*
X200887924Y-74508785D01*
X200733279Y-74539546D01*
X200733267Y-74539549D01*
X200587596Y-74599887D01*
X200587583Y-74599894D01*
X200456480Y-74687495D01*
X200456476Y-74687498D01*
X200344982Y-74798992D01*
X200344979Y-74798996D01*
X200257378Y-74930099D01*
X200257371Y-74930112D01*
X200197033Y-75075783D01*
X200197030Y-75075795D01*
X200166269Y-75230438D01*
X199214707Y-75230438D01*
X199170789Y-75164711D01*
X199170786Y-75164707D01*
X199059292Y-75053213D01*
X199059288Y-75053210D01*
X198928185Y-74965609D01*
X198928172Y-74965602D01*
X198782501Y-74905264D01*
X198782489Y-74905261D01*
X198627845Y-74874500D01*
X198627842Y-74874500D01*
X198470158Y-74874500D01*
X198470155Y-74874500D01*
X198315510Y-74905261D01*
X198315498Y-74905264D01*
X198169827Y-74965602D01*
X198169814Y-74965609D01*
X198038711Y-75053210D01*
X198038707Y-75053213D01*
X197927213Y-75164707D01*
X197927210Y-75164711D01*
X197839609Y-75295814D01*
X197839602Y-75295827D01*
X197779264Y-75441498D01*
X197779261Y-75441507D01*
X197763879Y-75518838D01*
X197731493Y-75580748D01*
X197670777Y-75615322D01*
X197601008Y-75611581D01*
X197573371Y-75597747D01*
X197454185Y-75518109D01*
X197454172Y-75518102D01*
X197308501Y-75457764D01*
X197308489Y-75457761D01*
X197153845Y-75427000D01*
X197153842Y-75427000D01*
X196996158Y-75427000D01*
X196996155Y-75427000D01*
X196841510Y-75457761D01*
X196841498Y-75457764D01*
X196695827Y-75518102D01*
X196695814Y-75518109D01*
X196564711Y-75605710D01*
X196564707Y-75605713D01*
X196453213Y-75717207D01*
X196453210Y-75717211D01*
X196365609Y-75848314D01*
X196365602Y-75848327D01*
X196305264Y-75993998D01*
X196305261Y-75994010D01*
X196274500Y-76148653D01*
X192849160Y-76148653D01*
X192832238Y-76063586D01*
X192832237Y-76063585D01*
X192832237Y-76063581D01*
X192825262Y-76046742D01*
X192771897Y-75917905D01*
X192771890Y-75917892D01*
X192684289Y-75786789D01*
X192684286Y-75786785D01*
X192572792Y-75675291D01*
X192572788Y-75675288D01*
X192441685Y-75587687D01*
X192441672Y-75587680D01*
X192296001Y-75527342D01*
X192295989Y-75527339D01*
X192141345Y-75496578D01*
X192141342Y-75496578D01*
X191983658Y-75496578D01*
X191983655Y-75496578D01*
X191829010Y-75527339D01*
X191828998Y-75527342D01*
X191683327Y-75587680D01*
X191683314Y-75587687D01*
X191552211Y-75675288D01*
X191552207Y-75675291D01*
X191440713Y-75786785D01*
X191440710Y-75786789D01*
X191353109Y-75917892D01*
X191353102Y-75917905D01*
X191292764Y-76063576D01*
X191292761Y-76063588D01*
X191262000Y-76218231D01*
X190580500Y-76218231D01*
X190580500Y-76133658D01*
X190580500Y-76133655D01*
X190580499Y-76133653D01*
X190568213Y-76071890D01*
X190549737Y-75979003D01*
X190549735Y-75978998D01*
X190489397Y-75833327D01*
X190489390Y-75833314D01*
X190411946Y-75717412D01*
X190391068Y-75650735D01*
X190409552Y-75583355D01*
X190413458Y-75577889D01*
X190413405Y-75577854D01*
X190504390Y-75441685D01*
X190504390Y-75441684D01*
X190504394Y-75441679D01*
X190564737Y-75295997D01*
X190595500Y-75141342D01*
X190595500Y-74983658D01*
X190595500Y-74983655D01*
X190595499Y-74983653D01*
X190584846Y-74930099D01*
X190564737Y-74829003D01*
X190564666Y-74828832D01*
X190504397Y-74683327D01*
X190504390Y-74683314D01*
X190448205Y-74599227D01*
X190448201Y-74599223D01*
X190416789Y-74552211D01*
X190392977Y-74528399D01*
X192114500Y-74528399D01*
X192114500Y-74686092D01*
X192145261Y-74840735D01*
X192145264Y-74840747D01*
X192205602Y-74986418D01*
X192205609Y-74986431D01*
X192293210Y-75117534D01*
X192293213Y-75117538D01*
X192404707Y-75229032D01*
X192404711Y-75229035D01*
X192535814Y-75316636D01*
X192535827Y-75316643D01*
X192681498Y-75376981D01*
X192681503Y-75376983D01*
X192836153Y-75407745D01*
X192836156Y-75407746D01*
X192836158Y-75407746D01*
X192993844Y-75407746D01*
X192993845Y-75407745D01*
X193148497Y-75376983D01*
X193294179Y-75316640D01*
X193425289Y-75229035D01*
X193536789Y-75117535D01*
X193624394Y-74986425D01*
X193684737Y-74840743D01*
X193715500Y-74686088D01*
X193715500Y-74528404D01*
X193715500Y-74528401D01*
X193715499Y-74528399D01*
X193712436Y-74513000D01*
X193684737Y-74373749D01*
X193665731Y-74327863D01*
X193624397Y-74228073D01*
X193624390Y-74228060D01*
X193536789Y-74096957D01*
X193536786Y-74096953D01*
X193425292Y-73985459D01*
X193425288Y-73985456D01*
X193294185Y-73897855D01*
X193294172Y-73897848D01*
X193148501Y-73837510D01*
X193148489Y-73837507D01*
X192993845Y-73806746D01*
X192993842Y-73806746D01*
X192836158Y-73806746D01*
X192836155Y-73806746D01*
X192681510Y-73837507D01*
X192681498Y-73837510D01*
X192535827Y-73897848D01*
X192535814Y-73897855D01*
X192404711Y-73985456D01*
X192404707Y-73985459D01*
X192293213Y-74096953D01*
X192293210Y-74096957D01*
X192205609Y-74228060D01*
X192205602Y-74228073D01*
X192145264Y-74373744D01*
X192145261Y-74373756D01*
X192114500Y-74528399D01*
X190392977Y-74528399D01*
X190305289Y-74440711D01*
X190297183Y-74435294D01*
X190287165Y-74424420D01*
X190277961Y-74405789D01*
X190264642Y-74389835D01*
X190260689Y-74370823D01*
X190256220Y-74361777D01*
X190257130Y-74353709D01*
X190254364Y-74340404D01*
X190254364Y-74260032D01*
X190254363Y-74260030D01*
X190237068Y-74173082D01*
X190223601Y-74105380D01*
X190220112Y-74096957D01*
X190163261Y-73959704D01*
X190163254Y-73959691D01*
X190075653Y-73828588D01*
X190075650Y-73828584D01*
X190044922Y-73797856D01*
X190011437Y-73736533D01*
X190016421Y-73666841D01*
X190029501Y-73641284D01*
X190071097Y-73579031D01*
X190097693Y-73539228D01*
X190158036Y-73393546D01*
X190188799Y-73238891D01*
X190188799Y-73218381D01*
X190190930Y-73211121D01*
X190189676Y-73203661D01*
X190196576Y-73187547D01*
X195204419Y-73187547D01*
X195204419Y-73345240D01*
X195235180Y-73499883D01*
X195235183Y-73499895D01*
X195295521Y-73645566D01*
X195295528Y-73645579D01*
X195383129Y-73776682D01*
X195383132Y-73776686D01*
X195494626Y-73888180D01*
X195494630Y-73888183D01*
X195625733Y-73975784D01*
X195625746Y-73975791D01*
X195771417Y-74036129D01*
X195771422Y-74036131D01*
X195926072Y-74066893D01*
X195926075Y-74066894D01*
X195926077Y-74066894D01*
X196083763Y-74066894D01*
X196083764Y-74066893D01*
X196238416Y-74036131D01*
X196384098Y-73975788D01*
X196515208Y-73888183D01*
X196562163Y-73841228D01*
X196609328Y-73794064D01*
X196670651Y-73760579D01*
X196697009Y-73757745D01*
X196860644Y-73757745D01*
X196860645Y-73757744D01*
X197015297Y-73726982D01*
X197152051Y-73670337D01*
X197160972Y-73666642D01*
X197160972Y-73666641D01*
X197160979Y-73666639D01*
X197292089Y-73579034D01*
X197403589Y-73467534D01*
X197491194Y-73336424D01*
X197551537Y-73190742D01*
X197582300Y-73036087D01*
X197582300Y-72878403D01*
X197582300Y-72878400D01*
X197582299Y-72878398D01*
X197574994Y-72841672D01*
X197551537Y-72723748D01*
X197540872Y-72698000D01*
X197491195Y-72578068D01*
X197491190Y-72578059D01*
X197403589Y-72446956D01*
X197403586Y-72446952D01*
X197292092Y-72335458D01*
X197292088Y-72335455D01*
X197160985Y-72247854D01*
X197160972Y-72247847D01*
X197015301Y-72187509D01*
X197015289Y-72187506D01*
X196860645Y-72156745D01*
X196860642Y-72156745D01*
X196702958Y-72156745D01*
X196702955Y-72156745D01*
X196548310Y-72187506D01*
X196548298Y-72187509D01*
X196402627Y-72247847D01*
X196402614Y-72247854D01*
X196271511Y-72335455D01*
X196271507Y-72335458D01*
X196177391Y-72429575D01*
X196116068Y-72463060D01*
X196089710Y-72465894D01*
X195926074Y-72465894D01*
X195771429Y-72496655D01*
X195771417Y-72496658D01*
X195625746Y-72556996D01*
X195625733Y-72557003D01*
X195494630Y-72644604D01*
X195494626Y-72644607D01*
X195383132Y-72756101D01*
X195383129Y-72756105D01*
X195295528Y-72887208D01*
X195295521Y-72887221D01*
X195235183Y-73032892D01*
X195235180Y-73032904D01*
X195204419Y-73187547D01*
X190196576Y-73187547D01*
X190200638Y-73178061D01*
X190208484Y-73151342D01*
X190214888Y-73144782D01*
X190217180Y-73139432D01*
X190242110Y-73116904D01*
X190243295Y-73115691D01*
X190243505Y-73115548D01*
X190290289Y-73084289D01*
X190401789Y-72972789D01*
X190489394Y-72841679D01*
X190549737Y-72695997D01*
X190580500Y-72541342D01*
X190580500Y-72383658D01*
X190580500Y-72383655D01*
X190580499Y-72383653D01*
X190558447Y-72272792D01*
X190549737Y-72229003D01*
X190538029Y-72200736D01*
X190489397Y-72083327D01*
X190489390Y-72083314D01*
X190401789Y-71952211D01*
X190401786Y-71952207D01*
X190290292Y-71840713D01*
X190290288Y-71840710D01*
X190159185Y-71753109D01*
X190159172Y-71753102D01*
X190013501Y-71692764D01*
X190013489Y-71692761D01*
X189858845Y-71662000D01*
X189858842Y-71662000D01*
X189701158Y-71662000D01*
X189701155Y-71662000D01*
X189546510Y-71692761D01*
X189546498Y-71692764D01*
X189400827Y-71753102D01*
X189400814Y-71753109D01*
X189269711Y-71840710D01*
X189269707Y-71840713D01*
X189158213Y-71952207D01*
X189158210Y-71952211D01*
X189070609Y-72083314D01*
X189070602Y-72083327D01*
X189010264Y-72228998D01*
X189010261Y-72229010D01*
X188979500Y-72383653D01*
X188979500Y-72404166D01*
X188959815Y-72471205D01*
X188924392Y-72507267D01*
X188878012Y-72538257D01*
X188878006Y-72538262D01*
X188766512Y-72649756D01*
X188766509Y-72649760D01*
X188678908Y-72780863D01*
X188678901Y-72780876D01*
X188618563Y-72926547D01*
X188618560Y-72926559D01*
X188587799Y-73081202D01*
X176567464Y-73081202D01*
X176533771Y-73074500D01*
X176533767Y-73074500D01*
X176366233Y-73074500D01*
X176366228Y-73074500D01*
X176201925Y-73107182D01*
X176201917Y-73107184D01*
X176047140Y-73171295D01*
X175943390Y-73240618D01*
X175876712Y-73261495D01*
X175809332Y-73243010D01*
X175762643Y-73191031D01*
X175750500Y-73137515D01*
X175750500Y-70791043D01*
X176999499Y-70791043D01*
X177037947Y-70984329D01*
X177037950Y-70984339D01*
X177113364Y-71166407D01*
X177113371Y-71166420D01*
X177222860Y-71330281D01*
X177222863Y-71330285D01*
X177362214Y-71469636D01*
X177362218Y-71469639D01*
X177526079Y-71579128D01*
X177526092Y-71579135D01*
X177692323Y-71647989D01*
X177708165Y-71654551D01*
X177708169Y-71654551D01*
X177708170Y-71654552D01*
X177901456Y-71693000D01*
X177901459Y-71693000D01*
X178898543Y-71693000D01*
X179028582Y-71667132D01*
X179091835Y-71654551D01*
X179273914Y-71579132D01*
X179437782Y-71469639D01*
X179577139Y-71330282D01*
X179686632Y-71166414D01*
X179762051Y-70984335D01*
X179778973Y-70899262D01*
X179800500Y-70791043D01*
X181029499Y-70791043D01*
X181067947Y-70984329D01*
X181067950Y-70984339D01*
X181143364Y-71166407D01*
X181143371Y-71166420D01*
X181252860Y-71330281D01*
X181252863Y-71330285D01*
X181392214Y-71469636D01*
X181392218Y-71469639D01*
X181556079Y-71579128D01*
X181556083Y-71579130D01*
X181556086Y-71579132D01*
X181565523Y-71583041D01*
X181619927Y-71626878D01*
X181641995Y-71693172D01*
X181624719Y-71760872D01*
X181621565Y-71765532D01*
X181543719Y-71900363D01*
X181504500Y-72046734D01*
X181504500Y-72198265D01*
X181543719Y-72344636D01*
X181566613Y-72384289D01*
X181619485Y-72475865D01*
X181726635Y-72583015D01*
X181857865Y-72658781D01*
X182004234Y-72698000D01*
X182004236Y-72698000D01*
X182155764Y-72698000D01*
X182155766Y-72698000D01*
X182302135Y-72658781D01*
X182433365Y-72583015D01*
X182540515Y-72475865D01*
X182616281Y-72344635D01*
X182655500Y-72198266D01*
X182655500Y-72046734D01*
X182616281Y-71900365D01*
X182611072Y-71891342D01*
X182603947Y-71879001D01*
X182587473Y-71811102D01*
X182610325Y-71745074D01*
X182665245Y-71701883D01*
X182711333Y-71693000D01*
X183190500Y-71693000D01*
X183257539Y-71712685D01*
X183303294Y-71765489D01*
X183314500Y-71817000D01*
X183314500Y-71891346D01*
X183345261Y-72045989D01*
X183345264Y-72046001D01*
X183405602Y-72191672D01*
X183405609Y-72191685D01*
X183493210Y-72322788D01*
X183493213Y-72322792D01*
X183604707Y-72434286D01*
X183604711Y-72434289D01*
X183735814Y-72521890D01*
X183735827Y-72521897D01*
X183835060Y-72563000D01*
X183881503Y-72582237D01*
X184036153Y-72612999D01*
X184036156Y-72613000D01*
X184036158Y-72613000D01*
X184193844Y-72613000D01*
X184193845Y-72612999D01*
X184348497Y-72582237D01*
X184494179Y-72521894D01*
X184625289Y-72434289D01*
X184736789Y-72322789D01*
X184824394Y-72191679D01*
X184884737Y-72045997D01*
X184915500Y-71891342D01*
X184915500Y-71733658D01*
X184915500Y-71733655D01*
X184909155Y-71701758D01*
X184909155Y-71701757D01*
X184905554Y-71683653D01*
X186864500Y-71683653D01*
X186864500Y-71841346D01*
X186895261Y-71995989D01*
X186895264Y-71996001D01*
X186955602Y-72141672D01*
X186955609Y-72141685D01*
X187043210Y-72272788D01*
X187043213Y-72272792D01*
X187154707Y-72384286D01*
X187154711Y-72384289D01*
X187285814Y-72471890D01*
X187285827Y-72471897D01*
X187431498Y-72532235D01*
X187431503Y-72532237D01*
X187586153Y-72562999D01*
X187586156Y-72563000D01*
X187586158Y-72563000D01*
X187743844Y-72563000D01*
X187743845Y-72562999D01*
X187898497Y-72532237D01*
X188034592Y-72475865D01*
X188044172Y-72471897D01*
X188044172Y-72471896D01*
X188044179Y-72471894D01*
X188175289Y-72384289D01*
X188286789Y-72272789D01*
X188374394Y-72141679D01*
X188434737Y-71995997D01*
X188465500Y-71841342D01*
X188465500Y-71683658D01*
X188465500Y-71683655D01*
X188465499Y-71683653D01*
X188454206Y-71626878D01*
X188434737Y-71529003D01*
X188432163Y-71522788D01*
X188374397Y-71383327D01*
X188374390Y-71383314D01*
X188286789Y-71252211D01*
X188286786Y-71252207D01*
X188175292Y-71140713D01*
X188175288Y-71140710D01*
X188044185Y-71053109D01*
X188044172Y-71053102D01*
X187898501Y-70992764D01*
X187898489Y-70992761D01*
X187743845Y-70962000D01*
X187743842Y-70962000D01*
X187586158Y-70962000D01*
X187586155Y-70962000D01*
X187431510Y-70992761D01*
X187431498Y-70992764D01*
X187285827Y-71053102D01*
X187285814Y-71053109D01*
X187154711Y-71140710D01*
X187154707Y-71140713D01*
X187043213Y-71252207D01*
X187043210Y-71252211D01*
X186955609Y-71383314D01*
X186955602Y-71383327D01*
X186895264Y-71528998D01*
X186895261Y-71529010D01*
X186864500Y-71683653D01*
X184905554Y-71683653D01*
X184884763Y-71579135D01*
X184884737Y-71579003D01*
X184873502Y-71551879D01*
X184824397Y-71433327D01*
X184824390Y-71433314D01*
X184736789Y-71302211D01*
X184736786Y-71302207D01*
X184625292Y-71190713D01*
X184625288Y-71190710D01*
X184494185Y-71103109D01*
X184494172Y-71103102D01*
X184348501Y-71042764D01*
X184348491Y-71042761D01*
X184212248Y-71015660D01*
X184150337Y-70983275D01*
X184115763Y-70922559D01*
X184114823Y-70869853D01*
X184130500Y-70791041D01*
X184130500Y-70593959D01*
X184130500Y-70593956D01*
X184092052Y-70400670D01*
X184092051Y-70400669D01*
X184092051Y-70400665D01*
X184060917Y-70325500D01*
X184016635Y-70218592D01*
X184016628Y-70218579D01*
X183907139Y-70054718D01*
X183907136Y-70054714D01*
X183767786Y-69915364D01*
X183767781Y-69915360D01*
X183638015Y-69828653D01*
X184714500Y-69828653D01*
X184714500Y-69986346D01*
X184745261Y-70140989D01*
X184745264Y-70141001D01*
X184805602Y-70286672D01*
X184805609Y-70286685D01*
X184893210Y-70417788D01*
X184893213Y-70417792D01*
X185004707Y-70529286D01*
X185004711Y-70529289D01*
X185135814Y-70616890D01*
X185135827Y-70616897D01*
X185281498Y-70677235D01*
X185281503Y-70677237D01*
X185436153Y-70707999D01*
X185436156Y-70708000D01*
X185436158Y-70708000D01*
X185593844Y-70708000D01*
X185593845Y-70707999D01*
X185748497Y-70677237D01*
X185878424Y-70623420D01*
X185894172Y-70616897D01*
X185894172Y-70616896D01*
X185894179Y-70616894D01*
X186025289Y-70529289D01*
X186136789Y-70417789D01*
X186224394Y-70286679D01*
X186225647Y-70283655D01*
X186264627Y-70189548D01*
X186308467Y-70135144D01*
X186374762Y-70113079D01*
X186379188Y-70113000D01*
X186443844Y-70113000D01*
X186443845Y-70112999D01*
X186598497Y-70082237D01*
X186744179Y-70021894D01*
X186875289Y-69934289D01*
X186986789Y-69822789D01*
X187074394Y-69691679D01*
X187134737Y-69545997D01*
X187165500Y-69391342D01*
X187165500Y-69233658D01*
X187165500Y-69233655D01*
X187165499Y-69233653D01*
X187148028Y-69145821D01*
X187134737Y-69079003D01*
X187117886Y-69038321D01*
X187074397Y-68933327D01*
X187074390Y-68933314D01*
X186986789Y-68802211D01*
X186986786Y-68802207D01*
X186875292Y-68690713D01*
X186875288Y-68690710D01*
X186744185Y-68603109D01*
X186744172Y-68603102D01*
X186598501Y-68542764D01*
X186598489Y-68542761D01*
X186443845Y-68512000D01*
X186443842Y-68512000D01*
X186286158Y-68512000D01*
X186286155Y-68512000D01*
X186131510Y-68542761D01*
X186131498Y-68542764D01*
X185985827Y-68603102D01*
X185985814Y-68603109D01*
X185854711Y-68690710D01*
X185854707Y-68690713D01*
X185743213Y-68802207D01*
X185743210Y-68802211D01*
X185655609Y-68933314D01*
X185655602Y-68933327D01*
X185615373Y-69030452D01*
X185571533Y-69084856D01*
X185505238Y-69106921D01*
X185500812Y-69107000D01*
X185436155Y-69107000D01*
X185281510Y-69137761D01*
X185281498Y-69137764D01*
X185135827Y-69198102D01*
X185135814Y-69198109D01*
X185004711Y-69285710D01*
X185004707Y-69285713D01*
X184893213Y-69397207D01*
X184893210Y-69397211D01*
X184805609Y-69528314D01*
X184805602Y-69528327D01*
X184745264Y-69673998D01*
X184745261Y-69674010D01*
X184714500Y-69828653D01*
X183638015Y-69828653D01*
X183603920Y-69805871D01*
X183603907Y-69805864D01*
X183421839Y-69730450D01*
X183421829Y-69730447D01*
X183228543Y-69692000D01*
X183228541Y-69692000D01*
X181931459Y-69692000D01*
X181931457Y-69692000D01*
X181738170Y-69730447D01*
X181738160Y-69730450D01*
X181556092Y-69805864D01*
X181556079Y-69805871D01*
X181392218Y-69915360D01*
X181392214Y-69915363D01*
X181252863Y-70054714D01*
X181252860Y-70054718D01*
X181143371Y-70218579D01*
X181143364Y-70218592D01*
X181067950Y-70400660D01*
X181067947Y-70400670D01*
X181029500Y-70593956D01*
X181029500Y-70593959D01*
X181029500Y-70791041D01*
X181029500Y-70791043D01*
X181029499Y-70791043D01*
X179800500Y-70791043D01*
X179800500Y-70593956D01*
X179762052Y-70400670D01*
X179762051Y-70400669D01*
X179762051Y-70400665D01*
X179689837Y-70226325D01*
X179682369Y-70156857D01*
X179713644Y-70094378D01*
X179756945Y-70064314D01*
X179829179Y-70034394D01*
X179960289Y-69946789D01*
X180071789Y-69835289D01*
X180159394Y-69704179D01*
X180219737Y-69558497D01*
X180250500Y-69403842D01*
X180250500Y-69246158D01*
X180250500Y-69246155D01*
X180250499Y-69246153D01*
X180230543Y-69145827D01*
X180219737Y-69091503D01*
X180214557Y-69078998D01*
X180159397Y-68945827D01*
X180159390Y-68945814D01*
X180071789Y-68814711D01*
X180071786Y-68814707D01*
X179960292Y-68703213D01*
X179960288Y-68703210D01*
X179829185Y-68615609D01*
X179829172Y-68615602D01*
X179683501Y-68555264D01*
X179683489Y-68555261D01*
X179528845Y-68524500D01*
X179528842Y-68524500D01*
X179371158Y-68524500D01*
X179371155Y-68524500D01*
X179216510Y-68555261D01*
X179216498Y-68555264D01*
X179070827Y-68615602D01*
X179070814Y-68615609D01*
X178939711Y-68703210D01*
X178939707Y-68703213D01*
X178828213Y-68814707D01*
X178828210Y-68814711D01*
X178740609Y-68945814D01*
X178740602Y-68945827D01*
X178680264Y-69091498D01*
X178680261Y-69091510D01*
X178649500Y-69246153D01*
X178649500Y-69246158D01*
X178649500Y-69403842D01*
X178649500Y-69403844D01*
X178649499Y-69403844D01*
X178677341Y-69543808D01*
X178671114Y-69613400D01*
X178628251Y-69668577D01*
X178562361Y-69691822D01*
X178555724Y-69692000D01*
X177901457Y-69692000D01*
X177708170Y-69730447D01*
X177708160Y-69730450D01*
X177526092Y-69805864D01*
X177526079Y-69805871D01*
X177362218Y-69915360D01*
X177362214Y-69915363D01*
X177222863Y-70054714D01*
X177222860Y-70054718D01*
X177113371Y-70218579D01*
X177113364Y-70218592D01*
X177037950Y-70400660D01*
X177037947Y-70400670D01*
X176999500Y-70593956D01*
X176999500Y-70593959D01*
X176999500Y-70791041D01*
X176999500Y-70791043D01*
X176999499Y-70791043D01*
X175750500Y-70791043D01*
X175750500Y-69662484D01*
X175770185Y-69595445D01*
X175822989Y-69549690D01*
X175892147Y-69539746D01*
X175943391Y-69559382D01*
X176047137Y-69628703D01*
X176201918Y-69692816D01*
X176300425Y-69712410D01*
X176366228Y-69725499D01*
X176366232Y-69725500D01*
X176366233Y-69725500D01*
X176533768Y-69725500D01*
X176533769Y-69725499D01*
X176698082Y-69692816D01*
X176852863Y-69628703D01*
X176992162Y-69535626D01*
X177110626Y-69417162D01*
X177203703Y-69277863D01*
X177267816Y-69123082D01*
X177300500Y-68958767D01*
X177300500Y-68791233D01*
X177267816Y-68626918D01*
X177203703Y-68472137D01*
X177172729Y-68425781D01*
X177167791Y-68418390D01*
X177146913Y-68351713D01*
X177165398Y-68284333D01*
X177217377Y-68237643D01*
X177270893Y-68225500D01*
X193600746Y-68225500D01*
X193667785Y-68245185D01*
G37*
%TD.AperFunction*%
%TD*%
M02*
