%TF.GenerationSoftware,KiCad,Pcbnew,9.0.3*%
%TF.CreationDate,2025-09-06T00:14:14-07:00*%
%TF.ProjectId,business_card,62757369-6e65-4737-935f-636172642e6b,1.0*%
%TF.SameCoordinates,Original*%
%TF.FileFunction,Legend,Bot*%
%TF.FilePolarity,Positive*%
%FSLAX46Y46*%
G04 Gerber Fmt 4.6, Leading zero omitted, Abs format (unit mm)*
G04 Created by KiCad (PCBNEW 9.0.3) date 2025-09-06 00:14:14*
%MOMM*%
%LPD*%
G01*
G04 APERTURE LIST*
%ADD10C,0.300000*%
%ADD11C,0.250000*%
%ADD12C,0.125000*%
%ADD13C,0.150000*%
%ADD14C,0.000000*%
G04 APERTURE END LIST*
D10*
X259495489Y-118225828D02*
X259495489Y-116725828D01*
X259352632Y-117654400D02*
X258924060Y-118225828D01*
X258924060Y-117225828D02*
X259495489Y-117797257D01*
X258281203Y-117225828D02*
X258281203Y-118725828D01*
X258281203Y-117297257D02*
X258138346Y-117225828D01*
X258138346Y-117225828D02*
X257852631Y-117225828D01*
X257852631Y-117225828D02*
X257709774Y-117297257D01*
X257709774Y-117297257D02*
X257638346Y-117368685D01*
X257638346Y-117368685D02*
X257566917Y-117511542D01*
X257566917Y-117511542D02*
X257566917Y-117940114D01*
X257566917Y-117940114D02*
X257638346Y-118082971D01*
X257638346Y-118082971D02*
X257709774Y-118154400D01*
X257709774Y-118154400D02*
X257852631Y-118225828D01*
X257852631Y-118225828D02*
X258138346Y-118225828D01*
X258138346Y-118225828D02*
X258281203Y-118154400D01*
X256281203Y-118225828D02*
X256281203Y-117440114D01*
X256281203Y-117440114D02*
X256352631Y-117297257D01*
X256352631Y-117297257D02*
X256495488Y-117225828D01*
X256495488Y-117225828D02*
X256781203Y-117225828D01*
X256781203Y-117225828D02*
X256924060Y-117297257D01*
X256281203Y-118154400D02*
X256424060Y-118225828D01*
X256424060Y-118225828D02*
X256781203Y-118225828D01*
X256781203Y-118225828D02*
X256924060Y-118154400D01*
X256924060Y-118154400D02*
X256995488Y-118011542D01*
X256995488Y-118011542D02*
X256995488Y-117868685D01*
X256995488Y-117868685D02*
X256924060Y-117725828D01*
X256924060Y-117725828D02*
X256781203Y-117654400D01*
X256781203Y-117654400D02*
X256424060Y-117654400D01*
X256424060Y-117654400D02*
X256281203Y-117582971D01*
X255709774Y-117225828D02*
X254924060Y-117225828D01*
X254924060Y-117225828D02*
X255709774Y-118225828D01*
X255709774Y-118225828D02*
X254924060Y-118225828D01*
X253709774Y-118225828D02*
X253709774Y-117440114D01*
X253709774Y-117440114D02*
X253781202Y-117297257D01*
X253781202Y-117297257D02*
X253924059Y-117225828D01*
X253924059Y-117225828D02*
X254209774Y-117225828D01*
X254209774Y-117225828D02*
X254352631Y-117297257D01*
X253709774Y-118154400D02*
X253852631Y-118225828D01*
X253852631Y-118225828D02*
X254209774Y-118225828D01*
X254209774Y-118225828D02*
X254352631Y-118154400D01*
X254352631Y-118154400D02*
X254424059Y-118011542D01*
X254424059Y-118011542D02*
X254424059Y-117868685D01*
X254424059Y-117868685D02*
X254352631Y-117725828D01*
X254352631Y-117725828D02*
X254209774Y-117654400D01*
X254209774Y-117654400D02*
X253852631Y-117654400D01*
X253852631Y-117654400D02*
X253709774Y-117582971D01*
X253138345Y-117225828D02*
X252852631Y-118225828D01*
X252852631Y-118225828D02*
X252566916Y-117511542D01*
X252566916Y-117511542D02*
X252281202Y-118225828D01*
X252281202Y-118225828D02*
X251995488Y-117225828D01*
X250781202Y-118225828D02*
X250781202Y-117440114D01*
X250781202Y-117440114D02*
X250852630Y-117297257D01*
X250852630Y-117297257D02*
X250995487Y-117225828D01*
X250995487Y-117225828D02*
X251281202Y-117225828D01*
X251281202Y-117225828D02*
X251424059Y-117297257D01*
X250781202Y-118154400D02*
X250924059Y-118225828D01*
X250924059Y-118225828D02*
X251281202Y-118225828D01*
X251281202Y-118225828D02*
X251424059Y-118154400D01*
X251424059Y-118154400D02*
X251495487Y-118011542D01*
X251495487Y-118011542D02*
X251495487Y-117868685D01*
X251495487Y-117868685D02*
X251424059Y-117725828D01*
X251424059Y-117725828D02*
X251281202Y-117654400D01*
X251281202Y-117654400D02*
X250924059Y-117654400D01*
X250924059Y-117654400D02*
X250781202Y-117582971D01*
X249852630Y-118225828D02*
X249995487Y-118154400D01*
X249995487Y-118154400D02*
X250066916Y-118011542D01*
X250066916Y-118011542D02*
X250066916Y-116725828D01*
X248638345Y-118225828D02*
X248638345Y-117440114D01*
X248638345Y-117440114D02*
X248709773Y-117297257D01*
X248709773Y-117297257D02*
X248852630Y-117225828D01*
X248852630Y-117225828D02*
X249138345Y-117225828D01*
X249138345Y-117225828D02*
X249281202Y-117297257D01*
X248638345Y-118154400D02*
X248781202Y-118225828D01*
X248781202Y-118225828D02*
X249138345Y-118225828D01*
X249138345Y-118225828D02*
X249281202Y-118154400D01*
X249281202Y-118154400D02*
X249352630Y-118011542D01*
X249352630Y-118011542D02*
X249352630Y-117868685D01*
X249352630Y-117868685D02*
X249281202Y-117725828D01*
X249281202Y-117725828D02*
X249138345Y-117654400D01*
X249138345Y-117654400D02*
X248781202Y-117654400D01*
X248781202Y-117654400D02*
X248638345Y-117582971D01*
X246852630Y-116654400D02*
X248138344Y-118582971D01*
X246352630Y-118225828D02*
X246352630Y-116725828D01*
X246352630Y-117297257D02*
X246209773Y-117225828D01*
X246209773Y-117225828D02*
X245924058Y-117225828D01*
X245924058Y-117225828D02*
X245781201Y-117297257D01*
X245781201Y-117297257D02*
X245709773Y-117368685D01*
X245709773Y-117368685D02*
X245638344Y-117511542D01*
X245638344Y-117511542D02*
X245638344Y-117940114D01*
X245638344Y-117940114D02*
X245709773Y-118082971D01*
X245709773Y-118082971D02*
X245781201Y-118154400D01*
X245781201Y-118154400D02*
X245924058Y-118225828D01*
X245924058Y-118225828D02*
X246209773Y-118225828D01*
X246209773Y-118225828D02*
X246352630Y-118154400D01*
X244352630Y-117225828D02*
X244352630Y-118225828D01*
X244995487Y-117225828D02*
X244995487Y-118011542D01*
X244995487Y-118011542D02*
X244924058Y-118154400D01*
X244924058Y-118154400D02*
X244781201Y-118225828D01*
X244781201Y-118225828D02*
X244566915Y-118225828D01*
X244566915Y-118225828D02*
X244424058Y-118154400D01*
X244424058Y-118154400D02*
X244352630Y-118082971D01*
X243709772Y-118154400D02*
X243566915Y-118225828D01*
X243566915Y-118225828D02*
X243281201Y-118225828D01*
X243281201Y-118225828D02*
X243138344Y-118154400D01*
X243138344Y-118154400D02*
X243066915Y-118011542D01*
X243066915Y-118011542D02*
X243066915Y-117940114D01*
X243066915Y-117940114D02*
X243138344Y-117797257D01*
X243138344Y-117797257D02*
X243281201Y-117725828D01*
X243281201Y-117725828D02*
X243495487Y-117725828D01*
X243495487Y-117725828D02*
X243638344Y-117654400D01*
X243638344Y-117654400D02*
X243709772Y-117511542D01*
X243709772Y-117511542D02*
X243709772Y-117440114D01*
X243709772Y-117440114D02*
X243638344Y-117297257D01*
X243638344Y-117297257D02*
X243495487Y-117225828D01*
X243495487Y-117225828D02*
X243281201Y-117225828D01*
X243281201Y-117225828D02*
X243138344Y-117297257D01*
X242424058Y-118225828D02*
X242424058Y-117225828D01*
X242424058Y-116725828D02*
X242495486Y-116797257D01*
X242495486Y-116797257D02*
X242424058Y-116868685D01*
X242424058Y-116868685D02*
X242352629Y-116797257D01*
X242352629Y-116797257D02*
X242424058Y-116725828D01*
X242424058Y-116725828D02*
X242424058Y-116868685D01*
X241709772Y-117225828D02*
X241709772Y-118225828D01*
X241709772Y-117368685D02*
X241638343Y-117297257D01*
X241638343Y-117297257D02*
X241495486Y-117225828D01*
X241495486Y-117225828D02*
X241281200Y-117225828D01*
X241281200Y-117225828D02*
X241138343Y-117297257D01*
X241138343Y-117297257D02*
X241066915Y-117440114D01*
X241066915Y-117440114D02*
X241066915Y-118225828D01*
X239781200Y-118154400D02*
X239924057Y-118225828D01*
X239924057Y-118225828D02*
X240209772Y-118225828D01*
X240209772Y-118225828D02*
X240352629Y-118154400D01*
X240352629Y-118154400D02*
X240424057Y-118011542D01*
X240424057Y-118011542D02*
X240424057Y-117440114D01*
X240424057Y-117440114D02*
X240352629Y-117297257D01*
X240352629Y-117297257D02*
X240209772Y-117225828D01*
X240209772Y-117225828D02*
X239924057Y-117225828D01*
X239924057Y-117225828D02*
X239781200Y-117297257D01*
X239781200Y-117297257D02*
X239709772Y-117440114D01*
X239709772Y-117440114D02*
X239709772Y-117582971D01*
X239709772Y-117582971D02*
X240424057Y-117725828D01*
X239138343Y-118154400D02*
X238995486Y-118225828D01*
X238995486Y-118225828D02*
X238709772Y-118225828D01*
X238709772Y-118225828D02*
X238566915Y-118154400D01*
X238566915Y-118154400D02*
X238495486Y-118011542D01*
X238495486Y-118011542D02*
X238495486Y-117940114D01*
X238495486Y-117940114D02*
X238566915Y-117797257D01*
X238566915Y-117797257D02*
X238709772Y-117725828D01*
X238709772Y-117725828D02*
X238924058Y-117725828D01*
X238924058Y-117725828D02*
X239066915Y-117654400D01*
X239066915Y-117654400D02*
X239138343Y-117511542D01*
X239138343Y-117511542D02*
X239138343Y-117440114D01*
X239138343Y-117440114D02*
X239066915Y-117297257D01*
X239066915Y-117297257D02*
X238924058Y-117225828D01*
X238924058Y-117225828D02*
X238709772Y-117225828D01*
X238709772Y-117225828D02*
X238566915Y-117297257D01*
X237924057Y-118154400D02*
X237781200Y-118225828D01*
X237781200Y-118225828D02*
X237495486Y-118225828D01*
X237495486Y-118225828D02*
X237352629Y-118154400D01*
X237352629Y-118154400D02*
X237281200Y-118011542D01*
X237281200Y-118011542D02*
X237281200Y-117940114D01*
X237281200Y-117940114D02*
X237352629Y-117797257D01*
X237352629Y-117797257D02*
X237495486Y-117725828D01*
X237495486Y-117725828D02*
X237709772Y-117725828D01*
X237709772Y-117725828D02*
X237852629Y-117654400D01*
X237852629Y-117654400D02*
X237924057Y-117511542D01*
X237924057Y-117511542D02*
X237924057Y-117440114D01*
X237924057Y-117440114D02*
X237852629Y-117297257D01*
X237852629Y-117297257D02*
X237709772Y-117225828D01*
X237709772Y-117225828D02*
X237495486Y-117225828D01*
X237495486Y-117225828D02*
X237352629Y-117297257D01*
X236995486Y-118368685D02*
X235852628Y-118368685D01*
X234852629Y-118154400D02*
X234995486Y-118225828D01*
X234995486Y-118225828D02*
X235281200Y-118225828D01*
X235281200Y-118225828D02*
X235424057Y-118154400D01*
X235424057Y-118154400D02*
X235495486Y-118082971D01*
X235495486Y-118082971D02*
X235566914Y-117940114D01*
X235566914Y-117940114D02*
X235566914Y-117511542D01*
X235566914Y-117511542D02*
X235495486Y-117368685D01*
X235495486Y-117368685D02*
X235424057Y-117297257D01*
X235424057Y-117297257D02*
X235281200Y-117225828D01*
X235281200Y-117225828D02*
X234995486Y-117225828D01*
X234995486Y-117225828D02*
X234852629Y-117297257D01*
X233566915Y-118225828D02*
X233566915Y-117440114D01*
X233566915Y-117440114D02*
X233638343Y-117297257D01*
X233638343Y-117297257D02*
X233781200Y-117225828D01*
X233781200Y-117225828D02*
X234066915Y-117225828D01*
X234066915Y-117225828D02*
X234209772Y-117297257D01*
X233566915Y-118154400D02*
X233709772Y-118225828D01*
X233709772Y-118225828D02*
X234066915Y-118225828D01*
X234066915Y-118225828D02*
X234209772Y-118154400D01*
X234209772Y-118154400D02*
X234281200Y-118011542D01*
X234281200Y-118011542D02*
X234281200Y-117868685D01*
X234281200Y-117868685D02*
X234209772Y-117725828D01*
X234209772Y-117725828D02*
X234066915Y-117654400D01*
X234066915Y-117654400D02*
X233709772Y-117654400D01*
X233709772Y-117654400D02*
X233566915Y-117582971D01*
X232852629Y-118225828D02*
X232852629Y-117225828D01*
X232852629Y-117511542D02*
X232781200Y-117368685D01*
X232781200Y-117368685D02*
X232709772Y-117297257D01*
X232709772Y-117297257D02*
X232566914Y-117225828D01*
X232566914Y-117225828D02*
X232424057Y-117225828D01*
X231281201Y-118225828D02*
X231281201Y-116725828D01*
X231281201Y-118154400D02*
X231424058Y-118225828D01*
X231424058Y-118225828D02*
X231709772Y-118225828D01*
X231709772Y-118225828D02*
X231852629Y-118154400D01*
X231852629Y-118154400D02*
X231924058Y-118082971D01*
X231924058Y-118082971D02*
X231995486Y-117940114D01*
X231995486Y-117940114D02*
X231995486Y-117511542D01*
X231995486Y-117511542D02*
X231924058Y-117368685D01*
X231924058Y-117368685D02*
X231852629Y-117297257D01*
X231852629Y-117297257D02*
X231709772Y-117225828D01*
X231709772Y-117225828D02*
X231424058Y-117225828D01*
X231424058Y-117225828D02*
X231281201Y-117297257D01*
D11*
X258876003Y-120489619D02*
X259209336Y-120013428D01*
X259447431Y-120489619D02*
X259447431Y-119489619D01*
X259447431Y-119489619D02*
X259066479Y-119489619D01*
X259066479Y-119489619D02*
X258971241Y-119537238D01*
X258971241Y-119537238D02*
X258923622Y-119584857D01*
X258923622Y-119584857D02*
X258876003Y-119680095D01*
X258876003Y-119680095D02*
X258876003Y-119822952D01*
X258876003Y-119822952D02*
X258923622Y-119918190D01*
X258923622Y-119918190D02*
X258971241Y-119965809D01*
X258971241Y-119965809D02*
X259066479Y-120013428D01*
X259066479Y-120013428D02*
X259447431Y-120013428D01*
X258066479Y-120442000D02*
X258161717Y-120489619D01*
X258161717Y-120489619D02*
X258352193Y-120489619D01*
X258352193Y-120489619D02*
X258447431Y-120442000D01*
X258447431Y-120442000D02*
X258495050Y-120346761D01*
X258495050Y-120346761D02*
X258495050Y-119965809D01*
X258495050Y-119965809D02*
X258447431Y-119870571D01*
X258447431Y-119870571D02*
X258352193Y-119822952D01*
X258352193Y-119822952D02*
X258161717Y-119822952D01*
X258161717Y-119822952D02*
X258066479Y-119870571D01*
X258066479Y-119870571D02*
X258018860Y-119965809D01*
X258018860Y-119965809D02*
X258018860Y-120061047D01*
X258018860Y-120061047D02*
X258495050Y-120156285D01*
X257685526Y-119822952D02*
X257447431Y-120489619D01*
X257447431Y-120489619D02*
X257209336Y-119822952D01*
X256828383Y-120394380D02*
X256780764Y-120442000D01*
X256780764Y-120442000D02*
X256828383Y-120489619D01*
X256828383Y-120489619D02*
X256876002Y-120442000D01*
X256876002Y-120442000D02*
X256828383Y-120394380D01*
X256828383Y-120394380D02*
X256828383Y-120489619D01*
X255066479Y-120489619D02*
X255637907Y-120489619D01*
X255352193Y-120489619D02*
X255352193Y-119489619D01*
X255352193Y-119489619D02*
X255447431Y-119632476D01*
X255447431Y-119632476D02*
X255542669Y-119727714D01*
X255542669Y-119727714D02*
X255637907Y-119775333D01*
D12*
X258448716Y-83752337D02*
X258448716Y-83252337D01*
X258448716Y-83252337D02*
X258258240Y-83252337D01*
X258258240Y-83252337D02*
X258210621Y-83276147D01*
X258210621Y-83276147D02*
X258186811Y-83299956D01*
X258186811Y-83299956D02*
X258163002Y-83347575D01*
X258163002Y-83347575D02*
X258163002Y-83419004D01*
X258163002Y-83419004D02*
X258186811Y-83466623D01*
X258186811Y-83466623D02*
X258210621Y-83490432D01*
X258210621Y-83490432D02*
X258258240Y-83514242D01*
X258258240Y-83514242D02*
X258448716Y-83514242D01*
X257948716Y-83752337D02*
X257948716Y-83419004D01*
X257948716Y-83514242D02*
X257924906Y-83466623D01*
X257924906Y-83466623D02*
X257901097Y-83442813D01*
X257901097Y-83442813D02*
X257853478Y-83419004D01*
X257853478Y-83419004D02*
X257805859Y-83419004D01*
X257424906Y-83752337D02*
X257424906Y-83490432D01*
X257424906Y-83490432D02*
X257448716Y-83442813D01*
X257448716Y-83442813D02*
X257496335Y-83419004D01*
X257496335Y-83419004D02*
X257591573Y-83419004D01*
X257591573Y-83419004D02*
X257639192Y-83442813D01*
X257424906Y-83728528D02*
X257472525Y-83752337D01*
X257472525Y-83752337D02*
X257591573Y-83752337D01*
X257591573Y-83752337D02*
X257639192Y-83728528D01*
X257639192Y-83728528D02*
X257663001Y-83680908D01*
X257663001Y-83680908D02*
X257663001Y-83633289D01*
X257663001Y-83633289D02*
X257639192Y-83585670D01*
X257639192Y-83585670D02*
X257591573Y-83561861D01*
X257591573Y-83561861D02*
X257472525Y-83561861D01*
X257472525Y-83561861D02*
X257424906Y-83538051D01*
X257186811Y-83752337D02*
X257186811Y-83419004D01*
X257186811Y-83252337D02*
X257210620Y-83276147D01*
X257210620Y-83276147D02*
X257186811Y-83299956D01*
X257186811Y-83299956D02*
X257163001Y-83276147D01*
X257163001Y-83276147D02*
X257186811Y-83252337D01*
X257186811Y-83252337D02*
X257186811Y-83299956D01*
X256972525Y-83728528D02*
X256924906Y-83752337D01*
X256924906Y-83752337D02*
X256829668Y-83752337D01*
X256829668Y-83752337D02*
X256782049Y-83728528D01*
X256782049Y-83728528D02*
X256758240Y-83680908D01*
X256758240Y-83680908D02*
X256758240Y-83657099D01*
X256758240Y-83657099D02*
X256782049Y-83609480D01*
X256782049Y-83609480D02*
X256829668Y-83585670D01*
X256829668Y-83585670D02*
X256901097Y-83585670D01*
X256901097Y-83585670D02*
X256948716Y-83561861D01*
X256948716Y-83561861D02*
X256972525Y-83514242D01*
X256972525Y-83514242D02*
X256972525Y-83490432D01*
X256972525Y-83490432D02*
X256948716Y-83442813D01*
X256948716Y-83442813D02*
X256901097Y-83419004D01*
X256901097Y-83419004D02*
X256829668Y-83419004D01*
X256829668Y-83419004D02*
X256782049Y-83442813D01*
X256353478Y-83728528D02*
X256401097Y-83752337D01*
X256401097Y-83752337D02*
X256496335Y-83752337D01*
X256496335Y-83752337D02*
X256543954Y-83728528D01*
X256543954Y-83728528D02*
X256567763Y-83680908D01*
X256567763Y-83680908D02*
X256567763Y-83490432D01*
X256567763Y-83490432D02*
X256543954Y-83442813D01*
X256543954Y-83442813D02*
X256496335Y-83419004D01*
X256496335Y-83419004D02*
X256401097Y-83419004D01*
X256401097Y-83419004D02*
X256353478Y-83442813D01*
X256353478Y-83442813D02*
X256329668Y-83490432D01*
X256329668Y-83490432D02*
X256329668Y-83538051D01*
X256329668Y-83538051D02*
X256567763Y-83585670D01*
X255805859Y-83419004D02*
X255615383Y-83419004D01*
X255734431Y-83252337D02*
X255734431Y-83680908D01*
X255734431Y-83680908D02*
X255710621Y-83728528D01*
X255710621Y-83728528D02*
X255663002Y-83752337D01*
X255663002Y-83752337D02*
X255615383Y-83752337D01*
X255448717Y-83752337D02*
X255448717Y-83252337D01*
X255234431Y-83752337D02*
X255234431Y-83490432D01*
X255234431Y-83490432D02*
X255258241Y-83442813D01*
X255258241Y-83442813D02*
X255305860Y-83419004D01*
X255305860Y-83419004D02*
X255377288Y-83419004D01*
X255377288Y-83419004D02*
X255424907Y-83442813D01*
X255424907Y-83442813D02*
X255448717Y-83466623D01*
X254805860Y-83728528D02*
X254853479Y-83752337D01*
X254853479Y-83752337D02*
X254948717Y-83752337D01*
X254948717Y-83752337D02*
X254996336Y-83728528D01*
X254996336Y-83728528D02*
X255020145Y-83680908D01*
X255020145Y-83680908D02*
X255020145Y-83490432D01*
X255020145Y-83490432D02*
X254996336Y-83442813D01*
X254996336Y-83442813D02*
X254948717Y-83419004D01*
X254948717Y-83419004D02*
X254853479Y-83419004D01*
X254853479Y-83419004D02*
X254805860Y-83442813D01*
X254805860Y-83442813D02*
X254782050Y-83490432D01*
X254782050Y-83490432D02*
X254782050Y-83538051D01*
X254782050Y-83538051D02*
X255020145Y-83585670D01*
X254020146Y-83490432D02*
X254186813Y-83490432D01*
X254186813Y-83752337D02*
X254186813Y-83252337D01*
X254186813Y-83252337D02*
X253948718Y-83252337D01*
X253686813Y-83752337D02*
X253734432Y-83728528D01*
X253734432Y-83728528D02*
X253758242Y-83704718D01*
X253758242Y-83704718D02*
X253782051Y-83657099D01*
X253782051Y-83657099D02*
X253782051Y-83514242D01*
X253782051Y-83514242D02*
X253758242Y-83466623D01*
X253758242Y-83466623D02*
X253734432Y-83442813D01*
X253734432Y-83442813D02*
X253686813Y-83419004D01*
X253686813Y-83419004D02*
X253615385Y-83419004D01*
X253615385Y-83419004D02*
X253567766Y-83442813D01*
X253567766Y-83442813D02*
X253543956Y-83466623D01*
X253543956Y-83466623D02*
X253520147Y-83514242D01*
X253520147Y-83514242D02*
X253520147Y-83657099D01*
X253520147Y-83657099D02*
X253543956Y-83704718D01*
X253543956Y-83704718D02*
X253567766Y-83728528D01*
X253567766Y-83728528D02*
X253615385Y-83752337D01*
X253615385Y-83752337D02*
X253686813Y-83752337D01*
X253234432Y-83752337D02*
X253282051Y-83728528D01*
X253282051Y-83728528D02*
X253305861Y-83704718D01*
X253305861Y-83704718D02*
X253329670Y-83657099D01*
X253329670Y-83657099D02*
X253329670Y-83514242D01*
X253329670Y-83514242D02*
X253305861Y-83466623D01*
X253305861Y-83466623D02*
X253282051Y-83442813D01*
X253282051Y-83442813D02*
X253234432Y-83419004D01*
X253234432Y-83419004D02*
X253163004Y-83419004D01*
X253163004Y-83419004D02*
X253115385Y-83442813D01*
X253115385Y-83442813D02*
X253091575Y-83466623D01*
X253091575Y-83466623D02*
X253067766Y-83514242D01*
X253067766Y-83514242D02*
X253067766Y-83657099D01*
X253067766Y-83657099D02*
X253091575Y-83704718D01*
X253091575Y-83704718D02*
X253115385Y-83728528D01*
X253115385Y-83728528D02*
X253163004Y-83752337D01*
X253163004Y-83752337D02*
X253234432Y-83752337D01*
X252782051Y-83752337D02*
X252829670Y-83728528D01*
X252829670Y-83728528D02*
X252853480Y-83680908D01*
X252853480Y-83680908D02*
X252853480Y-83252337D01*
X252591575Y-83704718D02*
X252567765Y-83728528D01*
X252567765Y-83728528D02*
X252591575Y-83752337D01*
X252591575Y-83752337D02*
X252615384Y-83728528D01*
X252615384Y-83728528D02*
X252591575Y-83704718D01*
X252591575Y-83704718D02*
X252591575Y-83752337D01*
X252591575Y-83561861D02*
X252615384Y-83276147D01*
X252615384Y-83276147D02*
X252591575Y-83252337D01*
X252591575Y-83252337D02*
X252567765Y-83276147D01*
X252567765Y-83276147D02*
X252591575Y-83561861D01*
X252591575Y-83561861D02*
X252591575Y-83252337D01*
X252043956Y-83252337D02*
X251758242Y-83252337D01*
X251901099Y-83752337D02*
X251901099Y-83252337D01*
X251591576Y-83752337D02*
X251591576Y-83252337D01*
X251377290Y-83752337D02*
X251377290Y-83490432D01*
X251377290Y-83490432D02*
X251401100Y-83442813D01*
X251401100Y-83442813D02*
X251448719Y-83419004D01*
X251448719Y-83419004D02*
X251520147Y-83419004D01*
X251520147Y-83419004D02*
X251567766Y-83442813D01*
X251567766Y-83442813D02*
X251591576Y-83466623D01*
X250948719Y-83728528D02*
X250996338Y-83752337D01*
X250996338Y-83752337D02*
X251091576Y-83752337D01*
X251091576Y-83752337D02*
X251139195Y-83728528D01*
X251139195Y-83728528D02*
X251163004Y-83680908D01*
X251163004Y-83680908D02*
X251163004Y-83490432D01*
X251163004Y-83490432D02*
X251139195Y-83442813D01*
X251139195Y-83442813D02*
X251091576Y-83419004D01*
X251091576Y-83419004D02*
X250996338Y-83419004D01*
X250996338Y-83419004D02*
X250948719Y-83442813D01*
X250948719Y-83442813D02*
X250924909Y-83490432D01*
X250924909Y-83490432D02*
X250924909Y-83538051D01*
X250924909Y-83538051D02*
X251163004Y-83585670D01*
X250329672Y-83752337D02*
X250329672Y-83252337D01*
X250043958Y-83752337D02*
X250258243Y-83466623D01*
X250043958Y-83252337D02*
X250329672Y-83538051D01*
X249829672Y-83752337D02*
X249829672Y-83419004D01*
X249829672Y-83252337D02*
X249853481Y-83276147D01*
X249853481Y-83276147D02*
X249829672Y-83299956D01*
X249829672Y-83299956D02*
X249805862Y-83276147D01*
X249805862Y-83276147D02*
X249829672Y-83252337D01*
X249829672Y-83252337D02*
X249829672Y-83299956D01*
X249591577Y-83419004D02*
X249591577Y-83752337D01*
X249591577Y-83466623D02*
X249567767Y-83442813D01*
X249567767Y-83442813D02*
X249520148Y-83419004D01*
X249520148Y-83419004D02*
X249448720Y-83419004D01*
X249448720Y-83419004D02*
X249401101Y-83442813D01*
X249401101Y-83442813D02*
X249377291Y-83490432D01*
X249377291Y-83490432D02*
X249377291Y-83752337D01*
X248924910Y-83419004D02*
X248924910Y-83823766D01*
X248924910Y-83823766D02*
X248948720Y-83871385D01*
X248948720Y-83871385D02*
X248972529Y-83895194D01*
X248972529Y-83895194D02*
X249020148Y-83919004D01*
X249020148Y-83919004D02*
X249091577Y-83919004D01*
X249091577Y-83919004D02*
X249139196Y-83895194D01*
X248924910Y-83728528D02*
X248972529Y-83752337D01*
X248972529Y-83752337D02*
X249067767Y-83752337D01*
X249067767Y-83752337D02*
X249115386Y-83728528D01*
X249115386Y-83728528D02*
X249139196Y-83704718D01*
X249139196Y-83704718D02*
X249163005Y-83657099D01*
X249163005Y-83657099D02*
X249163005Y-83514242D01*
X249163005Y-83514242D02*
X249139196Y-83466623D01*
X249139196Y-83466623D02*
X249115386Y-83442813D01*
X249115386Y-83442813D02*
X249067767Y-83419004D01*
X249067767Y-83419004D02*
X248972529Y-83419004D01*
X248972529Y-83419004D02*
X248924910Y-83442813D01*
X248234434Y-83752337D02*
X248282053Y-83728528D01*
X248282053Y-83728528D02*
X248305863Y-83704718D01*
X248305863Y-83704718D02*
X248329672Y-83657099D01*
X248329672Y-83657099D02*
X248329672Y-83514242D01*
X248329672Y-83514242D02*
X248305863Y-83466623D01*
X248305863Y-83466623D02*
X248282053Y-83442813D01*
X248282053Y-83442813D02*
X248234434Y-83419004D01*
X248234434Y-83419004D02*
X248163006Y-83419004D01*
X248163006Y-83419004D02*
X248115387Y-83442813D01*
X248115387Y-83442813D02*
X248091577Y-83466623D01*
X248091577Y-83466623D02*
X248067768Y-83514242D01*
X248067768Y-83514242D02*
X248067768Y-83657099D01*
X248067768Y-83657099D02*
X248091577Y-83704718D01*
X248091577Y-83704718D02*
X248115387Y-83728528D01*
X248115387Y-83728528D02*
X248163006Y-83752337D01*
X248163006Y-83752337D02*
X248234434Y-83752337D01*
X247924910Y-83419004D02*
X247734434Y-83419004D01*
X247853482Y-83752337D02*
X247853482Y-83323766D01*
X247853482Y-83323766D02*
X247829672Y-83276147D01*
X247829672Y-83276147D02*
X247782053Y-83252337D01*
X247782053Y-83252337D02*
X247734434Y-83252337D01*
X258353478Y-84319214D02*
X258353478Y-84557309D01*
X258520144Y-84057309D02*
X258353478Y-84319214D01*
X258353478Y-84319214D02*
X258186811Y-84057309D01*
X257829669Y-84533500D02*
X257877288Y-84557309D01*
X257877288Y-84557309D02*
X257972526Y-84557309D01*
X257972526Y-84557309D02*
X258020145Y-84533500D01*
X258020145Y-84533500D02*
X258043954Y-84485880D01*
X258043954Y-84485880D02*
X258043954Y-84295404D01*
X258043954Y-84295404D02*
X258020145Y-84247785D01*
X258020145Y-84247785D02*
X257972526Y-84223976D01*
X257972526Y-84223976D02*
X257877288Y-84223976D01*
X257877288Y-84223976D02*
X257829669Y-84247785D01*
X257829669Y-84247785D02*
X257805859Y-84295404D01*
X257805859Y-84295404D02*
X257805859Y-84343023D01*
X257805859Y-84343023D02*
X258043954Y-84390642D01*
X257520145Y-84557309D02*
X257567764Y-84533500D01*
X257567764Y-84533500D02*
X257591574Y-84485880D01*
X257591574Y-84485880D02*
X257591574Y-84057309D01*
X257258240Y-84557309D02*
X257305859Y-84533500D01*
X257305859Y-84533500D02*
X257329669Y-84485880D01*
X257329669Y-84485880D02*
X257329669Y-84057309D01*
X256996335Y-84557309D02*
X257043954Y-84533500D01*
X257043954Y-84533500D02*
X257067764Y-84509690D01*
X257067764Y-84509690D02*
X257091573Y-84462071D01*
X257091573Y-84462071D02*
X257091573Y-84319214D01*
X257091573Y-84319214D02*
X257067764Y-84271595D01*
X257067764Y-84271595D02*
X257043954Y-84247785D01*
X257043954Y-84247785D02*
X256996335Y-84223976D01*
X256996335Y-84223976D02*
X256924907Y-84223976D01*
X256924907Y-84223976D02*
X256877288Y-84247785D01*
X256877288Y-84247785D02*
X256853478Y-84271595D01*
X256853478Y-84271595D02*
X256829669Y-84319214D01*
X256829669Y-84319214D02*
X256829669Y-84462071D01*
X256829669Y-84462071D02*
X256853478Y-84509690D01*
X256853478Y-84509690D02*
X256877288Y-84533500D01*
X256877288Y-84533500D02*
X256924907Y-84557309D01*
X256924907Y-84557309D02*
X256996335Y-84557309D01*
X256663002Y-84223976D02*
X256567764Y-84557309D01*
X256567764Y-84557309D02*
X256472526Y-84319214D01*
X256472526Y-84319214D02*
X256377288Y-84557309D01*
X256377288Y-84557309D02*
X256282050Y-84223976D01*
X255496335Y-84557309D02*
X255496335Y-84295404D01*
X255496335Y-84295404D02*
X255520145Y-84247785D01*
X255520145Y-84247785D02*
X255567764Y-84223976D01*
X255567764Y-84223976D02*
X255663002Y-84223976D01*
X255663002Y-84223976D02*
X255710621Y-84247785D01*
X255496335Y-84533500D02*
X255543954Y-84557309D01*
X255543954Y-84557309D02*
X255663002Y-84557309D01*
X255663002Y-84557309D02*
X255710621Y-84533500D01*
X255710621Y-84533500D02*
X255734430Y-84485880D01*
X255734430Y-84485880D02*
X255734430Y-84438261D01*
X255734430Y-84438261D02*
X255710621Y-84390642D01*
X255710621Y-84390642D02*
X255663002Y-84366833D01*
X255663002Y-84366833D02*
X255543954Y-84366833D01*
X255543954Y-84366833D02*
X255496335Y-84343023D01*
X255258240Y-84223976D02*
X255258240Y-84557309D01*
X255258240Y-84271595D02*
X255234430Y-84247785D01*
X255234430Y-84247785D02*
X255186811Y-84223976D01*
X255186811Y-84223976D02*
X255115383Y-84223976D01*
X255115383Y-84223976D02*
X255067764Y-84247785D01*
X255067764Y-84247785D02*
X255043954Y-84295404D01*
X255043954Y-84295404D02*
X255043954Y-84557309D01*
X254591573Y-84557309D02*
X254591573Y-84057309D01*
X254591573Y-84533500D02*
X254639192Y-84557309D01*
X254639192Y-84557309D02*
X254734430Y-84557309D01*
X254734430Y-84557309D02*
X254782049Y-84533500D01*
X254782049Y-84533500D02*
X254805859Y-84509690D01*
X254805859Y-84509690D02*
X254829668Y-84462071D01*
X254829668Y-84462071D02*
X254829668Y-84319214D01*
X254829668Y-84319214D02*
X254805859Y-84271595D01*
X254805859Y-84271595D02*
X254782049Y-84247785D01*
X254782049Y-84247785D02*
X254734430Y-84223976D01*
X254734430Y-84223976D02*
X254639192Y-84223976D01*
X254639192Y-84223976D02*
X254591573Y-84247785D01*
X253805859Y-84295404D02*
X253734431Y-84319214D01*
X253734431Y-84319214D02*
X253710621Y-84343023D01*
X253710621Y-84343023D02*
X253686812Y-84390642D01*
X253686812Y-84390642D02*
X253686812Y-84462071D01*
X253686812Y-84462071D02*
X253710621Y-84509690D01*
X253710621Y-84509690D02*
X253734431Y-84533500D01*
X253734431Y-84533500D02*
X253782050Y-84557309D01*
X253782050Y-84557309D02*
X253972526Y-84557309D01*
X253972526Y-84557309D02*
X253972526Y-84057309D01*
X253972526Y-84057309D02*
X253805859Y-84057309D01*
X253805859Y-84057309D02*
X253758240Y-84081119D01*
X253758240Y-84081119D02*
X253734431Y-84104928D01*
X253734431Y-84104928D02*
X253710621Y-84152547D01*
X253710621Y-84152547D02*
X253710621Y-84200166D01*
X253710621Y-84200166D02*
X253734431Y-84247785D01*
X253734431Y-84247785D02*
X253758240Y-84271595D01*
X253758240Y-84271595D02*
X253805859Y-84295404D01*
X253805859Y-84295404D02*
X253972526Y-84295404D01*
X253401097Y-84557309D02*
X253448716Y-84533500D01*
X253448716Y-84533500D02*
X253472526Y-84485880D01*
X253472526Y-84485880D02*
X253472526Y-84057309D01*
X252996335Y-84557309D02*
X252996335Y-84295404D01*
X252996335Y-84295404D02*
X253020145Y-84247785D01*
X253020145Y-84247785D02*
X253067764Y-84223976D01*
X253067764Y-84223976D02*
X253163002Y-84223976D01*
X253163002Y-84223976D02*
X253210621Y-84247785D01*
X252996335Y-84533500D02*
X253043954Y-84557309D01*
X253043954Y-84557309D02*
X253163002Y-84557309D01*
X253163002Y-84557309D02*
X253210621Y-84533500D01*
X253210621Y-84533500D02*
X253234430Y-84485880D01*
X253234430Y-84485880D02*
X253234430Y-84438261D01*
X253234430Y-84438261D02*
X253210621Y-84390642D01*
X253210621Y-84390642D02*
X253163002Y-84366833D01*
X253163002Y-84366833D02*
X253043954Y-84366833D01*
X253043954Y-84366833D02*
X252996335Y-84343023D01*
X252543954Y-84533500D02*
X252591573Y-84557309D01*
X252591573Y-84557309D02*
X252686811Y-84557309D01*
X252686811Y-84557309D02*
X252734430Y-84533500D01*
X252734430Y-84533500D02*
X252758240Y-84509690D01*
X252758240Y-84509690D02*
X252782049Y-84462071D01*
X252782049Y-84462071D02*
X252782049Y-84319214D01*
X252782049Y-84319214D02*
X252758240Y-84271595D01*
X252758240Y-84271595D02*
X252734430Y-84247785D01*
X252734430Y-84247785D02*
X252686811Y-84223976D01*
X252686811Y-84223976D02*
X252591573Y-84223976D01*
X252591573Y-84223976D02*
X252543954Y-84247785D01*
X252329669Y-84557309D02*
X252329669Y-84057309D01*
X252282050Y-84366833D02*
X252139193Y-84557309D01*
X252139193Y-84223976D02*
X252329669Y-84414452D01*
X251591574Y-84223976D02*
X251496336Y-84557309D01*
X251496336Y-84557309D02*
X251401098Y-84319214D01*
X251401098Y-84319214D02*
X251305860Y-84557309D01*
X251305860Y-84557309D02*
X251210622Y-84223976D01*
X251020145Y-84557309D02*
X251020145Y-84057309D01*
X250805859Y-84557309D02*
X250805859Y-84295404D01*
X250805859Y-84295404D02*
X250829669Y-84247785D01*
X250829669Y-84247785D02*
X250877288Y-84223976D01*
X250877288Y-84223976D02*
X250948716Y-84223976D01*
X250948716Y-84223976D02*
X250996335Y-84247785D01*
X250996335Y-84247785D02*
X251020145Y-84271595D01*
X250496335Y-84557309D02*
X250543954Y-84533500D01*
X250543954Y-84533500D02*
X250567764Y-84509690D01*
X250567764Y-84509690D02*
X250591573Y-84462071D01*
X250591573Y-84462071D02*
X250591573Y-84319214D01*
X250591573Y-84319214D02*
X250567764Y-84271595D01*
X250567764Y-84271595D02*
X250543954Y-84247785D01*
X250543954Y-84247785D02*
X250496335Y-84223976D01*
X250496335Y-84223976D02*
X250424907Y-84223976D01*
X250424907Y-84223976D02*
X250377288Y-84247785D01*
X250377288Y-84247785D02*
X250353478Y-84271595D01*
X250353478Y-84271595D02*
X250329669Y-84319214D01*
X250329669Y-84319214D02*
X250329669Y-84462071D01*
X250329669Y-84462071D02*
X250353478Y-84509690D01*
X250353478Y-84509690D02*
X250377288Y-84533500D01*
X250377288Y-84533500D02*
X250424907Y-84557309D01*
X250424907Y-84557309D02*
X250496335Y-84557309D01*
X249782050Y-84223976D02*
X249686812Y-84557309D01*
X249686812Y-84557309D02*
X249591574Y-84319214D01*
X249591574Y-84319214D02*
X249496336Y-84557309D01*
X249496336Y-84557309D02*
X249401098Y-84223976D01*
X249210621Y-84557309D02*
X249210621Y-84223976D01*
X249210621Y-84057309D02*
X249234430Y-84081119D01*
X249234430Y-84081119D02*
X249210621Y-84104928D01*
X249210621Y-84104928D02*
X249186811Y-84081119D01*
X249186811Y-84081119D02*
X249210621Y-84057309D01*
X249210621Y-84057309D02*
X249210621Y-84104928D01*
X248782050Y-84533500D02*
X248829669Y-84557309D01*
X248829669Y-84557309D02*
X248924907Y-84557309D01*
X248924907Y-84557309D02*
X248972526Y-84533500D01*
X248972526Y-84533500D02*
X248996335Y-84485880D01*
X248996335Y-84485880D02*
X248996335Y-84295404D01*
X248996335Y-84295404D02*
X248972526Y-84247785D01*
X248972526Y-84247785D02*
X248924907Y-84223976D01*
X248924907Y-84223976D02*
X248829669Y-84223976D01*
X248829669Y-84223976D02*
X248782050Y-84247785D01*
X248782050Y-84247785D02*
X248758240Y-84295404D01*
X248758240Y-84295404D02*
X248758240Y-84343023D01*
X248758240Y-84343023D02*
X248996335Y-84390642D01*
X248472526Y-84557309D02*
X248520145Y-84533500D01*
X248520145Y-84533500D02*
X248543955Y-84485880D01*
X248543955Y-84485880D02*
X248543955Y-84057309D01*
X248067764Y-84557309D02*
X248067764Y-84057309D01*
X248067764Y-84533500D02*
X248115383Y-84557309D01*
X248115383Y-84557309D02*
X248210621Y-84557309D01*
X248210621Y-84557309D02*
X248258240Y-84533500D01*
X248258240Y-84533500D02*
X248282050Y-84509690D01*
X248282050Y-84509690D02*
X248305859Y-84462071D01*
X248305859Y-84462071D02*
X248305859Y-84319214D01*
X248305859Y-84319214D02*
X248282050Y-84271595D01*
X248282050Y-84271595D02*
X248258240Y-84247785D01*
X248258240Y-84247785D02*
X248210621Y-84223976D01*
X248210621Y-84223976D02*
X248115383Y-84223976D01*
X248115383Y-84223976D02*
X248067764Y-84247785D01*
X247853478Y-84533500D02*
X247805859Y-84557309D01*
X247805859Y-84557309D02*
X247710621Y-84557309D01*
X247710621Y-84557309D02*
X247663002Y-84533500D01*
X247663002Y-84533500D02*
X247639193Y-84485880D01*
X247639193Y-84485880D02*
X247639193Y-84462071D01*
X247639193Y-84462071D02*
X247663002Y-84414452D01*
X247663002Y-84414452D02*
X247710621Y-84390642D01*
X247710621Y-84390642D02*
X247782050Y-84390642D01*
X247782050Y-84390642D02*
X247829669Y-84366833D01*
X247829669Y-84366833D02*
X247853478Y-84319214D01*
X247853478Y-84319214D02*
X247853478Y-84295404D01*
X247853478Y-84295404D02*
X247829669Y-84247785D01*
X247829669Y-84247785D02*
X247782050Y-84223976D01*
X247782050Y-84223976D02*
X247710621Y-84223976D01*
X247710621Y-84223976D02*
X247663002Y-84247785D01*
X246829669Y-84223976D02*
X246829669Y-84628738D01*
X246829669Y-84628738D02*
X246853479Y-84676357D01*
X246853479Y-84676357D02*
X246877288Y-84700166D01*
X246877288Y-84700166D02*
X246924907Y-84723976D01*
X246924907Y-84723976D02*
X246996336Y-84723976D01*
X246996336Y-84723976D02*
X247043955Y-84700166D01*
X246829669Y-84533500D02*
X246877288Y-84557309D01*
X246877288Y-84557309D02*
X246972526Y-84557309D01*
X246972526Y-84557309D02*
X247020145Y-84533500D01*
X247020145Y-84533500D02*
X247043955Y-84509690D01*
X247043955Y-84509690D02*
X247067764Y-84462071D01*
X247067764Y-84462071D02*
X247067764Y-84319214D01*
X247067764Y-84319214D02*
X247043955Y-84271595D01*
X247043955Y-84271595D02*
X247020145Y-84247785D01*
X247020145Y-84247785D02*
X246972526Y-84223976D01*
X246972526Y-84223976D02*
X246877288Y-84223976D01*
X246877288Y-84223976D02*
X246829669Y-84247785D01*
X246520145Y-84557309D02*
X246567764Y-84533500D01*
X246567764Y-84533500D02*
X246591574Y-84509690D01*
X246591574Y-84509690D02*
X246615383Y-84462071D01*
X246615383Y-84462071D02*
X246615383Y-84319214D01*
X246615383Y-84319214D02*
X246591574Y-84271595D01*
X246591574Y-84271595D02*
X246567764Y-84247785D01*
X246567764Y-84247785D02*
X246520145Y-84223976D01*
X246520145Y-84223976D02*
X246448717Y-84223976D01*
X246448717Y-84223976D02*
X246401098Y-84247785D01*
X246401098Y-84247785D02*
X246377288Y-84271595D01*
X246377288Y-84271595D02*
X246353479Y-84319214D01*
X246353479Y-84319214D02*
X246353479Y-84462071D01*
X246353479Y-84462071D02*
X246377288Y-84509690D01*
X246377288Y-84509690D02*
X246401098Y-84533500D01*
X246401098Y-84533500D02*
X246448717Y-84557309D01*
X246448717Y-84557309D02*
X246520145Y-84557309D01*
X246067764Y-84557309D02*
X246115383Y-84533500D01*
X246115383Y-84533500D02*
X246139193Y-84509690D01*
X246139193Y-84509690D02*
X246163002Y-84462071D01*
X246163002Y-84462071D02*
X246163002Y-84319214D01*
X246163002Y-84319214D02*
X246139193Y-84271595D01*
X246139193Y-84271595D02*
X246115383Y-84247785D01*
X246115383Y-84247785D02*
X246067764Y-84223976D01*
X246067764Y-84223976D02*
X245996336Y-84223976D01*
X245996336Y-84223976D02*
X245948717Y-84247785D01*
X245948717Y-84247785D02*
X245924907Y-84271595D01*
X245924907Y-84271595D02*
X245901098Y-84319214D01*
X245901098Y-84319214D02*
X245901098Y-84462071D01*
X245901098Y-84462071D02*
X245924907Y-84509690D01*
X245924907Y-84509690D02*
X245948717Y-84533500D01*
X245948717Y-84533500D02*
X245996336Y-84557309D01*
X245996336Y-84557309D02*
X246067764Y-84557309D01*
X245472526Y-84557309D02*
X245472526Y-84057309D01*
X245472526Y-84533500D02*
X245520145Y-84557309D01*
X245520145Y-84557309D02*
X245615383Y-84557309D01*
X245615383Y-84557309D02*
X245663002Y-84533500D01*
X245663002Y-84533500D02*
X245686812Y-84509690D01*
X245686812Y-84509690D02*
X245710621Y-84462071D01*
X245710621Y-84462071D02*
X245710621Y-84319214D01*
X245710621Y-84319214D02*
X245686812Y-84271595D01*
X245686812Y-84271595D02*
X245663002Y-84247785D01*
X245663002Y-84247785D02*
X245615383Y-84223976D01*
X245615383Y-84223976D02*
X245520145Y-84223976D01*
X245520145Y-84223976D02*
X245472526Y-84247785D01*
X244782050Y-84557309D02*
X244829669Y-84533500D01*
X244829669Y-84533500D02*
X244853479Y-84485880D01*
X244853479Y-84485880D02*
X244853479Y-84057309D01*
X244377288Y-84223976D02*
X244377288Y-84557309D01*
X244591574Y-84223976D02*
X244591574Y-84485880D01*
X244591574Y-84485880D02*
X244567764Y-84533500D01*
X244567764Y-84533500D02*
X244520145Y-84557309D01*
X244520145Y-84557309D02*
X244448717Y-84557309D01*
X244448717Y-84557309D02*
X244401098Y-84533500D01*
X244401098Y-84533500D02*
X244377288Y-84509690D01*
X243924907Y-84533500D02*
X243972526Y-84557309D01*
X243972526Y-84557309D02*
X244067764Y-84557309D01*
X244067764Y-84557309D02*
X244115383Y-84533500D01*
X244115383Y-84533500D02*
X244139193Y-84509690D01*
X244139193Y-84509690D02*
X244163002Y-84462071D01*
X244163002Y-84462071D02*
X244163002Y-84319214D01*
X244163002Y-84319214D02*
X244139193Y-84271595D01*
X244139193Y-84271595D02*
X244115383Y-84247785D01*
X244115383Y-84247785D02*
X244067764Y-84223976D01*
X244067764Y-84223976D02*
X243972526Y-84223976D01*
X243972526Y-84223976D02*
X243924907Y-84247785D01*
X243710622Y-84557309D02*
X243710622Y-84057309D01*
X243663003Y-84366833D02*
X243520146Y-84557309D01*
X243520146Y-84223976D02*
X243710622Y-84414452D01*
X243305860Y-84509690D02*
X243282050Y-84533500D01*
X243282050Y-84533500D02*
X243305860Y-84557309D01*
X243305860Y-84557309D02*
X243329669Y-84533500D01*
X243329669Y-84533500D02*
X243305860Y-84509690D01*
X243305860Y-84509690D02*
X243305860Y-84557309D01*
D13*
X201608458Y-119828152D02*
X201417982Y-120494819D01*
X201417982Y-120494819D02*
X201227506Y-120018628D01*
X201227506Y-120018628D02*
X201037030Y-120494819D01*
X201037030Y-120494819D02*
X200846554Y-119828152D01*
X200560839Y-119828152D02*
X200370363Y-120494819D01*
X200370363Y-120494819D02*
X200179887Y-120018628D01*
X200179887Y-120018628D02*
X199989411Y-120494819D01*
X199989411Y-120494819D02*
X199798935Y-119828152D01*
X199513220Y-119828152D02*
X199322744Y-120494819D01*
X199322744Y-120494819D02*
X199132268Y-120018628D01*
X199132268Y-120018628D02*
X198941792Y-120494819D01*
X198941792Y-120494819D02*
X198751316Y-119828152D01*
X198370363Y-120399580D02*
X198322744Y-120447200D01*
X198322744Y-120447200D02*
X198370363Y-120494819D01*
X198370363Y-120494819D02*
X198417982Y-120447200D01*
X198417982Y-120447200D02*
X198370363Y-120399580D01*
X198370363Y-120399580D02*
X198370363Y-120494819D01*
X197751316Y-120494819D02*
X197846554Y-120447200D01*
X197846554Y-120447200D02*
X197894173Y-120351961D01*
X197894173Y-120351961D02*
X197894173Y-119494819D01*
X197370363Y-120494819D02*
X197370363Y-119828152D01*
X197370363Y-119494819D02*
X197417982Y-119542438D01*
X197417982Y-119542438D02*
X197370363Y-119590057D01*
X197370363Y-119590057D02*
X197322744Y-119542438D01*
X197322744Y-119542438D02*
X197370363Y-119494819D01*
X197370363Y-119494819D02*
X197370363Y-119590057D01*
X196894173Y-119828152D02*
X196894173Y-120494819D01*
X196894173Y-119923390D02*
X196846554Y-119875771D01*
X196846554Y-119875771D02*
X196751316Y-119828152D01*
X196751316Y-119828152D02*
X196608459Y-119828152D01*
X196608459Y-119828152D02*
X196513221Y-119875771D01*
X196513221Y-119875771D02*
X196465602Y-119971009D01*
X196465602Y-119971009D02*
X196465602Y-120494819D01*
X195989411Y-120494819D02*
X195989411Y-119494819D01*
X195894173Y-120113866D02*
X195608459Y-120494819D01*
X195608459Y-119828152D02*
X195989411Y-120209104D01*
X194798935Y-120447200D02*
X194894173Y-120494819D01*
X194894173Y-120494819D02*
X195084649Y-120494819D01*
X195084649Y-120494819D02*
X195179887Y-120447200D01*
X195179887Y-120447200D02*
X195227506Y-120351961D01*
X195227506Y-120351961D02*
X195227506Y-119971009D01*
X195227506Y-119971009D02*
X195179887Y-119875771D01*
X195179887Y-119875771D02*
X195084649Y-119828152D01*
X195084649Y-119828152D02*
X194894173Y-119828152D01*
X194894173Y-119828152D02*
X194798935Y-119875771D01*
X194798935Y-119875771D02*
X194751316Y-119971009D01*
X194751316Y-119971009D02*
X194751316Y-120066247D01*
X194751316Y-120066247D02*
X195227506Y-120161485D01*
X193894173Y-120494819D02*
X193894173Y-119494819D01*
X193894173Y-120447200D02*
X193989411Y-120494819D01*
X193989411Y-120494819D02*
X194179887Y-120494819D01*
X194179887Y-120494819D02*
X194275125Y-120447200D01*
X194275125Y-120447200D02*
X194322744Y-120399580D01*
X194322744Y-120399580D02*
X194370363Y-120304342D01*
X194370363Y-120304342D02*
X194370363Y-120018628D01*
X194370363Y-120018628D02*
X194322744Y-119923390D01*
X194322744Y-119923390D02*
X194275125Y-119875771D01*
X194275125Y-119875771D02*
X194179887Y-119828152D01*
X194179887Y-119828152D02*
X193989411Y-119828152D01*
X193989411Y-119828152D02*
X193894173Y-119875771D01*
X193417982Y-120494819D02*
X193417982Y-119828152D01*
X193417982Y-119494819D02*
X193465601Y-119542438D01*
X193465601Y-119542438D02*
X193417982Y-119590057D01*
X193417982Y-119590057D02*
X193370363Y-119542438D01*
X193370363Y-119542438D02*
X193417982Y-119494819D01*
X193417982Y-119494819D02*
X193417982Y-119590057D01*
X192941792Y-119828152D02*
X192941792Y-120494819D01*
X192941792Y-119923390D02*
X192894173Y-119875771D01*
X192894173Y-119875771D02*
X192798935Y-119828152D01*
X192798935Y-119828152D02*
X192656078Y-119828152D01*
X192656078Y-119828152D02*
X192560840Y-119875771D01*
X192560840Y-119875771D02*
X192513221Y-119971009D01*
X192513221Y-119971009D02*
X192513221Y-120494819D01*
X192037030Y-120399580D02*
X191989411Y-120447200D01*
X191989411Y-120447200D02*
X192037030Y-120494819D01*
X192037030Y-120494819D02*
X192084649Y-120447200D01*
X192084649Y-120447200D02*
X192037030Y-120399580D01*
X192037030Y-120399580D02*
X192037030Y-120494819D01*
X191132269Y-120447200D02*
X191227507Y-120494819D01*
X191227507Y-120494819D02*
X191417983Y-120494819D01*
X191417983Y-120494819D02*
X191513221Y-120447200D01*
X191513221Y-120447200D02*
X191560840Y-120399580D01*
X191560840Y-120399580D02*
X191608459Y-120304342D01*
X191608459Y-120304342D02*
X191608459Y-120018628D01*
X191608459Y-120018628D02*
X191560840Y-119923390D01*
X191560840Y-119923390D02*
X191513221Y-119875771D01*
X191513221Y-119875771D02*
X191417983Y-119828152D01*
X191417983Y-119828152D02*
X191227507Y-119828152D01*
X191227507Y-119828152D02*
X191132269Y-119875771D01*
X190560840Y-120494819D02*
X190656078Y-120447200D01*
X190656078Y-120447200D02*
X190703697Y-120399580D01*
X190703697Y-120399580D02*
X190751316Y-120304342D01*
X190751316Y-120304342D02*
X190751316Y-120018628D01*
X190751316Y-120018628D02*
X190703697Y-119923390D01*
X190703697Y-119923390D02*
X190656078Y-119875771D01*
X190656078Y-119875771D02*
X190560840Y-119828152D01*
X190560840Y-119828152D02*
X190417983Y-119828152D01*
X190417983Y-119828152D02*
X190322745Y-119875771D01*
X190322745Y-119875771D02*
X190275126Y-119923390D01*
X190275126Y-119923390D02*
X190227507Y-120018628D01*
X190227507Y-120018628D02*
X190227507Y-120304342D01*
X190227507Y-120304342D02*
X190275126Y-120399580D01*
X190275126Y-120399580D02*
X190322745Y-120447200D01*
X190322745Y-120447200D02*
X190417983Y-120494819D01*
X190417983Y-120494819D02*
X190560840Y-120494819D01*
X189798935Y-120494819D02*
X189798935Y-119828152D01*
X189798935Y-119923390D02*
X189751316Y-119875771D01*
X189751316Y-119875771D02*
X189656078Y-119828152D01*
X189656078Y-119828152D02*
X189513221Y-119828152D01*
X189513221Y-119828152D02*
X189417983Y-119875771D01*
X189417983Y-119875771D02*
X189370364Y-119971009D01*
X189370364Y-119971009D02*
X189370364Y-120494819D01*
X189370364Y-119971009D02*
X189322745Y-119875771D01*
X189322745Y-119875771D02*
X189227507Y-119828152D01*
X189227507Y-119828152D02*
X189084650Y-119828152D01*
X189084650Y-119828152D02*
X188989411Y-119875771D01*
X188989411Y-119875771D02*
X188941792Y-119971009D01*
X188941792Y-119971009D02*
X188941792Y-120494819D01*
X187751317Y-119447200D02*
X188608459Y-120732914D01*
X187417983Y-120494819D02*
X187417983Y-119828152D01*
X187417983Y-119494819D02*
X187465602Y-119542438D01*
X187465602Y-119542438D02*
X187417983Y-119590057D01*
X187417983Y-119590057D02*
X187370364Y-119542438D01*
X187370364Y-119542438D02*
X187417983Y-119494819D01*
X187417983Y-119494819D02*
X187417983Y-119590057D01*
X186941793Y-119828152D02*
X186941793Y-120494819D01*
X186941793Y-119923390D02*
X186894174Y-119875771D01*
X186894174Y-119875771D02*
X186798936Y-119828152D01*
X186798936Y-119828152D02*
X186656079Y-119828152D01*
X186656079Y-119828152D02*
X186560841Y-119875771D01*
X186560841Y-119875771D02*
X186513222Y-119971009D01*
X186513222Y-119971009D02*
X186513222Y-120494819D01*
X185322746Y-119447200D02*
X186179888Y-120732914D01*
X184989412Y-120494819D02*
X184989412Y-119494819D01*
X184894174Y-120113866D02*
X184608460Y-120494819D01*
X184608460Y-119828152D02*
X184989412Y-120209104D01*
X184179888Y-119828152D02*
X184179888Y-120828152D01*
X184179888Y-119875771D02*
X184084650Y-119828152D01*
X184084650Y-119828152D02*
X183894174Y-119828152D01*
X183894174Y-119828152D02*
X183798936Y-119875771D01*
X183798936Y-119875771D02*
X183751317Y-119923390D01*
X183751317Y-119923390D02*
X183703698Y-120018628D01*
X183703698Y-120018628D02*
X183703698Y-120304342D01*
X183703698Y-120304342D02*
X183751317Y-120399580D01*
X183751317Y-120399580D02*
X183798936Y-120447200D01*
X183798936Y-120447200D02*
X183894174Y-120494819D01*
X183894174Y-120494819D02*
X184084650Y-120494819D01*
X184084650Y-120494819D02*
X184179888Y-120447200D01*
X182846555Y-120494819D02*
X182846555Y-119971009D01*
X182846555Y-119971009D02*
X182894174Y-119875771D01*
X182894174Y-119875771D02*
X182989412Y-119828152D01*
X182989412Y-119828152D02*
X183179888Y-119828152D01*
X183179888Y-119828152D02*
X183275126Y-119875771D01*
X182846555Y-120447200D02*
X182941793Y-120494819D01*
X182941793Y-120494819D02*
X183179888Y-120494819D01*
X183179888Y-120494819D02*
X183275126Y-120447200D01*
X183275126Y-120447200D02*
X183322745Y-120351961D01*
X183322745Y-120351961D02*
X183322745Y-120256723D01*
X183322745Y-120256723D02*
X183275126Y-120161485D01*
X183275126Y-120161485D02*
X183179888Y-120113866D01*
X183179888Y-120113866D02*
X182941793Y-120113866D01*
X182941793Y-120113866D02*
X182846555Y-120066247D01*
X182465602Y-119828152D02*
X181941793Y-119828152D01*
X181941793Y-119828152D02*
X182465602Y-120494819D01*
X182465602Y-120494819D02*
X181941793Y-120494819D01*
X181132269Y-120494819D02*
X181132269Y-119971009D01*
X181132269Y-119971009D02*
X181179888Y-119875771D01*
X181179888Y-119875771D02*
X181275126Y-119828152D01*
X181275126Y-119828152D02*
X181465602Y-119828152D01*
X181465602Y-119828152D02*
X181560840Y-119875771D01*
X181132269Y-120447200D02*
X181227507Y-120494819D01*
X181227507Y-120494819D02*
X181465602Y-120494819D01*
X181465602Y-120494819D02*
X181560840Y-120447200D01*
X181560840Y-120447200D02*
X181608459Y-120351961D01*
X181608459Y-120351961D02*
X181608459Y-120256723D01*
X181608459Y-120256723D02*
X181560840Y-120161485D01*
X181560840Y-120161485D02*
X181465602Y-120113866D01*
X181465602Y-120113866D02*
X181227507Y-120113866D01*
X181227507Y-120113866D02*
X181132269Y-120066247D01*
X180751316Y-119828152D02*
X180560840Y-120494819D01*
X180560840Y-120494819D02*
X180370364Y-120018628D01*
X180370364Y-120018628D02*
X180179888Y-120494819D01*
X180179888Y-120494819D02*
X179989412Y-119828152D01*
X179179888Y-120494819D02*
X179179888Y-119971009D01*
X179179888Y-119971009D02*
X179227507Y-119875771D01*
X179227507Y-119875771D02*
X179322745Y-119828152D01*
X179322745Y-119828152D02*
X179513221Y-119828152D01*
X179513221Y-119828152D02*
X179608459Y-119875771D01*
X179179888Y-120447200D02*
X179275126Y-120494819D01*
X179275126Y-120494819D02*
X179513221Y-120494819D01*
X179513221Y-120494819D02*
X179608459Y-120447200D01*
X179608459Y-120447200D02*
X179656078Y-120351961D01*
X179656078Y-120351961D02*
X179656078Y-120256723D01*
X179656078Y-120256723D02*
X179608459Y-120161485D01*
X179608459Y-120161485D02*
X179513221Y-120113866D01*
X179513221Y-120113866D02*
X179275126Y-120113866D01*
X179275126Y-120113866D02*
X179179888Y-120066247D01*
X178560840Y-120494819D02*
X178656078Y-120447200D01*
X178656078Y-120447200D02*
X178703697Y-120351961D01*
X178703697Y-120351961D02*
X178703697Y-119494819D01*
X177751316Y-120494819D02*
X177751316Y-119971009D01*
X177751316Y-119971009D02*
X177798935Y-119875771D01*
X177798935Y-119875771D02*
X177894173Y-119828152D01*
X177894173Y-119828152D02*
X178084649Y-119828152D01*
X178084649Y-119828152D02*
X178179887Y-119875771D01*
X177751316Y-120447200D02*
X177846554Y-120494819D01*
X177846554Y-120494819D02*
X178084649Y-120494819D01*
X178084649Y-120494819D02*
X178179887Y-120447200D01*
X178179887Y-120447200D02*
X178227506Y-120351961D01*
X178227506Y-120351961D02*
X178227506Y-120256723D01*
X178227506Y-120256723D02*
X178179887Y-120161485D01*
X178179887Y-120161485D02*
X178084649Y-120113866D01*
X178084649Y-120113866D02*
X177846554Y-120113866D01*
X177846554Y-120113866D02*
X177751316Y-120066247D01*
X176560840Y-119447200D02*
X177417982Y-120732914D01*
D14*
%TO.C,G\u002A\u002A\u002A*%
G36*
X179330445Y-115745582D02*
G01*
X179375010Y-115828161D01*
X179414639Y-115899196D01*
X179452120Y-115963577D01*
X179490240Y-116026193D01*
X179531785Y-116091935D01*
X179579543Y-116165692D01*
X179666556Y-116294183D01*
X179785961Y-116452636D01*
X179904247Y-116586724D01*
X180024404Y-116698858D01*
X180149420Y-116791451D01*
X180282283Y-116866916D01*
X180425983Y-116927665D01*
X180583507Y-116976111D01*
X180635557Y-116987318D01*
X180717049Y-116998552D01*
X180802641Y-117004712D01*
X180884182Y-117005526D01*
X180953522Y-117000725D01*
X181002508Y-116990036D01*
X181076057Y-116951425D01*
X181151886Y-116888317D01*
X181211204Y-116812458D01*
X181212439Y-116810395D01*
X181236151Y-116765837D01*
X181252807Y-116720258D01*
X181265109Y-116664283D01*
X181275760Y-116588539D01*
X181279604Y-116554460D01*
X181286212Y-116482183D01*
X181290314Y-116417009D01*
X181291146Y-116369825D01*
X181291062Y-116367000D01*
X181291471Y-116301089D01*
X181298243Y-116259412D01*
X181312809Y-116237606D01*
X181336601Y-116231306D01*
X181358649Y-116233566D01*
X181385948Y-116250281D01*
X181400499Y-116286786D01*
X181404736Y-116347225D01*
X181403299Y-116392258D01*
X181397536Y-116466137D01*
X181388356Y-116548335D01*
X181376823Y-116631368D01*
X181364004Y-116707752D01*
X181350962Y-116770004D01*
X181338765Y-116810640D01*
X181324324Y-116841238D01*
X181269369Y-116925348D01*
X181198925Y-117002060D01*
X181122313Y-117060611D01*
X181111519Y-117067004D01*
X181068285Y-117089817D01*
X181027827Y-117103850D01*
X180979499Y-117111970D01*
X180912655Y-117117041D01*
X180829721Y-117118915D01*
X180698741Y-117109286D01*
X180562752Y-117082948D01*
X180413350Y-117038579D01*
X180301025Y-116997124D01*
X180200325Y-116950712D01*
X180106408Y-116895571D01*
X180007871Y-116825717D01*
X179913849Y-116754552D01*
X179950406Y-116817355D01*
X179958152Y-116830830D01*
X179981503Y-116871953D01*
X180015903Y-116932865D01*
X180059341Y-117009996D01*
X180109808Y-117099776D01*
X180165294Y-117198636D01*
X180223791Y-117303006D01*
X180309585Y-117455885D01*
X180386369Y-117591951D01*
X180451656Y-117706661D01*
X180506717Y-117802175D01*
X180552821Y-117880650D01*
X180591236Y-117944248D01*
X180623232Y-117995126D01*
X180650077Y-118035445D01*
X180673042Y-118067362D01*
X180675440Y-118070613D01*
X180701615Y-118111065D01*
X180735551Y-118169695D01*
X180773126Y-118239149D01*
X180810216Y-118312070D01*
X180833389Y-118359580D01*
X180861574Y-118419691D01*
X180878904Y-118461813D01*
X180886996Y-118490846D01*
X180887469Y-118511688D01*
X180881940Y-118529239D01*
X180880276Y-118532774D01*
X180859211Y-118558055D01*
X180825521Y-118561568D01*
X180822826Y-118561202D01*
X180814039Y-118558838D01*
X180804584Y-118553443D01*
X180793525Y-118543399D01*
X180779925Y-118527085D01*
X180762847Y-118502882D01*
X180741357Y-118469171D01*
X180714517Y-118424332D01*
X180681390Y-118366746D01*
X180641042Y-118294794D01*
X180592536Y-118206855D01*
X180534935Y-118101310D01*
X180467303Y-117976541D01*
X180388704Y-117830926D01*
X180298202Y-117662848D01*
X180194861Y-117470686D01*
X180135722Y-117360807D01*
X180027931Y-117161290D01*
X179933082Y-116986862D01*
X179850866Y-116836986D01*
X179780971Y-116711123D01*
X179723090Y-116608737D01*
X179676911Y-116529290D01*
X179642125Y-116472245D01*
X179618422Y-116437063D01*
X179605492Y-116423207D01*
X179603025Y-116430140D01*
X179610712Y-116457324D01*
X179616163Y-116476237D01*
X179627728Y-116522331D01*
X179642952Y-116586961D01*
X179660492Y-116664402D01*
X179679008Y-116748930D01*
X179688863Y-116794930D01*
X179704457Y-116870616D01*
X179715846Y-116933653D01*
X179723720Y-116991010D01*
X179728769Y-117049656D01*
X179731683Y-117116558D01*
X179733151Y-117198685D01*
X179733865Y-117303006D01*
X179733892Y-117308906D01*
X179733911Y-117419102D01*
X179732634Y-117505811D01*
X179729730Y-117574437D01*
X179724867Y-117630384D01*
X179717716Y-117679054D01*
X179707943Y-117725853D01*
X179683960Y-117821616D01*
X179652390Y-117926765D01*
X179620398Y-118008461D01*
X179586842Y-118069947D01*
X179580666Y-118078730D01*
X179540299Y-118122360D01*
X179490541Y-118161204D01*
X179440353Y-118189080D01*
X179398694Y-118199802D01*
X179383131Y-118206260D01*
X179360675Y-118222550D01*
X179349804Y-118230437D01*
X179305909Y-118268605D01*
X179256540Y-118316580D01*
X179244614Y-118328659D01*
X179149884Y-118416073D01*
X179061888Y-118479679D01*
X178975815Y-118521906D01*
X178886850Y-118545181D01*
X178790184Y-118551934D01*
X178787655Y-118551912D01*
X178711239Y-118546671D01*
X178635234Y-118531506D01*
X178556681Y-118504846D01*
X178472619Y-118465119D01*
X178380088Y-118410753D01*
X178276127Y-118340176D01*
X178157777Y-118251817D01*
X178022076Y-118144103D01*
X178017458Y-118140345D01*
X177946040Y-118079699D01*
X177868121Y-118009474D01*
X177786503Y-117932595D01*
X177703989Y-117851987D01*
X177623382Y-117770574D01*
X177616990Y-117763896D01*
X177766240Y-117763896D01*
X177780554Y-117783642D01*
X177816737Y-117821898D01*
X177874449Y-117878919D01*
X177886881Y-117890929D01*
X177991740Y-117986810D01*
X178104512Y-118081555D01*
X178219717Y-118171055D01*
X178331874Y-118251197D01*
X178435502Y-118317871D01*
X178525119Y-118366965D01*
X178527061Y-118367899D01*
X178637026Y-118413668D01*
X178734053Y-118437369D01*
X178824019Y-118439130D01*
X178912805Y-118419076D01*
X179006290Y-118377335D01*
X179040826Y-118355681D01*
X179081792Y-118325446D01*
X179122833Y-118291934D01*
X179158015Y-118260227D01*
X179181404Y-118235406D01*
X179187066Y-118222550D01*
X179179175Y-118220180D01*
X179147357Y-118214738D01*
X179097294Y-118207863D01*
X179035443Y-118200495D01*
X178970789Y-118191984D01*
X178858263Y-118173173D01*
X178733117Y-118148592D01*
X178604358Y-118120157D01*
X178480990Y-118089782D01*
X178372019Y-118059383D01*
X178335492Y-118047614D01*
X178247095Y-118014707D01*
X178151964Y-117974551D01*
X178058754Y-117931090D01*
X177976121Y-117888269D01*
X177912719Y-117850034D01*
X177857912Y-117813149D01*
X177804579Y-117778906D01*
X177774135Y-117762403D01*
X177766240Y-117763896D01*
X177616990Y-117763896D01*
X177547486Y-117691282D01*
X177479104Y-117617035D01*
X177421038Y-117550759D01*
X177376092Y-117495378D01*
X177347069Y-117453818D01*
X177336772Y-117429003D01*
X177341256Y-117415896D01*
X177359698Y-117391520D01*
X177368057Y-117384976D01*
X177407713Y-117377296D01*
X177464077Y-117391052D01*
X177535594Y-117425538D01*
X177620706Y-117480050D01*
X177717858Y-117553881D01*
X177783346Y-117606727D01*
X177850393Y-117659770D01*
X177904734Y-117700992D01*
X177951718Y-117734300D01*
X177996692Y-117763600D01*
X178045007Y-117792797D01*
X178177995Y-117862140D01*
X178351949Y-117933407D01*
X178541689Y-117993666D01*
X178740596Y-118041118D01*
X178942055Y-118073962D01*
X179139449Y-118090401D01*
X179301771Y-118096818D01*
X179373475Y-118020693D01*
X179444084Y-117942556D01*
X179499827Y-117871937D01*
X179538038Y-117809994D01*
X179561594Y-117752014D01*
X179573372Y-117693288D01*
X179577216Y-117642635D01*
X179580234Y-117566242D01*
X179582214Y-117471916D01*
X179583183Y-117365408D01*
X179583166Y-117252470D01*
X179582192Y-117138855D01*
X179580285Y-117030316D01*
X179577473Y-116932604D01*
X179573781Y-116851472D01*
X179569237Y-116792673D01*
X179555113Y-116706040D01*
X179526736Y-116589969D01*
X179486770Y-116458789D01*
X179436963Y-116317756D01*
X179379062Y-116172131D01*
X179314815Y-116027173D01*
X179263656Y-115917816D01*
X179270659Y-116082204D01*
X179271236Y-116095746D01*
X179271510Y-116227176D01*
X179256844Y-116361552D01*
X179225551Y-116473135D01*
X179177266Y-116562804D01*
X179111624Y-116631437D01*
X179028260Y-116679912D01*
X178974289Y-116692207D01*
X178896147Y-116693956D01*
X178799999Y-116685404D01*
X178690140Y-116667597D01*
X178570869Y-116641585D01*
X178446481Y-116608414D01*
X178321273Y-116569134D01*
X178295728Y-116559829D01*
X178720755Y-116559829D01*
X178720766Y-116563993D01*
X178743833Y-116565890D01*
X178763713Y-116566936D01*
X178813324Y-116570285D01*
X178867771Y-116574600D01*
X178943116Y-116572851D01*
X179010722Y-116549862D01*
X179064252Y-116503475D01*
X179105279Y-116432284D01*
X179135371Y-116334883D01*
X179145316Y-116279335D01*
X179154243Y-116185133D01*
X179156793Y-116082204D01*
X179153286Y-115978048D01*
X179144044Y-115880165D01*
X179129387Y-115796052D01*
X179109636Y-115733209D01*
X179104099Y-115721613D01*
X179098003Y-115713719D01*
X179094104Y-115719376D01*
X179092205Y-115741700D01*
X179092108Y-115783810D01*
X179093615Y-115848822D01*
X179096529Y-115939853D01*
X179097654Y-115975464D01*
X179099530Y-116087486D01*
X179097207Y-116176087D01*
X179089695Y-116245647D01*
X179076006Y-116300550D01*
X179055153Y-116345179D01*
X179026148Y-116383915D01*
X178988000Y-116421140D01*
X178969356Y-116437249D01*
X178903963Y-116486609D01*
X178840094Y-116520557D01*
X178765704Y-116545851D01*
X178745945Y-116551431D01*
X178720755Y-116559829D01*
X178295728Y-116559829D01*
X178199541Y-116524792D01*
X178085582Y-116476437D01*
X177983692Y-116425115D01*
X177945824Y-116402782D01*
X177874554Y-116356453D01*
X177799310Y-116303462D01*
X177731178Y-116251436D01*
X177698633Y-116225867D01*
X177628748Y-116173251D01*
X177546691Y-116113531D01*
X177460142Y-116052268D01*
X177376783Y-115995017D01*
X177345640Y-115973956D01*
X177228471Y-115893020D01*
X177130164Y-115821601D01*
X177045581Y-115755553D01*
X176969583Y-115690733D01*
X176897033Y-115622998D01*
X176822794Y-115548203D01*
X176801923Y-115526311D01*
X176746276Y-115464019D01*
X176711267Y-115416197D01*
X176695392Y-115379790D01*
X176697149Y-115351739D01*
X176715034Y-115328988D01*
X176719038Y-115326295D01*
X176752036Y-115323415D01*
X176801517Y-115338999D01*
X176864216Y-115370999D01*
X176936869Y-115417363D01*
X177016211Y-115476042D01*
X177098978Y-115544986D01*
X177181903Y-115622145D01*
X177279446Y-115714242D01*
X177409917Y-115828624D01*
X177551193Y-115944587D01*
X177698164Y-116058310D01*
X177845720Y-116165969D01*
X177988749Y-116263740D01*
X178122143Y-116347801D01*
X178240790Y-116414328D01*
X178278616Y-116432630D01*
X178313441Y-116444946D01*
X178351974Y-116451858D01*
X178402696Y-116454859D01*
X178474085Y-116455444D01*
X178512768Y-116454966D01*
X178626114Y-116447119D01*
X178714671Y-116429471D01*
X178779039Y-116404512D01*
X178843641Y-116369000D01*
X178900846Y-116328043D01*
X178943887Y-116286494D01*
X178965996Y-116249208D01*
X178970251Y-116220285D01*
X178973313Y-116165670D01*
X178974725Y-116093016D01*
X178974590Y-116008145D01*
X178973014Y-115916880D01*
X178970101Y-115825044D01*
X178965956Y-115738458D01*
X178960685Y-115662944D01*
X178959839Y-115655067D01*
X179075019Y-115655067D01*
X179076764Y-115672371D01*
X179081149Y-115674652D01*
X179086484Y-115662650D01*
X179085432Y-115654931D01*
X179076764Y-115652929D01*
X179075019Y-115655067D01*
X178959839Y-115655067D01*
X178954391Y-115604326D01*
X178948040Y-115564526D01*
X178925215Y-115455447D01*
X178893518Y-115333243D01*
X178855479Y-115207225D01*
X178813630Y-115086703D01*
X178799169Y-115051906D01*
X178763091Y-114977666D01*
X178713612Y-114885427D01*
X178652887Y-114778791D01*
X178583074Y-114661360D01*
X178506327Y-114536734D01*
X178424805Y-114408514D01*
X178340665Y-114280301D01*
X178256061Y-114155697D01*
X178255787Y-114155300D01*
X178226188Y-114107914D01*
X178205091Y-114065497D01*
X178197047Y-114037190D01*
X178205580Y-114003486D01*
X178232504Y-113978421D01*
X178269875Y-113975465D01*
X178276097Y-113977039D01*
X178293095Y-113979075D01*
X178295878Y-113970736D01*
X178283512Y-113947588D01*
X178255061Y-113905196D01*
X178204031Y-113820384D01*
X178152575Y-113706561D01*
X178116322Y-113590638D01*
X178099036Y-113482799D01*
X178098541Y-113474822D01*
X178098094Y-113391286D01*
X178109815Y-113325436D01*
X178136471Y-113268037D01*
X178180828Y-113209855D01*
X178225907Y-113167846D01*
X178280616Y-113136960D01*
X178347657Y-113117826D01*
X178430882Y-113109756D01*
X178534141Y-113112063D01*
X178661287Y-113124058D01*
X178695980Y-113128596D01*
X178775233Y-113141514D01*
X178850466Y-113156747D01*
X178909163Y-113171882D01*
X179017603Y-113212008D01*
X179154201Y-113277160D01*
X179299814Y-113359993D01*
X179449878Y-113457517D01*
X179599829Y-113566745D01*
X179745106Y-113684689D01*
X179881146Y-113808362D01*
X179916274Y-113842569D01*
X179962738Y-113890160D01*
X179996417Y-113930387D01*
X180022805Y-113971065D01*
X180047396Y-114020005D01*
X180075685Y-114085020D01*
X180096850Y-114137576D01*
X180116700Y-114193108D01*
X180128707Y-114234755D01*
X180130821Y-114256157D01*
X180116618Y-114274967D01*
X180090810Y-114277147D01*
X180061358Y-114257586D01*
X180033910Y-114218480D01*
X180026103Y-114204158D01*
X179992697Y-114152540D01*
X179955919Y-114105478D01*
X179946835Y-114094967D01*
X179911777Y-114051950D01*
X179869492Y-113997600D01*
X179827209Y-113941146D01*
X179790153Y-113893375D01*
X179685368Y-113778070D01*
X179560914Y-113662893D01*
X179422861Y-113552835D01*
X179277275Y-113452884D01*
X179130227Y-113368032D01*
X179116444Y-113360931D01*
X179021259Y-113315652D01*
X178933177Y-113282212D01*
X178843146Y-113258121D01*
X178742116Y-113240891D01*
X178621036Y-113228033D01*
X178544668Y-113222587D01*
X178457343Y-113221181D01*
X178390194Y-113228181D01*
X178338383Y-113244700D01*
X178297073Y-113271850D01*
X178261426Y-113310745D01*
X178252993Y-113322039D01*
X178236703Y-113348584D01*
X178228569Y-113376481D01*
X178226779Y-113414958D01*
X178229522Y-113473242D01*
X178232157Y-113503101D01*
X178248908Y-113591755D01*
X178280574Y-113689193D01*
X178328710Y-113799689D01*
X178394873Y-113927518D01*
X178404094Y-113944681D01*
X178429910Y-113994092D01*
X178466100Y-114064413D01*
X178510967Y-114152304D01*
X178562813Y-114254429D01*
X178619943Y-114367449D01*
X178680659Y-114488026D01*
X178743265Y-114612822D01*
X178785734Y-114697548D01*
X178843644Y-114812761D01*
X178896825Y-114918200D01*
X178943896Y-115011144D01*
X178983474Y-115088874D01*
X179014177Y-115148670D01*
X179034623Y-115187811D01*
X179043431Y-115203579D01*
X179048804Y-115212385D01*
X179066609Y-115244573D01*
X179094448Y-115296344D01*
X179130322Y-115363948D01*
X179172232Y-115443634D01*
X179218181Y-115531651D01*
X179278158Y-115646569D01*
X179286650Y-115662650D01*
X179330445Y-115745582D01*
G37*
G36*
X251050237Y-76214652D02*
G01*
X251056203Y-76274849D01*
X251033409Y-76327319D01*
X250955586Y-76383811D01*
X250838693Y-76416452D01*
X250724662Y-76426323D01*
X250642157Y-76413447D01*
X250618781Y-76378279D01*
X250638235Y-76359106D01*
X250720400Y-76314800D01*
X250836981Y-76266086D01*
X250955886Y-76225858D01*
X251045023Y-76207010D01*
X251050237Y-76214652D01*
G37*
G36*
X252621095Y-73909917D02*
G01*
X252668558Y-73931791D01*
X252889106Y-73983034D01*
X253124425Y-73951489D01*
X253214254Y-73937843D01*
X253246925Y-73959937D01*
X253212626Y-74004100D01*
X253113245Y-74053151D01*
X253108043Y-74055000D01*
X253016792Y-74101204D01*
X252979090Y-74146962D01*
X252973989Y-74159856D01*
X252911301Y-74185043D01*
X252799931Y-74193447D01*
X252668726Y-74186107D01*
X252546532Y-74164063D01*
X252462197Y-74128352D01*
X252394535Y-74088304D01*
X252301920Y-74061274D01*
X252261270Y-74050599D01*
X252200251Y-73986374D01*
X252186025Y-73927735D01*
X252209248Y-73886866D01*
X252277126Y-73918369D01*
X252292695Y-73929787D01*
X252387576Y-73982805D01*
X252512978Y-74039360D01*
X252688421Y-74110217D01*
X252554266Y-73999606D01*
X252471973Y-73920697D01*
X252449763Y-73868001D01*
X252501019Y-73862330D01*
X252621095Y-73909917D01*
G37*
G36*
X250273463Y-74396044D02*
G01*
X250379682Y-74430806D01*
X250456261Y-74479282D01*
X250473607Y-74529394D01*
X250465428Y-74541739D01*
X250407788Y-74556258D01*
X250276594Y-74519287D01*
X250134927Y-74521163D01*
X250042755Y-74576515D01*
X250003157Y-74636399D01*
X249993804Y-74691814D01*
X250050253Y-74725099D01*
X250184197Y-74750648D01*
X250245060Y-74761230D01*
X250345416Y-74787345D01*
X250384744Y-74811624D01*
X250370737Y-74865203D01*
X250313448Y-74930729D01*
X250244550Y-74944047D01*
X250184782Y-74945013D01*
X250064515Y-74972616D01*
X249915829Y-75021794D01*
X249802945Y-75064000D01*
X249680292Y-75107384D01*
X249613592Y-75124481D01*
X249585958Y-75118949D01*
X249580499Y-75094449D01*
X249594829Y-75075199D01*
X249671737Y-75028810D01*
X249792911Y-74976773D01*
X249928387Y-74922072D01*
X250031287Y-74868697D01*
X250063278Y-74833046D01*
X250017280Y-74820063D01*
X249957149Y-74804765D01*
X249913773Y-74739228D01*
X249916342Y-74642607D01*
X249958559Y-74537470D01*
X250034127Y-74446388D01*
X250136747Y-74391929D01*
X250167195Y-74387070D01*
X250273463Y-74396044D01*
G37*
G36*
X251451932Y-73383705D02*
G01*
X251543239Y-73422496D01*
X251632816Y-73502305D01*
X251734113Y-73625159D01*
X251787884Y-73762948D01*
X251767049Y-73909338D01*
X251673164Y-74086898D01*
X251595033Y-74207605D01*
X251538972Y-74291568D01*
X251508972Y-74328022D01*
X251492567Y-74331609D01*
X251477290Y-74316972D01*
X251474374Y-74291784D01*
X251496653Y-74203073D01*
X251545072Y-74078652D01*
X251575180Y-74001931D01*
X251609990Y-73869758D01*
X251611471Y-73779851D01*
X251572198Y-73698562D01*
X251453363Y-73572383D01*
X251302751Y-73497027D01*
X251198291Y-73495806D01*
X251037759Y-73542839D01*
X250868009Y-73629535D01*
X250716953Y-73741105D01*
X250612501Y-73862761D01*
X250582891Y-73915743D01*
X250527829Y-74066919D01*
X250543678Y-74190872D01*
X250631379Y-74309868D01*
X250642337Y-74321082D01*
X250713904Y-74409773D01*
X250743175Y-74474784D01*
X250730039Y-74482538D01*
X250671183Y-74446887D01*
X250581071Y-74365800D01*
X250526755Y-74307396D01*
X250437558Y-74160602D01*
X250426558Y-74007695D01*
X250489547Y-73823763D01*
X250572953Y-73689986D01*
X250757015Y-73522968D01*
X250992914Y-73414163D01*
X251264352Y-73373053D01*
X251321433Y-73372791D01*
X251451932Y-73383705D01*
G37*
G36*
X251472507Y-70946697D02*
G01*
X251415378Y-71071357D01*
X251366361Y-71142380D01*
X251353525Y-71187142D01*
X251393445Y-71197880D01*
X251444667Y-71186477D01*
X251532133Y-71130803D01*
X251594538Y-71094831D01*
X251741582Y-71066359D01*
X251937948Y-71062526D01*
X252162923Y-71080586D01*
X252395797Y-71117791D01*
X252615858Y-71171395D01*
X252802396Y-71238652D01*
X252934700Y-71316814D01*
X252949973Y-71330506D01*
X253050456Y-71457964D01*
X253119623Y-71603998D01*
X253157430Y-71704956D01*
X253225383Y-71782268D01*
X253347060Y-71832283D01*
X253411795Y-71854797D01*
X253577401Y-71958863D01*
X253665715Y-72105863D01*
X253674751Y-72293003D01*
X253639430Y-72586260D01*
X253623213Y-72870804D01*
X253628267Y-73113125D01*
X253655029Y-73291010D01*
X253662883Y-73320324D01*
X253684978Y-73437820D01*
X253669802Y-73521433D01*
X253611672Y-73613407D01*
X253560440Y-73684780D01*
X253523380Y-73755732D01*
X253545401Y-73785500D01*
X253628112Y-73791542D01*
X253712498Y-73802321D01*
X253827142Y-73845642D01*
X253866273Y-73866476D01*
X253929575Y-73864817D01*
X254003013Y-73796844D01*
X254016201Y-73782132D01*
X254107049Y-73719055D01*
X254221840Y-73722408D01*
X254257508Y-73728754D01*
X254389981Y-73744677D01*
X254570945Y-73760566D01*
X254772036Y-73773772D01*
X254860812Y-73778633D01*
X255057638Y-73789598D01*
X255222530Y-73799026D01*
X255326801Y-73805288D01*
X255441762Y-73830141D01*
X255571523Y-73892158D01*
X255591971Y-73903338D01*
X255668925Y-73945412D01*
X255764515Y-73970415D01*
X255860355Y-73986308D01*
X255895062Y-74004442D01*
X256017169Y-74068244D01*
X256072210Y-74114389D01*
X256203972Y-74224855D01*
X256220177Y-74239193D01*
X256252650Y-74267926D01*
X256392217Y-74367795D01*
X256520075Y-74432372D01*
X256606192Y-74476319D01*
X256725680Y-74565331D01*
X256839813Y-74672549D01*
X256841970Y-74675150D01*
X256925343Y-74775715D01*
X256959020Y-74852575D01*
X256983828Y-74904189D01*
X257052334Y-74980087D01*
X257128598Y-75061481D01*
X257224011Y-75184698D01*
X257313655Y-75317235D01*
X257380173Y-75433247D01*
X257406203Y-75506892D01*
X257420260Y-75560183D01*
X257471858Y-75649985D01*
X257512343Y-75716301D01*
X257538935Y-75799409D01*
X257539351Y-75806045D01*
X257551813Y-75858164D01*
X257584933Y-75946845D01*
X257643368Y-76083034D01*
X257731777Y-76277676D01*
X257773127Y-76366414D01*
X257854817Y-76541718D01*
X257856895Y-76546414D01*
X257883341Y-76606183D01*
X257951418Y-76779766D01*
X258011288Y-76954836D01*
X258043117Y-77048610D01*
X258090559Y-77160952D01*
X258126934Y-77215729D01*
X258146710Y-77246873D01*
X258142638Y-77328753D01*
X258139223Y-77343188D01*
X258141097Y-77451381D01*
X258170722Y-77582120D01*
X258194211Y-77657068D01*
X258213008Y-77734596D01*
X258227881Y-77828405D01*
X258241112Y-77956745D01*
X258244128Y-77996121D01*
X258254985Y-78137867D01*
X258261359Y-78233560D01*
X258271087Y-78379586D01*
X258271782Y-78390022D01*
X258273169Y-78410697D01*
X258287339Y-78570375D01*
X258287638Y-78572543D01*
X258303814Y-78689708D01*
X258319307Y-78744199D01*
X258321366Y-78784543D01*
X258283909Y-78864647D01*
X258276081Y-78879011D01*
X258242941Y-78984350D01*
X258212157Y-79143533D01*
X258189527Y-79328090D01*
X258186378Y-79360924D01*
X258174264Y-79446834D01*
X258158457Y-79558938D01*
X258119923Y-79738259D01*
X258078124Y-79863563D01*
X258044328Y-79954429D01*
X258025959Y-80029017D01*
X258001769Y-80127242D01*
X257975389Y-80308882D01*
X257955718Y-80462880D01*
X257911383Y-80608916D01*
X257835299Y-80725957D01*
X257821050Y-80743806D01*
X257748478Y-80870913D01*
X257719231Y-80989405D01*
X257701427Y-81084524D01*
X257629794Y-81138301D01*
X257578698Y-81166038D01*
X257540358Y-81255313D01*
X257528261Y-81311459D01*
X257480211Y-81348936D01*
X257420610Y-81371109D01*
X257339125Y-81438372D01*
X257272217Y-81497361D01*
X257204070Y-81527809D01*
X257203885Y-81527809D01*
X257132812Y-81553749D01*
X257038116Y-81615781D01*
X257032129Y-81620422D01*
X256948686Y-81670947D01*
X256899011Y-81676486D01*
X256876312Y-81669531D01*
X256861497Y-81676240D01*
X256812391Y-81698478D01*
X256799451Y-81706026D01*
X256698184Y-81726257D01*
X256517182Y-81734894D01*
X256263511Y-81731512D01*
X256119214Y-81728297D01*
X255959107Y-81731062D01*
X255880588Y-81742087D01*
X255885611Y-81759963D01*
X255976127Y-81783278D01*
X256154090Y-81810619D01*
X256290358Y-81828424D01*
X256583714Y-81867847D01*
X256595563Y-81869552D01*
X256805960Y-81899825D01*
X256969863Y-81926366D01*
X257088189Y-81949483D01*
X257173705Y-81971184D01*
X257245317Y-81984976D01*
X257373312Y-81998276D01*
X257526176Y-82007584D01*
X257681104Y-82012267D01*
X257815293Y-82011691D01*
X257905940Y-82005220D01*
X257930241Y-81992222D01*
X257910218Y-81983573D01*
X257819401Y-81954605D01*
X257673545Y-81912301D01*
X257492197Y-81862451D01*
X257364475Y-81826842D01*
X257252075Y-81791597D01*
X257206515Y-81771377D01*
X257237690Y-81769786D01*
X257265479Y-81772640D01*
X257372557Y-81772154D01*
X257427717Y-81752767D01*
X257429349Y-81750945D01*
X257486588Y-81749273D01*
X257602029Y-81774530D01*
X257752744Y-81821846D01*
X257919565Y-81875042D01*
X258073445Y-81914078D01*
X258177594Y-81929331D01*
X258219591Y-81930751D01*
X258274269Y-81949308D01*
X258296417Y-82008913D01*
X258300569Y-82133727D01*
X258300569Y-82182226D01*
X258300569Y-82225438D01*
X258300569Y-82258208D01*
X258300569Y-82337180D01*
X258021079Y-82301601D01*
X257982496Y-82296771D01*
X257859363Y-82283298D01*
X257742160Y-82275373D01*
X257615048Y-82273348D01*
X257462186Y-82277579D01*
X257267735Y-82288418D01*
X257015856Y-82306220D01*
X256690710Y-82331339D01*
X256689313Y-82331449D01*
X256369698Y-82350745D01*
X256016265Y-82362636D01*
X255669908Y-82366215D01*
X255371520Y-82360575D01*
X255358052Y-82360029D01*
X255086124Y-82348145D01*
X254880046Y-82336197D01*
X254717235Y-82321683D01*
X254575110Y-82302103D01*
X254431087Y-82274954D01*
X254416169Y-82271659D01*
X255357071Y-82271659D01*
X255393879Y-82288020D01*
X255417552Y-82284793D01*
X255423691Y-82258208D01*
X255417137Y-82252856D01*
X255364067Y-82258208D01*
X255357071Y-82271659D01*
X254416169Y-82271659D01*
X254262584Y-82237735D01*
X254147547Y-82216657D01*
X254855751Y-82216657D01*
X254865339Y-82228265D01*
X254946696Y-82232927D01*
X254977036Y-82232495D01*
X255038870Y-82225438D01*
X255024953Y-82212476D01*
X254981854Y-82205522D01*
X254868439Y-82212476D01*
X254855751Y-82216657D01*
X254147547Y-82216657D01*
X254122420Y-82212053D01*
X254035827Y-82217435D01*
X253971915Y-82255815D01*
X253918059Y-82290319D01*
X253800461Y-82333184D01*
X253669386Y-82358666D01*
X253556958Y-82361369D01*
X253495301Y-82335894D01*
X253476235Y-82315596D01*
X253396998Y-82288020D01*
X253393686Y-82287926D01*
X253309021Y-82260673D01*
X253204093Y-82199589D01*
X253194116Y-82193116D01*
X253083440Y-82145655D01*
X252946808Y-82103504D01*
X254116802Y-82103504D01*
X254305600Y-82151044D01*
X254341775Y-82159560D01*
X254494786Y-82185821D01*
X254619931Y-82194193D01*
X254641709Y-82193299D01*
X254691800Y-82186398D01*
X254667397Y-82170060D01*
X254562329Y-82138295D01*
X254531899Y-82129144D01*
X254386053Y-82072379D01*
X254271660Y-82009738D01*
X254202454Y-81955479D01*
X254199287Y-81939920D01*
X254330059Y-81939920D01*
X254391304Y-81976791D01*
X254507802Y-82015668D01*
X254669706Y-82053636D01*
X254867168Y-82087778D01*
X255090340Y-82115177D01*
X255329375Y-82132917D01*
X255479055Y-82140735D01*
X255698822Y-82153813D01*
X255887677Y-82166849D01*
X256016401Y-82177929D01*
X256076200Y-82183255D01*
X256165738Y-82185179D01*
X256190368Y-82175237D01*
X256175786Y-82165635D01*
X256091568Y-82128540D01*
X256020576Y-82102017D01*
X256359685Y-82102017D01*
X256398260Y-82135734D01*
X256424927Y-82150840D01*
X256517140Y-82175237D01*
X256548521Y-82183540D01*
X256710436Y-82193396D01*
X256822445Y-82189441D01*
X256870540Y-82182226D01*
X256845863Y-82169165D01*
X256743216Y-82147594D01*
X256557406Y-82114845D01*
X256459288Y-82098801D01*
X256375910Y-82090246D01*
X256359685Y-82102017D01*
X256020576Y-82102017D01*
X255959649Y-82079254D01*
X255806927Y-82027119D01*
X255660298Y-81981478D01*
X255546661Y-81951671D01*
X255535688Y-81949435D01*
X255395851Y-81928907D01*
X255202747Y-81909165D01*
X254984793Y-81892166D01*
X254770402Y-81879869D01*
X254587991Y-81874230D01*
X254465974Y-81877209D01*
X254412721Y-81883864D01*
X254333915Y-81907972D01*
X254330059Y-81939920D01*
X254199287Y-81939920D01*
X254194423Y-81916024D01*
X254250929Y-81864404D01*
X254280103Y-81846200D01*
X254400562Y-81813820D01*
X255048243Y-81813820D01*
X255048936Y-81829085D01*
X255106936Y-81837307D01*
X255150892Y-81830146D01*
X255135573Y-81812187D01*
X255531760Y-81812187D01*
X255531781Y-81812205D01*
X255578588Y-81830146D01*
X255584383Y-81832367D01*
X255684548Y-81858264D01*
X255724976Y-81866673D01*
X255776868Y-81869552D01*
X255751625Y-81842880D01*
X255743971Y-81838184D01*
X255675971Y-81812742D01*
X255596112Y-81796882D01*
X255537129Y-81795173D01*
X255531760Y-81812187D01*
X255135573Y-81812187D01*
X255133954Y-81810289D01*
X255108094Y-81803145D01*
X255048243Y-81813820D01*
X254400562Y-81813820D01*
X254420297Y-81808515D01*
X254642214Y-81796119D01*
X254784141Y-81791847D01*
X254904132Y-81775168D01*
X254946696Y-81747606D01*
X254986351Y-81722881D01*
X255112887Y-81710472D01*
X255324975Y-81712168D01*
X255389286Y-81713921D01*
X255555640Y-81713712D01*
X255678473Y-81706594D01*
X255734892Y-81693603D01*
X255739782Y-81676240D01*
X255691002Y-81661964D01*
X255600953Y-81627400D01*
X255472383Y-81526553D01*
X255317409Y-81369744D01*
X255146232Y-81167322D01*
X254969055Y-80929634D01*
X254883984Y-80810347D01*
X254782773Y-80674080D01*
X254708353Y-80580716D01*
X254672631Y-80545677D01*
X254668832Y-80546075D01*
X254630173Y-80590105D01*
X254588849Y-80681325D01*
X254558556Y-80783641D01*
X254556008Y-80819034D01*
X254552991Y-80860957D01*
X254532428Y-80909274D01*
X254432435Y-80939187D01*
X254323589Y-80968980D01*
X254228945Y-81028623D01*
X254199601Y-81063210D01*
X254142936Y-81153929D01*
X254118936Y-81228524D01*
X254138385Y-81259499D01*
X254146440Y-81260459D01*
X254192240Y-81304878D01*
X254213104Y-81379634D01*
X254193371Y-81434797D01*
X254191454Y-81436347D01*
X254169054Y-81497413D01*
X254148725Y-81620932D01*
X254134657Y-81782118D01*
X254128389Y-81894935D01*
X254116802Y-82103504D01*
X252946808Y-82103504D01*
X252897097Y-82088168D01*
X252646054Y-82023758D01*
X252341276Y-81955527D01*
X252112893Y-81908205D01*
X251890910Y-81865416D01*
X251731134Y-81840241D01*
X251619689Y-81831030D01*
X251542699Y-81836135D01*
X251486289Y-81853905D01*
X251475623Y-81859028D01*
X251388505Y-81925278D01*
X251378028Y-81990031D01*
X251447488Y-82037672D01*
X251491014Y-82048988D01*
X251623189Y-82076500D01*
X251679453Y-82086788D01*
X251799852Y-82108803D01*
X251994546Y-82141531D01*
X252180813Y-82170315D01*
X252332198Y-82190789D01*
X252422242Y-82198584D01*
X252488780Y-82188057D01*
X252540837Y-82149435D01*
X252551605Y-82135959D01*
X252637099Y-82119318D01*
X252806002Y-82131370D01*
X252942436Y-82151611D01*
X253081017Y-82187291D01*
X253142629Y-82232012D01*
X253134766Y-82289376D01*
X253127418Y-82296721D01*
X253046226Y-82318061D01*
X252892944Y-82325249D01*
X252680530Y-82318920D01*
X252421945Y-82299703D01*
X252130149Y-82268233D01*
X251818101Y-82225141D01*
X251710002Y-82209466D01*
X251540435Y-82188871D01*
X251416602Y-82179081D01*
X251359738Y-82182091D01*
X251353960Y-82187949D01*
X251332992Y-82257868D01*
X251324513Y-82372643D01*
X251324236Y-82400769D01*
X251317413Y-82507945D01*
X251304309Y-82561628D01*
X251289427Y-82569613D01*
X251208294Y-82577642D01*
X251105128Y-82567990D01*
X251027256Y-82543719D01*
X251026803Y-82543432D01*
X250992877Y-82481529D01*
X250976477Y-82374459D01*
X250975583Y-82347874D01*
X250963540Y-82244388D01*
X250929678Y-82209364D01*
X250860229Y-82225113D01*
X250849455Y-82232611D01*
X250812735Y-82258165D01*
X250836945Y-82315602D01*
X250851801Y-82344577D01*
X250814307Y-82373787D01*
X250696582Y-82373682D01*
X250501321Y-82344393D01*
X250231220Y-82286052D01*
X250149956Y-82267020D01*
X249988487Y-82233016D01*
X249886342Y-82221113D01*
X249824042Y-82230132D01*
X249782108Y-82258897D01*
X249770487Y-82271265D01*
X249761253Y-82281094D01*
X249749649Y-82322065D01*
X249816873Y-82349691D01*
X249856807Y-82357693D01*
X249986528Y-82371460D01*
X250139478Y-82377457D01*
X250216577Y-82379009D01*
X250402054Y-82395331D01*
X250521813Y-82427222D01*
X250564301Y-82472109D01*
X250563633Y-82475850D01*
X250515703Y-82501227D01*
X250415228Y-82511612D01*
X250347301Y-82507579D01*
X250198921Y-82493490D01*
X249992963Y-82471251D01*
X249746282Y-82442920D01*
X249475736Y-82410554D01*
X249198179Y-82376209D01*
X248930468Y-82341944D01*
X248689460Y-82309814D01*
X248492009Y-82281877D01*
X248356742Y-82260470D01*
X249072580Y-82260470D01*
X249079304Y-82274469D01*
X249155675Y-82279302D01*
X249169562Y-82279008D01*
X249228958Y-82271265D01*
X249210722Y-82257031D01*
X249165341Y-82249842D01*
X249076567Y-82258688D01*
X249072580Y-82260470D01*
X248356742Y-82260470D01*
X248354973Y-82260190D01*
X248290009Y-82250241D01*
X248216039Y-82250943D01*
X248212277Y-82281041D01*
X248240888Y-82307792D01*
X248327368Y-82332739D01*
X248332814Y-82332765D01*
X248455577Y-82349805D01*
X248529921Y-82389499D01*
X248542683Y-82438803D01*
X248480702Y-82484676D01*
X248460366Y-82488026D01*
X248358093Y-82488722D01*
X248189134Y-82481276D01*
X247968741Y-82466922D01*
X247712166Y-82446895D01*
X247434662Y-82422429D01*
X247151480Y-82394761D01*
X246877872Y-82365125D01*
X246629091Y-82334756D01*
X246476980Y-82315048D01*
X246315771Y-82296748D01*
X246219001Y-82292940D01*
X246172203Y-82305181D01*
X246169433Y-82312505D01*
X246160914Y-82335024D01*
X246170668Y-82384024D01*
X246177800Y-82415052D01*
X246173642Y-82445609D01*
X246139351Y-82461719D01*
X246060171Y-82465225D01*
X245921345Y-82457969D01*
X245708119Y-82441794D01*
X245674395Y-82439305D01*
X245463156Y-82427605D01*
X245189296Y-82417010D01*
X244875046Y-82408168D01*
X244542637Y-82401724D01*
X244214302Y-82398327D01*
X244022464Y-82397331D01*
X243643768Y-82395186D01*
X243341973Y-82392727D01*
X243108353Y-82389342D01*
X242934185Y-82384413D01*
X242810746Y-82377327D01*
X242729313Y-82367470D01*
X242681161Y-82354225D01*
X242657568Y-82336978D01*
X242649809Y-82315115D01*
X242649161Y-82288020D01*
X242655804Y-82244582D01*
X242703459Y-82205534D01*
X242816855Y-82190618D01*
X242858742Y-82188970D01*
X243085569Y-82187003D01*
X243355411Y-82192732D01*
X243630857Y-82205022D01*
X243874495Y-82222735D01*
X244138386Y-82247311D01*
X244134436Y-82169935D01*
X244527330Y-82169935D01*
X244529825Y-82182447D01*
X244593635Y-82227290D01*
X244739742Y-82257956D01*
X244890737Y-82273919D01*
X245088793Y-82290091D01*
X245302589Y-82303975D01*
X245514641Y-82314813D01*
X245707462Y-82321844D01*
X245863567Y-82324309D01*
X245965469Y-82321449D01*
X245995682Y-82312505D01*
X245994684Y-82311628D01*
X245935883Y-82294269D01*
X245807457Y-82271073D01*
X245627559Y-82244965D01*
X245414344Y-82218869D01*
X245195009Y-82193843D01*
X244980221Y-82168539D01*
X244805405Y-82147122D01*
X244695024Y-82132529D01*
X244638611Y-82125734D01*
X244552368Y-82130837D01*
X244527330Y-82169935D01*
X244134436Y-82169935D01*
X244106897Y-81630430D01*
X244104380Y-81582524D01*
X244094347Y-81418432D01*
X244565422Y-81418432D01*
X244567556Y-81644391D01*
X244572410Y-81828345D01*
X244579708Y-81954491D01*
X244589175Y-82007024D01*
X244635896Y-82021281D01*
X244762474Y-82040768D01*
X244956262Y-82062838D01*
X245205586Y-82086302D01*
X245498776Y-82109974D01*
X245824161Y-82132666D01*
X245973003Y-82142907D01*
X246144040Y-82156502D01*
X246265069Y-82168373D01*
X246316453Y-82176761D01*
X246316572Y-82176830D01*
X246368409Y-82186112D01*
X246490950Y-82201081D01*
X246666016Y-82219684D01*
X246875432Y-82239871D01*
X247161174Y-82265549D01*
X247470135Y-82290760D01*
X247705297Y-82305572D01*
X247875262Y-82309830D01*
X247988633Y-82303377D01*
X248054011Y-82286060D01*
X248079999Y-82257723D01*
X248075199Y-82218209D01*
X248073029Y-82216285D01*
X250576412Y-82216285D01*
X250577105Y-82231550D01*
X250635105Y-82239772D01*
X250679061Y-82232611D01*
X250662123Y-82212754D01*
X250636263Y-82205610D01*
X250576412Y-82216285D01*
X248073029Y-82216285D01*
X248033498Y-82181235D01*
X247930757Y-82160095D01*
X247753444Y-82153498D01*
X247635473Y-82151317D01*
X247403104Y-82138918D01*
X247147164Y-82117449D01*
X246883766Y-82089082D01*
X246629025Y-82055989D01*
X246399055Y-82020341D01*
X246264498Y-81994700D01*
X247161718Y-81994700D01*
X247185472Y-82004834D01*
X247277506Y-82008433D01*
X247326277Y-82007273D01*
X247380026Y-81999863D01*
X247355242Y-81988083D01*
X247283757Y-81980656D01*
X247176369Y-81988985D01*
X247161718Y-81994700D01*
X246264498Y-81994700D01*
X246209969Y-81984309D01*
X246077882Y-81950064D01*
X246018907Y-81919778D01*
X246006152Y-81891200D01*
X246022821Y-81860796D01*
X246096660Y-81853765D01*
X246237453Y-81869861D01*
X246454985Y-81908841D01*
X246625729Y-81939879D01*
X246782598Y-81960063D01*
X246884150Y-81958789D01*
X246947875Y-81937057D01*
X246964674Y-81927972D01*
X247097177Y-81895370D01*
X247284368Y-81888326D01*
X247500289Y-81906429D01*
X247718983Y-81949268D01*
X247877071Y-81979943D01*
X248049528Y-81999863D01*
X248090681Y-82004616D01*
X248299476Y-82014733D01*
X248334726Y-82015028D01*
X248616977Y-82028396D01*
X248816024Y-82061350D01*
X248935671Y-82114488D01*
X248940241Y-82117498D01*
X249015938Y-82138808D01*
X249143131Y-82155555D01*
X249293786Y-82166317D01*
X249439869Y-82169674D01*
X249553346Y-82164202D01*
X249606185Y-82148482D01*
X249588158Y-82126793D01*
X249498329Y-82095569D01*
X249330292Y-82054976D01*
X249078851Y-82003586D01*
X249067928Y-81991026D01*
X249086083Y-81934022D01*
X249106957Y-81910839D01*
X249157591Y-81899941D01*
X249249686Y-81919552D01*
X249403578Y-81972114D01*
X249415700Y-81976502D01*
X249546001Y-82018145D01*
X249678427Y-82046721D01*
X249834798Y-82064843D01*
X250036932Y-82075119D01*
X250306645Y-82080162D01*
X250931554Y-82086788D01*
X250917184Y-81729041D01*
X251463860Y-81729041D01*
X251696035Y-81732402D01*
X251819734Y-81740302D01*
X252022769Y-81767371D01*
X252218879Y-81806407D01*
X252364945Y-81840145D01*
X252542753Y-81877206D01*
X252677317Y-81900864D01*
X252688906Y-81902492D01*
X252788928Y-81911715D01*
X252820592Y-81894935D01*
X252801875Y-81843936D01*
X252760655Y-81797636D01*
X252656466Y-81782688D01*
X252568193Y-81770240D01*
X252443860Y-81684551D01*
X252310227Y-81529859D01*
X252176611Y-81315241D01*
X252128937Y-81230100D01*
X252076686Y-81161636D01*
X252010802Y-81122255D01*
X251912380Y-81106158D01*
X251762519Y-81107545D01*
X251542318Y-81120616D01*
X251517327Y-81127000D01*
X251487489Y-81167855D01*
X251472082Y-81261908D01*
X251466657Y-81427193D01*
X251463860Y-81729041D01*
X250917184Y-81729041D01*
X250914068Y-81651467D01*
X250908012Y-81536571D01*
X250892755Y-81362874D01*
X250873637Y-81235311D01*
X250853417Y-81175527D01*
X250831695Y-81167393D01*
X250729375Y-81152923D01*
X250556508Y-81139221D01*
X250325312Y-81126559D01*
X250047999Y-81115208D01*
X249736788Y-81105438D01*
X249403893Y-81097522D01*
X249061531Y-81091730D01*
X248721917Y-81088333D01*
X248397266Y-81087602D01*
X248099794Y-81089809D01*
X247841718Y-81095223D01*
X247635253Y-81104117D01*
X247504379Y-81111452D01*
X247127390Y-81125208D01*
X246792840Y-81126274D01*
X246512301Y-81115019D01*
X246297346Y-81091812D01*
X246159549Y-81057024D01*
X246113834Y-81036823D01*
X246010222Y-80984051D01*
X245958316Y-80946628D01*
X245944367Y-80932463D01*
X245869173Y-80878703D01*
X245757084Y-80810781D01*
X245658272Y-80763018D01*
X245536417Y-80728143D01*
X245376698Y-80707539D01*
X245153387Y-80696329D01*
X245143280Y-80696018D01*
X244910007Y-80690548D01*
X244751103Y-80694660D01*
X244652118Y-80713789D01*
X244598598Y-80753366D01*
X244576094Y-80818826D01*
X244570152Y-80915602D01*
X244566283Y-81166273D01*
X244565422Y-81418432D01*
X244094347Y-81418432D01*
X244089837Y-81344663D01*
X244073612Y-81130665D01*
X244057510Y-80962362D01*
X244043337Y-80861587D01*
X244011265Y-80709625D01*
X243654421Y-80697918D01*
X243654014Y-80697905D01*
X243324397Y-80664632D01*
X243045056Y-80591261D01*
X242977054Y-80563476D01*
X242808424Y-80474212D01*
X242674975Y-80375070D01*
X242592961Y-80279633D01*
X242578634Y-80201484D01*
X242580226Y-80192160D01*
X253486825Y-80192160D01*
X253492467Y-80320866D01*
X253520993Y-80490001D01*
X253570059Y-80678161D01*
X253600331Y-80753165D01*
X253680307Y-80899507D01*
X253779346Y-81045182D01*
X253889578Y-81179114D01*
X253965787Y-81246543D01*
X253999470Y-81236974D01*
X253989827Y-81150009D01*
X253987789Y-81141312D01*
X253994747Y-81036452D01*
X254073089Y-80929777D01*
X254183831Y-80819034D01*
X254003257Y-80424390D01*
X253905856Y-80211640D01*
X253827268Y-80043819D01*
X253770745Y-79933826D01*
X253728056Y-79869480D01*
X253690974Y-79838600D01*
X253651269Y-79829005D01*
X253600711Y-79828513D01*
X253523357Y-79833985D01*
X253495922Y-79869434D01*
X253515537Y-79962065D01*
X253531848Y-80060072D01*
X253509260Y-80123168D01*
X253506412Y-80125282D01*
X253486825Y-80192160D01*
X242580226Y-80192160D01*
X242583567Y-80172591D01*
X242591457Y-80063204D01*
X242598579Y-79891158D01*
X242604307Y-79673065D01*
X242608009Y-79425542D01*
X242609779Y-79259279D01*
X242613692Y-79036075D01*
X242620287Y-78880421D01*
X242631405Y-78778477D01*
X242648887Y-78716401D01*
X242674575Y-78680354D01*
X242710309Y-78656493D01*
X242712101Y-78655562D01*
X242805709Y-78633863D01*
X242985129Y-78618493D01*
X243247071Y-78609634D01*
X243588246Y-78607470D01*
X243739672Y-78607816D01*
X244007705Y-78608064D01*
X244341827Y-78608086D01*
X244728779Y-78607894D01*
X245155299Y-78607497D01*
X245608126Y-78606905D01*
X246073998Y-78606130D01*
X246539654Y-78605181D01*
X246965036Y-78604294D01*
X247540525Y-78603401D01*
X248036836Y-78603130D01*
X248460150Y-78603569D01*
X248816651Y-78604804D01*
X249112521Y-78606921D01*
X249353943Y-78610009D01*
X249547101Y-78614152D01*
X249698178Y-78619438D01*
X249813355Y-78625953D01*
X249898816Y-78633784D01*
X249960745Y-78643018D01*
X250005323Y-78653741D01*
X250057777Y-78671169D01*
X250105093Y-78701822D01*
X250131334Y-78759297D01*
X250144489Y-78864450D01*
X250152544Y-79038138D01*
X250165610Y-79381910D01*
X250353776Y-79375193D01*
X250372193Y-79374684D01*
X250593674Y-79389189D01*
X250809349Y-79436086D01*
X250998310Y-79507622D01*
X251139655Y-79596047D01*
X251212479Y-79693608D01*
X251219226Y-79711892D01*
X251257866Y-79757149D01*
X251337805Y-79778461D01*
X251482933Y-79783795D01*
X251724764Y-79783795D01*
X251683161Y-79681021D01*
X253781630Y-79681021D01*
X253894114Y-79877743D01*
X253924692Y-79934209D01*
X254011182Y-80118357D01*
X254081047Y-80298055D01*
X254108665Y-80375832D01*
X254168322Y-80520574D01*
X254220851Y-80622263D01*
X254245706Y-80654535D01*
X254317990Y-80710207D01*
X254382296Y-80723233D01*
X254410076Y-80684259D01*
X254410824Y-80679064D01*
X254447637Y-80617976D01*
X254522788Y-80532927D01*
X254635500Y-80420215D01*
X254433351Y-80014034D01*
X254375185Y-79895333D01*
X254346307Y-79833906D01*
X257366547Y-79833906D01*
X257379425Y-79849296D01*
X257439741Y-79874625D01*
X257500679Y-79916066D01*
X257540358Y-80008502D01*
X257541881Y-80037408D01*
X257559457Y-80157661D01*
X257590385Y-80300612D01*
X257607134Y-80361039D01*
X257628928Y-80420215D01*
X257643637Y-80460150D01*
X257672643Y-80499288D01*
X257721958Y-80459177D01*
X257765730Y-80352219D01*
X257796833Y-80201226D01*
X257808667Y-80029017D01*
X257808667Y-79786546D01*
X257596256Y-79805412D01*
X257532565Y-79811068D01*
X257413472Y-79822986D01*
X257366547Y-79833906D01*
X254346307Y-79833906D01*
X254300939Y-79737402D01*
X254250073Y-79620863D01*
X254231203Y-79564863D01*
X254230705Y-79558097D01*
X254190381Y-79484571D01*
X254113083Y-79413378D01*
X254037956Y-79381636D01*
X254024866Y-79384930D01*
X253959861Y-79436760D01*
X253883441Y-79531481D01*
X253781630Y-79681021D01*
X251683161Y-79681021D01*
X251674984Y-79660820D01*
X251643244Y-79555696D01*
X251639392Y-79522838D01*
X253479309Y-79522838D01*
X253492929Y-79596209D01*
X253532374Y-79669875D01*
X253579285Y-79676080D01*
X253617961Y-79605467D01*
X253641035Y-79551860D01*
X253682711Y-79525381D01*
X253691918Y-79525487D01*
X253753864Y-79488468D01*
X253835581Y-79407902D01*
X253893515Y-79333900D01*
X253922051Y-79255910D01*
X253899500Y-79173512D01*
X253898342Y-79171033D01*
X253839705Y-79093503D01*
X253776973Y-79104423D01*
X253708183Y-79204106D01*
X253652898Y-79279310D01*
X253559987Y-79345526D01*
X253534444Y-79356628D01*
X253483559Y-79413500D01*
X253479309Y-79522838D01*
X251639392Y-79522838D01*
X251630245Y-79444804D01*
X251597097Y-79350452D01*
X251502258Y-79253412D01*
X251486303Y-79240972D01*
X251403124Y-79150139D01*
X251369231Y-79065560D01*
X251367078Y-79028174D01*
X251343529Y-78981741D01*
X251275896Y-78949370D01*
X251142126Y-78916595D01*
X251056155Y-78874599D01*
X250973277Y-78774064D01*
X250946075Y-78673653D01*
X250947014Y-78525878D01*
X250983679Y-78392259D01*
X251050118Y-78308821D01*
X251072522Y-78295111D01*
X251089335Y-78271145D01*
X251023812Y-78264732D01*
X251020014Y-78264637D01*
X250916853Y-78222732D01*
X250846354Y-78122473D01*
X250819433Y-78019481D01*
X250958770Y-78019481D01*
X250985142Y-78122773D01*
X251033322Y-78160549D01*
X251129952Y-78169936D01*
X251217356Y-78129050D01*
X251258805Y-78110887D01*
X251349275Y-78150674D01*
X251398293Y-78189878D01*
X251408731Y-78220018D01*
X251346012Y-78242795D01*
X251345092Y-78243061D01*
X251257626Y-78300844D01*
X251163024Y-78406830D01*
X251087233Y-78526697D01*
X251056203Y-78626122D01*
X251058350Y-78656294D01*
X251107315Y-78750539D01*
X251204023Y-78791920D01*
X251325976Y-78776258D01*
X251450674Y-78699376D01*
X251560240Y-78598760D01*
X251529730Y-78837619D01*
X251527051Y-78859652D01*
X251520568Y-79039349D01*
X251551497Y-79139468D01*
X251601488Y-79176358D01*
X251705359Y-79202457D01*
X251733998Y-79201238D01*
X251775074Y-79184617D01*
X251800201Y-79133771D01*
X251815924Y-79030322D01*
X251821979Y-78948229D01*
X253308706Y-78948229D01*
X253316536Y-79013523D01*
X253339263Y-79035078D01*
X253369044Y-78990045D01*
X253381260Y-78968781D01*
X253450137Y-78934147D01*
X253485494Y-78943232D01*
X253549748Y-79002912D01*
X253568816Y-79031675D01*
X253607296Y-79039438D01*
X253671090Y-78980118D01*
X253698586Y-78947726D01*
X253715456Y-78907215D01*
X256847224Y-78907215D01*
X256963070Y-79136440D01*
X257009667Y-79224563D01*
X257027876Y-79255910D01*
X257102026Y-79383563D01*
X257183892Y-79507653D01*
X257205003Y-79535137D01*
X257279706Y-79616786D01*
X257330651Y-79649640D01*
X257344604Y-79636641D01*
X257317239Y-79583132D01*
X257291421Y-79537783D01*
X257288876Y-79499183D01*
X257722957Y-79499183D01*
X257742893Y-79510373D01*
X257823574Y-79515485D01*
X257903791Y-79502148D01*
X257942822Y-79446834D01*
X257941670Y-79426063D01*
X257916951Y-79400813D01*
X257842206Y-79430532D01*
X257772812Y-79468209D01*
X257722957Y-79499183D01*
X257288876Y-79499183D01*
X257285923Y-79454390D01*
X257296915Y-79441733D01*
X257373580Y-79397554D01*
X257500390Y-79342165D01*
X257651828Y-79284868D01*
X257802374Y-79234966D01*
X257926511Y-79201760D01*
X257998720Y-79194553D01*
X258006113Y-79191953D01*
X258024781Y-79135074D01*
X258032259Y-79026223D01*
X258033076Y-78992200D01*
X258048394Y-78880984D01*
X258076977Y-78822351D01*
X258101959Y-78779227D01*
X258118124Y-78683606D01*
X258119493Y-78572543D01*
X258106008Y-78480577D01*
X258077612Y-78442246D01*
X258060559Y-78449119D01*
X257998095Y-78508834D01*
X257921698Y-78609939D01*
X257791188Y-78765398D01*
X257646348Y-78873237D01*
X257596512Y-78910342D01*
X257564429Y-78923456D01*
X257382258Y-78997917D01*
X257168260Y-79020570D01*
X256974353Y-78970747D01*
X256847224Y-78907215D01*
X253715456Y-78907215D01*
X253715491Y-78907130D01*
X257060567Y-78907130D01*
X257061260Y-78922395D01*
X257119260Y-78930617D01*
X257163216Y-78923456D01*
X257146278Y-78903599D01*
X257120418Y-78896455D01*
X257060567Y-78907130D01*
X253715491Y-78907130D01*
X253729605Y-78873237D01*
X253697820Y-78783682D01*
X253691809Y-78773276D01*
X253606628Y-78704729D01*
X253497862Y-78700206D01*
X253394202Y-78753858D01*
X253324342Y-78859834D01*
X253323617Y-78862039D01*
X253308706Y-78948229D01*
X251821979Y-78948229D01*
X251828790Y-78855890D01*
X251830378Y-78831684D01*
X251845762Y-78652738D01*
X251864503Y-78502317D01*
X251882903Y-78410832D01*
X251885544Y-78402721D01*
X251898097Y-78343768D01*
X251866935Y-78334211D01*
X251772457Y-78366114D01*
X251679676Y-78394753D01*
X251610940Y-78382185D01*
X251541495Y-78310968D01*
X251490124Y-78224106D01*
X251469414Y-78067043D01*
X251577036Y-78067043D01*
X251590959Y-78189482D01*
X251640041Y-78247759D01*
X251749190Y-78275794D01*
X251888597Y-78252984D01*
X252034404Y-78179849D01*
X252180097Y-78092313D01*
X252366589Y-78033979D01*
X252544831Y-78052540D01*
X252728182Y-78150227D01*
X252930001Y-78329267D01*
X252944283Y-78343768D01*
X252955347Y-78355002D01*
X253071127Y-78467490D01*
X253160717Y-78546545D01*
X253206477Y-78576401D01*
X253232496Y-78559146D01*
X253269759Y-78486964D01*
X253284468Y-78456075D01*
X253340600Y-78406728D01*
X253399193Y-78398883D01*
X253426273Y-78442246D01*
X253424974Y-78452934D01*
X253381555Y-78486964D01*
X253370866Y-78488263D01*
X253336836Y-78531682D01*
X253340489Y-78543159D01*
X253396834Y-78568106D01*
X253493391Y-78570024D01*
X253593967Y-78546784D01*
X253598964Y-78544158D01*
X253635074Y-78480673D01*
X253649360Y-78375168D01*
X253739301Y-78375168D01*
X253761660Y-78397527D01*
X253784020Y-78375168D01*
X253761660Y-78352809D01*
X253739301Y-78375168D01*
X253649360Y-78375168D01*
X253649865Y-78371442D01*
X253650111Y-78354163D01*
X253662672Y-78257917D01*
X253688382Y-78218654D01*
X253708595Y-78189568D01*
X253705388Y-78106127D01*
X253678310Y-78032999D01*
X253633332Y-77999630D01*
X253486481Y-77996699D01*
X253349432Y-77939787D01*
X253197603Y-77816491D01*
X253105473Y-77734733D01*
X253012989Y-77677101D01*
X252956034Y-77682613D01*
X252926838Y-77696507D01*
X252821283Y-77714783D01*
X252681565Y-77717706D01*
X252554337Y-77718754D01*
X252427397Y-77750387D01*
X252301774Y-77829516D01*
X252185310Y-77904660D01*
X252068152Y-77938069D01*
X251907904Y-77940713D01*
X251781267Y-77943695D01*
X251641432Y-77984361D01*
X251577036Y-78067043D01*
X251469414Y-78067043D01*
X251466670Y-78046230D01*
X251462063Y-77928028D01*
X251415523Y-77868885D01*
X251352890Y-77835432D01*
X251262222Y-77764698D01*
X251193902Y-77711031D01*
X251098040Y-77687548D01*
X251014057Y-77746012D01*
X250998675Y-77769558D01*
X250964575Y-77884892D01*
X250958770Y-78019481D01*
X250819433Y-78019481D01*
X250811492Y-77989100D01*
X250815242Y-77847851D01*
X250860579Y-77723966D01*
X250950480Y-77642685D01*
X251056067Y-77604202D01*
X251182902Y-77605016D01*
X251317609Y-77675566D01*
X251359628Y-77699662D01*
X251529497Y-77752694D01*
X251773311Y-77785983D01*
X251932628Y-77796310D01*
X252066462Y-77793690D01*
X252164394Y-77771248D01*
X252255114Y-77725374D01*
X252274901Y-77713695D01*
X252386017Y-77659394D01*
X252465910Y-77637316D01*
X252498679Y-77627769D01*
X252531907Y-77565454D01*
X252520140Y-77523646D01*
X252458528Y-77521750D01*
X252424066Y-77528439D01*
X252317724Y-77500563D01*
X252215426Y-77424133D01*
X252150778Y-77321065D01*
X252114951Y-77245557D01*
X252037950Y-77143359D01*
X252023735Y-77127365D01*
X251958198Y-77017506D01*
X251906891Y-76880968D01*
X251900259Y-76846479D01*
X252018915Y-76846479D01*
X252060225Y-76962691D01*
X252119401Y-77044498D01*
X252140813Y-77059704D01*
X252201680Y-77069676D01*
X252273475Y-77010959D01*
X252335159Y-76950822D01*
X252377987Y-76921823D01*
X252380447Y-76922426D01*
X252384856Y-76965954D01*
X252367358Y-77053115D01*
X252337020Y-77148366D01*
X252302907Y-77216161D01*
X252292596Y-77263609D01*
X252331462Y-77350316D01*
X252378816Y-77404057D01*
X252419856Y-77402690D01*
X252483207Y-77335467D01*
X252526566Y-77290118D01*
X252602278Y-77240744D01*
X252647669Y-77249563D01*
X252645577Y-77318381D01*
X252638100Y-77394881D01*
X252660601Y-77505883D01*
X252706924Y-77598537D01*
X252763891Y-77637316D01*
X252770567Y-77636577D01*
X252838776Y-77596579D01*
X252921370Y-77514341D01*
X252922843Y-77512568D01*
X252992599Y-77436351D01*
X253033773Y-77424540D01*
X253070750Y-77469879D01*
X253130502Y-77553304D01*
X253216227Y-77654276D01*
X253230730Y-77669202D01*
X253344815Y-77765927D01*
X253476282Y-77855260D01*
X253638087Y-77950359D01*
X253662447Y-77768740D01*
X253695513Y-77637773D01*
X255886983Y-77637773D01*
X255887251Y-77640123D01*
X255919024Y-77690451D01*
X255987805Y-77771928D01*
X256018963Y-77807107D01*
X256119864Y-77929238D01*
X256222577Y-78062140D01*
X256263436Y-78115034D01*
X256327605Y-78189568D01*
X256368402Y-78236954D01*
X256457421Y-78323682D01*
X256500068Y-78366379D01*
X256506620Y-78375168D01*
X256587976Y-78484284D01*
X256670586Y-78625530D01*
X256716946Y-78715055D01*
X256768019Y-78807753D01*
X256792079Y-78843009D01*
X256796182Y-78842099D01*
X256845139Y-78800705D01*
X256876880Y-78734374D01*
X256869138Y-78687921D01*
X256843392Y-78669128D01*
X256838257Y-78654766D01*
X257446552Y-78654766D01*
X257484617Y-78665837D01*
X257532203Y-78652861D01*
X257629800Y-78597447D01*
X257734939Y-78518623D01*
X257819005Y-78438599D01*
X257853386Y-78379586D01*
X257851629Y-78366761D01*
X257816661Y-78357083D01*
X257731699Y-78403631D01*
X257589962Y-78509757D01*
X257555389Y-78537554D01*
X257467995Y-78615188D01*
X257446552Y-78654766D01*
X256838257Y-78654766D01*
X256826429Y-78621683D01*
X256887636Y-78588739D01*
X257018817Y-78576401D01*
X257064998Y-78575166D01*
X257186586Y-78553756D01*
X257312645Y-78496079D01*
X257473544Y-78389664D01*
X257619594Y-78292546D01*
X257698432Y-78247011D01*
X258040169Y-78247011D01*
X258076977Y-78263372D01*
X258100651Y-78260145D01*
X258106790Y-78233560D01*
X258100235Y-78228208D01*
X258047165Y-78233560D01*
X258040169Y-78247011D01*
X257698432Y-78247011D01*
X257774855Y-78202871D01*
X257894468Y-78147844D01*
X257981122Y-78114697D01*
X258031304Y-78072115D01*
X258048072Y-77996121D01*
X258046095Y-77858750D01*
X258039850Y-77771464D01*
X258018774Y-77646558D01*
X257990197Y-77577367D01*
X257958416Y-77555897D01*
X257942517Y-77594834D01*
X257940490Y-77610104D01*
X257905263Y-77659675D01*
X257883466Y-77690349D01*
X257761915Y-77776616D01*
X257663782Y-77824111D01*
X257594549Y-77857618D01*
X257400084Y-77922065D01*
X257297526Y-77951194D01*
X257133391Y-78006603D01*
X257011019Y-78058375D01*
X256977206Y-78074370D01*
X256803223Y-78120970D01*
X256622875Y-78123099D01*
X256459157Y-78085409D01*
X256335063Y-78012552D01*
X256273590Y-77909180D01*
X256271893Y-77893845D01*
X256703827Y-77893845D01*
X256742933Y-77900410D01*
X256824865Y-77860908D01*
X256833863Y-77855025D01*
X256866370Y-77824111D01*
X256816324Y-77816874D01*
X256776887Y-77821998D01*
X256713069Y-77860908D01*
X256703827Y-77893845D01*
X256271893Y-77893845D01*
X256262493Y-77808873D01*
X256286686Y-77775156D01*
X256352862Y-77814148D01*
X256383709Y-77834776D01*
X256447100Y-77835255D01*
X256538847Y-77775802D01*
X256547455Y-77769315D01*
X256661442Y-77713535D01*
X256793348Y-77684747D01*
X256910316Y-77686837D01*
X256979486Y-77723690D01*
X257020303Y-77724679D01*
X257114574Y-77684478D01*
X257156358Y-77659675D01*
X257540358Y-77659675D01*
X257562717Y-77682034D01*
X257585076Y-77659675D01*
X257562717Y-77637316D01*
X257540358Y-77659675D01*
X257156358Y-77659675D01*
X257239256Y-77610466D01*
X257343757Y-77547605D01*
X257534342Y-77452857D01*
X257708051Y-77386764D01*
X257831932Y-77345243D01*
X257912276Y-77293379D01*
X257933530Y-77218953D01*
X257899934Y-77103993D01*
X257815729Y-76930527D01*
X257765279Y-76834391D01*
X257716087Y-76761014D01*
X257669434Y-76743084D01*
X257611945Y-76785113D01*
X257530244Y-76891614D01*
X257501699Y-76933607D01*
X257449276Y-77010727D01*
X257410957Y-77067099D01*
X257326338Y-77182513D01*
X257201563Y-77304254D01*
X257057457Y-77375761D01*
X256871499Y-77406721D01*
X256621168Y-77406822D01*
X256555013Y-77404274D01*
X256384577Y-77402635D01*
X256265930Y-77415235D01*
X256170432Y-77447077D01*
X256069441Y-77503161D01*
X256010659Y-77540613D01*
X255922293Y-77603060D01*
X255886983Y-77637773D01*
X253695513Y-77637773D01*
X253711906Y-77572843D01*
X253837142Y-77366719D01*
X254034551Y-77206773D01*
X254306668Y-77091090D01*
X254656027Y-77017754D01*
X254763935Y-77002117D01*
X254831834Y-76984590D01*
X254832780Y-76960906D01*
X254779002Y-76921491D01*
X254746660Y-76898740D01*
X254687598Y-76840019D01*
X254689798Y-76808641D01*
X254756643Y-76819966D01*
X254780967Y-76822577D01*
X254768504Y-76778235D01*
X254690334Y-76673228D01*
X254614795Y-76580959D01*
X254730762Y-76580959D01*
X254734738Y-76601715D01*
X254799742Y-76682221D01*
X254901710Y-76774627D01*
X254906311Y-76777935D01*
X254998375Y-76867159D01*
X255068122Y-76960906D01*
X255084515Y-76982940D01*
X255103075Y-77011731D01*
X255150879Y-77066214D01*
X255170120Y-77054450D01*
X255168717Y-77045801D01*
X255126547Y-76973753D01*
X255037530Y-76865662D01*
X254917709Y-76741422D01*
X254872918Y-76698701D01*
X254780133Y-76615816D01*
X254730762Y-76580959D01*
X254614795Y-76580959D01*
X254587068Y-76547091D01*
X254495618Y-76439589D01*
X254433781Y-76381790D01*
X254385485Y-76363564D01*
X254334658Y-76374784D01*
X254265231Y-76405321D01*
X254195529Y-76433940D01*
X254033727Y-76487808D01*
X253894189Y-76518864D01*
X253806379Y-76519760D01*
X253790743Y-76515865D01*
X253685385Y-76502328D01*
X253519962Y-76490393D01*
X253317409Y-76481454D01*
X253100662Y-76476904D01*
X253071478Y-76476529D01*
X252928828Y-76467505D01*
X252851017Y-76442770D01*
X252817118Y-76396384D01*
X252807258Y-76366689D01*
X252713734Y-76171783D01*
X252588978Y-76047372D01*
X252511449Y-76005590D01*
X252443708Y-76009208D01*
X252346437Y-76063074D01*
X252210903Y-76148888D01*
X252343494Y-76255867D01*
X252425603Y-76331780D01*
X252506871Y-76433533D01*
X252553690Y-76523700D01*
X252561418Y-76587169D01*
X252525416Y-76608827D01*
X252441043Y-76573564D01*
X252354110Y-76534685D01*
X252213658Y-76530170D01*
X252097121Y-76589588D01*
X252025279Y-76699503D01*
X252018915Y-76846479D01*
X251900259Y-76846479D01*
X251886473Y-76774779D01*
X251904602Y-76633344D01*
X251995941Y-76532052D01*
X252167851Y-76458996D01*
X252362774Y-76401872D01*
X252246108Y-76325430D01*
X252158257Y-76236900D01*
X252136431Y-76132141D01*
X252183321Y-76035852D01*
X252289927Y-75965368D01*
X252447248Y-75938021D01*
X252551006Y-75947687D01*
X252657593Y-75995947D01*
X252775705Y-76101395D01*
X252832430Y-76161911D01*
X252905702Y-76248841D01*
X252934372Y-76296500D01*
X252942628Y-76303115D01*
X253016697Y-76317266D01*
X253151120Y-76328437D01*
X253325657Y-76334656D01*
X253396163Y-76335944D01*
X253572998Y-76340357D01*
X253710660Y-76345462D01*
X253784020Y-76350394D01*
X253880937Y-76348097D01*
X254053150Y-76298082D01*
X254226257Y-76205897D01*
X254365892Y-76087095D01*
X254394943Y-76053603D01*
X254401732Y-76044693D01*
X254633667Y-76044693D01*
X254633801Y-76055843D01*
X254644177Y-76128834D01*
X254678327Y-76205725D01*
X254746405Y-76301060D01*
X254858563Y-76429383D01*
X255024953Y-76605238D01*
X255080210Y-76663078D01*
X255291776Y-76895149D01*
X255422776Y-77054450D01*
X255451077Y-77088866D01*
X255552935Y-77237571D01*
X255592173Y-77334606D01*
X255616750Y-77371741D01*
X255688735Y-77432860D01*
X255739513Y-77462400D01*
X255791486Y-77461881D01*
X255857910Y-77414689D01*
X255961277Y-77310746D01*
X256006408Y-77262256D01*
X256030030Y-77234851D01*
X256355322Y-77234851D01*
X256357646Y-77251342D01*
X256425206Y-77271764D01*
X256565095Y-77278587D01*
X256690580Y-77269847D01*
X256906403Y-77220927D01*
X257095224Y-77138946D01*
X257226125Y-77035284D01*
X257241589Y-77010727D01*
X257211541Y-77015779D01*
X257119268Y-77072916D01*
X257098281Y-77086879D01*
X256977163Y-77150959D01*
X256845675Y-77182019D01*
X256664749Y-77190133D01*
X256529629Y-77195367D01*
X256411308Y-77211544D01*
X256355322Y-77234851D01*
X256030030Y-77234851D01*
X256126594Y-77122822D01*
X256175501Y-77059869D01*
X256442354Y-77059869D01*
X256461304Y-77087471D01*
X256542736Y-77096663D01*
X256637043Y-77088228D01*
X256788897Y-77056484D01*
X256915471Y-77010817D01*
X256984777Y-76961042D01*
X256988845Y-76933607D01*
X256931081Y-76936125D01*
X256910445Y-76941504D01*
X256797245Y-76965293D01*
X256657405Y-76989525D01*
X256609843Y-76998062D01*
X256498714Y-77028318D01*
X256442354Y-77059869D01*
X256175501Y-77059869D01*
X256231163Y-76988221D01*
X256304993Y-76878649D01*
X256332963Y-76814304D01*
X256324798Y-76801777D01*
X256263925Y-76787668D01*
X256227753Y-76798992D01*
X256208028Y-76864304D01*
X256209960Y-76879429D01*
X256186768Y-76943094D01*
X256108926Y-76948789D01*
X255986449Y-76898381D01*
X255829351Y-76793737D01*
X255712987Y-76702018D01*
X255597980Y-76605931D01*
X255528034Y-76540857D01*
X255481571Y-76490626D01*
X255463611Y-76472689D01*
X255572752Y-76472689D01*
X255591425Y-76509221D01*
X255662189Y-76564077D01*
X255719194Y-76586379D01*
X255751625Y-76576408D01*
X255731903Y-76541895D01*
X255662189Y-76485019D01*
X255603690Y-76459037D01*
X255572752Y-76472689D01*
X255463611Y-76472689D01*
X255270034Y-76279355D01*
X255101871Y-76143957D01*
X254977918Y-76085128D01*
X254950672Y-76074840D01*
X255456899Y-76074840D01*
X255464681Y-76103771D01*
X255528034Y-76163879D01*
X255607876Y-76224817D01*
X255693892Y-76281363D01*
X255739150Y-76300422D01*
X255732349Y-76278074D01*
X255662189Y-76210401D01*
X255614233Y-76170496D01*
X255519052Y-76101688D01*
X255460956Y-76074373D01*
X255456899Y-76074840D01*
X254950672Y-76074840D01*
X254895090Y-76053852D01*
X254874509Y-76002288D01*
X254877762Y-75991113D01*
X254856702Y-75918320D01*
X254786411Y-75867001D01*
X254701314Y-75864537D01*
X254653434Y-75919943D01*
X254633667Y-76044693D01*
X254401732Y-76044693D01*
X254460890Y-75967054D01*
X254472539Y-75917414D01*
X254437054Y-75884264D01*
X254416479Y-75871238D01*
X254370561Y-75801046D01*
X254374408Y-75786846D01*
X254474952Y-75786846D01*
X254510266Y-75799272D01*
X254580006Y-75750204D01*
X254605747Y-75720222D01*
X254616402Y-75698068D01*
X254865169Y-75698068D01*
X254901977Y-75714430D01*
X254925651Y-75711202D01*
X254931790Y-75684617D01*
X254925235Y-75679265D01*
X254872165Y-75684617D01*
X254865169Y-75698068D01*
X254616402Y-75698068D01*
X254633667Y-75662171D01*
X254628634Y-75647096D01*
X254585334Y-75646550D01*
X254525190Y-75683402D01*
X254482014Y-75740246D01*
X254474952Y-75786846D01*
X254374408Y-75786846D01*
X254397311Y-75702317D01*
X254498495Y-75565907D01*
X254514162Y-75546957D01*
X254906890Y-75546957D01*
X254946696Y-75568385D01*
X254979423Y-75585238D01*
X255075999Y-75649080D01*
X255093362Y-75662171D01*
X255123133Y-75684617D01*
X255192646Y-75737028D01*
X255314651Y-75829934D01*
X255482170Y-75950746D01*
X255651143Y-76067233D01*
X255739143Y-76129488D01*
X255902202Y-76272109D01*
X255922102Y-76300422D01*
X255990783Y-76398141D01*
X255993650Y-76404890D01*
X256053523Y-76517031D01*
X256101665Y-76576408D01*
X256113624Y-76591157D01*
X256134381Y-76605762D01*
X256233419Y-76651434D01*
X256334473Y-76674108D01*
X256397451Y-76663556D01*
X256410900Y-76647512D01*
X256414690Y-76589459D01*
X256346379Y-76564077D01*
X256299676Y-76554702D01*
X256320525Y-76513910D01*
X256340789Y-76485091D01*
X256348779Y-76406637D01*
X256343863Y-76381477D01*
X256372680Y-76321218D01*
X256386639Y-76309923D01*
X256399118Y-76256547D01*
X256361226Y-76168521D01*
X256268061Y-76036945D01*
X256150797Y-75896214D01*
X256299209Y-75896214D01*
X256310604Y-75938021D01*
X256319791Y-75951259D01*
X256360601Y-75982739D01*
X256366718Y-75979828D01*
X256355322Y-75938021D01*
X256346135Y-75924784D01*
X256305326Y-75893303D01*
X256299209Y-75896214D01*
X256150797Y-75896214D01*
X256114720Y-75852918D01*
X256066307Y-75799530D01*
X256427131Y-75799530D01*
X256457479Y-75905844D01*
X256461186Y-75916270D01*
X256479753Y-75979828D01*
X256497081Y-76039144D01*
X256511836Y-76131249D01*
X256519020Y-76179296D01*
X256560759Y-76200325D01*
X256645550Y-76156144D01*
X256780018Y-76044613D01*
X256818743Y-76007883D01*
X256921809Y-75881836D01*
X256959020Y-75779215D01*
X256970654Y-75672095D01*
X257004220Y-75560435D01*
X257048381Y-75483224D01*
X257091626Y-75467522D01*
X257114419Y-75525017D01*
X257108479Y-75626727D01*
X257100634Y-75672982D01*
X257107429Y-75741474D01*
X257159510Y-75759148D01*
X257178273Y-75760141D01*
X257217326Y-75789386D01*
X257207657Y-75876161D01*
X257182805Y-75981342D01*
X257152228Y-76123478D01*
X257087188Y-76262356D01*
X256941190Y-76389334D01*
X256726517Y-76482594D01*
X256617017Y-76522531D01*
X256572127Y-76567452D01*
X256573435Y-76589459D01*
X256576222Y-76636348D01*
X256582183Y-76705561D01*
X256556719Y-76765208D01*
X256539197Y-76781180D01*
X256527304Y-76814304D01*
X256511836Y-76857385D01*
X256513681Y-76875969D01*
X256540501Y-76907395D01*
X256610399Y-76913656D01*
X256737547Y-76894490D01*
X256936116Y-76849641D01*
X256974975Y-76839928D01*
X257136759Y-76785445D01*
X257263131Y-76705678D01*
X257270740Y-76698232D01*
X257509494Y-76698232D01*
X257542177Y-76674769D01*
X257607435Y-76608796D01*
X257649613Y-76546414D01*
X257638298Y-76519359D01*
X257597951Y-76537890D01*
X257540358Y-76608796D01*
X257514006Y-76665192D01*
X257509494Y-76698232D01*
X257270740Y-76698232D01*
X257395992Y-76575663D01*
X257588103Y-76366414D01*
X257452435Y-76085140D01*
X257385777Y-75946939D01*
X257278684Y-75724897D01*
X257181906Y-75524234D01*
X257141792Y-75445548D01*
X257040649Y-75272563D01*
X256928392Y-75105922D01*
X256816299Y-74959781D01*
X256715648Y-74848298D01*
X256637716Y-74785630D01*
X256593782Y-74785935D01*
X256556980Y-74871382D01*
X256574477Y-74929581D01*
X256650522Y-74930421D01*
X256700188Y-74918481D01*
X256729687Y-74940496D01*
X256719993Y-75028024D01*
X256714337Y-75058622D01*
X256690721Y-75200295D01*
X256667294Y-75356683D01*
X256620144Y-75528463D01*
X256521106Y-75656718D01*
X256444643Y-75731045D01*
X256427131Y-75799530D01*
X256066307Y-75799530D01*
X256041300Y-75771954D01*
X255849184Y-75594305D01*
X255671625Y-75478343D01*
X255518357Y-75429504D01*
X255399116Y-75453227D01*
X255316694Y-75485106D01*
X255242243Y-75450168D01*
X255233639Y-75443217D01*
X255169190Y-75417538D01*
X255101262Y-75464038D01*
X255045877Y-75506116D01*
X254954681Y-75539087D01*
X254953689Y-75539134D01*
X254906890Y-75546957D01*
X254514162Y-75546957D01*
X254536986Y-75519351D01*
X254593996Y-75433215D01*
X254603918Y-75386558D01*
X254596247Y-75365478D01*
X254621996Y-75301866D01*
X254629391Y-75291742D01*
X254634020Y-75280370D01*
X254967410Y-75280370D01*
X254979577Y-75301308D01*
X255006320Y-75282153D01*
X255010773Y-75267246D01*
X255572752Y-75267246D01*
X255581284Y-75288617D01*
X255642469Y-75311965D01*
X255674410Y-75305530D01*
X255684548Y-75267246D01*
X255675395Y-75255034D01*
X255614831Y-75222528D01*
X255604848Y-75223808D01*
X255572752Y-75267246D01*
X255010773Y-75267246D01*
X255019079Y-75239439D01*
X255028697Y-75128978D01*
X255030014Y-74980304D01*
X255023895Y-74708268D01*
X254990387Y-74998937D01*
X254983497Y-75059462D01*
X254968992Y-75204651D01*
X254967410Y-75280370D01*
X254634020Y-75280370D01*
X254672050Y-75186953D01*
X254706182Y-75010163D01*
X254732633Y-74755626D01*
X254752250Y-74417599D01*
X254757038Y-74306712D01*
X254862446Y-74306712D01*
X254870499Y-74429393D01*
X254878375Y-74450618D01*
X254886346Y-74411853D01*
X254889187Y-74305803D01*
X254887176Y-74223101D01*
X254885022Y-74208315D01*
X255090966Y-74208315D01*
X255093357Y-74305803D01*
X255095463Y-74391632D01*
X255116435Y-74658118D01*
X255150832Y-74980304D01*
X255154015Y-75010116D01*
X255158018Y-75040718D01*
X255194981Y-75173844D01*
X255253813Y-75220300D01*
X255334088Y-75180021D01*
X255377669Y-75125343D01*
X255753369Y-75125343D01*
X255775055Y-75154042D01*
X255851862Y-75223143D01*
X255907916Y-75267246D01*
X255964751Y-75311965D01*
X256057565Y-75380568D01*
X256151990Y-75448520D01*
X256197778Y-75478931D01*
X256242465Y-75478334D01*
X256307783Y-75415636D01*
X256365502Y-75297606D01*
X256406686Y-75144268D01*
X256422400Y-74975643D01*
X256439599Y-74860713D01*
X256489656Y-74743941D01*
X256490321Y-74742991D01*
X256528408Y-74675150D01*
X256509353Y-74630664D01*
X256420735Y-74579985D01*
X256411297Y-74575237D01*
X256273783Y-74500979D01*
X256133427Y-74418647D01*
X256126862Y-74414617D01*
X256019476Y-74362921D01*
X255959282Y-74374829D01*
X255939925Y-74457439D01*
X255955048Y-74617850D01*
X255955663Y-74621976D01*
X255956454Y-74631695D01*
X255966732Y-74758041D01*
X255941488Y-74854460D01*
X255918067Y-74887141D01*
X255868332Y-74956537D01*
X255843392Y-74986923D01*
X255778524Y-75075171D01*
X255753369Y-75125343D01*
X255377669Y-75125343D01*
X255435376Y-75052942D01*
X255472355Y-74990361D01*
X255513177Y-74887141D01*
X255662189Y-74887141D01*
X255684548Y-74909500D01*
X255706907Y-74887141D01*
X255684548Y-74864782D01*
X255662189Y-74887141D01*
X255513177Y-74887141D01*
X255519399Y-74871407D01*
X255549599Y-74717231D01*
X255562777Y-74574113D01*
X255751625Y-74574113D01*
X255756505Y-74604949D01*
X255794940Y-74641190D01*
X255813444Y-74631695D01*
X255812515Y-74574113D01*
X255798035Y-74542003D01*
X255769200Y-74507035D01*
X255761193Y-74514449D01*
X255751625Y-74574113D01*
X255562777Y-74574113D01*
X255569531Y-74500765D01*
X255586695Y-74241514D01*
X255712243Y-74241514D01*
X255714473Y-74329556D01*
X255729266Y-74428066D01*
X255813610Y-74334328D01*
X255858265Y-74281441D01*
X255870494Y-74239193D01*
X255822861Y-74211774D01*
X255780129Y-74200296D01*
X255723724Y-74207002D01*
X255712243Y-74241514D01*
X255586695Y-74241514D01*
X255595111Y-74114389D01*
X255457781Y-74064761D01*
X255289186Y-74020360D01*
X255165772Y-74031849D01*
X255102802Y-74105856D01*
X255090966Y-74208315D01*
X254885022Y-74208315D01*
X254880134Y-74174769D01*
X254869888Y-74205801D01*
X254862446Y-74306712D01*
X254757038Y-74306712D01*
X254770795Y-73988116D01*
X254869370Y-73988116D01*
X254870063Y-74003382D01*
X254928063Y-74011603D01*
X254972019Y-74004442D01*
X254955080Y-73984586D01*
X254929221Y-73977441D01*
X254869370Y-73988116D01*
X254770795Y-73988116D01*
X254772525Y-73948056D01*
X254573753Y-73936805D01*
X254523903Y-73934941D01*
X254402859Y-73947092D01*
X254350088Y-73990426D01*
X254344626Y-74028453D01*
X254389994Y-74030431D01*
X254422253Y-74024027D01*
X254438942Y-74037493D01*
X254454794Y-74050283D01*
X254446152Y-74075179D01*
X254385628Y-74121543D01*
X254367194Y-74131745D01*
X254343356Y-74170265D01*
X254332920Y-74247889D01*
X254334493Y-74381234D01*
X254346686Y-74586920D01*
X254353286Y-74708268D01*
X254354712Y-74734488D01*
X254352074Y-74961462D01*
X254322030Y-75128984D01*
X254260253Y-75255161D01*
X254162415Y-75358102D01*
X254140994Y-75377940D01*
X254068429Y-75482374D01*
X254029786Y-75597010D01*
X254039145Y-75684557D01*
X254041495Y-75688730D01*
X254065354Y-75772382D01*
X254079885Y-75893216D01*
X254080406Y-75902388D01*
X254090944Y-76026959D01*
X254103929Y-76114239D01*
X254101795Y-76149141D01*
X254047689Y-76194515D01*
X254042317Y-76195491D01*
X253996955Y-76177943D01*
X253958954Y-76100921D01*
X253920636Y-75949621D01*
X253901450Y-75847298D01*
X253872624Y-75639224D01*
X253858199Y-75455262D01*
X253850885Y-75339800D01*
X253830099Y-75257124D01*
X253793506Y-75243696D01*
X253760059Y-75244995D01*
X253709026Y-75195666D01*
X253704834Y-75185585D01*
X253671786Y-75153387D01*
X253643612Y-75187027D01*
X253628997Y-75265740D01*
X253636628Y-75368759D01*
X253639489Y-75471828D01*
X253573546Y-75616815D01*
X253494776Y-75733422D01*
X253413769Y-75870944D01*
X253338564Y-75991181D01*
X253230048Y-76121561D01*
X253122238Y-76215179D01*
X253035991Y-76251049D01*
X253004375Y-76244971D01*
X253009673Y-76208874D01*
X253077879Y-76128074D01*
X253163374Y-76012196D01*
X253263127Y-75838447D01*
X253360751Y-75638676D01*
X253441614Y-75442878D01*
X253491084Y-75281049D01*
X253499025Y-75157080D01*
X253473848Y-75048992D01*
X253466333Y-75031445D01*
X254206300Y-75031445D01*
X254207558Y-75078967D01*
X254211605Y-75081406D01*
X254232850Y-75047440D01*
X254252542Y-74956141D01*
X254266226Y-74834190D01*
X254269447Y-74708268D01*
X254266481Y-74640983D01*
X254259871Y-74612489D01*
X254248351Y-74663085D01*
X254229734Y-74797704D01*
X254215428Y-74921014D01*
X254206300Y-75031445D01*
X253466333Y-75031445D01*
X253451901Y-74997745D01*
X253462676Y-74944164D01*
X253541689Y-74939064D01*
X253693223Y-74981119D01*
X253717103Y-74989079D01*
X253855573Y-75020030D01*
X253930035Y-75004963D01*
X253930340Y-75004656D01*
X253966878Y-74931662D01*
X254001664Y-74801099D01*
X254032397Y-74633710D01*
X254056778Y-74450241D01*
X254072505Y-74271432D01*
X254077278Y-74118030D01*
X254070146Y-74027827D01*
X254193024Y-74027827D01*
X254201870Y-74116601D01*
X254203652Y-74120588D01*
X254217651Y-74113864D01*
X254222485Y-74037493D01*
X254222190Y-74023606D01*
X254214448Y-73964210D01*
X254200213Y-73982446D01*
X254193024Y-74027827D01*
X254070146Y-74027827D01*
X254068798Y-74010776D01*
X254044763Y-73970415D01*
X254037608Y-73971201D01*
X254007611Y-74012355D01*
X253990882Y-74037338D01*
X253917950Y-74048047D01*
X253816293Y-74029383D01*
X253718172Y-73984456D01*
X253615229Y-73943565D01*
X253483400Y-73925697D01*
X253467649Y-73925586D01*
X253377681Y-73913932D01*
X253369253Y-73903338D01*
X254007611Y-73903338D01*
X254029970Y-73925697D01*
X254052329Y-73903338D01*
X254029970Y-73880979D01*
X254007611Y-73903338D01*
X253369253Y-73903338D01*
X253344909Y-73872739D01*
X253367207Y-73787321D01*
X253442446Y-73642991D01*
X253493853Y-73541796D01*
X253525167Y-73436859D01*
X253534255Y-73308559D01*
X253526401Y-73124241D01*
X253520110Y-73031268D01*
X253508548Y-72904505D01*
X253494554Y-72848673D01*
X253473397Y-72851485D01*
X253440348Y-72900649D01*
X253375950Y-73008972D01*
X253401461Y-72897176D01*
X253421589Y-72812221D01*
X253452857Y-72688639D01*
X253454811Y-72613995D01*
X253385430Y-72498586D01*
X253347554Y-72459229D01*
X253299123Y-72390044D01*
X253326156Y-72364844D01*
X253431082Y-72377169D01*
X253524206Y-72390599D01*
X253554033Y-72365394D01*
X253539563Y-72282143D01*
X253511627Y-72206515D01*
X253436771Y-72087332D01*
X253345886Y-71995109D01*
X253263071Y-71958092D01*
X253256730Y-71958313D01*
X253226654Y-71985335D01*
X253247400Y-72069887D01*
X253266269Y-72146348D01*
X253249761Y-72181683D01*
X253242166Y-72179357D01*
X253200592Y-72125286D01*
X253156930Y-72022038D01*
X253148823Y-71999141D01*
X253095927Y-71893747D01*
X253041923Y-71838479D01*
X253015676Y-71821817D01*
X253006980Y-71770268D01*
X253011109Y-71721732D01*
X252982015Y-71631684D01*
X252932493Y-71547871D01*
X252882097Y-71510908D01*
X252855373Y-71544544D01*
X252840358Y-71633884D01*
X252839998Y-71643299D01*
X252834921Y-71709586D01*
X252823590Y-71697919D01*
X252799660Y-71603571D01*
X252780843Y-71532030D01*
X252744877Y-71445085D01*
X252689659Y-71381441D01*
X252603502Y-71337791D01*
X252474721Y-71310831D01*
X252291629Y-71297256D01*
X252042540Y-71293762D01*
X251715768Y-71297043D01*
X251709020Y-71297144D01*
X251446015Y-71299323D01*
X251216156Y-71297983D01*
X251033510Y-71293468D01*
X250912142Y-71286120D01*
X250866120Y-71276284D01*
X250853837Y-71268392D01*
X250772012Y-71250609D01*
X250631343Y-71233511D01*
X250452506Y-71219914D01*
X250390287Y-71216212D01*
X250182870Y-71202008D01*
X249996455Y-71186726D01*
X249865206Y-71173091D01*
X249745008Y-71167856D01*
X249578679Y-71183154D01*
X249420403Y-71217044D01*
X249297307Y-71263362D01*
X249236519Y-71315944D01*
X249203782Y-71351948D01*
X249116362Y-71376754D01*
X249082883Y-71382098D01*
X248974939Y-71429861D01*
X248856611Y-71511053D01*
X248805837Y-71550332D01*
X248717714Y-71600707D01*
X248676591Y-71594077D01*
X248676032Y-71592468D01*
X248637686Y-71567667D01*
X248549841Y-71601250D01*
X248315153Y-71758271D01*
X248131515Y-71947131D01*
X248012798Y-72151475D01*
X247970640Y-72356136D01*
X247977398Y-72441164D01*
X248005253Y-72506496D01*
X248042513Y-72496410D01*
X248075835Y-72404740D01*
X248113179Y-72286346D01*
X248180156Y-72152958D01*
X248231096Y-72088960D01*
X248340993Y-71983370D01*
X248468304Y-71883251D01*
X248586857Y-71808551D01*
X248670483Y-71779218D01*
X248693811Y-71780842D01*
X248730805Y-71807397D01*
X248702767Y-71849934D01*
X248619876Y-71886812D01*
X248511312Y-71932803D01*
X248356986Y-72050059D01*
X248226672Y-72202246D01*
X248149703Y-72359852D01*
X248133074Y-72428163D01*
X248124653Y-72557084D01*
X248173025Y-72647928D01*
X248289331Y-72730251D01*
X248369812Y-72783399D01*
X248408800Y-72849649D01*
X248400097Y-72953842D01*
X248398252Y-72964254D01*
X248377813Y-73079597D01*
X248363025Y-73178304D01*
X248361596Y-73187845D01*
X248341897Y-73239745D01*
X248278550Y-73277956D01*
X248214170Y-73293033D01*
X248116749Y-73367562D01*
X248037762Y-73482050D01*
X247988970Y-73611278D01*
X247982135Y-73730024D01*
X248029016Y-73813069D01*
X248081918Y-73865477D01*
X248098872Y-73942894D01*
X248037718Y-73998962D01*
X247993366Y-74027971D01*
X247977089Y-74111289D01*
X248036816Y-74238011D01*
X248172947Y-74409348D01*
X248191607Y-74430158D01*
X248291645Y-74548167D01*
X248342905Y-74633446D01*
X248357150Y-74713643D01*
X248346144Y-74816407D01*
X248337608Y-74957635D01*
X248372904Y-75065772D01*
X248389521Y-75091359D01*
X248391146Y-75174083D01*
X248327295Y-75240208D01*
X248215532Y-75267246D01*
X248210061Y-75267344D01*
X248102339Y-75312483D01*
X248017058Y-75428479D01*
X247962554Y-75598597D01*
X247947161Y-75806101D01*
X247957261Y-75927965D01*
X248006650Y-76112476D01*
X248105881Y-76283280D01*
X248265679Y-76456835D01*
X248496769Y-76649601D01*
X248499113Y-76651397D01*
X248711873Y-76769957D01*
X248945050Y-76827555D01*
X249173122Y-76821306D01*
X249370566Y-76748327D01*
X249421363Y-76712620D01*
X249513785Y-76618826D01*
X249562251Y-76526827D01*
X249551624Y-76460671D01*
X249541045Y-76457843D01*
X249467742Y-76469316D01*
X249353480Y-76503191D01*
X249238730Y-76536103D01*
X249083136Y-76563486D01*
X248942202Y-76572113D01*
X248834212Y-76562421D01*
X248777454Y-76534841D01*
X248790212Y-76489811D01*
X248821764Y-76473891D01*
X248899532Y-76459403D01*
X249036486Y-76446910D01*
X249247745Y-76434588D01*
X249320830Y-76417684D01*
X249426618Y-76360530D01*
X249474476Y-76321174D01*
X249482169Y-76302418D01*
X249412806Y-76318825D01*
X249348138Y-76326472D01*
X249312189Y-76298781D01*
X249339962Y-76267380D01*
X249423985Y-76251049D01*
X249497512Y-76239947D01*
X249535781Y-76206331D01*
X249519010Y-76180340D01*
X249446344Y-76161613D01*
X249394362Y-76153227D01*
X249356908Y-76116894D01*
X249365784Y-76087520D01*
X249413904Y-76066985D01*
X249526474Y-76053794D01*
X249571082Y-76036462D01*
X249638925Y-75960438D01*
X249669251Y-75861844D01*
X249668967Y-75855996D01*
X249635939Y-75838909D01*
X249543312Y-75880698D01*
X249504295Y-75899970D01*
X249392049Y-75926040D01*
X249303446Y-75910089D01*
X249267471Y-75854836D01*
X249293727Y-75821384D01*
X249375820Y-75786368D01*
X249394303Y-75780726D01*
X249506717Y-75724616D01*
X249624950Y-75640715D01*
X249680629Y-75590075D01*
X249739251Y-75504327D01*
X249739110Y-75416193D01*
X249733609Y-75386517D01*
X249744311Y-75267426D01*
X249795810Y-75172100D01*
X249872742Y-75133092D01*
X249880492Y-75133724D01*
X249926630Y-75176659D01*
X249937592Y-75256270D01*
X249906035Y-75329269D01*
X249903939Y-75331718D01*
X249886664Y-75399986D01*
X249886714Y-75511087D01*
X249887625Y-75526995D01*
X249862395Y-75692551D01*
X249783543Y-75889728D01*
X249741097Y-75974297D01*
X249704077Y-76070183D01*
X249720376Y-76124238D01*
X249801534Y-76155830D01*
X249959095Y-76184328D01*
X249977874Y-76187816D01*
X250130038Y-76234601D01*
X250257461Y-76300173D01*
X250266853Y-76307180D01*
X250369644Y-76424955D01*
X250452729Y-76586406D01*
X250501566Y-76755927D01*
X250501610Y-76897910D01*
X250494747Y-76963258D01*
X250525397Y-77104702D01*
X250600232Y-77230050D01*
X250701262Y-77302819D01*
X250802344Y-77308133D01*
X250925344Y-77278204D01*
X251003329Y-77236761D01*
X251046325Y-77169652D01*
X251056203Y-77049149D01*
X251061132Y-76975359D01*
X251101086Y-76869681D01*
X251173778Y-76838887D01*
X251270280Y-76889629D01*
X251319906Y-76923149D01*
X251459114Y-76983338D01*
X251634689Y-77034818D01*
X251812911Y-77066591D01*
X251885955Y-77087839D01*
X251941286Y-77139252D01*
X251943828Y-77157700D01*
X251916470Y-77179522D01*
X251832627Y-77182577D01*
X251676478Y-77168620D01*
X251539915Y-77148882D01*
X251379337Y-77114455D01*
X251268615Y-77077593D01*
X251185399Y-77042454D01*
X251151240Y-77059428D01*
X251145639Y-77145596D01*
X251134775Y-77214380D01*
X251058014Y-77336907D01*
X250927622Y-77424793D01*
X250767298Y-77458443D01*
X250658842Y-77443067D01*
X250527667Y-77358265D01*
X250438255Y-77197281D01*
X250388838Y-76957779D01*
X250377948Y-76870035D01*
X250327491Y-76647097D01*
X250243213Y-76490022D01*
X250113440Y-76382395D01*
X249926494Y-76307802D01*
X249817368Y-76281873D01*
X249754373Y-76290728D01*
X249714082Y-76341556D01*
X249688254Y-76410501D01*
X249669936Y-76532748D01*
X249669544Y-76546167D01*
X249620898Y-76692014D01*
X249502822Y-76830918D01*
X249332333Y-76942236D01*
X249215470Y-76986361D01*
X248960074Y-77015271D01*
X248694197Y-76962689D01*
X248428096Y-76831427D01*
X248172027Y-76624296D01*
X248162315Y-76614687D01*
X247993796Y-76428563D01*
X247888970Y-76257776D01*
X247834894Y-76073919D01*
X247818628Y-75848584D01*
X247820718Y-75749762D01*
X247860401Y-75505303D01*
X247953559Y-75323122D01*
X248104566Y-75193191D01*
X248144587Y-75167613D01*
X248219436Y-75084898D01*
X248238950Y-74964715D01*
X248236288Y-74909976D01*
X248202986Y-74766753D01*
X248124631Y-74600291D01*
X247992489Y-74390233D01*
X247986677Y-74381524D01*
X247910874Y-74218022D01*
X247883003Y-74022285D01*
X247902696Y-73779658D01*
X247969588Y-73475490D01*
X248024709Y-73235203D01*
X248104795Y-73235203D01*
X248105230Y-73241454D01*
X248131116Y-73251302D01*
X248176143Y-73203295D01*
X248187023Y-73178304D01*
X248156423Y-73183575D01*
X248136558Y-73197379D01*
X248104795Y-73235203D01*
X248024709Y-73235203D01*
X248027061Y-73224951D01*
X248055045Y-72976165D01*
X248053914Y-72964254D01*
X248238950Y-72964254D01*
X248261309Y-72986613D01*
X248283668Y-72964254D01*
X248261309Y-72941894D01*
X248238950Y-72964254D01*
X248053914Y-72964254D01*
X248036287Y-72778680D01*
X247970807Y-72618767D01*
X247960732Y-72601609D01*
X247904429Y-72476842D01*
X247881371Y-72372641D01*
X247888192Y-72299238D01*
X247945305Y-72115616D01*
X248044364Y-71934260D01*
X248165874Y-71794763D01*
X248193870Y-71771323D01*
X248256560Y-71716487D01*
X248252281Y-71711387D01*
X248183052Y-71750858D01*
X248146229Y-71772848D01*
X247983849Y-71875169D01*
X247877697Y-71957111D01*
X247808062Y-72036125D01*
X247755235Y-72129663D01*
X247741879Y-72155934D01*
X247674486Y-72256231D01*
X247612894Y-72307022D01*
X247609717Y-72307959D01*
X247570004Y-72311016D01*
X247601714Y-72267766D01*
X247628399Y-72230387D01*
X247657612Y-72134052D01*
X247669648Y-72070213D01*
X247758756Y-71935781D01*
X247933497Y-71785455D01*
X248192488Y-71620175D01*
X248534346Y-71440885D01*
X248957687Y-71248526D01*
X249009705Y-71226398D01*
X249317828Y-71103875D01*
X249560430Y-71025592D01*
X249746992Y-70989605D01*
X249886997Y-70993968D01*
X249989925Y-71036737D01*
X250061483Y-71076938D01*
X250189684Y-71108021D01*
X250295982Y-71088276D01*
X250300560Y-71082779D01*
X250576374Y-71082779D01*
X250583546Y-71100197D01*
X250640532Y-71093846D01*
X250765534Y-71063725D01*
X250899689Y-71029589D01*
X250756993Y-71024298D01*
X250752758Y-71024161D01*
X250646437Y-71034086D01*
X250586660Y-71063725D01*
X250576374Y-71082779D01*
X250300560Y-71082779D01*
X250353668Y-71019007D01*
X250386795Y-70961719D01*
X250488253Y-70929570D01*
X250565185Y-70915064D01*
X250567458Y-70913209D01*
X250706366Y-70913209D01*
X250743175Y-70929570D01*
X250766848Y-70926343D01*
X250772987Y-70899758D01*
X250766432Y-70894406D01*
X250713362Y-70899758D01*
X250706366Y-70913209D01*
X250567458Y-70913209D01*
X250623177Y-70867742D01*
X250635018Y-70855143D01*
X250852109Y-70855143D01*
X250893805Y-70873274D01*
X251004459Y-70899758D01*
X251019563Y-70903373D01*
X251098715Y-70936815D01*
X251153718Y-71024315D01*
X251154514Y-71029589D01*
X251167998Y-71118911D01*
X251251679Y-71025906D01*
X251292981Y-70966957D01*
X251311808Y-70875429D01*
X251271098Y-70816212D01*
X251178635Y-70812091D01*
X251079697Y-70830733D01*
X250944407Y-70843054D01*
X250890410Y-70845718D01*
X250852109Y-70855143D01*
X250635018Y-70855143D01*
X250638430Y-70851513D01*
X250723349Y-70810623D01*
X250858665Y-70765822D01*
X251018617Y-70723550D01*
X251177446Y-70690249D01*
X251309392Y-70672359D01*
X251388696Y-70676321D01*
X251439402Y-70714304D01*
X251479814Y-70817301D01*
X251476531Y-70875429D01*
X251472507Y-70946697D01*
G37*
%TD*%
M02*
